<svg width="203" height="70" viewBox="0 0 203 70" fill="none" xmlns="http://www.w3.org/2000/svg">
<path d="M160.491 22.943C158.802 22.7871 154.643 23.6706 152.199 28.4256V24.8918H148.586V28.7634H144.973H142.529C141.931 28.7634 140.735 28.2177 140.735 26.8406V16.7849H137.096L137.2 30.1925C137.226 32.0374 135.536 33.5444 133.483 33.5444C131.429 33.5444 129.792 32.0634 129.792 30.2185C129.792 28.3736 129.766 26.7107 129.74 25.4635H126.152C126.152 26.8666 126.256 29.5169 126.256 30.1925C126.256 33.6744 129.48 36.5845 133.509 36.5845C137.538 36.5845 140.189 34.246 140.683 31.1799C141.125 31.4657 141.671 31.6216 142.321 31.6216H166.366C166.366 28.0618 165.846 23.4107 160.439 22.969M154.877 28.7634C156.67 26.3729 158.62 25.6713 159.816 25.6713C161.973 25.6713 162.675 27.3863 162.753 28.7634H154.877Z" fill="black"/>
<path d="M169.927 16.7849L170.057 31.6216H173.671L173.541 16.7849H169.927Z" fill="black"/>
<path d="M197.612 18.4998H194.519V21.1761H197.612V18.4998Z" fill="black"/>
<path d="M201.979 18.4998H198.886V21.1761H201.979V18.4998Z" fill="black"/>
<path d="M202.291 22.9431H198.678C198.704 24.5021 198.729 26.0612 198.729 27.6722C198.729 29.2832 198.184 28.7635 197.43 28.7635H186.98C186.98 27.1005 186.98 26.6328 186.98 26.5549C186.72 23.151 182.639 22.9171 182.067 22.9171C180.117 22.9171 176.972 23.9045 176.972 27.3604C176.972 30.8162 178.714 31.5957 181.495 31.5957H182.769C181.677 32.9988 179.129 33.9083 177.258 34.0382C178.402 35.1035 178.636 35.4413 179.701 36.4807C183.237 36.2208 185.68 34.2721 186.616 31.5957H198.444C200.991 31.5957 202.343 30.3485 202.343 28.3997C202.343 26.4509 202.343 25.5155 202.291 22.9171M183.367 28.7635H181.911C180.819 28.7635 180.325 27.932 180.325 27.0745C180.325 26.2171 180.923 25.2297 182.015 25.2297C183.107 25.2297 183.367 26.0612 183.367 26.8926V28.7635Z" fill="black"/>
<mask id="mask0_2754_114613" style="mask-type:luminance" maskUnits="userSpaceOnUse" x="88" y="0" width="28" height="25">
<path d="M100.938 0.649596C94.4388 6.41801 88.824 15.8502 88.824 15.8502C99.2998 20.2674 104.473 24.5547 104.473 24.5547C108.892 23.3855 115.547 17.0194 115.547 17.0194C112.739 10.5235 106.24 3.58577 104.187 1.22124C103.355 0.285823 102.679 0 102.159 0C101.379 0 100.938 0.649596 100.938 0.649596Z" fill="white"/>
</mask>
<g mask="url(#mask0_2754_114613)">
<path d="M103.671 -13.1987L76.6611 11.0259L100.792 37.9086L127.802 13.684L103.671 -13.1987Z" fill="url(#paint0_linear_2754_114613)"/>
</g>
<mask id="mask1_2754_114613" style="mask-type:luminance" maskUnits="userSpaceOnUse" x="99" y="16" width="24" height="24">
<path d="M115.547 17.019C109.49 22.3197 100.34 26.4771 100.34 26.4771C99.0141 31.0502 101.51 39.469 101.51 39.469C105.487 40.3525 117.912 38.1438 120.694 37.3903C123.501 36.6628 122.903 35.3116 122.903 35.3116C120.876 25.3078 116.041 16.993 115.547 16.993" fill="white"/>
</mask>
<g mask="url(#mask1_2754_114613)">
<path d="M120.51 8.98644L91.3357 19.9479L102.055 48.4538L131.23 37.4923L120.51 8.98644Z" fill="url(#paint1_linear_2754_114613)"/>
</g>
<mask id="mask2_2754_114613" style="mask-type:luminance" maskUnits="userSpaceOnUse" x="80" y="15" width="22" height="25">
<path d="M81.2856 33.1026C81.2856 33.1026 80.1158 35.6231 82.0134 36.5065C82.0134 36.5065 88.5121 40.638 101.509 39.4687C101.509 39.4687 99.1439 28.1137 101.068 22.1894C101.068 22.1894 93.6851 16.8627 88.824 15.8494C88.824 15.8494 82.0394 28.6854 81.2856 33.1286" fill="white"/>
</mask>
<g mask="url(#mask2_2754_114613)">
<path d="M81.5889 10.4445L73.8396 38.9546L100.054 46.0738L107.803 17.5637L81.5889 10.4445Z" fill="url(#paint2_linear_2754_114613)"/>
</g>
<path d="M2.85933 68.4932H2.15747V62.8287H0.129883V62.1791H4.88692V62.8287H2.85933V68.4932Z" fill="black"/>
<path d="M6.60262 68.4928H5.92676V61.8929H6.60262V64.6212C6.88856 64.1275 7.35647 63.7118 8.13631 63.7118C8.91615 63.7118 9.85196 64.4653 9.85196 65.5826V68.4928H9.1761V65.7645C9.1761 64.907 8.73419 64.3613 7.92835 64.3613C7.12252 64.3613 6.57663 64.959 6.57663 65.8164V68.4928H6.60262Z" fill="black"/>
<path d="M13.2313 67.9992C13.8551 67.9992 14.2711 67.7394 14.635 67.3496L15.0509 67.7394C14.609 68.259 14.0631 68.6228 13.2053 68.6228C11.9835 68.6228 10.9697 67.6354 10.9697 66.1803C10.9697 64.7252 11.8795 63.7379 13.1273 63.7379C14.375 63.7379 15.2069 64.8292 15.2069 66.2063C15.2069 67.5835 15.2069 66.3362 15.2069 66.4142H11.6716C11.7756 67.4276 12.4514 67.9992 13.2573 67.9992M14.531 65.8945C14.453 65.0371 13.9851 64.3095 13.1013 64.3095C12.2175 64.3095 11.7236 64.9851 11.6456 65.8945H14.531Z" fill="black"/>
<path d="M23.5252 62.1791H24.201V68.4932H23.6551L19.7559 63.3224V68.4932H19.0801V62.1791H19.7299L23.5252 67.2459V62.1791Z" fill="black"/>
<path d="M26.0466 64.7253L25.8387 64.1536C26.3326 63.9198 26.8265 63.7639 27.4763 63.7639C28.6981 63.7639 29.3739 64.4135 29.3739 65.6347V68.4929H28.7241V67.7914C28.4121 68.2071 27.8922 68.5969 27.1124 68.5969C26.3326 68.5969 25.4487 68.1032 25.4487 67.1418C25.4487 66.1804 26.2286 65.6347 27.3723 65.6347C28.5161 65.6347 28.3601 65.7126 28.7501 65.8426V65.6867C28.7501 64.8552 28.2562 64.4135 27.4243 64.4135C26.5925 64.4135 26.4885 64.5694 26.0726 64.7512M26.1246 67.1158C26.1246 67.7134 26.6445 68.0512 27.2424 68.0512C27.8402 68.0512 28.7501 67.5315 28.7501 66.778V66.3363C28.4121 66.2323 27.9702 66.1284 27.4243 66.1284C26.5925 66.1284 26.1246 66.5181 26.1246 67.1158Z" fill="black"/>
<path d="M31.6616 67.1683C31.6616 67.7399 31.9735 67.9478 32.4154 67.9478C32.8573 67.9478 32.8313 67.8958 33.0653 67.7919V68.3895C32.8313 68.5194 32.5714 68.5974 32.2594 68.5974C31.5316 68.5974 30.9857 68.2336 30.9857 67.2722V64.466H30.3618V63.8423H30.9857V62.4392H31.6616V63.8423H33.0913V64.466H31.6616V67.1943V67.1683Z" fill="black"/>
<path d="M34.2612 62.049H35.0151V62.8285H34.2612V62.049ZM34.3132 63.8159H34.9891V68.493H34.3132V63.8159Z" fill="black"/>
<path d="M38.5762 68.5968C37.2245 68.5968 36.2627 67.5055 36.2627 66.1543C36.2627 64.8032 37.2505 63.7119 38.6022 63.7119C39.9539 63.7119 40.9417 64.8032 40.9417 66.1543C40.9417 67.5055 39.9539 68.5968 38.6022 68.5968M38.5762 64.3355C37.6144 64.3355 36.9386 65.141 36.9386 66.1543C36.9386 67.1677 37.6404 67.9732 38.6022 67.9732C39.564 67.9732 40.2399 67.1677 40.2399 66.1543C40.2399 65.141 39.512 64.3095 38.5762 64.3095" fill="black"/>
<path d="M42.7874 68.4929H42.1116V63.8158H42.7874V64.6213C43.0734 64.1276 43.5413 63.7119 44.3211 63.7119C45.101 63.7119 46.0368 64.4654 46.0368 65.5827V68.4929H45.3609V65.7646C45.3609 64.9071 44.919 64.3614 44.1132 64.3614C43.3073 64.3614 42.7614 64.9591 42.7614 65.8165V68.4929H42.7874Z" fill="black"/>
<path d="M47.7004 64.7253L47.4925 64.1536C47.9864 63.9198 48.4803 63.7639 49.1301 63.7639C50.3519 63.7639 51.0277 64.4135 51.0277 65.6347V68.4929H50.3779V67.7914C50.0659 68.2071 49.546 68.5969 48.7662 68.5969C47.9864 68.5969 47.1025 68.1032 47.1025 67.1418C47.1025 66.1804 47.8824 65.6347 49.0261 65.6347C50.1699 65.6347 50.0139 65.7126 50.4039 65.8426V65.6867C50.4039 64.8552 49.91 64.4135 49.0781 64.4135C48.2463 64.4135 48.1423 64.5694 47.7264 64.7512M47.7784 67.1158C47.7784 67.7134 48.2983 68.0512 48.8962 68.0512C49.4941 68.0512 50.4039 67.5315 50.4039 66.778V66.3363C50.0659 66.2323 49.624 66.1284 49.0781 66.1284C48.2463 66.1284 47.7784 66.5181 47.7784 67.1158Z" fill="black"/>
<path d="M53.1851 61.8929H52.5093V68.4928H53.1851V61.8929Z" fill="black"/>
<path d="M59.6061 64.9851C60.9578 65.2969 61.5817 65.8166 61.5817 66.778C61.5817 67.7394 60.7238 68.5709 59.5281 68.5709C58.3323 68.5709 57.7864 68.2331 57.0586 67.5575L57.4745 67.0378C58.0984 67.6355 58.7223 67.9213 59.5541 67.9213C60.3859 67.9213 60.9058 67.4796 60.9058 66.83C60.9058 66.1804 60.5939 65.8945 59.3201 65.6087C57.9164 65.2969 57.2925 64.8292 57.2925 63.7639C57.2925 62.6985 58.1244 62.0229 59.2681 62.0229C60.4119 62.0229 60.7758 62.2828 61.3997 62.8025L61.0098 63.3481C60.4379 62.8804 59.892 62.6725 59.2681 62.6725C58.6443 62.6725 57.9684 63.1143 57.9684 63.7119C57.9684 64.3095 58.2803 64.6473 59.6061 64.9591" fill="black"/>
<path d="M66.0267 63.8159H66.6766V68.493H66.0267V67.6875C65.7147 68.1812 65.2728 68.5969 64.493 68.5969C63.7132 68.5969 62.7773 67.8434 62.7773 66.7261V63.8159H63.4532V66.5442C63.4532 67.4017 63.8951 67.9473 64.701 67.9473C65.5068 67.9473 66.0527 67.3497 66.0527 66.4923V63.8159H66.0267Z" fill="black"/>
<path d="M70.1596 69.974C69.4058 69.974 68.7299 69.7661 68.132 69.3244L68.444 68.7787C68.9639 69.1685 69.5357 69.3764 70.1596 69.3764C71.1474 69.3764 71.7973 68.8047 71.7973 67.7134V67.1677C71.4074 67.7134 70.8615 68.1551 70.0296 68.1551C69.1978 68.1551 67.9241 67.3236 67.9241 65.9725C67.9241 64.6213 68.9639 63.7639 70.0296 63.7639C71.0954 63.7639 71.4074 64.2056 71.7713 64.6993V63.8678H72.4472V67.7134C72.4472 69.2205 71.5373 70 70.1596 70M70.1336 64.3355C69.2758 64.3355 68.5739 64.9331 68.5739 65.9205C68.5739 66.9079 69.3018 67.5315 70.1336 67.5315C70.9655 67.5315 71.7713 66.9079 71.7713 65.9465C71.7713 64.9851 70.9655 64.3615 70.1336 64.3615" fill="black"/>
<path d="M75.9045 69.974C75.1506 69.974 74.4748 69.7661 73.8769 69.3244L74.1888 68.7787C74.7087 69.1685 75.2806 69.3764 75.9045 69.3764C76.8923 69.3764 77.5422 68.8047 77.5422 67.7134V67.1677C77.1522 67.7134 76.6064 68.1551 75.7745 68.1551C74.9427 68.1551 73.6689 67.3236 73.6689 65.9725C73.6689 64.6213 74.7087 63.7639 75.7745 63.7639C76.8403 63.7639 77.1522 64.2056 77.5162 64.6993V63.8678H78.192V67.7134C78.192 69.2205 77.2822 70 75.9305 70M75.8785 64.3355C75.0207 64.3355 74.3188 64.9331 74.3188 65.9205C74.3188 66.9079 75.0467 67.5315 75.8785 67.5315C76.7103 67.5315 77.5162 66.9079 77.5162 65.9465C77.5162 64.9851 76.7103 64.3615 75.8785 64.3615" fill="black"/>
<path d="M81.6234 67.9992C82.2472 67.9992 82.6631 67.7394 83.0271 67.3496L83.443 67.7394C83.0011 68.259 82.4552 68.6228 81.5974 68.6228C80.3756 68.6228 79.3618 67.6354 79.3618 66.1803C79.3618 64.7252 80.2716 63.7379 81.5194 63.7379C82.7671 63.7379 83.599 64.8292 83.599 66.2063C83.599 67.5835 83.599 66.3362 83.599 66.4142H80.0637C80.1677 67.4276 80.8435 67.9992 81.6494 67.9992M82.9231 65.8945C82.8451 65.0371 82.3772 64.3095 81.4934 64.3095C80.6096 64.3095 80.1157 64.9851 80.0377 65.8945H82.9231Z" fill="black"/>
<path d="M86.2504 68.5969C85.6005 68.5969 84.8987 68.337 84.4048 67.9213L84.7427 67.4276C85.2366 67.8173 85.7565 68.0252 86.3024 68.0252C86.8483 68.0252 87.2382 67.7394 87.2382 67.2717C87.2382 66.778 86.7183 66.5961 86.1204 66.4402C85.4186 66.2323 84.6387 65.9725 84.6387 65.115C84.6387 64.2835 85.2886 63.7639 86.1724 63.7639C87.0563 63.7639 87.3162 63.9717 87.7841 64.2835L87.4722 64.8032C87.0563 64.5174 86.5883 64.3615 86.1464 64.3615C85.7045 64.3615 85.2886 64.6473 85.2886 65.0371C85.2886 65.5048 85.8345 65.6607 86.4324 65.8685C87.1342 66.0764 87.8621 66.3622 87.8621 67.1937C87.8621 68.1032 87.1602 68.6228 86.2764 68.6228" fill="black"/>
<path d="M89.8898 67.1683C89.8898 67.7399 90.2018 67.9478 90.6437 67.9478C91.0856 67.9478 91.0596 67.8958 91.2935 67.7919V68.3895C91.0596 68.5194 90.7996 68.5974 90.4877 68.5974C89.7599 68.5974 89.214 68.2336 89.214 67.2722V64.466H88.5901V63.8423H89.214V62.4392H89.8898V63.8423H91.3195V64.466H89.8898V67.1943V67.1683Z" fill="black"/>
<path d="M92.4893 62.049H93.2431V62.8285H92.4893V62.049ZM92.5413 63.8159H93.2171V68.493H92.5413V63.8159Z" fill="black"/>
<path d="M96.8045 68.5968C95.4528 68.5968 94.491 67.5055 94.491 66.1543C94.491 64.8032 95.4788 63.7119 96.8305 63.7119C98.1822 63.7119 99.17 64.8032 99.17 66.1543C99.17 67.5055 98.1822 68.5968 96.8305 68.5968M96.8045 64.3355C95.8427 64.3355 95.1668 65.141 95.1668 66.1543C95.1668 67.1677 95.8687 67.9732 96.8305 67.9732C97.7923 67.9732 98.4682 67.1677 98.4682 66.1543C98.4682 65.141 97.7403 64.3095 96.8045 64.3095" fill="black"/>
<path d="M101.015 68.4929H100.34V63.8158H101.015V64.6213C101.301 64.1276 101.769 63.7119 102.549 63.7119C103.329 63.7119 104.265 64.4654 104.265 65.5827V68.4929H103.589V65.7646C103.589 64.9071 103.147 64.3614 102.341 64.3614C101.535 64.3614 100.989 64.9591 100.989 65.8165V68.4929H101.015Z" fill="black"/>
<path d="M107.15 68.5969C106.5 68.5969 105.799 68.337 105.305 67.9213L105.643 67.4276C106.137 67.8173 106.656 68.0252 107.202 68.0252C107.748 68.0252 108.138 67.7394 108.138 67.2717C108.138 66.778 107.618 66.5961 107.02 66.4402C106.318 66.2323 105.539 65.9725 105.539 65.115C105.539 64.2835 106.189 63.7639 107.072 63.7639C107.956 63.7639 108.216 63.9717 108.684 64.2835L108.372 64.8032C107.956 64.5174 107.488 64.3615 107.046 64.3615C106.604 64.3615 106.189 64.6473 106.189 65.0371C106.189 65.5048 106.734 65.6607 107.332 65.8685C108.034 66.0764 108.762 66.3622 108.762 67.1937C108.762 68.1032 108.06 68.6228 107.176 68.6228" fill="black"/>
<path d="M117.054 68.6229L116.092 67.6095C115.547 68.2331 114.897 68.5969 114.117 68.5969C113.337 68.5969 112.219 67.8953 112.219 66.83C112.219 65.7647 112.765 65.3749 113.675 64.9851C113.259 64.4915 113.077 64.1017 113.077 63.582C113.077 62.7505 113.727 62.075 114.689 62.075C115.651 62.075 116.17 62.6986 116.17 63.5041C116.17 64.3096 115.625 64.8292 114.741 65.167L116.118 66.6481C116.378 66.2324 116.638 65.7647 116.846 65.245L117.418 65.5048C117.158 66.1025 116.872 66.6481 116.534 67.0898L117.6 68.2071L117.08 68.6229H117.054ZM114.065 65.4269C113.259 65.7387 112.895 66.2584 112.895 66.778C112.895 67.2977 113.415 67.9733 114.169 67.9733C114.923 67.9733 115.235 67.6615 115.677 67.1418L114.065 65.4009V65.4269ZM114.637 62.6466C114.091 62.6466 113.727 63.0364 113.727 63.556C113.727 64.0757 113.883 64.2056 114.325 64.7253C115.105 64.4655 115.495 64.0757 115.495 63.5041C115.495 62.9324 115.131 62.6206 114.637 62.6206" fill="black"/>
<path d="M124.047 68.5969C122.305 68.5969 121.005 67.1678 121.005 65.3229C121.005 63.4781 122.279 62.049 124.073 62.049C125.866 62.049 125.84 62.4647 126.438 63.0623L125.97 63.582C125.45 63.0883 124.879 62.7245 124.073 62.7245C122.721 62.7245 121.733 63.8418 121.733 65.3229C121.733 66.804 122.747 67.9473 124.073 67.9473C125.398 67.9473 125.45 67.6095 126.022 67.0379L126.464 67.5056C125.84 68.1811 125.139 68.6229 124.047 68.6229" fill="black"/>
<path d="M129.506 68.5968C128.154 68.5968 127.192 67.5055 127.192 66.1543C127.192 64.8032 128.18 63.7119 129.532 63.7119C130.883 63.7119 131.871 64.8032 131.871 66.1543C131.871 67.5055 130.883 68.5968 129.532 68.5968M129.506 64.3355C128.544 64.3355 127.868 65.141 127.868 66.1543C127.868 67.1677 128.57 67.9732 129.506 67.9732C130.441 67.9732 131.143 67.1677 131.143 66.1543C131.143 65.141 130.415 64.3095 129.48 64.3095" fill="black"/>
<path d="M138.188 63.7379C139.228 63.7379 139.852 64.4654 139.852 65.6087V68.4929H139.176V65.7646C139.176 64.8552 138.734 64.3615 138.006 64.3615C137.278 64.3615 136.758 64.8811 136.758 65.8166V68.5189H136.108V65.7646C136.108 64.8811 135.666 64.3615 134.965 64.3615C134.263 64.3615 133.717 64.9851 133.717 65.8425V68.5189H133.041V63.8418H133.717V64.6213C134.003 64.1536 134.419 63.7379 135.173 63.7379C135.926 63.7379 136.368 64.1536 136.602 64.6733C136.914 64.1536 137.408 63.7379 138.188 63.7379Z" fill="black"/>
<path d="M143.647 68.5968C142.815 68.5968 142.269 68.1291 141.931 67.6094V69.948H141.255V63.8418H141.931V64.7772C142.295 64.2056 142.815 63.7379 143.647 63.7379C144.479 63.7379 145.778 64.6213 145.778 66.1803C145.778 67.7394 144.713 68.6228 143.647 68.6228M143.543 64.3615C142.711 64.3615 141.931 65.089 141.931 66.1803C141.931 67.2717 142.711 67.9992 143.543 67.9992C144.375 67.9992 145.129 67.3236 145.129 66.1803C145.129 65.037 144.401 64.3615 143.543 64.3615Z" fill="black"/>
<path d="M147.754 61.8929H147.078V68.4928H147.754V61.8929Z" fill="black"/>
<path d="M149.548 64.7253L149.34 64.1536C149.834 63.9198 150.328 63.7639 150.978 63.7639C152.199 63.7639 152.875 64.4135 152.875 65.6347V68.4929H152.225V67.7914C151.913 68.2071 151.393 68.5969 150.614 68.5969C149.834 68.5969 148.95 68.1032 148.95 67.1418C148.95 66.1804 149.73 65.6347 150.874 65.6347C152.017 65.6347 151.861 65.7126 152.251 65.8426V65.6867C152.251 64.8552 151.757 64.4135 150.926 64.4135C150.094 64.4135 149.99 64.5694 149.574 64.7512M149.626 67.1158C149.626 67.7134 150.146 68.0512 150.744 68.0512C151.341 68.0512 152.251 67.5315 152.251 66.778V66.3363C151.913 66.2323 151.471 66.1284 150.926 66.1284C150.094 66.1284 149.626 66.5181 149.626 67.1158Z" fill="black"/>
<path d="M154.305 62.049H155.059V62.8285H154.305V62.049ZM154.357 63.8159H155.033V68.493H154.357V63.8159Z" fill="black"/>
<path d="M157.242 68.4929H156.566V63.8158H157.242V64.6213C157.528 64.1276 157.996 63.7119 158.776 63.7119C159.556 63.7119 160.491 64.4654 160.491 65.5827V68.4929H159.816V65.7646C159.816 64.9071 159.374 64.3614 158.568 64.3614C157.762 64.3614 157.216 64.9591 157.216 65.8165V68.4929H157.242Z" fill="black"/>
<path d="M162.805 67.1683C162.805 67.7399 163.117 67.9478 163.559 67.9478C164.001 67.9478 163.975 67.8958 164.209 67.7919V68.3895C163.975 68.5194 163.715 68.5974 163.403 68.5974C162.675 68.5974 162.129 68.2336 162.129 67.2722V64.466H161.505V63.8423H162.129V62.4392H162.805V63.8423H164.235V64.466H162.805V67.1943V67.1683Z" fill="black"/>
<path d="M166.86 68.5969C166.21 68.5969 165.509 68.337 165.015 67.9213L165.353 67.4276C165.846 67.8173 166.366 68.0252 166.912 68.0252C167.458 68.0252 167.848 67.7394 167.848 67.2717C167.848 66.778 167.328 66.5961 166.73 66.4402C166.028 66.2323 165.249 65.9725 165.249 65.115C165.249 64.2835 165.898 63.7639 166.782 63.7639C167.666 63.7639 167.926 63.9717 168.394 64.2835L168.082 64.8032C167.666 64.5174 167.198 64.3615 166.756 64.3615C166.314 64.3615 165.898 64.6473 165.898 65.0371C165.898 65.5048 166.444 65.6607 167.042 65.8685C167.744 66.0764 168.472 66.3622 168.472 67.1937C168.472 68.1032 167.77 68.6228 166.886 68.6228" fill="black"/>
<path d="M174.581 64.9851C175.932 65.2969 176.556 65.8166 176.556 66.778C176.556 67.7394 175.698 68.5709 174.477 68.5709C173.255 68.5709 172.735 68.2331 172.007 67.5575L172.423 67.0378C173.047 67.6355 173.671 67.9213 174.503 67.9213C175.334 67.9213 175.854 67.4796 175.854 66.83C175.854 66.1804 175.542 65.8945 174.269 65.6087C172.865 65.2969 172.241 64.8292 172.241 63.7639C172.241 62.6985 173.073 62.0229 174.243 62.0229C175.412 62.0229 175.75 62.2828 176.374 62.8025L175.984 63.3481C175.412 62.8804 174.867 62.6725 174.243 62.6725C173.619 62.6725 172.943 63.1143 172.943 63.7119C172.943 64.3095 173.255 64.6473 174.581 64.9591" fill="black"/>
<path d="M179.884 68.6489C179.494 69.6103 179.078 69.9741 178.402 69.9741C177.726 69.9741 177.752 69.8962 177.44 69.7403L177.674 69.1946C177.882 69.3245 178.09 69.3765 178.376 69.3765C178.662 69.3765 179.026 69.1686 179.286 68.493L177.258 63.8419H177.986L179.624 67.7395L181.053 63.8419H181.755L179.884 68.6749V68.6489Z" fill="black"/>
<path d="M184.121 68.5969C183.471 68.5969 182.769 68.337 182.275 67.9213L182.613 67.4276C183.107 67.8173 183.627 68.0252 184.173 68.0252C184.718 68.0252 185.108 67.7394 185.108 67.2717C185.108 66.778 184.588 66.5961 183.991 66.4402C183.289 66.2323 182.509 65.9725 182.509 65.115C182.509 64.2835 183.159 63.7639 184.043 63.7639C184.926 63.7639 185.186 63.9717 185.654 64.2835L185.342 64.8032C184.926 64.5174 184.458 64.3615 184.017 64.3615C183.575 64.3615 183.159 64.6473 183.159 65.0371C183.159 65.5048 183.705 65.6607 184.302 65.8685C185.004 66.0764 185.732 66.3622 185.732 67.1937C185.732 68.1032 185.03 68.6228 184.147 68.6228" fill="black"/>
<path d="M187.76 67.1683C187.76 67.7399 188.072 67.9478 188.514 67.9478C188.956 67.9478 188.93 67.8958 189.164 67.7919V68.3895C188.93 68.5194 188.67 68.5974 188.358 68.5974C187.63 68.5974 187.084 68.2336 187.084 67.2722V64.466H186.46V63.8423H187.084V62.4392H187.76V63.8423H189.19V64.466H187.76V67.1943V67.1683Z" fill="black"/>
<path d="M192.179 67.9992C192.803 67.9992 193.219 67.7394 193.583 67.3496L193.999 67.7394C193.557 68.259 193.011 68.6228 192.153 68.6228C190.931 68.6228 189.917 67.6354 189.917 66.1803C189.917 64.7252 190.827 63.7379 192.049 63.7379C193.271 63.7379 194.129 64.8292 194.129 66.2063C194.129 67.5835 194.129 66.3362 194.129 66.4142H190.593C190.697 67.4276 191.373 67.9992 192.179 67.9992ZM193.505 65.8945C193.427 65.0371 192.959 64.3095 192.075 64.3095C191.191 64.3095 190.697 64.9851 190.619 65.8945H193.505Z" fill="black"/>
<path d="M200.445 63.7379C201.485 63.7379 202.109 64.4654 202.109 65.6087V68.4929H201.433V65.7646C201.433 64.8552 200.991 64.3615 200.263 64.3615C199.535 64.3615 199.016 64.8811 199.016 65.8166V68.5189H198.366V65.7646C198.366 64.8811 197.924 64.3615 197.222 64.3615C196.52 64.3615 195.974 64.9851 195.974 65.8425V68.5189H195.298V63.8418H195.974V64.6213C196.26 64.1536 196.676 63.7379 197.43 63.7379C198.184 63.7379 198.626 64.1536 198.86 64.6733C199.172 64.1536 199.665 63.7379 200.445 63.7379Z" fill="black"/>
<path d="M8.34431 52.2528C8.34431 54.7992 6.55067 56.774 4.21114 56.774H4.13316C1.79364 56.774 0 54.7992 0 52.2528V50.9796H0.909815C0.909815 51.811 0.909815 52.2788 0.909815 52.4087C1.06578 54.5913 2.28754 55.8905 4.15916 55.8905C6.03078 55.8905 7.46048 54.3575 7.46048 51.967H4.08117C4.26313 49.2646 5.58886 47.9395 7.85041 47.9395V48.745C6.44669 48.745 5.56287 49.4985 5.19894 51.0315H8.34431V52.2528Z" fill="black"/>
<path d="M14.5312 51.474V53.4488C14.5312 55.6055 13.7253 56.6448 11.8277 56.7487V55.8653C12.9975 55.8653 13.5954 55.1118 13.6214 53.6307C13.3354 54.1244 12.8415 54.3842 12.1137 54.3842C10.71 54.3842 9.67017 53.163 9.67017 51.448C9.67017 49.7331 10.658 48.5378 12.1137 48.5378C13.5694 48.5378 14.5052 49.7591 14.5052 51.5M13.6474 51.474C13.6474 50.2788 12.9975 49.3433 12.0617 49.3433C11.1259 49.3433 10.554 50.2788 10.554 51.4221C10.554 52.5653 11.2039 53.5527 12.1137 53.5527C13.0235 53.5527 13.6474 52.6433 13.6474 51.474Z" fill="black"/>
<path d="M19.0542 54.5921H18.0404C17.5725 54.5921 17.1825 54.4102 16.8706 54.0984C16.5067 53.7347 16.3247 53.189 16.3247 52.4874V46.0175H17.2345V51.9418C17.2345 52.5654 17.3125 52.9811 17.4945 53.267C17.6244 53.5008 17.8844 53.6307 18.2223 53.6827C18.3003 53.6827 18.4043 53.6827 19.0282 53.6827V54.6181L19.0542 54.5921Z" fill="black"/>
<path d="M31.4018 54.5922H18.3264V53.6568H28.5683C28.5683 53.5009 28.5683 53.345 28.5683 53.1891C28.5683 52.1757 28.3344 51.3442 27.8665 50.7466C27.3206 50.019 26.4888 49.6813 25.423 49.6813H22.7975C23.2654 48.8238 23.9153 47.6025 24.7471 46.0435H25.8129L24.2792 48.7718H25.423C26.7227 48.7718 27.7365 49.1876 28.5163 50.019C29.2702 50.8505 29.6341 51.9159 29.6341 53.267V53.6828H31.3758V54.6182L31.4018 54.5922Z" fill="black"/>
<path d="M46.0109 54.592H30.908V53.6566H32.1037C32.9096 53.6566 34.9371 53.085 34.9371 51.9677V48.5638H35.847V52.2535C35.847 52.7991 35.769 53.2409 35.639 53.6046V53.6566H37.3027C38.1085 53.6566 38.3944 53.2409 38.3944 51.8377V48.5638H39.2783V52.2535C39.2783 52.8251 39.2003 53.2928 39.0443 53.6566H40.578C41.5398 53.6566 41.8517 53.2409 41.8517 51.8377V48.5638H42.7356V52.2535C42.7356 52.8251 42.6576 53.2928 42.4756 53.6566H46.0109V54.592ZM38.4724 47.6024H37.5626V46.4851H38.4724V47.6024ZM39.2783 46.1473H38.3684V45.03H39.2783V46.1473ZM40.1361 47.6024H39.2263V46.4851H40.1361V47.6024Z" fill="black"/>
<path d="M48.766 45.9915V52.2276C48.766 53.7866 48.1421 54.5661 46.8944 54.5661H45.7766V53.6567H46.6084C47.1543 53.6567 47.5183 53.4748 47.7002 53.111C47.8302 52.8772 47.8822 52.4355 47.8822 51.8378V45.9915H48.766Z" fill="black"/>
<path d="M51.3655 45.9915H50.4817V54.5661H51.3655V45.9915Z" fill="black"/>
<path d="M57.7082 51.474V53.4488C57.7082 55.6055 56.9023 56.6448 55.0047 56.7487V55.8653C56.1745 55.8653 56.7724 55.1118 56.7984 53.6307C56.5124 54.1244 56.0185 54.3842 55.2907 54.3842C53.887 54.3842 52.8472 53.163 52.8472 51.448C52.8472 49.7331 53.835 48.5378 55.2907 48.5378C56.7464 48.5378 57.6822 49.7591 57.6822 51.5M56.8504 51.474C56.8504 50.2788 56.2005 49.3433 55.2647 49.3433C54.3289 49.3433 53.757 50.2788 53.757 51.4221C53.757 52.5653 54.4069 53.5527 55.3167 53.5527C56.2265 53.5527 56.8504 52.6433 56.8504 51.474Z" fill="black"/>
<path d="M70.4197 48.5635V52.2532C70.4197 53.8122 69.7958 54.5917 68.5481 54.5917H64.6229C62.1794 54.5917 60.9316 53.3185 60.9316 50.7461V48.5635H61.8155V50.7461C61.8155 52.7209 62.7253 53.6823 64.5189 53.6823H68.2362C69.146 53.6823 69.5099 53.3185 69.5099 51.8634V48.5894H70.3937L70.4197 48.5635ZM65.3507 48.5375H64.4409V47.4202H65.3507V48.5375ZM67.0144 48.5375H66.1046V47.4202H67.0144V48.5375Z" fill="black"/>
<path d="M74.9428 54.5921H73.929C73.4611 54.5921 73.0972 54.4102 72.7593 54.0984C72.3953 53.7347 72.2134 53.189 72.2134 52.4874V46.0175H73.1232V51.9418C73.1232 52.5654 73.2012 52.9811 73.3831 53.267C73.5131 53.5008 73.7731 53.6307 74.111 53.6827C74.189 53.6827 74.293 53.6827 74.9168 53.6827V54.6181L74.9428 54.5921Z" fill="black"/>
<path d="M83.4951 53.2401V54.5912H74.6309V53.6558H82.4033C82.4033 53.4739 82.4033 53.318 82.4033 53.1881C82.4033 50.9535 81.2595 49.6543 79.2579 49.6543C77.2563 49.6543 77.3603 50.096 76.8664 50.9795C76.7364 50.8236 76.4765 50.5637 76.0866 50.148C76.8144 49.2126 77.8542 48.7449 79.2579 48.7449C81.8054 48.7449 83.4691 50.4858 83.4691 53.2401" fill="black"/>
<path d="M89.2399 54.5921H87.0304C86.7964 55.9693 85.9126 56.6708 84.4309 56.7748V55.8913C85.6267 55.8913 86.2245 55.2157 86.2245 53.6567V48.5898H87.1084V53.6827H89.2139V54.6181L89.2399 54.5921Z" fill="black"/>
<path d="M93.373 54.5916H88.9539V53.6822H89.7597C90.3056 53.6822 90.6695 53.5003 90.8515 53.1366C90.9815 52.8767 91.0334 52.461 91.0334 51.8633V48.5894H91.9173V52.2791C91.9173 52.8507 91.8393 53.3184 91.6833 53.6822H93.347V54.6176L93.373 54.5916ZM90.2796 47.602H89.3698V46.4847H90.2796V47.602ZM91.9433 47.602H91.0334V46.4847H91.9433V47.602Z" fill="black"/>
<path d="M101.509 54.5915H100.236C99.5337 54.5915 99.0398 54.5655 98.7798 54.5135C98.3119 54.4096 97.818 54.2017 97.2462 53.8899C96.7003 54.2277 96.1804 54.4355 95.7125 54.5135C95.4525 54.5655 94.9586 54.5915 94.2308 54.5915H92.957V53.656H94.9846C95.4525 53.656 95.8944 53.5521 96.2844 53.3442C95.7125 53.0584 95.2446 52.6427 94.9326 52.123C94.6207 51.6033 94.4647 51.0576 94.4647 50.46C94.4647 49.8624 94.6987 49.0569 95.1666 48.5632C95.6865 47.9915 96.3623 47.7057 97.2202 47.7057C98.078 47.7057 98.7798 47.9915 99.2997 48.5632C99.7676 49.0829 100.002 49.7065 100.002 50.46C100.002 51.2135 99.8456 51.6033 99.5337 52.123C99.2218 52.6686 98.7538 53.0844 98.182 53.3442C98.5719 53.5521 99.0138 53.656 99.4817 53.656H101.509V54.5915ZM97.2462 52.7726C97.818 52.5127 98.2599 52.1749 98.5719 51.6813C98.8578 51.2395 99.0138 50.7718 99.0138 50.2781C99.0138 49.7844 98.8578 49.3427 98.5459 49.0049C98.234 48.6411 97.792 48.4593 97.2202 48.4593C96.1024 48.4593 95.4525 49.2648 95.4525 50.2521C95.4525 51.2395 95.5825 51.2135 95.8944 51.6553C96.2064 52.149 96.6743 52.5127 97.2462 52.7466M96.9082 46.5624H95.9984V45.4451H96.9082V46.5624ZM98.5719 46.5624H97.6621V45.4451H98.5719V46.5624Z" fill="black"/>
<path d="M111.335 54.5914H107.41C106.916 55.3709 106.214 55.7347 105.253 55.7347C104.291 55.7347 103.537 55.3449 103.043 54.5914H101.146V53.656H102.653C102.601 53.3702 102.549 53.0843 102.549 52.7466C102.549 51.8631 102.783 51.1615 103.251 50.5899C103.745 50.0182 104.395 49.7324 105.227 49.7324C106.059 49.7324 106.734 50.0182 107.202 50.5899C107.644 51.1356 107.878 51.8371 107.878 52.7206C107.878 53.604 107.852 53.3442 107.774 53.656H111.309V54.5914H111.335ZM106.864 52.6426C106.864 52.045 106.76 51.5773 106.526 51.2135C106.266 50.7718 105.851 50.5639 105.305 50.5639C104.759 50.5639 104.291 50.7978 103.979 51.2655C103.745 51.6552 103.615 52.1489 103.615 52.7985C103.615 53.4481 103.719 53.8898 103.979 54.2536C104.265 54.6953 104.707 54.9032 105.253 54.9032C106.318 54.9032 106.864 54.1497 106.864 52.6426Z" fill="black"/>
<path d="M115.468 54.5921H111.049V53.6827H111.855C112.401 53.6827 112.765 53.5008 112.947 53.137C113.077 52.8772 113.129 52.4615 113.129 51.8638V46.0175H114.013V52.2536C114.013 52.8252 113.935 53.2929 113.779 53.6567H115.442V54.5921H115.468Z" fill="black"/>
<path d="M118.25 45.9915V52.2276C118.25 53.7866 117.626 54.5661 116.379 54.5661H115.261V53.6567H116.093C116.638 53.6567 117.002 53.4748 117.184 53.111C117.314 52.8772 117.366 52.4355 117.366 51.8378V45.9915H118.25Z" fill="black"/>
<path d="M132.261 54.5918H132.079C130.909 54.5918 130 53.8903 129.714 52.773C129.714 54.9816 127.816 56.7485 125.659 56.7485C123.501 56.7485 121.525 54.6698 121.525 52.0194V50.6942H122.435V51.8375C122.435 54.2281 123.683 55.8131 125.711 55.8131C127.738 55.8131 128.908 54.332 128.908 52.747C128.908 51.162 128.284 50.9541 127.244 50.9541V50.1226C127.244 50.1226 127.478 50.0966 127.946 50.0966C128.726 50.0966 129.792 50.9281 130.182 51.9934C130.65 53.2667 131.065 53.6824 132.027 53.6824H132.287V54.6178L132.261 54.5918ZM125.347 58.8532H124.437V57.7359H125.347V58.8532ZM127.036 58.8532H126.126V57.7359H127.036V58.8532Z" fill="black"/>
<path d="M136.446 54.5916H132.027V53.6822H132.833C133.379 53.6822 133.743 53.5003 133.925 53.1366C134.055 52.8767 134.107 52.461 134.107 51.8633V48.5894H134.991V52.2791C134.991 52.8507 134.913 53.3184 134.757 53.6822H136.42V54.6176L136.446 54.5916ZM135.043 47.602H134.133V46.4847H135.043V47.602Z" fill="black"/>
<path d="M147.624 54.5922H135.822V53.6828H139.669V46.0435H140.605L140.397 52.2017C141.255 50.019 142.971 48.564 144.634 48.564C146.298 48.564 147.702 50.071 147.702 53.0592C147.702 56.0473 147.702 54.0465 147.624 54.5922ZM146.74 53.6568C146.74 53.371 146.766 53.0851 146.766 52.8253C146.766 50.7206 145.934 49.3954 144.53 49.3954C143.127 49.3954 140.995 51.4482 140.397 53.6568H146.714H146.74Z" fill="black"/>
<path d="M157.06 54.5921H153.811C153.551 55.9692 152.693 56.6708 151.212 56.7747V55.8913H151.315C152.121 55.8913 152.667 55.4496 152.875 54.6181H151.471C150.744 54.6181 150.172 54.3323 149.704 53.7606C149.236 53.189 149.002 52.4874 149.002 51.604C149.002 50.7205 149.236 50.0189 149.73 49.4473C150.224 48.8756 150.848 48.5638 151.575 48.5638C153.005 48.5638 153.863 49.4733 153.863 51.2142V53.6827H157.008V54.5921H157.06ZM153.005 53.6567V50.8504C153.005 50.4607 152.901 50.1229 152.667 49.863C152.407 49.5512 152.043 49.3953 151.575 49.3953C151.108 49.3953 150.692 49.6292 150.38 50.0969C150.12 50.5126 149.964 50.9803 149.964 51.474C149.964 51.9677 150.068 52.4874 150.328 52.9031C150.614 53.3968 151.03 53.6567 151.523 53.6567H153.005Z" fill="black"/>
<path d="M159.816 45.9915V52.2276C159.816 53.7866 159.192 54.5661 157.944 54.5661H156.826V53.6567H157.632C158.178 53.6567 158.542 53.4748 158.724 53.111C158.854 52.8772 158.906 52.4355 158.906 51.8378V45.9915H159.79H159.816Z" fill="black"/>
<path d="M162.415 45.9915H161.531V54.5661H162.415V45.9915Z" fill="black"/>
<path d="M174.866 51.552C174.866 53.3189 173.801 54.5401 172.215 54.5401C170.629 54.5401 169.538 53.3189 169.538 51.552C169.538 49.7851 169.798 49.941 170.291 49.3693H168.55C167.38 49.3693 166.704 50.4866 166.704 52.2795V56.7228H165.82V52.2276C165.82 49.7591 166.73 48.5638 168.55 48.5638H172.241C173.853 48.5638 174.892 49.7331 174.892 51.552M173.801 51.474C173.801 50.2008 173.255 49.4213 172.267 49.4213C171.279 49.4213 170.629 50.2528 170.629 51.6299C170.629 53.0071 171.227 53.7086 172.215 53.7086C173.203 53.7086 173.801 52.9551 173.801 51.5" fill="black"/>
<path d="M180.871 54.5921H178.376C177.908 54.5921 177.544 54.4102 177.206 54.0984C176.842 53.7347 176.66 53.189 176.66 52.4874V46.0175H177.57V51.9418C177.57 52.5654 177.648 52.9811 177.83 53.267C177.96 53.5008 178.22 53.6307 178.558 53.6827C178.636 53.6827 180.221 53.6827 180.845 53.6827V54.6181L180.871 54.5921Z" fill="black"/>
<path d="M192.361 54.5922H178.766V53.6828H182.587V46.0435H183.523L183.315 52.2017C184.173 49.9931 185.914 48.564 187.526 48.564C189.138 48.564 190.593 50.071 190.593 53.0592C190.593 56.0473 190.593 53.4489 190.593 53.6568H192.335V54.5922H192.361ZM189.684 53.6568C189.684 53.371 189.71 53.0851 189.71 52.8253C189.71 50.7726 188.904 49.3954 187.474 49.3954C186.044 49.3954 183.939 51.4482 183.341 53.6568H189.658H189.684ZM187.786 47.6025H186.876V46.4852H187.786V47.6025Z" fill="black"/>
<path d="M196.624 54.5916H192.205V53.6822H193.011C193.557 53.6822 193.921 53.5003 194.103 53.1366C194.233 52.8767 194.285 52.461 194.285 51.8633V48.5894H195.168V52.2791C195.168 52.8507 195.09 53.3184 194.935 53.6822H196.598V54.6176L196.624 54.5916ZM195.22 47.602H194.311V46.4847H195.22V47.602Z" fill="black"/>
<path d="M199.38 45.9915V52.2276C199.38 53.7866 198.756 54.5661 197.508 54.5661H196.39V53.6567H197.222C197.768 53.6567 198.132 53.4748 198.314 53.111C198.444 52.8772 198.496 52.4355 198.496 51.8378V45.9915H199.38Z" fill="black"/>
<path d="M201.979 45.9915H201.095V54.5661H201.979V45.9915Z" fill="black"/>
<path d="M4.52313 19.3832H0.208008V16.7068H12.0356V19.3832H7.69449V31.1279H4.52313V19.3832Z" fill="black"/>
<path d="M11.0217 23.9046C11.1776 21.2283 13.5951 20.3968 15.9347 20.3968C18.2742 20.3968 20.5357 20.8645 20.5357 23.3589V28.7896C20.5357 29.751 20.6397 30.6864 20.8996 31.1021H17.9882C17.8843 30.7903 17.8063 30.4266 17.7803 30.0888C16.8705 31.0502 15.5447 31.388 14.271 31.388C12.2954 31.388 10.7097 30.4006 10.7097 28.2439C10.7097 26.0873 12.4774 25.3077 14.271 25.0739C16.0386 24.814 17.6763 24.866 17.6763 23.6967C17.6763 22.5275 16.8185 22.2936 15.8047 22.2936C14.7909 22.2936 14.011 22.7353 13.9071 23.8786H11.0476L11.0217 23.9046ZM17.6503 26.0093C17.1564 26.425 16.1426 26.451 15.2588 26.6069C14.375 26.7888 13.5691 27.1006 13.5691 28.14C13.5691 29.1793 14.401 29.4652 15.3368 29.4652C17.5723 29.4652 17.6503 27.6983 17.6503 27.0487V25.9833V26.0093Z" fill="black"/>
<path d="M34.7028 31.1285H31.7394L29.8938 24.1129H29.8418L28.0742 31.1285H25.0848L21.7834 20.683H24.7988L26.7224 27.7766H26.7744L28.5161 20.683H31.2975L33.0912 27.7506H33.1171L35.0408 20.683H38.0042L34.7028 31.1285Z" fill="black"/>
<path d="M39.0961 23.9046C39.2521 21.2283 41.6696 20.3968 44.0091 20.3968C46.3486 20.3968 48.6102 20.8645 48.6102 23.3589V28.7896C48.6102 29.751 48.7142 30.6864 48.9741 31.1021H46.0627C45.9587 30.7903 45.8807 30.4266 45.8547 30.0888C44.9449 31.0502 43.6192 31.388 42.3455 31.388C40.3699 31.388 38.7842 30.4006 38.7842 28.2439C38.7842 26.0873 40.5518 25.3077 42.3455 25.0739C44.1131 24.814 45.7508 24.866 45.7508 23.6967C45.7508 22.5275 44.8929 22.2936 43.8791 22.2936C42.8653 22.2936 42.0855 22.7353 41.9815 23.8786H39.1221L39.0961 23.9046ZM45.7248 26.0093C45.2309 26.425 44.2171 26.451 43.3333 26.6069C42.4494 26.7888 41.6436 27.1006 41.6436 28.14C41.6436 29.1793 42.4754 29.4652 43.4112 29.4652C45.6468 29.4652 45.7248 27.6983 45.7248 27.0487V25.9833V26.0093Z" fill="black"/>
<path d="M53.0554 27.7503C53.0554 28.9975 54.1212 29.5172 55.2649 29.5172C56.4087 29.5172 57.1365 29.2054 57.1365 28.192C57.1365 27.1787 55.9408 27.0228 53.8872 26.581C52.2235 26.2173 50.5599 25.6196 50.5599 23.8008C50.5599 21.1244 52.8734 20.4489 55.109 20.4489C57.3445 20.4489 59.5021 21.2284 59.71 23.7748H56.9806C56.9026 22.6575 56.0448 22.3717 55.031 22.3717C54.0172 22.3717 53.4453 22.5016 53.4453 23.3331C53.4453 24.1645 55.057 24.5023 56.6946 24.8921C58.3843 25.2818 60.022 25.8795 60.022 27.8283C60.022 30.5826 57.6304 31.466 55.2389 31.466C52.8474 31.466 50.4559 30.5566 50.3259 27.7763H53.0554V27.7503Z" fill="black"/>
<path d="M71.4856 31.1285H68.7561V29.6734H68.7041C67.9763 30.8427 66.7285 31.4143 65.5068 31.4143C62.4654 31.4143 61.6855 29.6994 61.6855 27.101V20.683H64.545V26.5813C64.545 28.2963 65.0389 29.1537 66.3906 29.1537C67.7423 29.1537 68.6261 28.2963 68.6261 26.1656V20.683H71.4856V31.1285Z" fill="black"/>
<path d="M76.6065 16.7068H73.7471V31.1279H76.6065V16.7068Z" fill="black"/>
<defs>
<linearGradient id="paint0_linear_2754_114613" x1="113.623" y1="23.699" x2="95.3334" y2="3.30692" gradientUnits="userSpaceOnUse">
<stop stop-color="#AD1118"/>
<stop offset="0.3" stop-color="#C40C16"/>
<stop offset="0.5" stop-color="#D50814"/>
<stop offset="0.7" stop-color="#DF0613"/>
<stop offset="1" stop-color="#E30613"/>
</linearGradient>
<linearGradient id="paint1_linear_2754_114613" x1="101.494" y1="31.7929" x2="123.78" y2="23.4125" gradientUnits="userSpaceOnUse">
<stop stop-color="#9E151A"/>
<stop offset="0.2" stop-color="#C10D16"/>
<stop offset="0.5" stop-color="#D90713"/>
<stop offset="0.6" stop-color="#E30613"/>
<stop offset="0.9" stop-color="#E40F1A"/>
<stop offset="1" stop-color="#E30613"/>
</linearGradient>
<linearGradient id="paint2_linear_2754_114613" x1="92.3061" y1="14.1844" x2="85.9998" y2="37.405" gradientUnits="userSpaceOnUse">
<stop stop-color="#634E42"/>
<stop offset="0.2" stop-color="#6F5C4D"/>
<stop offset="0.4" stop-color="#786655"/>
<stop offset="0.7" stop-color="#7B6A58"/>
<stop offset="1" stop-color="#7B6A58"/>
</linearGradient>
</defs>
</svg>
