<svg xmlns="http://www.w3.org/2000/svg" width="67" height="60" fill="none" xmlns:v="https://vecta.io/nano"><g clip-path="url(#A)"><g clip-path="url(#B)"><path d="M3.429 53.88l-.008-.838-.987.008.008.833.987-.003zm4.434-1.174l.019 1.234c.007.057.001.114-.017.168s-.048.104-.088.145-.088.073-.141.093-.111.028-.168.024l-1.152.005h-.144a.64.64 0 0 1-.51-.183.64.64 0 0 1-.187-.508l-.021-1.124-.966.008.024 1.565c-.013.401-.183.781-.473 1.059a1.54 1.54 0 0 1-1.08.426c-.384-.017-.749-.173-1.027-.438s-.451-.622-.486-1.004c-.009-.377.061-.752.205-1.1l-1.01.005c-.111.355-.158.727-.136 1.098.024.574.245 1.123.625 1.554a2.52 2.52 0 0 0 1.464.818c.567.098 1.151-.001 1.654-.28a2.52 2.52 0 0 0 1.112-1.255 1.26 1.26 0 0 0 .882.315h.126l1.203-.008c.186.006.371-.028.541-.102s.323-.183.447-.322a1.26 1.26 0 0 0 .304-1.029l-.024-1.177-.976.012zm-1.694 3.042l.011.827.979-.008-.011-.828-.979.009zm1.426-.008l.008.828.981-.008-.011-.825-.979.005zm12.76-.079l.013.825h.976l-.008-.833-.982.008zm2.358-4.25l.035 2.433c.007.057.001.114-.017.168s-.048.103-.088.145-.088.073-.141.093-.111.028-.168.024l-.215.005h-.1c-.093.008-.187-.004-.275-.036s-.168-.082-.235-.148-.118-.145-.151-.233-.046-.181-.039-.274l-.011-.898-.976.005.019 1.019a.5.5 0 0 1-.138.438c-.056.057-.125.099-.201.124s-.157.031-.236.019h-.713l-.999.008c-.016-1.371-1.145-2.026-2.458-2.012-.226-.021-.455.005-.671.075s-.416.185-.586.336a1.66 1.66 0 0 0-.404.541c-.096.206-.149.429-.155.656l.913-.008c.037-.533.431-.735.915-.743.9-.005 1.46.268 1.466 1.161l-4.387.024-.421.006c-.091.008-.182-.003-.268-.033s-.165-.077-.231-.14-.119-.138-.154-.222-.052-.174-.05-.265l-.014-.977-.984.008.034 2.091a.86.86 0 0 1-.246.644.86.86 0 0 1-.293.195c-.11.044-.229.065-.347.062a2.53 2.53 0 0 1-.831-.158l.168.799a2.62 2.62 0 0 0 .803.197 1.57 1.57 0 0 0 .622-.066c.201-.063.387-.167.547-.303s.291-.304.384-.493a1.56 1.56 0 0 0 .16-.603 1.22 1.22 0 0 0 .765.215h.431l6.573-.034.713-.008a1.11 1.11 0 0 0 .986-.508 1.22 1.22 0 0 0 1.039.494h.103l.239-.005a1.27 1.27 0 0 0 .541-.101c.171-.073.323-.183.447-.322a1.26 1.26 0 0 0 .304-1.03l-.037-2.375-.97.011zm3.729-.008l-.969.008.055 3.809.966-.008-.052-3.809z" fill="#fff"/><path d="M1.398 35.398a5.36 5.36 0 0 0-.161.938l-.004.17.091-.545c.044-.185.068-.373.072-.563m1.597-.064h-.024v.018h.024v-.018zm31.628-9.723c0 .014.078-.05.178-.143l9.24-8.784a1.63 1.63 0 0 0 .178-.197c0-.023-.083.051-.178.151-3.065 3.021-6.076 5.836-9.233 8.756a1.36 1.36 0 0 0-.186.215m-7.339.495l-.066.027.012.023.058-.037c.017-.014.012-.023-.004-.014zM21.5 19.778a3.13 3.13 0 0 1 1.001-1.162c.017-.004 0 .036.037.014l.05-.019-.169.105c-.178.206-.215.287-.261.339l-.008.023-.054.082-.012.023-.072.078-.049.092-.037.037-.223.358h.017c0 .004-.042.072-.072.143l-.095.261.049-.078-.042.064.033-.014-.041.032.009.046s0-.009-.107.132c0 .009-.012.041-.029.115v.041s.004 0 .009.072h.021l.032-.019.037-.041a1.04 1.04 0 0 1 .062-.143l.004.027c.029.037.029.032.157-.064.043-.052.079-.108.108-.169a1.21 1.21 0 0 1 .144-.265s.021-.032.05-.087l.072-.05-.029.077c-.029.064-.013.078.029.046.016.096.087.082.182.032l.034.072a.35.35 0 0 0 .054.261l.041.037a.52.52 0 0 0 .211-.137l.029-.027.017.055a1.47 1.47 0 0 1 .542-.197h.1c.066.037.157-.042.186.009h.029l.012.014c-.012.08-.006.161.017.238a1.88 1.88 0 0 1-.216.845c-.137.261-.334.486-.574.657l-.112.151c-.037-.003-.074.002-.108.015s-.065.035-.09.062l-.041-.032.025.05c-.012.01-.022.022-.029.037l.004.037.025.014.12.004c.008.023.008.051.012.078-.032.026-.057.059-.075.096s-.026.078-.025.119l.004.042.033.014.166-.05.02.027.009.009h-.025v.077.023.004l-.009.009-.004.014-.012-.014-.05.018.012.009-.012.023-.025.014.017.014-.017-.009.005.023-.041-.037-.005.014.005.014.012.037.012.014.012.022.017.014h.025l.004.014c.022.04.052.076.087.105l.042.027.041-.019h.012l.029.019v.023l.029.051.103.151.037.055.072.179.033.046.096.072.016.004.02.046.269.206.054.028.116.018.037-.004.021-.014a.37.37 0 0 0 .091.224c.091.115.215.128.277.046a7.69 7.69 0 0 0 .335-.393l.798-.458.314-.165c.021.005.043.003.063-.005s.037-.023.049-.041a5.4 5.4 0 0 1 2.082-.668c.678-.078.773.091.984.709a2.4 2.4 0 0 1-.521 1.598v.023l.045-.042c.782-.842.828-1.836.348-2.407-.01-.037-.031-.07-.061-.093s-.066-.038-.104-.039l-.021-.014-.174-.128.054.041c.05.027.091.027.103.009v-.038c.215.014.314.174.464.325a.35.35 0 0 1 .112.169c.08.265.088.546.024.815l-.017.064c-.02.092.009.183-.008.239l.004.037c-.298.706-.79 1.314-1.419 1.753-.029.023-.046.046-.029.059l-.05.019-.244.178-.017.027.054-.027.261-.184.012-.014.086-.037a4.02 4.02 0 0 0 1.448-1.749c-.115.378-.311.727-.574 1.021a4.01 4.01 0 0 1-1.137.984l-.034.032.058-.018a3.72 3.72 0 0 0 1.134-.97 3.71 3.71 0 0 0 .661-1.337l.021-.115c.024.326-.037.653-.178.948a4.75 4.75 0 0 1-2.341 1.868c-.045.014-.072.037-.072.05s.041.014.087 0c.566-.15 1.096-.412 1.559-.769l-.091.082-.095.078a6.15 6.15 0 0 1-.993.591c-.132.032-.231.105-.231.138.009.046.116.037.253-.004l-.058.027-.033.027.066-.004.211-.124c.699-.307 1.315-.776 1.795-1.369a4.73 4.73 0 0 1-1.949 1.534l-.07.009c-.016.014-.016.014.004.014h.004a3.37 3.37 0 0 1-1.32.265l-.05.023c0 .009.021.009.054.009a4.37 4.37 0 0 0 2.119-.681A4.36 4.36 0 0 0 29.41 24.2l.116-.224c.057-.023.106-.061.144-.11-.219.506-.529.967-.914 1.362-.329.278-.685.522-1.063.728-.058.032-.095.064-.086.077s.05.009.111-.027l.282-.143c-.072.059-.108.11-.096.143s.054.036.132.023c-.394.275-.821.5-1.269.672-.024.014-.042.019-.029.027l.072-.014c.651-.213 1.252-.556 1.766-1.007a3.58 3.58 0 0 0 1.229-1.236 2.05 2.05 0 0 0 .327-.659 3.47 3.47 0 0 1-.919 1.57c-.796.898-1.868 1.508-3.049 1.735-.166.014-.281.055-.265.092a.6.6 0 0 0 .348.027c1.14-.189 2.183-.755 2.962-1.607.662-.657 1.07-1.526 1.154-2.453.037-1.13-.467-2.513-1.658-2.838-.088-.059-.192-.089-.298-.087l-.298-.028c-.704-.058-1.412.027-2.082.247.798-.322 1.663-.443 2.519-.353.062 0 .12.027.111 0-.017-.018-.039-.033-.062-.043s-.049-.014-.074-.013c-1.072-.129-2.159.06-3.123.545a1.56 1.56 0 0 0 .149-.668c-.244-1.415-.451-1.362-1.245-2a2.03 2.03 0 0 0-2.226.467c-.05.048-.091.106-.12.169 0 .023.057-.023.128-.092a2.29 2.29 0 0 1 1.105-.502c.419-.048.841.042 1.205.254a1.94 1.94 0 0 1 .81.926l.063.123c.051.124.083.255.095.389l-.013-.087a.97.97 0 0 0-.149-.358l.021.046c-.144-.304-.35-.575-.604-.796-1.37-1.277-3.066.421-3.164 1.318-.029.087-.037.155-.017.143s.058-.077.083-.16m1.7 3.602l-.062-.138.066.143-.004-.006zm6.093-2.618v-.009c.249.217.456.48.608.773.185.343.3.719.338 1.106s-.002.779-.118 1.151a3.04 3.04 0 0 0-.257-2.174c-.206-.287-.364-.691-.666-.842.054.009.083.009.095-.005zm-5.365-2.32a1.64 1.64 0 0 1 .687.495c-.017 0-.025-.009-.017.009a1.52 1.52 0 0 0-.823-.485.6.6 0 0 0-.355-.019c-.154-.014-.309-.014-.463 0 .316-.101.656-.101.971 0zm-1.299 1.648l-.046-.192.058.184-.012.009zm7.754.287c.337.63.823 1.169 1.415 1.57a2.29 2.29 0 0 0 .802.411c-.135-.052-.264-.118-.385-.197.353.158.722.278 1.1.358l.091.018c.577.115 1.176.022 1.691-.263s.911-.744 1.118-1.294l-.072.046a1.74 1.74 0 0 0 .24-.462l-.072.143.009-.014c.086-.219.155-.444.207-.673.355-1.186.413-2.441.169-3.655-.002-.064-.019-.127-.05-.183-.021 0-.029.064-.017.155l.017 1.057a15.73 15.73 0 0 1-.174 2.15l-.037.143-.087.192.009-.032.072-.261-.02.051.116-.975a8.58 8.58 0 0 0-.409-3.675c-.025-.096-.062-.161-.078-.143a.41.41 0 0 0 .025.219 10.82 10.82 0 0 1 .178 1.611c0 .023-.033-.014-.037.027v.059l-.012-.197-.111-.435-.009-.019-.032-.091-.013-.032-.021-.11-.025-.115v-.009c.072.15.144.243.166.206a.88.88 0 0 0-.112-.439c-.03-.063-.063-.124-.099-.183-.004-.037-.012-.055-.017-.101l-.009.018c0-.009-.021-.087-.045-.178s-.025-.087-.079-.307l.008.11-.008-.092-.017.032.012-.05-.032-.032.017-.206c-.009-.014-.02-.05-.054-.128l-.021-.037c-.008 0-.008 0-.057-.065l-.013.009-.02.041c-.003.021-.003.043 0 .064a.9.9 0 0 0 .02.184l-.02-.027c-.034 0-.046 0-.072.059a6.36 6.36 0 0 0-2.577-2.197c-.481-.248-1.009-.392-1.55-.425s-1.082.048-1.59.237c-1.543.687-1.829 2.58-1.605 3.827l.108.38.12.385c.318.876.737 1.711 1.249 2.49a10.24 10.24 0 0 1-1.564-2.966c-.025-.092-.054-.143-.062-.128a.46.46 0 0 0 .025.188c.477 1.468 1.263 2.818 2.304 3.959m5.75-2.426l-.025-.338c.045-.146.075-.296.087-.449.004.293-.009.627-.009.92a7.06 7.06 0 0 1-.083 1.016l.004-.124c0-.041.012-.119-.017-.077a4.55 4.55 0 0 0 .041-.948m-.434-1.414s-.012.037-.024.078l.024-.078zm-1.853 3.177c.012 0 .017-.009.03-.023.02.023.004.037-.03.023zm.977-3.928l-.057-.027c-.095.238-.103.664-.211.932l-.041.197c-.044.203-.059.411-.042.618l-.016.247.009.169c-.072-.274.083-.375-.012-.311-.177.082-.091 1.003-.136 1.533-.012.467-.503.435-.542.558a3.82 3.82 0 0 1-1.088-.664c-.912-.759-1.639-1.715-2.127-2.795-.475-.673-.393-1.904-.128-1.982.293-.166.619-.263.955-.285s.672.031.984.157l.017-.009-.066-.041c-1.292-.508-2.449-.27-2.407.833-.032.139-.039.284-.021.426v.064a1.63 1.63 0 0 0 .012.348c-.033-.101-.02-.014-.02-.078-.004-.101-.029-.178-.058-.184l-.025.032a3.08 3.08 0 0 1-.033-1.003l.057-.219c.071-.124.168-.232.283-.316s.247-.144.387-.174l.072-.014a.43.43 0 0 0 .261-.072l.034-.046a4.26 4.26 0 0 1 2.565.915c.045.037.066.05.066.027l.045.051.302.234.037.004-.05-.055-.314-.257-.025-.004-.079-.091c-.717-.605-1.622-.943-2.56-.957a2.85 2.85 0 0 1 1.369.197 4.26 4.26 0 0 1 1.576.98l.054.027-.041-.064a3.87 3.87 0 0 0-1.53-.975 3.88 3.88 0 0 0-1.807-.172l-.12.041a2 2 0 0 1 1.084-.261 5.2 5.2 0 0 1 3.095 2.105c.041.059.072.092.087.078s-.008-.064-.045-.119c-.4-.648-.925-1.211-1.543-1.657l.137.064.136.101c.399.291.756.636 1.059 1.025.116.155.24.247.277.234.037-.037-.025-.169-.137-.32l.058.065.042.032-.042-.072-.223-.238c-.605-.75-1.405-1.318-2.313-1.644 1.011.321 1.9.942 2.548 1.78-.012-.014-.024-.005-.012.019l.058.077c.021.014.025.004.012-.023.141.181.268.373.381.573-.013 0-.029-.023-.041-.023h-.066c-.048.109-.071.228-.066.348l-.012.058zm-3.917-3.082a4.17 4.17 0 0 1 1.867.481 5.6 5.6 0 0 1 1.233.932 4.74 4.74 0 0 0-2.626-1.277l-.294-.018c-.049-.053-.11-.092-.178-.115m3.963 3.113l.008-.014.182.128-.189-.114zm-6.325-1.831a3.75 3.75 0 0 0-.211 1.281c-.021-.064-.046-.091-.062-.091l-.012.004c.004-.392.063-.782.174-1.158.708-2.215 3.115-2.096 4.269-1.483a6.44 6.44 0 0 1 2.784 2.344c.001.043.005.086.013.128.029.165.041.165.072.358.001.038.005.076.012.114-.006.037-.014.074-.025.11l-.024-.096c-.033-.087-.062-.087-.062-.014-.087-.072-.144 0-.182.124-.029-.018-.058-.032-.083-.018-.037-.06-.086-.111-.144-.151a5.68 5.68 0 0 0-.939-1.231c.037.046.072.059.087.05s-.029-.072-.091-.133l-.294-.293c.108.05.17.087.203.05.025-.014.004-.082-.054-.169a6.93 6.93 0 0 1 1.292 1.373c.02.036.037.041.037.028l-.037-.082c-.495-.748-1.139-1.386-1.89-1.877a4.75 4.75 0 0 0-1.919-.907c-.616-.138-1.261-.036-1.803.287a2.46 2.46 0 0 0-1.109 1.447m-24.77 21.34c-.009 0-.021 0-.025-.005s.017.005.025.005zm19.072-12.249l.013-.004-.008-.014-.012.005.007.013zM65.37.699c-6.577 3.314-12.092 8.422-17.232 13.494l-.852.829a3.72 3.72 0 0 0-.604.426l5.547-5.304c1.593-1.4 3.202-2.795 4.882-4.085a1.94 1.94 0 0 0 .426-.389 1.78 1.78 0 0 0-.467.316l-1.228.965c.309-.307.517-.502.508-.568 0-.05-.194.05-.492.247 1.775-1.469 3.574-2.879 5.419-4.138.103-.077.157-.128.111-.115s-.153.092-.261.17c-2.671 1.8-5.212 3.783-7.606 5.937-1.961 1.607-3.814 3.263-5.812 5.145-2.908 2.737-5.523 5.447-8.173 8.075l-2.924 2.701c.124-.133.19-.234.174-.252h-.033l2.568-2.407C47.313 14.161 54.336 6.063 63.577.611c.604-.32 1.022-.595.926-.604a6.24 6.24 0 0 0-1.27.568 64.66 64.66 0 0 0-11.904 9.178c-2.697 2.527-4.984 4.824-7.595 7.443-3.04 3.113-5.911 5.758-9.009 8.721l-.914.856-.906.884c-2.395 2.271-4.773 4.45-7.185 6.56 2.833-2.591 5.622-5.236 8.303-7.924.203-.192.318-.33.287-.33-.156.109-.3.233-.431.37-3.764 3.713-7.669 7.283-11.603 10.762-1.2.788-3.561 2.641-5.663 4.344-.877.727-1.518 1.401-2.192 2.074l.972-.893c-.956.915-1.708 1.72-2.466 2.437l-.211.178c-.287.224-.599.467-.918.687l.223-1.525-.086.192c.086-.535.161-.847.236-1.456l-.1.485.009-.032c.108-.636.198-1.423.256-2.243.312-2.188.253-4.413-.174-6.583-.012-.064-.032-.133-.05-.206a8 8 0 0 0-.451-1.519l-.327-.737c-.303-.848-.861-1.582-1.598-2.101s-1.616-.799-2.518-.801a.63.63 0 0 0-.513-.082 4.96 4.96 0 0 0-.989.252 5.36 5.36 0 0 0-.31.077c.095-.027.199-.05.298-.077-.095.046-.19.077-.287.115-.238.069-.471.152-.699.247l.256-.064c-2.321.568-4.523 3.85-4.451 5.782-.012 1.826 0 1.089.707-1.236l.48-.971.066-.092C1.02 34.71.652 36.205.95 36.965c.054.315.095.032.144-.028.072.105.058-.842.426-2.019a8.96 8.96 0 0 1 .343-.932c.086-.16.177-.33.277-.485-.009.055-.012.115-.021.174-.066.128-.17.334-.265.568-.188.41-.331.84-.426 1.282.012-.041.05-.151.128-.366-.017.046-.054.143-.116.343 0 .009 0 0 .062-.091-.033.053-.061.11-.083.169l.009.192s-.009-.009-.182.815c0 .072.004.22.025.608a3.5 3.5 0 0 0 .02.184c.009.004.009.004.058.325 0 0 .008.009.025-.023.004-.105.004-.105.033-.133 0 0 .012-.105.021-.275.004-.151-.012-.201.02-.774l.009.143c.066.119.029.115.256-.573.061-.328.151-.649.269-.961a10.74 10.74 0 0 1 .235-.654 2.85 2.85 0 0 0-.029.502l.029.042-.008.027.042.22.021.023.011-.047-.037-.224-.012-.009.025-.046c.031-.327.105-.649.219-.957.033-.05.066-.119.103-.184-.144.444-.215.907-.211 1.373l.017.027.017-.037c-.011-.57.118-1.134.376-1.643l.045-.047-.066.573a2.17 2.17 0 0 0-.198 1.584c.009.027.033.041.046.036l.017-.064c-.03-.284.019-.571.144-.829l.008.065-.008.054c-.049.166-.064.341-.046.513-.017.055.046.105.103.096.022-.009.041-.023.056-.041s.024-.041.027-.064l.009.023.021.004.017-.014-.037-.082c.024-.235.084-.465.178-.682.012-.014.025-.019.033-.037-.077.25-.108.512-.091.773h-.021v.028l.021-.005a.48.48 0 0 0 .111.224l.012-.004.004-.032c-.072-.032-.1-.174-.095-.366l.037.027.041-.018.025-.096.1.064h.116c-.034.087.072.123.072.143.017 0 .037-.004.054-.004.045-.037-.083-.115-.009-.261.112-.124.195-.229.319-.371a6.99 6.99 0 0 0 .377-.691l.211-.192.033.072.017.014-.169.178c-.243.262-.413.584-.493.932-.036.102-.036.214 0 .316.042 0 .083.009.132.014.182.037-.021-.064.054-.188.02-.216.082-.425.182-.618.132-.246.302-.469.503-.664l.072-.05.054-.072c.167-.139.349-.259.542-.358a2.56 2.56 0 0 0-.492.608l.004.046h.045c.219-.269.47-.51.749-.717.072.049.155.079.242.087s.174-.006.254-.041l.137-.115-.072.014c.06-.054.109-.119.144-.192h.017c.169.055.318-.023.467-.023l-.021-.059.083.055-.037-.042h.008c.032.023.072.035.112.032a1.01 1.01 0 0 0 .31.156c.012.023.029.046.05.051l.029.027a1.13 1.13 0 0 0 .19.243l-.034-.064.057.042-.004-.042c.058.115.144.087.22-.041a.44.44 0 0 0 .025-.426l-.012-.023c.026-.005.05-.016.072-.031a.89.89 0 0 1 .397.297c.174.222.328.458.463.705l.248.494c-.472-.842-.885-1.016-.869-.833.583 1.494.895 3.079.923 4.682.032 1.875-.083 3.75-.344 5.608l-.397 2.92-.1.755-.05.393-.025.188c.103.114.149.178.174.201-.103-.123-.765-.879-.004 0-.021.032-.042.055-.058.078v.046l.037.023.144-.009.072.078c-.053.033-.098.078-.131.131s-.053.113-.059.175l.017.064.041.004.232-.072.029.037.017.004-.033.009-.004.096-.008.009v.023.004l-.017.009-.004.018-.012-.004-.072.018.017.023-.02.023-.042.014.029.019-.021-.014.021.028-.025-.028.012.028-.062-.042-.012.028.009.014.02.046.012.018.025.032.017.014H8.5l.008.018c.025.051.025.051.116.138l.058.027.054-.014.017-.014.041.027-.004.023.037.059.149.188.037.077.103.22.037.059.129.096.02.014.029.046.364.243.072.041.169.032.054-.023.021-.023c.005.109.047.212.12.293a.24.24 0 0 0 .077.08c.032.02.068.033.105.037s.075-.001.11-.014a.24.24 0 0 0 .092-.062c.177-.178.352-.353.513-.545.438-.116.857-.293 1.245-.526a24.8 24.8 0 0 0 4.728-3.905 25.76 25.76 0 0 1 1.928-1.749l2.304-1.95c4.43-3.731 8.232-7.388 12.389-11.261l11.276-11.316 8.144-8.495c.079-.078.079-.101.033-.059-.095.069-.182.147-.261.234-4.5 4.239-8.753 8.888-13.626 13.517l-1.633 1.529-.199.178-1.493 1.391.517-.489a3.9 3.9 0 0 0 .617-.677c-.012-.014-.066.027-.153.087l3.632-3.616c.365-.358.695-.687.968-.984l4.256-4.07.352-.338a13.02 13.02 0 0 0 1.1-1.14c.042-.051.078-.106.108-.165 3.159-3.177 6.432-6.304 9.6-9.027.162-.143.245-.22.203-.215l.215-.169a36.29 36.29 0 0 1 1.261-1.052c.1-.078.154-.128.095-.105-.092.056-.18.118-.265.183L57.05 7.255a.71.71 0 0 0-.072.077c-.095.072-.252.174-.393.297-3.314 2.774-6.329 5.734-9.468 8.821a155.74 155.74 0 0 1 4.739-4.705c2.027-1.918 3.909-3.662 6.098-5.393.116-.082.186-.156.169-.156-.081.044-.157.096-.228.156-4.492 3.548-7.983 7.269-12.264 11.435l-.503.489 3.76-3.996c3.823-3.838 7.962-7.349 12.372-10.497a1.58 1.58 0 0 0 .364-.287c-.151.054-.291.135-.413.238-2.548 1.672-4.981 3.512-7.284 5.507l.467-.444.488-.412c1.508-1.287 3.053-2.518 4.649-3.667a6.76 6.76 0 0 0 1.088-.874 3.21 3.21 0 0 0-1.077.604l.273-.201c.091-.072.162-.128.124-.115a2.47 2.47 0 0 0-.252.161l-.98.765a88.49 88.49 0 0 0-8.649 7.319 86.1 86.1 0 0 1 9.398-8.027c-.072.055-.072.077.017.018.098-.061.192-.128.281-.201.072-.064.054-.064-.012-.023 1.801-1.284 3.697-2.428 5.672-3.424.07-.035.138-.075.203-.12-.009-.023-.116.032-.24.096M2.639 32.879a3.94 3.94 0 0 1 .236-.358c.107-.122.221-.237.343-.343l-.009.004c-.013.013-.022.029-.025.047s-.002.037.005.054c-.203.179-.388.379-.551.595m.566 1.922c-.061.128-.107.264-.136.403a3.13 3.13 0 0 1 .107-.65l.215-.27a2.29 2.29 0 0 0-.186.517zm4.157-1.831c-.097-.079-.218-.124-.343-.128l-.025-.014-.041-.054h.004l.05.018-.013-.018.182.018a.95.95 0 0 0 .256.101c-.028.021-.053.047-.072.077m1.473 16.021l-.12-.064.066-.027a.52.52 0 0 0 .062.077l-.008.014zm.438 1.181L9.192 50l.087.17H9.27zM8.46 30.199c.286.075.561.186.819.33a4.78 4.78 0 0 1 1.597 1.584c1.447 2.545 1.406 5.177 1.356 7.713l-.021.481-.095.7.004-.101.072-.925-.025.169c.064-1.209.042-2.42-.066-3.625-.31-1.918-.62-5.282-3.64-6.326m3.272 7.686c-.012-.143-.033-.439-.054-.287-.031-1.262-.254-2.512-.661-3.708-.162-.459-.367-.902-.612-1.323-.228-.463-.52-.892-.869-1.272a6.57 6.57 0 0 1 1.723 3.099 15.58 15.58 0 0 1 .492 3.942l-.019-.451zm18.698-14.447c.004.004.012-.031.021-.064.128-.63.041-1.285-.246-1.86a2.89 2.89 0 0 0-1.339-1.317c-.024-.016-.05-.027-.078-.032-.004.009.025.032.058.046 1.249.444 1.787 1.996 1.585 3.149-.009.041-.009.077 0 .077zM3.283 35.395l.004-.014c-.045.023-.041.023-.004.014zm.021-.037l-.017.023h.005l.012-.023zm-.021.037zm17.038-5.461l.012.046.021-.032a7.29 7.29 0 0 0-.078-2.513l-.029-.05-.005.05c.174.822.201 1.668.079 2.499zM3.337 35.372l.017-.004h-.004l-.012.004zm15.644-11.54l-.003.023.054.019.008-.019-.058-.023zM4.243 34.655v.027h.029c.165-.209.354-.398.562-.563v-.037h-.029c-.209.169-.398.361-.562.573zm-.96.737zm13.688-3.31c1.361.717 2.951.867 4.422.416l.034-.009h.02c-.835.778 1.142-1.075.939-.884v-.014l.025-.077.046-.156.072-.325c.048-.2.077-.403.087-.609a7.16 7.16 0 0 0 .037-1.14 10.38 10.38 0 0 0-.339-2.074c-.268-.974-.727-1.886-1.349-2.682-.021-.018-.025-.018-.025 0l.041.078a8.98 8.98 0 0 1 1.345 4.628l-.029.595-.009.078-.095.545.025-.192c.017-.123.017-.238-.009-.252l-.037.046c.015-.444-.009-.888-.072-1.327l-.05-.348c-.021-.492-.078-.981-.169-1.465l-.017-.119a1.19 1.19 0 0 0-.136-.371l-.046-.032c-.282-1.079-.882-2.049-1.723-2.783-.049-.027-.072-.041-.072-.018l-.058-.046c-.114-.082-.238-.151-.368-.206-.037-.014-.054-.014-.046 0l.072.05c.135.059.263.132.381.219l.029.009.096.092c.758.758 1.303 1.702 1.579 2.737a9.81 9.81 0 0 0-.678-1.479 4.22 4.22 0 0 0-1.336-1.456c-.025-.023-.054-.023-.054-.019 0 .019.029.023.054.05 1.075.848 1.813 2.051 2.082 3.392l.029.169a8.73 8.73 0 0 0-.534-1.204c-.442-1.14-1.212-2.554-2.565-2.568-.062-.014-.111.014-.111.027s.057.023.111.037c.343.051.67.181.953.38a2.22 2.22 0 0 1 .681.767l-.1-.105-.099-.101c-.257-.351-.613-.619-1.022-.769-.157-.037-.287-.009-.302.041-.004.037.099.092.236.105h-.066l-.041.023.057.014c.083-.014.153.041.228.064.681.427 1.196 1.073 1.46 1.831-.308-.796-.904-1.447-1.671-1.823.017 0 .02-.014.004-.014l-.062-.004-.004.018h.004a1.13 1.13 0 0 0-.724.055c.019-.027.032-.059.037-.092.008-.055-.042-.072-.062-.096-.025-.059-.128-.028-.248.055a.23.23 0 0 0-.091.1c-.135.122-.262.252-.38.389l-.037.096c0 .023.016.023.045-.014a1.19 1.19 0 0 1 .282-.261l.013-.027c0 .009-.004.014-.004.027.007-.011.017-.02.029-.027-.003.009-.007.019-.012.027l-.021.014c-.004.022-.011.044-.021.064-.149.164-.285.34-.406.526l-.042-.009-.033.028.072-.105c.055-.178.078-.243.096-.287l.004-.009.017-.072h-.004l.004-.023.05-.055.037-.059.037-.014.19-.211-.009-.014c.015-.033.036-.062.062-.087.044-.041.094-.075.149-.101l-.066.023.054-.028-.029-.009.041.009v-.037h.12l.046-.064.017-.027c-.009-.004-.009-.004.012-.065l-.012-.019-.033-.018h-.037c-.017.018-.025.018-.091.051l.008-.019c-.017-.059-.012-.059-.156-.092-.053.014-.104.032-.154.055a.68.68 0 0 0-.195.155s-.02.023-.054.064l-.083.037.045-.072c.029-.064.017-.082-.032-.064-.009-.105-.083-.128-.186-.096l-.029-.087a.65.65 0 0 0 0-.325l-.034-.065c-.057-.014-.157.028-.294.128l-.037.027-.003-.072c-.305.127-.582.312-.815.545l-.157.143c-.161.168-.285.367-.364.586l-.123.287-.054.183c.02-.33.02-.545-.096-.522-.194.027-.546.741-.612 1.598-.274 2.15.359 4.816 2.503 6.216m2.461-1.849c.292.012.584-.014.869-.078l-.004.009-.016.077c-.282.036-.567.033-.848-.009zm1.005.233c-.05.05-.103.1-.17.165l.005-.023c.003-.031.01-.062.02-.092a3.11 3.11 0 0 1 .182-.178l-.037.128zm.066-.261l-.165.027c.011-.025.016-.051.017-.078v-.014c.029-.001.057-.009.082-.023l.083-.014-.017.101zm.409-.192h.012c-.054.041-.103.101 0 0-.037.037-.091.078-.166.156h-.033l-.091.023c.054-.055.108-.1.153-.151l.033-.004.063-.014.029-.009zm-.144-3.822l.091.256h-.008c-.02.059-.03.121-.029.184a6.96 6.96 0 0 0-.67-1.529 3.49 3.49 0 0 0-.707-.911c.612.537 1.069 1.228 1.324 2.001m-3.297-.641l.042-.087c.162-.169.277-.407.447-.586l-.116.105.132-.183-.037.004c.165-.151.291-.339.368-.549.034-.169-.057-.275-.287-.192l-.021.009a1.65 1.65 0 0 0 .108-.169c.192-.067.397-.088.598-.06s.393.103.56.22h-.007c-.012.023.012.065.063.105l.215.192c-.072-.037-.136-.037-.162-.014s-.017.077.012.133a1.04 1.04 0 0 0-.42-.238c-.157-.045-.322-.053-.482-.023l-.025.023h.045c.377-.077.819.22 1.183.705.242.463.436.949.579 1.451a13.87 13.87 0 0 1 .508 2.357 6.8 6.8 0 0 1-.025.834c-.012-.042-.033-.059-.057-.059h-.012c.017-.241.02-.482.008-.723.042-2.174-1.567-5.044-2.457-4.138-.072.041-.112.105-.082.137s.099.032.162-.018c.343-.197.728-.059 1.311.788.354.604.613 1.259.769 1.941.202.814.249 1.659.136 2.49l-.52.105a4.05 4.05 0 0 1-1.282-.115c-.182-.22-.513-.489-.773-.755l-.287-.307.103.169a3.02 3.02 0 0 1-.343-.407l-.016-.046a5.78 5.78 0 0 1-.281-1.387l-.045.037.037-.247-.029.077v-.005l.029-.371c.082-.302.169-.672.277-1.026a.7.7 0 0 0 .072-.183m-.446.407c.085-.296.188-.587.31-.869-.021.103-.036.207-.045.311a4.09 4.09 0 0 0-.307 1.103l-.016.078-.045.115v-.014l.025-.16-.012.032.09-.596zm-.225-1.657l.029-.023c-.008.009-.02.014-.029.023zm-.088-1.126l.021.233-.029-.233h.008zm.049 2.233l.058-.238.206-.243a2.64 2.64 0 0 0-.231.586c-.081.226-.139.459-.174.696l.008-.087c0-.027.005-.078-.02-.055.025-.224.111-.43.153-.659M3.426 35.347c-.007-.003-.026.001-.045.004-.012 0-.021.009-.033.009h.021c-.03.002-.06.01-.087.023.029-.009.072-.018.12-.032h.017l.008-.004zM17.648 24.06l-.012.037.017-.023v-.014M3.477 35.339c.031-.007.063-.012.095-.014-.026-.002-.053.001-.078.009m.078-.009c.054-.005.116-.005.182-.005-.06-.012-.123-.01-.182.005zm-2.336 1.183c-.015.075-.021.152-.017.229l.012-.156v-.046l.004-.027zm.178-.989c-.004.012-.007.024-.009.036.004-.012.007-.024.009-.036zm2.006-.165c.019-.006.038-.01.058-.014-.021 0-.034.009-.05.009zm14.44-11.658l.1-.059.012-.028-.062.028c-.049.014-.062.046-.049.059z" fill="#e51e26"/><g fill="#fff"><path d="M.511 57.67h.8c.118-.002.236.005.353.021a.59.59 0 0 1 .208.082c.063.046.115.104.155.171a.43.43 0 0 1 .063.232c-.001.091-.028.18-.078.256a.48.48 0 0 1-.204.174.61.61 0 0 1 .281.181c.064.089.097.196.095.305a.57.57 0 0 1-.063.265c-.038.083-.097.155-.171.208a.62.62 0 0 1-.271.089c-.072.008-.229.011-.49.016H.511v-2zm.405.334v.459h.263l.292-.005a.3.3 0 0 0 .166-.072c.039-.043.06-.1.058-.158a.2.2 0 0 0-.053-.15.23.23 0 0 0-.149-.072c-.042 0-.158-.008-.348-.008l-.229.004zm0 .796v.533h.373c.092.003.185-.002.276-.013.055-.01.107-.037.147-.076a.26.26 0 0 0 .055-.171c.002-.055-.013-.109-.042-.155s-.076-.075-.126-.095a1.68 1.68 0 0 0-.359-.024l-.324.001zm5.668.872h-.442l-.172-.454h-.797l-.169.454h-.431l.778-1.999h.431l.801 1.999zm-.742-.793l-.279-.74-.269.74h.547zm3.21.794v-1.999h.405v.788h.79v-.788h.405v1.999h-.405v-.872h-.79v.872h-.405zm4.271-.001v-1.999h.852c.155-.006.31.012.46.052.099.035.182.105.232.197a.58.58 0 0 1-.042.685c-.107.104-.246.168-.395.181a.98.98 0 0 1 .215.168 2.33 2.33 0 0 1 .226.326l.245.389h-.478l-.287-.43a2.26 2.26 0 0 0-.215-.294.33.33 0 0 0-.121-.084c-.066-.019-.134-.028-.202-.027h-.084v.834h-.405zm.402-1.153h.3a1.61 1.61 0 0 0 .363-.024c.045-.016.084-.044.114-.082a.25.25 0 0 0 .042-.15c.003-.06-.016-.12-.053-.168-.043-.042-.099-.067-.158-.072-.097-.011-.195-.014-.292-.011h-.316v.505zm5.672 1.153h-.439l-.177-.454h-.798l-.169.454h-.424l.776-1.999h.431l.799 1.999zm-.745-.793l-.274-.74-.271.74h.545zm3.602-1.209h-.4v1.999h.4V57.67zm2.644 2.003v-1.999h.392l.819 1.337v-1.337h.376v1.999h-.409l-.803-1.3v1.3h-.375z"/></g></g></g><defs><clipPath id="A"><path fill="#fff" transform="translate(.5)" d="M0 0h66v60H0z"/></clipPath><clipPath id="B"><path fill="#fff" transform="translate(.5)" d="M0 0h65.097v59.669H0z"/></clipPath></defs></svg>