<svg width="175" height="25" viewBox="0 0 175 25" fill="none" xmlns="http://www.w3.org/2000/svg">
<path d="M5.07932 22.3448V24.6126H0.139648V0.9375H5.07932V9.72529C6.2919 7.92569 8.33414 6.86504 10.504 6.90326C14.5662 6.90326 18.4305 10.082 18.4305 15.8822V15.9459C18.4305 21.7492 14.6332 24.9311 10.504 24.9311C8.38519 24.9725 6.37486 24.0106 5.07932 22.3352V22.3416V22.3448ZM13.4908 15.9554V15.8885C13.4908 13.0028 11.5443 11.0885 9.23719 11.0885C6.9301 11.0885 5.01231 12.9996 5.01231 15.8885V15.9554C5.01231 18.8412 6.92691 20.7554 9.23719 20.7554C11.5475 20.7554 13.4908 18.8794 13.4908 15.9554Z" fill="white"/>
<path d="M21.4876 19.6182V19.5513C21.4876 15.7578 24.3786 14.006 28.5269 14.006C29.9756 13.9932 31.4148 14.2385 32.7805 14.7226V14.4264C32.7805 12.3847 31.5137 11.2476 29.0439 11.2476C27.3941 11.2476 25.7635 11.5693 24.235 12.1904L23.0033 8.4256C25.1221 7.45413 27.4324 6.97636 29.7618 7.03051C32.455 7.03051 34.4047 7.74716 35.6397 8.97662C36.8778 10.2061 37.5255 12.1904 37.5255 14.5219V24.6061H32.7486V22.7237C31.4116 24.2079 29.481 25.017 27.4835 24.931C24.1808 24.931 21.4844 23.0486 21.4844 19.6118V19.6182H21.4876ZM32.822 18.4843V17.6052C31.8296 17.1688 30.7574 16.949 29.6725 16.9586C27.56 16.9586 26.2581 17.8026 26.2581 19.357V19.4239C26.2581 20.7553 27.3654 21.5324 28.9577 21.5324C31.2616 21.5324 32.8188 20.2679 32.8188 18.4843H32.822Z" fill="white"/>
<path d="M42.21 0.9375H47.1496V9.69025C48.292 8.22828 49.7503 6.90326 52.2552 6.90326C55.9919 6.90326 58.1682 9.36855 58.1682 13.3532V24.6062H53.2253V14.9075C53.2253 12.5728 52.1244 11.3943 50.2385 11.3943C48.3526 11.3943 47.1496 12.5951 47.1496 14.9075V24.6062H42.21V0.9375Z" fill="white"/>
<path d="M62.9095 7.25727H67.8492V10.7705C68.8543 8.37207 70.4786 6.81454 73.3824 6.94513V12.0987H73.1271C69.8436 12.0987 67.8332 14.0766 67.8332 18.2269V24.6481H62.8936L62.9127 7.25408H62.9095V7.25727Z" fill="white"/>
<path d="M75.0862 19.6182V19.5513C75.0862 15.7578 77.9772 14.006 82.1255 14.006C83.5743 13.9932 85.0134 14.2385 86.3791 14.7226V14.4264C86.3791 12.3847 85.1123 11.2476 82.6425 11.2476C80.9927 11.2476 79.3621 11.5693 77.8336 12.1904L76.6019 8.4256C78.7176 7.45413 81.0278 6.97636 83.3541 7.03051C86.0537 7.03051 88.0002 7.74716 89.2383 8.97662C90.4764 10.2061 91.1178 12.1904 91.1178 14.5219V24.6061H86.3121V22.7237C84.9751 24.2079 83.0446 25.017 81.047 24.931C77.7634 24.931 75.083 23.0486 75.083 19.6118V19.6182H75.0862ZM86.427 18.4843V17.6052C85.4346 17.1688 84.3592 16.949 83.2743 16.9586C81.1682 16.9586 79.8663 17.8026 79.8663 19.357V19.4239C79.8663 20.7553 80.9736 21.5324 82.5595 21.5324C84.8666 21.5324 86.427 20.2679 86.427 18.4843Z" fill="white"/>
<path d="M95.9111 0.9375H101.112V5.31388H95.9111V0.9375ZM96.042 7.23133H100.982V24.6126H96.042V7.23133Z" fill="white"/>
<path d="M106.084 7.25725H111.024V9.72254C112.16 8.26056 113.618 6.93555 116.123 6.93555C119.86 6.93555 122.036 9.40084 122.036 13.3854V24.6385H117.096V14.9143C117.096 12.5796 115.989 11.4011 114.103 11.4011C112.217 11.4011 111.021 12.6019 111.021 14.9143V24.6131H106.081V7.25406L106.084 7.25725Z" fill="white"/>
<path d="M126.583 19.4238H131.848V24.6124H126.583V19.4238Z" fill="white"/>
<path d="M141.463 22.3448V24.6126H136.523V0.9375H141.463V9.72529C142.676 7.92569 144.718 6.86504 146.888 6.90326C150.95 6.90326 154.814 10.082 154.814 15.8822V15.9459C154.814 21.7492 151.014 24.9311 146.888 24.9311C144.769 24.9725 142.759 24.0106 141.463 22.3352V22.3416V22.3448ZM149.878 15.9554V15.8885C149.878 13.0028 147.931 11.0885 145.624 11.0885C143.317 11.0885 141.399 12.9996 141.399 15.8885V15.9554C141.399 18.8412 143.314 20.7554 145.624 20.7554C147.934 20.7554 149.878 18.8794 149.878 15.9554Z" fill="white"/>
<path d="M158.908 0.9375H163.845V9.69025C164.981 8.22828 166.445 6.90326 168.95 6.90326C172.687 6.90326 174.86 9.36855 174.86 13.3532V24.6062H169.924V14.9075C169.924 12.5728 168.823 11.3943 166.937 11.3943C165.051 11.3943 163.848 12.5951 163.848 14.9075V24.6062H158.911V0.9375H158.908Z" fill="white"/>
</svg>
