<svg width="48" height="48" viewBox="0 0 48 48" fill="none" xmlns="http://www.w3.org/2000/svg">
<g clip-path="url(#clip0_1702_70234)">
<path d="M4.80078 4V44C4.80205 45.0605 5.22389 46.0772 5.97376 46.827C6.72363 47.5769 7.74031 47.9987 8.80078 48H40.0008C40.6373 48 41.2477 47.7471 41.6978 47.2971C42.1479 46.847 42.4008 46.2365 42.4008 45.6V40.988C42.6536 40.764 42.8558 40.4887 42.9938 40.1803C43.1317 39.872 43.2023 39.5378 43.2008 39.2V2.4C43.2008 1.76348 42.9479 1.15303 42.4978 0.702944C42.0477 0.252856 41.4373 0 40.8008 0L8.80078 0C7.74031 0.00127029 6.72363 0.423106 5.97376 1.17298C5.22389 1.92285 4.80205 2.93952 4.80078 4ZM40.8008 45.6C40.8008 45.8122 40.7165 46.0157 40.5665 46.1657C40.4164 46.3157 40.213 46.4 40.0008 46.4H8.80078C8.16426 46.4 7.55381 46.1471 7.10372 45.6971C6.65364 45.247 6.40078 44.6365 6.40078 44C6.40078 43.3635 6.65364 42.753 7.10372 42.3029C7.55381 41.8529 8.16426 41.6 8.80078 41.6H40.8008V45.6ZM41.6008 2.4V39.2C41.6004 39.341 41.5628 39.4795 41.4917 39.6013C41.4206 39.7231 41.3186 39.8239 41.196 39.8936C41.0759 39.9633 40.9396 40 40.8008 40H8.80078C7.93505 39.9984 7.09243 40.2793 6.40078 40.8V4C6.40078 3.36348 6.65364 2.75303 7.10372 2.30294C7.55381 1.85286 8.16426 1.6 8.80078 1.6H40.8008C41.013 1.6 41.2164 1.68429 41.3665 1.83431C41.5165 1.98434 41.6008 2.18783 41.6008 2.4Z" fill="#012E5D"/>
<path d="M31.2 32.7998H16.8C16.5878 32.7998 16.3843 32.8841 16.2343 33.0341C16.0843 33.1841 16 33.3876 16 33.5998C16 33.812 16.0843 34.0155 16.2343 34.1655C16.3843 34.3155 16.5878 34.3998 16.8 34.3998H31.2C31.4122 34.3998 31.6157 34.3155 31.7657 34.1655C31.9157 34.0155 32 33.812 32 33.5998C32 33.3876 31.9157 33.1841 31.7657 33.0341C31.6157 32.8841 31.4122 32.7998 31.2 32.7998Z" fill="#012E5D"/>
<path d="M28.8004 36H19.2004C18.9882 36 18.7847 36.0843 18.6347 36.2343C18.4847 36.3843 18.4004 36.5878 18.4004 36.8C18.4004 37.0122 18.4847 37.2157 18.6347 37.3657C18.7847 37.5157 18.9882 37.6 19.2004 37.6H28.8004C29.0126 37.6 29.216 37.5157 29.3661 37.3657C29.5161 37.2157 29.6004 37.0122 29.6004 36.8C29.6004 36.5878 29.5161 36.3843 29.3661 36.2343C29.216 36.0843 29.0126 36 28.8004 36Z" fill="#012E5D"/>
<path d="M12.7999 31.1999C13.115 31.2006 13.4271 31.139 13.7183 31.0185C14.0095 30.8981 14.2741 30.7213 14.4967 30.4983L22.5823 22.4111C22.7152 22.4485 22.8523 22.4687 22.9903 22.4711C23.2004 22.4715 23.4085 22.4304 23.6026 22.3501C23.7967 22.2698 23.9731 22.1518 24.1215 22.0031L25.2535 20.8719L26.4895 22.1071C26.2752 22.5544 26.2048 23.0571 26.2879 23.546C26.371 24.0349 26.6035 24.4861 26.9535 24.8375L27.5135 25.3903C27.7339 25.6154 27.997 25.7943 28.2874 25.9165C28.5778 26.0388 28.8896 26.102 29.2047 26.1023H29.2119C29.5281 26.1024 29.8413 26.0398 30.1332 25.9181C30.4251 25.7965 30.6901 25.6182 30.9127 25.3935L37.6967 18.6095C37.9197 18.3866 38.0966 18.122 38.2173 17.8307C38.338 17.5394 38.4002 17.2272 38.4002 16.9119C38.4002 16.5966 38.338 16.2844 38.2173 15.9931C38.0966 15.7018 37.9197 15.4372 37.6967 15.2143L37.1287 14.6455C36.7775 14.2987 36.3279 14.0686 35.8411 13.9865C35.3544 13.9045 34.8542 13.9745 34.4087 14.1871L27.4127 7.19192C27.626 6.74653 27.6963 6.24609 27.6141 5.75915C27.5319 5.27222 27.3012 4.82261 26.9535 4.47192L26.3855 3.90392C25.9279 3.46786 25.32 3.22461 24.6879 3.22461C24.0558 3.22461 23.4479 3.46786 22.9903 3.90392L16.2063 10.6879C15.9821 10.9096 15.804 11.1735 15.6824 11.4643C15.5607 11.7552 15.4978 12.0673 15.4974 12.3825C15.4969 12.6978 15.5589 13.01 15.6798 13.3012C15.8006 13.5924 15.9779 13.8568 16.2015 14.0791L16.7663 14.6519C17.1158 15.0037 17.5667 15.2372 18.0556 15.3197C18.5446 15.4022 19.0471 15.3295 19.4927 15.1119L20.7279 16.3479L19.5999 17.4783C19.4028 17.6765 19.2613 17.9231 19.1895 18.1932C19.1178 18.4634 19.1183 18.7476 19.1911 19.0175L11.1031 27.1031C10.7675 27.4388 10.539 27.8664 10.4465 28.3319C10.3539 28.7973 10.4014 29.2798 10.5831 29.7183C10.7647 30.1568 11.0722 30.5316 11.4668 30.7953C11.8614 31.059 12.3253 31.1998 12.7999 31.1999ZM35.9999 15.7775L36.5679 16.3455C36.6423 16.4198 36.7013 16.5081 36.7415 16.6052C36.7818 16.7023 36.8025 16.8064 36.8025 16.9115C36.8025 17.0167 36.7818 17.1208 36.7415 17.2179C36.7013 17.315 36.6423 17.4032 36.5679 17.4775L29.7839 24.2615C29.7094 24.3371 29.6208 24.3971 29.523 24.4383C29.4253 24.4795 29.3204 24.501 29.2143 24.5015C29.1089 24.5012 29.0046 24.4799 28.9076 24.4386C28.8106 24.3974 28.7228 24.3372 28.6495 24.2615L28.0895 23.7015C28.015 23.6272 27.9559 23.5389 27.9155 23.4417C27.8752 23.3445 27.8545 23.2404 27.8545 23.1351C27.8545 23.0299 27.8752 22.9257 27.9155 22.8285C27.9559 22.7313 28.015 22.643 28.0895 22.5687L34.8815 15.7775C35.0312 15.6295 35.2333 15.5465 35.4439 15.5465C35.6544 15.5465 35.8565 15.6295 36.0063 15.7775H35.9999ZM17.9023 13.5199L17.3335 12.9439C17.2581 12.8713 17.198 12.7844 17.1568 12.6882C17.1156 12.592 17.094 12.4886 17.0935 12.3839C17.0937 12.2774 17.115 12.1721 17.1562 12.0739C17.1974 11.9757 17.2576 11.8867 17.3335 11.8119L24.1183 5.02792C24.1926 4.95354 24.2808 4.89454 24.3779 4.85428C24.475 4.81402 24.5791 4.79329 24.6843 4.79329C24.7894 4.79329 24.8935 4.81402 24.9906 4.85428C25.0878 4.89454 25.176 4.95354 25.2503 5.02792L25.8175 5.59592C25.9655 5.74568 26.0485 5.94776 26.0485 6.15832C26.0485 6.36889 25.9655 6.57097 25.8175 6.72072L19.0303 13.5199C18.8804 13.6689 18.6776 13.7526 18.4663 13.7526C18.2549 13.7526 18.0522 13.6689 17.9023 13.5199ZM26.3823 8.42392L33.1711 15.2119L27.5199 20.8711L25.8231 19.1751L22.4287 15.7807L20.7279 14.0799L26.3823 8.42392ZM21.8591 17.4775L24.1223 19.7407L22.9911 20.8727L20.7279 18.6095L21.8591 17.4775ZM12.2343 28.2343L20.1623 20.3063L21.2935 21.4399L13.3655 29.3679C13.2146 29.5137 13.0125 29.5943 12.8028 29.5925C12.593 29.5906 12.3924 29.5065 12.244 29.3582C12.0957 29.2099 12.0116 29.0092 12.0097 28.7994C12.0079 28.5897 12.0886 28.3876 12.2343 28.2367V28.2343Z" fill="#C63B2B"/>
</g>
<defs>
<clipPath id="clip0_1702_70234">
<rect width="48" height="48" fill="white"/>
</clipPath>
</defs>
</svg>
