<svg width="49" height="49" viewBox="0 0 49 49" fill="none" xmlns="http://www.w3.org/2000/svg">
<g clip-path="url(#clip0_1790_93901)">
<path d="M17.7793 29.0547H37.537V31.8672H17.7793V29.0547Z" fill="#C63B2B"/>
<path d="M17.7793 23.4062H43.1855V26.2188H17.7793V23.4062Z" fill="#C63B2B"/>
<path d="M17.7793 17.7578H43.1855V20.5703H17.7793V17.7578Z" fill="#C63B2B"/>
<path d="M17.7793 9.28516H27.6581V12.0977H17.7793V9.28516Z" fill="#C63B2B"/>
<path d="M40.373 29.0547H43.1855V31.8672H40.373V29.0547Z" fill="#C63B2B"/>
<path d="M48.834 10.1089L39.5375 0.8125H12.1309V6.46094H6.48242V12.1094H0.833984V48.8125H37.5371V43.1641H43.1855V37.5156H48.834V10.1089ZM40.3613 5.61372L44.0328 9.28516H40.3613V5.61372ZM34.7246 46H3.64648V14.9219H6.48242V43.1641H34.7246V46ZM40.373 40.3516H9.29492V9.27344H12.1309V37.5157L40.373 37.5156V40.3516ZM14.9434 34.7032V3.625H37.5488V12.0977H46.0215V34.7031L14.9434 34.7032Z" fill="#012E5D"/>
</g>
<defs>
<clipPath id="clip0_1790_93901">
<rect width="48" height="48" fill="white" transform="translate(0.833984 0.8125)"/>
</clipPath>
</defs>
</svg>
