<svg width="53" height="53" viewBox="0 0 53 53" fill="none" xmlns="http://www.w3.org/2000/svg">
<path d="M26.666 0.625C21.5237 0.625 16.4969 2.14987 12.2212 5.00679C7.94552 7.86371 4.61304 11.9244 2.64516 16.6752C0.677281 21.4261 0.162394 26.6538 1.16561 31.6973C2.16883 36.7409 4.64509 41.3736 8.28125 45.0098C11.9174 48.6459 16.5502 51.1222 21.5937 52.1254C26.6372 53.1286 31.8649 52.6137 36.6158 50.6459C41.3667 48.678 45.4273 45.3455 48.2842 41.0698C51.1412 36.7941 52.666 31.7673 52.666 26.625C52.6587 19.7316 49.9171 13.1226 45.0428 8.24826C40.1684 3.37389 33.5594 0.63228 26.666 0.625ZM36.8035 28.27L23.8035 37.27C23.5034 37.4775 23.1522 37.599 22.788 37.6213C22.4238 37.6435 22.0605 37.5657 21.7373 37.3963C21.4142 37.2268 21.1435 36.9722 20.9547 36.66C20.7659 36.3478 20.666 35.9899 20.666 35.625V17.625C20.666 17.2601 20.7659 16.9022 20.9547 16.59C21.1435 16.2778 21.4142 16.0231 21.7373 15.8537C22.0605 15.6843 22.4238 15.6065 22.788 15.6287C23.1522 15.651 23.5034 15.7725 23.8035 15.98L36.8035 24.98C37.0696 25.164 37.2871 25.4098 37.4373 25.6963C37.5875 25.9828 37.666 26.3015 37.666 26.625C37.666 26.9485 37.5875 27.2672 37.4373 27.5537C37.2871 27.8402 37.0696 28.086 36.8035 28.27Z" fill="white"/>
</svg>
