<svg width="48" height="49" viewBox="0 0 48 49" fill="none" xmlns="http://www.w3.org/2000/svg">
<g clip-path="url(#clip0_3940_10122)">
<path d="M48 0.75H0V9.22059H2.82353V37.4559H22.5882V40.5222C20.945 41.1049 19.7647 42.6742 19.7647 44.5147C19.7647 46.8501 21.6646 48.75 24 48.75C26.3354 48.75 28.2353 46.8501 28.2353 44.5147C28.2353 42.6742 27.055 41.105 25.4118 40.5222V37.4559H45.1765V9.22059H48V0.75ZM24 45.9265C23.2216 45.9265 22.5882 45.2932 22.5882 44.5147C22.5882 43.7362 23.2216 43.1029 24 43.1029C24.7785 43.1029 25.4118 43.7362 25.4118 44.5147C25.4118 45.2932 24.7785 45.9265 24 45.9265ZM42.3529 34.6324H5.64706V9.22059H42.3529V34.6324ZM45.1765 6.39706H2.82353V3.57353H45.1765V6.39706Z" fill="#012E5D"/>
<path d="M19.351 15.8659L17.3546 13.8694L12.7058 18.5181L10.8805 16.6929L8.88403 18.6894L12.7058 22.5112L19.351 15.8659Z" fill="#C63B2B"/>
<path d="M25.4119 13.4558H39.5295V16.2793H25.4119V13.4558Z" fill="#012E5D"/>
<path d="M25.4119 19.103H39.5295V21.9266H25.4119V19.103Z" fill="#012E5D"/>
<path d="M8.4707 26.1619H22.5884V28.9854H8.4707V26.1619Z" fill="#012E5D"/>
<path d="M25.4119 26.1619H39.5295V28.9854H25.4119V26.1619Z" fill="#012E5D"/>
</g>
<defs>
<clipPath id="clip0_3940_10122">
<rect width="48" height="48" fill="white" transform="translate(0 0.75)"/>
</clipPath>
</defs>
</svg>
