<svg xmlns="http://www.w3.org/2000/svg" width="60" height="71" fill="none" xmlns:v="https://vecta.io/nano"><g clip-path="url(#A)"><g fill-rule="evenodd" fill="#a7a8a9"><path d="M36.048 66.783c.041.208.096.402.289.527.138.083.289.069.441.055.276-.042.51-.153.62-.43.138-.388.11-.777-.11-1.137-.014-.028-.041-.042-.083-.083-.041.263-.193.485 0 .721l.041.083c.041.111.028.139-.069.194-.165.097-.358.125-.538.097a.44.44 0 0 1-.4-.402v-.222-.139c-.083.042-.138.069-.193.083l-.648.305c-.538.194-1.089.319-1.654.361-.483.042-.979.028-1.447-.125-.579-.194-.992-.555-1.13-1.179l-.179-.943-.386-2.275-.427-1.97c-.014-.083-.055-.153-.083-.236h-.041c-.069.194-.152.402-.11.61l.276 1.526.29 1.72.289 1.831c.014.111.041.236.028.361-.028.194-.165.319-.317.444-.551.458-1.172.818-1.819 1.123-.469.222-.937.361-1.461.291-.565-.083-.91-.402-1.02-.957-.055-.305-.041-.61 0-.915l.055-.291c.055.097.083.18.124.25.096.18.22.347.413.444.4.222.937.097 1.213-.291.262-.347.358-.749.331-1.179-.014-.347-.069-.68-.097-1.026 0-.028 0-.069.027-.083l.51-.319.262 1.761.207 1.748h.027c.028-.055.055-.111.069-.166.152-.486.165-.971.096-1.47l-.317-2.081a.15.15 0 0 1 .041-.097l.386-.416c.055-.069.097-.083.179-.055.276.097.234.125.358-.166v-.028l-.303-.125c.069-.208.083-.416.028-.624-.055-.18-.179-.236-.331-.125-.11.083-.207.194-.29.319-.138.208-.096.388.097.541.069.056.152.097.248.166l-.441.402-.372-2.108c.138.097.207.25.372.291-.152-.513-.386-.971-.648-1.443l-.234.569v.069c.11.111.097.25.11.375l.248 1.567.138.832c0 .028 0 .097-.014.111l-.51.319-.455-2.621c.138.097.207.25.372.319-.014-.222-.524-1.345-.648-1.47l-.193.485c-.041.083-.055.153.028.222a.15.15 0 0 1 .028.083l.193 1.207.317 1.872c0 .069 0 .111-.069.153a3.77 3.77 0 0 0-.4.236c-.027.014-.055.042-.083.055v.028l.579-.208v.042l.165 1.276c.028.208-.041.347-.207.458-.179.125-.372.153-.593.139-.317 0-.607-.222-.717-.541.041-.028.069-.069.11-.097.303-.291.469-.638.386-1.068-.041-.25-.124-.485-.303-.666-.193-.194-.427-.18-.565.056-.152.264-.234.555-.193.846.028.236.083.458.124.693-.455.222-.937.388-1.42.499l.207-.416c.11-.264.069-.527-.11-.749-.055-.069-.124-.139-.193-.208-.455-.444-1.006-.486-1.516-.111-.386.277-.648.652-.896 1.04l-.207.347a1.02 1.02 0 0 1-.427-.444c-.028-.069-.069-.125-.11-.18s-.097-.097-.179-.069c-.124.042-.262.083-.358.153-.455.374-.744.846-.813 1.429-.027.263.069.444.303.555.221.111.469.139.703.18a4.28 4.28 0 0 1 .606.125c.152.042.165.153.041.25a.77.77 0 0 1-.11.083l-.855.472c-.565.277-1.158.499-1.792.527-.276 0-.551 0-.799-.125-.634-.319-.868-.929-.772-1.581.027-.208.11-.402.165-.596.027-.083.055-.139.138-.18.069-.028.124-.083.165-.153.138-.194.193-.416.234-.638 0-.042-.027-.083-.041-.125h-.028l-.165.264c-.165.263-.455.166-.551-.042-.083-.18-.124-.374-.096-.555l.152-.846.303-1.123v-.139h-.027c-.028.028-.055.069-.083.097-.041.083-.083.153-.11.236-.234.596-.386 1.221-.482 1.845-.055.333-.028.666.124.971.083.153.165.291.358.305l-.152.361c-.165.471-.234.957-.124 1.456.138.624.51 1.026 1.144 1.179.441.097.896.042 1.323-.083.62-.166 1.158-.472 1.681-.832.083-.055.152-.125.234-.166.331-.208.496-.527.496-.929 0-.264-.069-.402-.303-.513s-.496-.111-.758-.153c-.207-.028-.4-.097-.593-.166-.152-.056-.165-.153-.083-.291.041-.055.069-.111.124-.166l.51-.43c.152-.111.248-.055.331.111s.179.319.331.43c.028.014.028.069.028.097-.014.083-.041.166-.055.25 0 .028.014.055.028.083.028-.014.069-.028.083-.055a3.65 3.65 0 0 0 .124-.236c.11.042.207.097.317.125s.22.055.331.055c.455.042.896 0 1.337-.055.799-.111 1.558-.333 2.274-.694.014 0 .028 0 .055-.014v.028c0 .014 0 .042-.014.055-.207.582-.276 1.165-.138 1.775a1.3 1.3 0 0 0 1.296 1.04 3.06 3.06 0 0 0 1.172-.25c.717-.305 1.364-.735 1.957-1.234.179-.153.358-.305.455-.513.069-.139.096-.305.152-.444 0 .028.014.042.027.069.221.513.579.86 1.117 1.013.289.083.579.111.868.125.841.028 1.64-.18 2.426-.472.193-.069.386-.18.565-.263 0 .042 0 .097.028.153l.028-.028zm-6.63-4.452c-.069-.042-.096-.097-.069-.18.028-.097.096-.111.193-.111.083 0 .152.028.165.111v.305s-.028 0-.041.014l-.248-.139zm-4.907 3.176c-.276.153-.565.263-.882.333-.427.083-.854.139-1.282.028-.083-.014-.152-.055-.248-.083.262-.388.524-.735.91-.985.427-.263.813-.25 1.213.055a1.88 1.88 0 0 1 .331.333c.138.153.124.222-.055.319h.014zm1.806-1.387c.096-.042.179 0 .234.055.152.139.248.319.317.527 0 .042-.014.111-.055.139-.138.111-.276.194-.441.305l-.179-.555a.71.71 0 0 1-.041-.236c0-.111.055-.194.152-.236h.014z"/><path d="M39.383 66.991l.496-.319v.097c.041.25.138.444.4.527.221.069.427.056.634-.042.344-.153.524-.458.648-.804.138-.402.11-.818.055-1.234l-.221-1.484-.386-2.205-.069-.402c.138.111.207.25.372.305a8.91 8.91 0 0 0-.62-1.442h-.041l-.221.555c0 .028 0 .069.014.083.069.056.069.139.083.208l.4 2.483.413 2.76c.028.208 0 .375-.193.499a.95.95 0 0 1-.606.153c-.234-.014-.524-.319-.441-.569v-.125l-.427.263c-.138.083-.29.153-.427.222-.014-.028-.028-.056-.041-.069-.096-.222-.262-.375-.455-.499s-.4-.111-.565.042c-.234.208-.372.458-.386.777 0 .25.124.43.358.458.193.028.386 0 .579 0 .124 0 .234-.069.358-.097.11.18.096.319-.069.499-.441.458-.937.832-1.516 1.11a1.56 1.56 0 0 1-.758.166.87.87 0 0 1-.855-.652c-.096-.319-.055-.638 0-.957l.055-.25h-.028c-.028.028-.055.055-.069.097-.193.486-.289.985-.179 1.498.096.43.331.735.786.832.262.055.524.028.786-.069.703-.277 1.268-.735 1.751-1.304.152-.18.262-.388.289-.624l.041-.402c0-.028 0-.069.027-.083h.028zm-.634-.277h-.4c-.124 0-.193-.055-.179-.111 0-.069.138-.152.221-.152.152.028.262.111.358.236v.028zm2.922-5.895c.014 0 .014.042.028.069l.138.929.262 1.595.317 1.983.193 1.734c0 .055.014.111.027.166h.041c.014-.042.041-.069.055-.111.055-.277.138-.555.138-.832a8.7 8.7 0 0 0-.096-1.193l-.221-1.415-.345-1.983-.083-.513c.138.097.207.25.358.319.028-.153-.496-1.331-.648-1.456l-.193.472c-.041.083-.055.166.028.236zm-7.677 2.302c.028 0 .069-.028.097-.042l.91-.388 2.453-.915c.096-.042.221-.056.29-.111.152-.139.262-.305.386-.458 0 0 0-.014-.014-.028l-.482.139c-1.034.333-2.054.707-3.046 1.165a1.28 1.28 0 0 0-.455.361 2.64 2.64 0 0 1-.179.236l.028.028.014.014zm-14.501.777c.041-.111.124-.111.207-.028.028.028.055.069.097.111a.25.25 0 0 0-.097-.416c-.11-.042-.193-.028-.248.083a.81.81 0 0 0-.069.194l-.138.68c-.028-.069-.055-.139-.083-.18l-.317-.485c-.041-.055-.138-.083-.221-.097a.14.14 0 0 0-.096.055c-.041.125-.055.264.083.333a.55.55 0 0 0 .124.069.67.67 0 0 1 .152.014c.193.153.221.416.331.652-.248.208-.331.388-.234.485.055-.055.11-.139.179-.18s.165.014.22.125c-.027 0-.055.014-.096.028-.4.097-.565.361-.482.763l.221.943c.083.347.152.693.069 1.054v.069c.041-.042.069-.069.083-.097a.5.5 0 0 0 .041-.194 3.05 3.05 0 0 0-.083-.999l-.207-.874c-.028-.166 0-.264.165-.319a2.1 2.1 0 0 1 .496-.097c.083 0 .138-.028.165-.111s.069-.166-.014-.236l-.427-.402.083-.569.097-.361v-.014z"/><path d="M40.058 62.775l-.262-.083v-.028-.056c.041-.208.041-.402-.027-.596-.055-.18-.179-.222-.345-.111-.138.097-.234.236-.303.388a.36.36 0 0 0 .11.499 3.22 3.22 0 0 0 .317.194l-.427.43c-.441.402-.951.721-1.461 1.026l-.441.291s0 .014.014.028c.028 0 .055-.014.083-.028.496-.194.965-.43 1.392-.763.303-.236.593-.485.827-.791.11-.153.11-.153.276-.111.221.056.221.056.303-.166.014-.055 0-.097-.055-.111v-.014zm-.372-.097l-.331-.153c-.069-.042-.097-.111-.069-.18a.27.27 0 0 1 .124-.125c.152-.055.248 0 .276.166v.291zm-7.277-2.261c-.028.152.055.208.138.25.069.042.152.083.234.083.055 0 .083 0 .11.042.083.125.152.25.221.388.041.097.069.194.124.277 0 .028.041.042.069.056.014-.028.041-.042.041-.069 0-.014.014-.042.014-.069l.083-.513a2.63 2.63 0 0 1 .124-.472c.055-.139.124-.139.221-.028.041.042.083.083.124.139.138-.236.096-.402-.124-.499-.138-.069-.221-.042-.289.097-.096.166-.11.347-.138.527l-.083.444c-.027-.069-.041-.125-.069-.166-.11-.18-.193-.361-.317-.527-.179-.236-.317-.236-.538-.042-.4.361-.855.652-1.296.929-.028.014-.055.042-.083.056 0 0 0 .014.014.028.551-.18 1.061-.43 1.447-.943l-.028.014zm.606 5.881c.179-.18.234-.416.262-.666 0-.028-.014-.069-.041-.111l-.193.291c-.055.083-.138.125-.248.111-.152-.028-.221-.139-.262-.264-.083-.236-.069-.472 0-.707l.358-1.415c.014-.055.014-.125.028-.194h-.028c-.096.083-.124.194-.165.305-.221.555-.372 1.123-.441 1.72-.041.305 0 .596.152.86.138.236.4.277.579.083v-.014zm-12.102-3.315c.207.014.345-.083.413-.25s.11-.333.165-.499c0-.028-.028-.069-.028-.097-.028.028-.055.042-.069.069-.041.055-.069.111-.096.152-.152.208-.372.208-.482-.028-.055-.111-.083-.25-.097-.375-.028-.277.055-.555.124-.818l.29-1.068v-.139c-.014 0-.028 0-.041-.014l-.138.264c-.234.596-.4 1.207-.469 1.845a1.25 1.25 0 0 0 .193.832c.055.083.138.139.234.139v-.014zm15.465-.361l.041-.194c-.014 0-.041-.014-.055-.028-.041.097-.096.18-.138.277a7.69 7.69 0 0 0-.441 1.651c-.055.333-.028.652.138.957.124.25.455.25.606.056.152-.18.207-.402.234-.624 0-.028-.028-.069-.041-.097l-.069.069c0 .014-.014.042-.028.056-.055.069-.11.166-.179.222-.124.083-.303 0-.386-.166-.11-.236-.11-.499-.041-.749l.358-1.428zm4.673 6.186l-.593-.347-.248.43-.579-.347-.289.513.593.347.248-.43.579.347.289-.513zm-6.878.097l-.579-.347-.289.513.593.347.248-.43.579.347.289-.513-.593-.347-.248.43zm-14.114 1.068l-.579-.347-.29.513.593.347.248-.43.579.347.29-.513-.593-.347-.248.43zm-2.923-7.67c.427-.139.827-.319 1.199-.569.289-.194.579-.402.799-.68.096-.125.165-.153.303-.083.138.055.152.042.221-.097v-.028c.041-.055.014-.097-.041-.125l-.221-.083a1.2 1.2 0 0 0 .028-.583c-.041-.18-.165-.236-.303-.125a1.1 1.1 0 0 0-.262.305c-.124.18-.083.347.083.485a1.76 1.76 0 0 0 .234.153l-.386.347c-.414.333-.868.582-1.323.846-.138.069-.262.152-.413.236h.041c.014 0 .041 0 .055-.014l-.014.014zm1.888-1.817c-.069-.042-.083-.097-.055-.18s.096-.097.179-.097c.069 0 .138.028.152.097v.291h-.041l-.234-.125v.014z"/><path d="M31.83 63.205c.028 0 .069.014.097 0 .138 0 .289-.014.427-.042.11-.014.234-.028.317-.083a1.45 1.45 0 0 0 .51-.569c.069-.139.041-.194-.096-.222-.193-.042-.4-.069-.593-.097-.069 0-.152 0-.207.028-.193.111-.331.305-.441.499v.083c.027 0 .055 0 .083-.028.055-.028.096-.083.152-.083.221 0 .441 0 .648.083v.028l-.896.347v.028.028zm-7.085 4.091c-.027 0-.055.014-.083.028l-2.619.999c-.179.083-.234.166-.193.374.028 0 .041-.014.055-.028l.73-.333 1.943-.749c.096-.042.179-.18.152-.291h.014zm-5.127-5.645c-.096.083-.124.222-.083.347l.165.43c.028.083 0 .111-.083.111-.11 0-.207-.069-.22-.208-.028-.139-.028-.277-.041-.402 0-.097-.041-.18-.138-.236-.028.083-.055.166-.041.264 0 .139.041.264.055.402 0 .125-.096.236-.221.25-.138.014-.193-.028-.22-.194-.014-.111 0-.236-.014-.347 0-.083 0-.153-.028-.236 0-.028-.041-.055-.069-.069 0 0-.055.028-.069.056-.028.042-.041.083-.069.125-.041.069-.055.139.055.153v.069c0 .18 0 .361.083.527.055.111.138.194.262.194s.207-.069.276-.166l.083-.125.041.083c.055.097.221.18.331.153.124-.028.207-.111.207-.264 0-.125-.014-.25-.055-.374-.041-.166-.11-.319-.165-.472 0-.014-.014-.042-.027-.055l-.014-.014zm2.839-1.345l.083.513a.37.37 0 0 0 .29.291c.152 0 .234-.083.303-.208.014-.028.028-.056.055-.083a.8.8 0 0 1 .055.097c.069.097.234.166.331.139.124-.028.207-.125.193-.277 0-.125-.028-.25-.055-.361s-.097-.222-.138-.347c-.028-.056-.028-.125-.055-.194-.096.097-.138.25-.096.347l.165.43c.027.097 0 .139-.11.125-.096 0-.179-.069-.193-.18-.027-.125-.027-.264-.041-.388-.014-.097-.041-.208-.138-.291-.041.097-.069.18-.055.291a4.02 4.02 0 0 1 .055.402c0 .125-.11.236-.248.25-.124 0-.193-.055-.207-.222l-.014-.402c0-.069 0-.125-.027-.194-.028-.055-.069-.069-.11 0l-.083.153c-.041.069-.055.125.028.139l.014-.028zm-.772 3.356c.028-.028.055-.069.083-.097.041-.083.11-.097.193-.069.055 0 .138 0 .193-.014.041 0 .083-.042.124-.069.055.042.096.083.138.125 0 .069-.014.125-.028.18h.028c.014-.028.041-.042.055-.069.041-.069.096-.083.165-.097a2.86 2.86 0 0 0 .496-.125c.207-.083.276-.264.276-.485 0-.069-.028-.139-.11-.166-.138-.056-.29-.069-.4.056l-.317.388c-.041.055-.096.069-.138.028a.4.4 0 0 1-.097-.166l-.083-.319c-.069.083-.096.194-.069.333.014.111-.028.166-.124.166h-.083c-.124-.042-.193-.014-.276.125a.8.8 0 0 0-.069.194v.111h.027l.014-.028zm1.475-.652c.028 0 .055.042.096.056-.028.028-.041.056-.083.069a3.76 3.76 0 0 1-.469.139c.124-.236.276-.319.455-.277v.014zm1.847-2.371c.041.028.083.056.138.069.041.014.096 0 .138.014 0 0 .014-.028.028-.028l.22.402c.041.083.069.194.097.277.014.042.055.083.11.152.027-.069.055-.111.055-.166l.083-.541c.028-.153.055-.305.11-.444s.152-.153.248-.028c.027.042.055.069.083.111.165-.166.096-.416-.124-.499-.11-.042-.207-.028-.262.083-.055.097-.083.194-.11.291l-.124.68c-.027-.083-.055-.139-.083-.194-.083-.194-.193-.388-.358-.541-.069-.056-.152-.083-.221-.111s-.124 0-.152.083c-.055.166-.014.291.124.388zm13.687.041a.45.45 0 0 0 .124.055h.152c.124.111.207.264.262.444l.097.25c.014.028.055.056.083.069.014-.028.055-.056.055-.083l.083-.472.124-.555c.041-.125.152-.125.234-.028.041.042.069.083.11.139.083-.111.11-.222.069-.333-.055-.111-.152-.194-.29-.194-.124 0-.165.083-.221.18-.014.042-.041.083-.041.125l-.152.777-.069-.153-.276-.471c-.069-.111-.165-.194-.289-.222-.11-.028-.179 0-.193.125-.041.194 0 .264.165.361l-.027-.014zm-3.06-.014a.55.55 0 0 0 .124.069c.041.014.096.014.152.014l.027-.028c.069.111.152.208.207.333.055.097.069.208.11.319.028.055.069.111.096.166h.028l.041-.111.096-.61c.028-.153.055-.291.11-.444.041-.111.124-.111.207-.028.041.042.069.083.11.139.165-.153.097-.416-.124-.499-.124-.042-.221-.028-.276.097a1.62 1.62 0 0 0-.124.361l-.11.61c-.041-.083-.055-.153-.096-.208-.083-.152-.165-.305-.276-.444a.72.72 0 0 0-.262-.194c-.096-.055-.179 0-.207.069-.055.152 0 .305.138.388h.028zm-10.93 8.017c-.234-.042-.441.069-.634.194-.014 0-.027.042-.055.097.083 0 .124 0 .179-.014h.152c.152 0 .248.139.207.264-.041.111-.096.222-.179.291-.152.139-.317.264-.483.347l-1.047.472c-.041.014-.083.042-.124.069 0 .014 0 .028.014.042a.62.62 0 0 0 .221-.042c.51-.153.992-.388 1.447-.652.262-.153.441-.361.551-.638a.32.32 0 0 0-.248-.43zm18.001-.055c-.234-.028-.441.069-.62.194-.014 0-.028.042-.028.069.027 0 .055.028.069.028.069 0 .152-.028.221-.028.165 0 .276.139.221.291-.028.069-.055.139-.096.194a1.28 1.28 0 0 1-.496.402l-1.075.499-.152.083s0 .028.014.042c.055 0 .11 0 .152-.028.579-.167 1.13-.43 1.64-.763a.98.98 0 0 0 .414-.555c.069-.194-.055-.402-.248-.416l-.014-.014zm-11.744.083c-.207 0-.4.083-.565.18-.028 0-.028.056-.041.083.028 0 .055.028.083.028.069 0 .152-.028.221-.028.152 0 .248.139.207.277a.99.99 0 0 1-.11.208 1.28 1.28 0 0 1-.496.402l-1.117.513a.3.3 0 0 0-.11.069v.028c.055 0 .11 0 .152-.014a6.18 6.18 0 0 0 1.654-.763c.207-.125.331-.319.414-.541.083-.208-.069-.43-.29-.444zm-5.334-6.186l.593.347.29-.513-.593-.347-.289.513zm10.627 5.756l.593.347.289-.513-.593-.347-.289.513zm-11.509-5.853l-.593-.347-.289.513.593.347.289-.513zm15.162 1.512h-.041c-.028.069-.083.139-.096.208l-.152.666c-.041.236-.055.471.069.693.055.111.165.139.276.055.097-.069.165-.319.11-.472-.028.055-.041.111-.069.153s-.083.083-.124.083-.083-.055-.11-.097c-.028-.028-.028-.083-.028-.125-.028-.361.069-.694.152-1.026 0-.042 0-.083.014-.125v-.014z"/></g><path d="M57.605 36.006c1.24-.666 1.64-2.358 1.64-2.358s-1.916-.208-3.074.68c-.358.277-.689.749-.951 1.207.221-.957.358-1.914.441-2.871a5.57 5.57 0 0 0 2.426-1.123c1.089-.86 1.185-2.566 1.185-2.566s-1.875.125-2.853 1.179c-.289.319-.524.818-.703 1.29.027-.999 0-1.997-.096-2.982.427-.153 1.351-.569 2.191-1.512.91-1.012.717-2.677.717-2.677s-1.792.444-2.55 1.623c-.248.388-.4.985-.482 1.512-.152-1.054-.372-2.094-.648-3.093.358-.208 1.227-.763 1.902-1.858.703-1.137.234-2.705.234-2.705s-1.654.735-2.178 2.011c-.193.472-.221 1.151-.207 1.706a25.18 25.18 0 0 0-1.199-3.093 5.21 5.21 0 0 0 1.516-2.108c.482-1.22-.234-2.649-.234-2.649s-1.475.999-1.764 2.316c-.11.472-.028 1.124.083 1.65-.51-1.012-1.089-1.956-1.709-2.829.276-.319.841-1.11 1.089-2.275.262-1.262-.675-2.51-.675-2.51s-1.254 1.207-1.309 2.538c-.014.444.138.999.317 1.47-.675-.874-1.392-1.651-2.15-2.316a5.23 5.23 0 0 0 .689-2.427c.041-1.262-1.075-2.316-1.075-2.316s-1.006 1.387-.841 2.677c.069.513.414 1.137.703 1.595-.91-.804-1.806-1.498-2.66-2.067.124-.305.455-1.262.276-2.51-.179-1.221-1.42-2.053-1.42-2.053s-.744 1.512-.358 2.718c.165.527.675 1.137 1.048 1.526-1.117-.721-2.15-1.248-3.046-1.637.069-.291.234-1.29-.152-2.483-.372-1.151-1.723-1.734-1.723-1.734s-.455 1.581.11 2.691c.262.513.923 1.054 1.351 1.359l-1.613-.596c-.193-.236-.855-.999-1.668-1.151-.689-.125-1.847.319-1.847.319s.551.763 1.668 1.165c.813.291 1.709-.153 1.888-.236l2.192.929c-.413-.083-1.53-.264-2.205-.042-1.185.374-1.971 1.831-1.971 1.831s1.365.541 2.44 0c1.199-.61 1.764-1.512 1.874-1.692.923.458 1.999 1.068 3.129 1.859-.482-.18-1.406-.458-2.026-.375-1.254.166-2.302 1.484-2.302 1.484s1.282.791 2.453.43c1.227-.374 1.957-1.11 2.15-1.331.855.61 1.737 1.331 2.619 2.191l.207.194c-.455-.263-1.323-.707-1.971-.735-1.296-.056-2.564 1.082-2.564 1.082s1.144 1.013 2.385.86c1.323-.166 2.178-.777 2.412-.957.841.818 1.64 1.789 2.371 2.857-.413-.347-1.199-.943-1.833-1.082-1.282-.277-2.77.624-2.77.624s.979 1.234 2.247 1.29c1.323.069 2.288-.374 2.564-.527a22.9 22.9 0 0 1 1.682 3.037c-.386-.43-.951-.985-1.461-1.193-1.24-.513-2.895.139-2.895.139s.758 1.401 2.026 1.706c1.213.277 2.205.069 2.591-.055.427.999.799 2.053 1.103 3.148-.303-.471-.744-1.054-1.185-1.331-1.158-.735-2.936-.375-2.936-.375s.51 1.553 1.737 2.067c1.144.485 2.136.458 2.578.416a24.12 24.12 0 0 1 .565 3.315c-.221-.541-.565-1.207-.965-1.581-1.034-.943-2.881-.902-2.881-.902s.248 1.65 1.378 2.386a5.38 5.38 0 0 0 2.522.874 22.38 22.38 0 0 1-.028 3.329c-.124-.582-.345-1.331-.689-1.775-.868-1.137-2.743-1.415-2.743-1.415s-.041 1.706.965 2.649c.951.888 1.944 1.221 2.385 1.331a20.93 20.93 0 0 1-.593 2.996c-.041-.582-.138-1.276-.372-1.734-.675-1.304-2.495-1.914-2.495-1.914s-.344 1.706.51 2.829a5.8 5.8 0 0 0 2.123 1.748 21.35 21.35 0 0 1-1.061 2.857c.069-.596.096-1.331-.069-1.845-.455-1.429-2.178-2.372-2.178-2.372s-.648 1.651 0 2.94a5.92 5.92 0 0 0 1.819 2.136 23.63 23.63 0 0 1-1.489 2.483c.152-.555.276-1.207.207-1.706-.207-1.512-1.764-2.774-1.764-2.774s-.937 1.54-.51 2.954c.372 1.234 1.034 2.039 1.406 2.427-.565.749-1.185 1.456-1.82 2.122.234-.499.441-1.082.455-1.567.055-1.553-1.296-3.093-1.296-3.093s-1.213 1.387-1.034 2.885c.152 1.276.662 2.205.965 2.663a20.74 20.74 0 0 1-2.109 1.748c.317-.458.606-.985.717-1.456.331-1.553-.744-3.343-.744-3.343s-1.461 1.179-1.544 2.705c-.069 1.304.276 2.33.51 2.843a22.95 22.95 0 0 1-2.44 1.401c.427-.416.855-.929 1.061-1.415.606-1.498-.165-3.495-.165-3.495s-1.682.915-2.026 2.441c-.303 1.331-.124 2.427.014 2.982-.855.361-1.709.652-2.55.86.469-.333.965-.749 1.227-1.179.882-1.401.455-3.537.455-3.537s-1.847.624-2.467 2.094a6.35 6.35 0 0 0-.51 2.871c-1.213.222-2.302.527-3.281.86-1.792.624-3.156 1.331-4.135 1.956-.979-.624-2.343-1.318-4.135-1.956a21.7 21.7 0 0 0-3.28-.86 6.52 6.52 0 0 0-.51-2.871c-.62-1.47-2.467-2.094-2.467-2.094s-.427 2.136.455 3.537c.262.43.758.846 1.227 1.179-.827-.208-1.682-.499-2.55-.86.138-.541.317-1.651.014-2.982-.344-1.526-2.026-2.441-2.026-2.441s-.772 1.997-.165 3.495c.193.485.634.999 1.061 1.415a22.95 22.95 0 0 1-2.44-1.401c.234-.513.579-1.526.51-2.843-.083-1.539-1.544-2.705-1.544-2.705s-1.089 1.789-.744 3.343c.097.472.4.999.717 1.456l-2.109-1.748c.303-.458.813-1.373.965-2.663.179-1.498-1.034-2.885-1.034-2.885s-1.351 1.539-1.296 3.093c.014.485.234 1.054.455 1.567-.648-.666-1.254-1.373-1.819-2.122.372-.375 1.034-1.193 1.406-2.427.427-1.415-.51-2.954-.51-2.954S8.48 40.07 8.274 41.582c-.069.499.055 1.151.207 1.706-.538-.791-1.048-1.623-1.489-2.483.4-.277 1.227-.957 1.819-2.136.648-1.29 0-2.94 0-2.94s-1.723.943-2.178 2.372c-.165.513-.138 1.248-.069 1.845-.413-.915-.786-1.872-1.061-2.857a5.8 5.8 0 0 0 2.123-1.748c.855-1.137.51-2.829.51-2.829s-1.819.61-2.495 1.914c-.234.458-.345 1.151-.372 1.734-.276-.985-.469-1.983-.593-2.982.441-.111 1.433-.444 2.385-1.331 1.006-.943.965-2.649.965-2.649s-1.861.277-2.743 1.415c-.345.444-.565 1.193-.689 1.775-.096-1.11-.096-2.233-.028-3.329a5.38 5.38 0 0 0 2.522-.874c1.13-.735 1.378-2.386 1.378-2.386s-1.847-.042-2.881.901c-.4.375-.744 1.04-.965 1.581a24.12 24.12 0 0 1 .565-3.315 5.37 5.37 0 0 0 2.577-.416C8.99 24.023 9.5 22.483 9.5 22.483s-1.778-.361-2.936.374c-.441.277-.882.86-1.185 1.331.303-1.096.675-2.136 1.103-3.148a5.29 5.29 0 0 0 2.591.055c1.268-.291 2.026-1.706 2.026-1.706s-1.654-.652-2.895-.139c-.524.208-1.089.763-1.461 1.193.496-1.082 1.061-2.108 1.682-3.037a5.09 5.09 0 0 0 2.564.527c1.268-.069 2.247-1.29 2.247-1.29s-1.489-.915-2.77-.624c-.634.139-1.42.735-1.833 1.082.731-1.082 1.53-2.039 2.371-2.857.234.18 1.089.804 2.412.957 1.241.153 2.385-.86 2.385-.86s-1.282-1.137-2.564-1.082c-.648.028-1.502.472-1.971.735l.207-.194c.896-.846 1.778-1.567 2.619-2.191a4.91 4.91 0 0 0 2.15 1.332c1.172.361 2.453-.43 2.453-.43s-1.047-1.318-2.302-1.484c-.62-.083-1.544.194-2.026.375a22.05 22.05 0 0 1 3.129-1.859c.11.18.689 1.082 1.874 1.692 1.075.555 2.44 0 2.44 0s-.786-1.442-1.957-1.831c-.675-.222-1.792-.028-2.205.042a24.75 24.75 0 0 1 2.192-.929c.165.083 1.075.527 1.888.236 1.116-.402 1.668-1.165 1.668-1.165s-1.158-.444-1.847-.319c-.813.153-1.475.915-1.668 1.151l-1.613.596c.427-.305 1.089-.846 1.351-1.359.565-1.11.11-2.691.11-2.691s-1.351.583-1.723 1.734c-.386 1.207-.221 2.205-.152 2.483-.896.388-1.93.929-3.046 1.637.372-.388.882-.999 1.048-1.526.386-1.221-.358-2.718-.358-2.718s-1.254.832-1.42 2.053c-.179 1.248.152 2.191.276 2.51-.855.582-1.751 1.262-2.66 2.067.289-.458.634-1.082.703-1.595.165-1.29-.841-2.677-.841-2.677s-1.116 1.054-1.075 2.316c.041 1.22.496 2.094.689 2.427-.744.666-1.461 1.443-2.15 2.316.179-.472.345-1.026.317-1.47-.055-1.332-1.309-2.538-1.309-2.538s-.937 1.262-.675 2.511a5.33 5.33 0 0 0 1.089 2.275c-.62.874-1.185 1.817-1.709 2.829.11-.527.193-1.179.083-1.651-.289-1.318-1.764-2.316-1.764-2.316s-.717 1.429-.234 2.649c.469 1.165 1.199 1.858 1.516 2.108-.455.985-.868 2.025-1.199 3.093.014-.555 0-1.234-.207-1.706-.524-1.276-2.178-2.011-2.178-2.011s-.469 1.567.234 2.705c.675 1.096 1.544 1.651 1.902 1.858a25.64 25.64 0 0 0-.648 3.093c-.083-.527-.234-1.123-.482-1.512-.758-1.193-2.55-1.623-2.55-1.623s-.193 1.664.717 2.677c.841.943 1.764 1.359 2.192 1.512-.096.985-.138 1.983-.096 2.982-.179-.472-.414-.971-.703-1.29-.965-1.054-2.853-1.179-2.853-1.179s.096 1.706 1.185 2.566c.979.777 1.957 1.026 2.426 1.123a22.96 22.96 0 0 0 .441 2.871c-.262-.458-.593-.929-.951-1.207-1.158-.888-3.074-.68-3.074-.68s.4 1.692 1.64 2.358c1.13.61 2.178.694 2.66.694.234.915.51 1.803.855 2.649-.331-.388-.717-.777-1.103-.971-1.323-.694-3.198-.139-3.198-.139s.703 1.623 2.068 2.08c1.227.402 2.26.305 2.757.222.414.874.868 1.706 1.378 2.51-.414-.347-.896-.68-1.337-.818-1.447-.458-3.239.43-3.239.43s.992 1.512 2.44 1.72a5.95 5.95 0 0 0 2.839-.277c.565.804 1.185 1.553 1.833 2.261-.482-.291-1.061-.555-1.53-.624-1.53-.208-3.184 1.013-3.184 1.013s1.254 1.345 2.757 1.29c1.378-.042 2.385-.541 2.826-.791a23.26 23.26 0 0 0 2.164 1.914c-.538-.194-1.158-.375-1.64-.347-1.585.069-3.019 1.581-3.019 1.581s1.502 1.123 3.005.804c1.364-.291 2.288-.957 2.688-1.29.744.527 1.516 1.013 2.288 1.429-.524-.083-1.089-.125-1.53-.028-1.571.347-2.757 2.136-2.757 2.136s1.709.86 3.156.277a6.42 6.42 0 0 0 2.426-1.72c.827.388 1.654.707 2.467.957-.538 0-1.089.069-1.502.25-1.516.638-2.398 2.635-2.398 2.635s1.861.555 3.225-.277c1.227-.763 1.888-1.748 2.164-2.219 3.363.582 5.748 1.748 7.278 2.774-.827.624-1.199 1.054-1.199 1.054l.841.763s.414-.499 1.268-1.165c.868.68 1.268 1.165 1.268 1.165l.841-.763s-.372-.43-1.199-1.054c1.544-1.012 3.928-2.191 7.278-2.774.276.472.937 1.456 2.164 2.219 1.351.846 3.225.277 3.225.277s-.868-1.997-2.398-2.635c-.414-.18-.979-.236-1.502-.25.813-.25 1.64-.583 2.467-.957.358.43 1.158 1.207 2.426 1.72 1.447.583 3.156-.277 3.156-.277s-1.185-1.775-2.757-2.136c-.441-.097-1.006-.056-1.53.028a27.02 27.02 0 0 0 2.288-1.429c.4.333 1.323.999 2.688 1.29 1.502.319 3.005-.804 3.005-.804s-1.447-1.512-3.019-1.581c-.496-.028-1.103.153-1.64.347.744-.583 1.475-1.221 2.164-1.914.441.25 1.447.749 2.826.791 1.502.042 2.757-1.29 2.757-1.29s-1.654-1.221-3.184-1.013c-.482.069-1.047.333-1.53.624a22.71 22.71 0 0 0 1.833-2.275c.469.18 1.516.472 2.839.277 1.447-.208 2.44-1.72 2.44-1.72s-1.792-.888-3.239-.43c-.441.139-.924.485-1.337.818.51-.804.965-1.637 1.378-2.51.496.083 1.544.18 2.757-.222 1.365-.458 2.068-2.08 2.068-2.08s-1.888-.555-3.198.139c-.386.194-.772.583-1.103.971.345-.86.634-1.748.855-2.649.482 0 1.53-.083 2.66-.694h-.014z" fill="#c89211"/><g fill="#e30613"><path d="M29.349 34.564H15.538c.152-1.373.634-2.663 1.447-3.87.799-1.207 2.302-2.635 4.521-4.286 1.351-1.012 2.219-1.775 2.591-2.302s.565-1.026.565-1.484a1.84 1.84 0 0 0-.565-1.304c-.372-.361-.841-.541-1.406-.541s-1.075.18-1.447.555-.62 1.026-.758 1.97l-4.617-.375c.179-1.304.51-2.316.992-3.051s1.158-1.29 2.04-1.678 2.095-.582 3.653-.582 2.881.18 3.777.555 1.613.943 2.123 1.706a4.62 4.62 0 0 1 .772 2.594c0 .957-.289 1.983-.882 2.913s-1.668 1.942-3.225 3.051l-1.861 1.359-1.103 1.012h7.195v3.773-.014zm3.142-16.685h10.93v3.703H36.02l-.4 2.497a6.86 6.86 0 0 1 1.516-.541 6.06 6.06 0 0 1 1.489-.18c1.654 0 3.005.499 4.038 1.512s1.544 2.275 1.544 3.814-.262 2.108-.799 3.107-1.282 1.747-2.261 2.275-2.219.791-3.749.791-2.026-.111-2.812-.319-1.447-.513-1.985-.929a5.5 5.5 0 0 1-1.323-1.401c-.345-.527-.62-1.179-.855-1.956l4.659-.513c.11.749.372 1.318.786 1.706a2.09 2.09 0 0 0 1.475.582 2.11 2.11 0 0 0 1.585-.735c.414-.486.634-1.221.634-2.191s-.207-1.72-.634-2.191c-.427-.458-.979-.694-1.682-.694s-.868.111-1.296.333c-.303.153-.648.444-1.02.86l-3.928-.569 1.461-8.96h.028z"/></g><g fill-rule="evenodd" fill="#c89211"><path d="M40.458 42.414a3.11 3.11 0 0 1-.496.333c-.303.18-.813 0-.924-.236-.055-.111-.055-.125.055-.222.028-.028.055-.056.096-.069l.538-.291c.221-.111.469-.18.717-.153h.055c0-.069-.069-.111-.124-.125a1.34 1.34 0 0 0-.579-.083c-.289.028-.551.125-.73.361a1.26 1.26 0 0 0-.276.638c-.027.18 0 .361.124.499.083.083.179.139.276.208l-.028.014c-.427.291-.896.513-1.392.68-.538.18-1.089.305-1.64.375-.055 0-.069 0-.096-.042-.096-.194-.248-.347-.441-.486-.028-.028-.069-.042-.096-.055-.069-.028-.138-.028-.193.028-.041.028-.069.055-.096.083-.124.166-.207.333-.234.513-.041.222.041.361.276.402.11.028.221.028.345.042l.4-.014v.042c0 .042-.028.083-.041.111-.345.624-.965 1.054-1.847 1.179l-.551.083c.028.014.055.042.096.056a1.2 1.2 0 0 0 .234.028c.386.042.786 0 1.172-.042.11 0 .207-.042.289-.111a4.45 4.45 0 0 0 .372-.333c.248-.264.413-.555.455-.874 0-.055 0-.111.014-.153l.413-.055c.469-.083.923-.208 1.351-.375a7.58 7.58 0 0 0 1.337-.68l1.668-1.193c.069-.056.124-.111.138-.18l.083-.388v-.056c-.041.028-.069.056-.096.069l-.579.472h-.041zm-4.769 1.983h-.358c-.11 0-.138-.055-.11-.111a.17.17 0 0 1 .193-.069c.083.028.152.083.221.125.028.014.041.042.069.055h-.014zm-10.806-.457a.41.41 0 0 0 .234-.153l.083-.18c.11-.347.014-.68-.193-1.013 0-.014-.028-.042-.055-.069l-.179.416c0 .028 0 .069.014.097l.165.361c.055.139.041.152-.138.152a3.82 3.82 0 0 1-.882-.097c-.427-.097-.841-.236-1.227-.444-.372-.208-.538-.485-.482-.818a3.31 3.31 0 0 1 .124-.499l.427-1.401.207-.832c0-.056 0-.111.014-.18-.027 0-.028 0-.041.014-.11.153-.262.277-.276.485 0 .028 0 .056-.014.083-.096.43-.234.846-.372 1.262l-.386 1.221a.77.77 0 0 0 .11.638c.138.236.372.374.634.499.455.208.937.361 1.42.444.276.042.551.055.813 0v.014zM26 43.357a.87.87 0 0 0-.331.527c-.028.111 0 .236.069.347a.44.44 0 0 0 .62.083l.165-.18c.055.153.055.291-.069.402-.124.097-.262.194-.413.277-.289.166-.607.305-.979.347-.441.055-.896-.028-1.337-.194-.055-.028-.124-.028-.179-.042 0 0 0 .014-.014.028.041.028.069.069.11.083.289.166.607.319.937.43.124.042.248.069.372.097.234.028.441-.042.634-.111.606-.25 1.034-.61 1.185-1.165.083-.291.028-.569-.165-.846-.165-.236-.4-.264-.62-.097l.014.014zm.317.527c-.055.097-.262.097-.345 0-.041-.042-.028-.083 0-.125.041-.056.11-.083.193-.083l.165.139v.056l-.014.014zm4.12-.388c-.234-.208-.524-.208-.758 0-.303.277-.469.596-.483.985a.63.63 0 0 0 .179.444c.248.264.717.277.951 0 .083-.083.138-.194.207-.305.11.208.152.43-.027.61l-.524.486c-.345.291-.744.541-1.227.693-.717.236-1.475.222-2.247.042-.096-.028-.179-.042-.29.014.069.042.124.083.193.111.469.194.951.333 1.461.444.496.111.951.083 1.351-.153.29-.166.579-.347.827-.555.62-.527.951-1.151.896-1.9-.027-.361-.193-.68-.51-.943v.028zm-.262.791c-.028.083-.193.166-.331.166-.028 0-.096-.014-.152-.042-.041-.042-.096-.097-.096-.153 0-.166.221-.25.386-.166 0 0 .014 0 .028.014.069.056.179.083.152.18h.014zm-9.055-2.774c-.152-.167-.303-.208-.482-.125-.152.083-.276.18-.413.277l-.028.028v.056h.055c.041-.014.069-.042.11-.056.069-.028.152-.028.221.028a2.82 2.82 0 0 1 .221.208l-.4-.069c-.234-.042-.441-.028-.62.083-.179.097-.317.236-.427.402-.165.263-.248.569-.345.874-.096.333-.193.666-.344.985l-.041.139s.014 0 .028.014c.027-.028.083-.042.096-.069.083-.125.179-.236.248-.374.207-.375.317-.791.455-1.207l.179-.444c.028-.055.069-.083.138-.083a1.21 1.21 0 0 1 .496.042c.276.069.538.194.786.305.055.028.097.028.138 0 .083-.069.152-.153.22-.222.041-.042.055-.097.028-.166a2.1 2.1 0 0 0-.358-.638l.041.014zm11.261 3.606l.262-.125c.303-.111.62-.139.951-.153.055 0 .096-.028.11-.069.014-.056.028-.111.055-.166.083-.18.014-.319-.165-.43-.165-.097-.331-.222-.524-.277-.165-.042-.276-.014-.372.097-.138.153-.207.333-.262.513 0 .014.014.042.028.042 0 0 .041 0 .055-.028.028-.028.041-.055.055-.083.055-.083.124-.111.234-.097.083.014.165.042.262.069l-.372.139c-.207.083-.372.194-.482.361s-.152.361-.179.541c-.028.236.028.471.069.693.083.43.207.874.221 1.318a.26.26 0 0 0 .028.097h.028c.014-.028.041-.042.041-.069.014-.083.041-.166.041-.236.041-.485-.055-.957-.152-1.429l-.083-.499c-.014-.111.028-.194.152-.25v.042zm1.654-1.942l.345 1.567a.56.56 0 0 0 .041.208c0 .028.041.042.055.069.014-.028.041-.042.055-.069v-.596a6.24 6.24 0 0 0-.221-1.234l-.234-.902-.207-.888c-.014-.083-.041-.153-.055-.236h-.028c0 .028-.014.042-.028.069l-.069.43c0 .083-.014.166 0 .25l.345 1.359v-.028zm5.431-2.954c.014-.014.041-.028.055-.042l.165-.444s-.014 0-.028-.014l-1.199.943-1.144.888a.98.98 0 0 0-.331.458c0 .028 0 .056-.028.111a.72.72 0 0 0 .152-.111l2.357-1.775v-.014zm1.282-.208a1.03 1.03 0 0 0-.11-.139h-.027v.069l.083.43c.014.083.028.18.069.25.124.194.262.361.386.541l.51.749.427.721c.014.028.055.042.083.056 0-.028.028-.069.014-.097l-.179-.527c-.207-.499-.524-.943-.827-1.387l-.441-.68.014.014z"/><path d="M25.159 40.375h.041l.303-.208h-.028l-1.613.056c-.179 0-.358.028-.524.056-.124.014-.248.083-.345.18h.041l2.123-.069v-.014zm7.126 2.053c.055-.056.11-.069.193-.069h.234c.069 0 .152.028.221.042v.028l-.717.264v.028h.083a1.49 1.49 0 0 0 .358-.042c.083-.014.179-.028.234-.069a.99.99 0 0 0 .372-.416c.055-.097.028-.139-.096-.167l-.413-.042c-.11 0-.221 0-.303.069l-.248.291c-.014.028-.014.055-.028.083.028 0 .055-.014.069-.028l.041.028zm2.508-.43c.041-.056.11-.083.179-.083h.097c.124 0 .234-.028.345 0-.221.139-.441.25-.662.361v.028h.096c.11-.028.221-.042.331-.083a1.18 1.18 0 0 0 .234-.097c.152-.125.262-.277.317-.458.041-.111.028-.152-.11-.152l-.524.014c-.041 0-.097.028-.124.056a.98.98 0 0 0-.262.374v.069c.014 0 .041-.014.055-.028h.028zM21.079 39.82h.027c.096-.028.179 0 .276.069l.138.083a.94.94 0 0 1 .179.153v.028l-.758-.125v.028c.014.014.041.042.055.042.083.042.152.083.234.111.11.042.234.097.345.097.207 0 .386-.069.538-.18.096-.069.096-.111 0-.194l-.345-.236c-.097-.069-.207-.125-.331-.083l-.331.111c-.027 0-.041.042-.069.055.014 0 .028.014.028.014l.014.028zm19.489-.624l-.152.208c-.055.083-.234.153-.331.125-.027 0-.069-.042-.083-.069a.15.15 0 0 1 .041-.097.3.3 0 0 1 .11-.069c.041 0 .069.014.124.028 0-.069 0-.153-.014-.222-.028-.111-.096-.125-.193-.055-.124.097-.165.236-.193.374-.041.222.014.305.248.333 0 .042-.028.083-.041.125v.125c0 .014.014.028.028.042.014 0 .041-.028.041-.042a2.34 2.34 0 0 1 .413-.555.2.2 0 0 0 0-.291v.042zM23.38 41.97h.083a2.73 2.73 0 0 1 .675-.083c.124 0 .193-.056.234-.208h-.083a.8.8 0 0 0-.179.028c-.11.014-.303-.069-.345-.153-.014-.028-.028-.083 0-.111 0-.028.069-.042.096-.042.11 0 .152.028.179.125.083-.042.152-.097.179-.18.027-.055 0-.111-.069-.125s-.138-.028-.207-.014a.69.69 0 0 0-.372.194c-.083.069-.083.153 0 .25.028.028.055.069.083.097-.096.042-.234.055-.248.194l-.027.028zm5.376 1.068l1.034-.333c.193-.056.276-.194.386-.333-.041 0-.069 0-.11.028l-1.006.333c-.165.056-.289.153-.413.264a.3.3 0 0 1-.041.069c.055.014.11-.014.152-.028zm-4.204 3.287c-.207.014-.372.097-.524.18-.028.014-.055.042-.083.069l.028.028h.193l1.31-.139c.221-.028.317-.153.441-.25-.055 0-.11-.014-.165 0l-1.199.125v-.014z"/></g><path d="M32.505 9.64c.234 0 .413.194.413.43s-.193.43-.413.43a.43.43 0 0 1-.414-.43c0-.236.193-.43.414-.43zm.841 1.124h-6.878l-.538-1.623h7.953l-.538 1.623zm-6.795-.125h6.713l.455-1.387h-7.636l.455 1.387h.014zm6.629.582l.11-.347h-6.754l.124.361 6.52-.014zm-7.263-2.205h8.008l.11-.361h-8.242l.124.361zm9.772-5.271l-1.433 1.956.152-1.983-1.365 2.067.317-3.037-1.199 2.51-.469-2.968-1.075 2.954L29.928.5l-.703 4.743-1.061-2.954-.469 2.968-1.199-2.51.317 3.037-1.364-2.067.152 1.983-1.433-1.956 1.571 4.73h8.367l1.585-4.73zm-9.896 2.219l-.124-1.595 1.185 1.789.152 1.47-1.213-1.65v-.014zm3.06 1.734L27.819 5.52l.4-2.552.951 2.621-.317 2.108zm2.136 0l-.317-2.108.951-2.621.4 2.552-1.034 2.178zm2.012-1.553l1.185-1.789-.124 1.595-1.213 1.65.152-1.47v.014z" fill="#c89211"/><use href="#B" fill="#c89211"/><path d="M29.886 9.64a.42.42 0 0 1 .414.43c0 .236-.193.43-.414.43s-.413-.194-.413-.43.193-.43.413-.43zm-1.309 0a.42.42 0 0 1 .414.43c0 .236-.193.43-.414.43s-.413-.194-.413-.43.193-.43.413-.43zm-1.309 0a.42.42 0 0 1 .414.43c0 .236-.193.43-.414.43s-.413-.194-.413-.43.193-.43.413-.43z" fill="#c89211"/></g><defs><clipPath id="A"><path fill="#fff" transform="translate(.5 .5)" d="M0 0h58.8v70H0z"/></clipPath><path id="B" d="M31.196 9.64c.234 0 .414.194.414.43s-.193.43-.414.43-.413-.194-.413-.43.193-.43.413-.43z"/></defs></svg>