<svg xmlns="http://www.w3.org/2000/svg" width="146" height="50" fill="none" xmlns:v="https://vecta.io/nano"><path d="M115.136 16.388c-1.207-.111-4.177.52-5.923 3.916V17.78h-2.581v2.765h-2.581-1.745c-.427 0-1.281-.39-1.281-1.373v-7.183h-2.6l.074 9.577c.018 1.318-1.188 2.394-2.655 2.394s-2.637-1.058-2.637-2.376l-.037-3.397h-2.562l.074 3.378c0 2.487 2.302 4.566 5.18 4.566s4.772-1.67 5.125-3.86c.315.204.705.316 1.169.316h17.176c0-2.543-.372-5.865-4.234-6.18m-3.973 4.139c1.281-1.707 2.673-2.209 3.528-2.209 1.541 0 2.042 1.225 2.098 2.209h-5.626zm10.752-8.557l.093 10.598h2.581l-.093-10.598h-2.581zm19.774 1.225h-2.21v1.912h2.21v-1.912zm3.12 0h-2.209v1.912h2.209v-1.912zm.222 3.174h-2.581l.037 3.378c0 1.151-.39.78-.928.78h-7.464v-1.578c-.186-2.431-3.101-2.598-3.51-2.598-1.392 0-3.639.705-3.639 3.174s1.244 3.025 3.231 3.025h.91c-.78 1.002-2.6 1.652-3.937 1.745l1.746 1.745c2.525-.186 4.27-1.578 4.939-3.489h8.448c1.82 0 2.785-.891 2.785-2.283l-.037-3.916m-13.517 4.176h-1.04c-.78 0-1.133-.594-1.133-1.206s.427-1.318 1.207-1.318.966.594.966 1.188v1.336z" fill="#fff"/><mask id="A" maskUnits="userSpaceOnUse" x="63" y="0" width="21" height="18"><path d="M72.598.464c-4.642 4.12-8.653 10.858-8.653 10.858 7.483 3.155 11.178 6.218 11.178 6.218 3.157-.835 7.91-5.382 7.91-5.382-2.005-4.64-6.647-9.595-8.114-11.284C74.325.204 73.842 0 73.471 0c-.557 0-.873.464-.873.464z" fill="#fff"/></mask><g mask="url(#A)"><path d="M74.551-9.428L55.258 7.876l17.236 19.202L91.787 9.774 74.551-9.428z" fill="url(#D)"/></g><mask id="B" maskUnits="userSpaceOnUse" x="71" y="12" width="18" height="17"><path d="M83.033 12.156c-4.326 3.786-10.862 6.756-10.862 6.756-.947 3.267.836 9.28.836 9.28 2.841.631 11.716-.947 13.703-1.485 2.005-.52 1.578-1.485 1.578-1.485-1.448-7.146-4.902-13.085-5.255-13.085" fill="#fff"/></mask><g mask="url(#B)"><path d="M86.578 6.419l-20.839 7.83 7.656 20.361 20.839-7.83-7.656-20.361z" fill="url(#E)"/></g><mask id="C" maskUnits="userSpaceOnUse" x="58" y="11" width="16" height="18"><path d="M58.561 23.645s-.836 1.8.52 2.431c0 0 4.642 2.951 13.926 2.116 0 0-1.69-8.111-.316-12.342 0 0-5.273-3.805-8.745-4.529 0 0-4.846 9.169-5.385 12.342" fill="#fff"/></mask><g mask="url(#C)"><path d="M58.778 7.46l-5.535 20.364 18.724 5.085 5.535-20.364L58.778 7.46z" fill="url(#F)"/></g><g fill="#fff"><path d="M2.542 48.924h-.501v-4.046H.593v-.464h3.398v.464H2.542v4.046zm2.674-.001h-.483v-4.714h.483v1.949c.204-.353.538-.65 1.095-.65s1.225.538 1.225 1.336v2.079h-.483v-1.949c0-.613-.316-1.002-.891-1.002s-.966.427-.966 1.039v1.912h.019zm4.735-.352c.446 0 .743-.186 1.003-.464l.297.278c-.316.371-.706.631-1.318.631-.873 0-1.597-.705-1.597-1.745s.65-1.745 1.541-1.745 1.485.78 1.485 1.763v.148H8.837c.074.724.557 1.132 1.133 1.132m.91-1.503c-.056-.613-.39-1.132-1.021-1.132s-.984.483-1.04 1.132h2.061zm6.424-2.652h.483v4.51h-.39l-2.785-3.693v3.693h-.483v-4.51h.464l2.711 3.619v-3.619zm1.801 1.818l-.149-.408c.353-.167.706-.278 1.17-.278.873 0 1.355.464 1.355 1.336v2.042h-.464v-.501c-.223.297-.594.575-1.151.575s-1.188-.353-1.188-1.039.557-1.076 1.374-1.076.706.056.984.148v-.111c0-.594-.353-.909-.947-.909s-.668.111-.965.241m.037 1.689c0 .427.371.668.798.668s1.077-.371 1.077-.909v-.316a3.16 3.16 0 0 0-.947-.148c-.594 0-.928.278-.928.705zm3.955.036c0 .408.223.557.538.557s.297-.037.464-.111v.427a1.15 1.15 0 0 1-.576.148c-.52 0-.91-.26-.91-.947v-2.005h-.446v-.445h.446v-1.002h.483v1.002h1.021v.445h-1.021v1.949-.019z"/><use href="#G"/><path d="M28.055 48.998c-.966 0-1.653-.779-1.653-1.745s.706-1.745 1.671-1.745 1.671.779 1.671 1.745-.705 1.745-1.671 1.745m-.018-3.044c-.687 0-1.17.575-1.17 1.299s.501 1.299 1.188 1.299 1.17-.575 1.17-1.299-.52-1.318-1.188-1.318m3.008 2.989h-.483v-3.341h.483v.575c.204-.353.538-.65 1.095-.65s1.226.538 1.226 1.336v2.079h-.483v-1.949c0-.612-.316-1.002-.891-1.002s-.965.427-.965 1.039v1.912h.018zm3.509-2.692l-.149-.408c.353-.167.706-.278 1.17-.278.873 0 1.355.464 1.355 1.336v2.042h-.464v-.501c-.223.297-.594.575-1.151.575s-1.188-.353-1.188-1.039.557-1.076 1.374-1.076.706.056.984.148v-.111c0-.594-.353-.909-.947-.909s-.669.111-.965.241m.037 1.689c0 .427.371.668.798.668s1.077-.371 1.077-.909v-.316a3.16 3.16 0 0 0-.947-.148c-.594 0-.928.278-.928.705zm3.862-3.732h-.483v4.714h.483v-4.714zm4.586 2.209c.965.223 1.411.594 1.411 1.281s-.613 1.281-1.467 1.281-1.244-.241-1.764-.724l.297-.371c.446.427.891.631 1.486.631s.965-.316.965-.779-.223-.668-1.133-.872c-1.003-.223-1.448-.557-1.448-1.318s.594-1.243 1.411-1.243 1.077.186 1.523.557l-.279.39c-.408-.334-.798-.483-1.244-.483s-.928.316-.928.742.223.668 1.17.891m4.586-.818h.464v3.341h-.464v-.575c-.223.353-.538.65-1.096.65s-1.225-.538-1.225-1.336v-2.079h.483v1.949c0 .612.316 1.002.891 1.002s.966-.427.966-1.039v-1.912h-.019zm2.952 4.399c-.539 0-1.021-.148-1.448-.464l.223-.39c.371.278.78.427 1.226.427.706 0 1.17-.408 1.17-1.188v-.39c-.279.39-.669.705-1.263.705s-1.504-.594-1.504-1.559.743-1.578 1.504-1.578.984.316 1.244.668v-.594h.483v2.747c0 1.076-.65 1.633-1.634 1.633m-.019-4.046c-.613 0-1.114.427-1.114 1.132a1.1 1.1 0 0 0 1.114 1.151c.594 0 1.17-.445 1.17-1.132s-.576-1.132-1.17-1.132m4.122 4.01c-.538 0-1.021-.148-1.448-.464l.223-.39c.371.278.78.427 1.225.427.706 0 1.17-.408 1.17-1.188v-.39c-.279.39-.669.705-1.263.705s-1.504-.594-1.504-1.559.743-1.578 1.504-1.578.984.316 1.244.668v-.594h.483v2.747c0 1.076-.65 1.633-1.615 1.633m-.037-4.046c-.613 0-1.114.427-1.114 1.132a1.1 1.1 0 0 0 1.114 1.151c.594 0 1.17-.445 1.17-1.132s-.576-1.132-1.17-1.132m4.102 2.599c.446 0 .743-.186 1.003-.464l.297.278c-.316.371-.706.631-1.318.631-.873 0-1.597-.705-1.597-1.745s.65-1.745 1.541-1.745 1.485.78 1.485 1.763v.148h-2.525c.074.724.557 1.132 1.133 1.132m.91-1.503c-.056-.613-.39-1.132-1.021-1.132s-.984.483-1.04 1.132h2.061zm2.376 1.932a2.13 2.13 0 0 1-1.318-.483l.241-.353c.353.278.724.427 1.114.427s.668-.204.668-.538c0-.353-.371-.483-.798-.594-.501-.148-1.058-.334-1.058-.946 0-.594.464-.965 1.095-.965s.817.148 1.151.371l-.223.371c-.297-.204-.631-.316-.947-.316s-.613.204-.613.483c0 .334.39.445.817.594.501.148 1.021.353 1.021.947 0 .65-.501 1.021-1.133 1.021m2.583-1.04c0 .408.223.557.538.557s.297-.037.464-.111v.427a1.15 1.15 0 0 1-.576.148c-.52 0-.91-.26-.91-.947v-2.005h-.446v-.445h.446v-1.002h.483v1.002h1.021v.445h-1.021v1.949-.019z"/><use href="#G" x="41.591"/><path d="M69.646 48.998c-.966 0-1.653-.779-1.653-1.745s.706-1.745 1.671-1.745 1.671.779 1.671 1.745-.706 1.745-1.671 1.745m-.019-3.044c-.687 0-1.17.575-1.17 1.299s.501 1.299 1.188 1.299 1.17-.575 1.17-1.299-.52-1.318-1.188-1.318m3.009 2.989h-.483v-3.341h.483v.575c.204-.353.538-.65 1.095-.65s1.225.538 1.225 1.336v2.079h-.483v-1.949c0-.612-.316-1.002-.891-1.002s-.966.427-.966 1.039v1.912h.019zm4.382.074a2.13 2.13 0 0 1-1.318-.483l.241-.353c.353.278.724.427 1.114.427s.668-.204.668-.538c0-.353-.371-.483-.798-.594-.501-.148-1.058-.334-1.058-.946 0-.594.464-.965 1.096-.965s.817.148 1.151.371l-.223.371a1.7 1.7 0 0 0-.947-.316c-.316 0-.613.204-.613.483 0 .334.39.445.817.594.501.148 1.021.353 1.021.947 0 .65-.501 1.021-1.133 1.021m7.056-.001l-.687-.724c-.39.445-.854.705-1.411.705s-1.356-.501-1.356-1.262.39-1.039 1.04-1.318c-.297-.353-.427-.631-.427-1.002 0-.594.464-1.076 1.151-1.076s1.058.445 1.058 1.021-.39.947-1.021 1.188l.984 1.058c.186-.297.371-.631.52-1.002l.409.186c-.186.427-.39.817-.631 1.132l.761.798-.371.297h-.019zm-2.135-2.283c-.576.223-.836.594-.836.965a.93.93 0 0 0 .91.854c.538 0 .761-.223 1.077-.594l-1.151-1.243v.018zm.408-1.986a.62.62 0 0 0-.65.65c0 .371.111.464.427.835.557-.186.836-.464.836-.872s-.26-.631-.613-.631m6.722 4.269c-1.244 0-2.172-1.021-2.172-2.339s.91-2.338 2.191-2.338 1.263.297 1.69.724l-.334.371c-.371-.353-.78-.613-1.355-.613-.965 0-1.671.798-1.671 1.856s.724 1.875 1.671 1.875.984-.241 1.393-.65l.316.334c-.446.483-.947.798-1.727.798m3.897-.018c-.965 0-1.652-.779-1.652-1.745s.706-1.745 1.671-1.745 1.671.779 1.671 1.745-.706 1.745-1.671 1.745m-.019-3.044c-.687 0-1.17.575-1.17 1.299s.501 1.299 1.17 1.299 1.17-.575 1.17-1.299-.52-1.318-1.188-1.318m6.22-.408c.743 0 1.188.52 1.188 1.336v2.06h-.483v-1.949c0-.65-.316-1.002-.836-1.002s-.891.371-.891 1.039v1.93h-.464v-1.967c0-.631-.316-1.002-.817-1.002s-.891.445-.891 1.058v1.912h-.483v-3.341h.483v.557c.204-.334.501-.631 1.04-.631s.854.297 1.021.668c.223-.371.576-.668 1.133-.668zm3.899 3.471c-.594 0-.984-.334-1.226-.705v1.67h-.483v-4.362h.483v.668c.26-.408.632-.742 1.226-.742s1.522.631 1.522 1.745-.761 1.745-1.522 1.745m-.075-3.044c-.594 0-1.151.52-1.151 1.299s.557 1.299 1.151 1.299 1.133-.483 1.133-1.299-.52-1.299-1.133-1.299zm3.008-1.764h-.482v4.714h.482v-4.714zm1.282 2.023l-.149-.408a2.59 2.59 0 0 1 1.17-.278c.873 0 1.355.464 1.355 1.336v2.042h-.464v-.501c-.223.297-.594.575-1.151.575s-1.188-.353-1.188-1.039.557-1.076 1.374-1.076.705.056.984.148v-.111c0-.594-.353-.909-.947-.909s-.669.111-.966.241m.037 1.689c0 .427.372.668.799.668s1.077-.371 1.077-.909v-.316c-.242-.074-.557-.148-.947-.148-.594 0-.929.278-.929.705z"/><use href="#G" x="85.745"/><path d="M112.816 48.924h-.483v-3.341h.483v.575c.204-.353.538-.65 1.095-.65s1.226.538 1.226 1.336v2.079h-.483v-1.949c0-.612-.316-1.002-.891-1.002s-.966.427-.966 1.039v1.912h.019zm3.974-.947c0 .408.223.557.538.557s.297-.037.464-.111v.427a1.15 1.15 0 0 1-.575.148c-.52 0-.91-.26-.91-.947v-2.005h-.446v-.445h.446v-1.002h.483v1.002h1.021v.445h-1.021v1.949-.019zm2.895 1.021a2.13 2.13 0 0 1-1.318-.483l.242-.353c.352.278.724.427 1.114.427s.668-.204.668-.538c0-.353-.371-.483-.798-.594-.502-.148-1.059-.334-1.059-.946 0-.594.464-.965 1.096-.965s.817.148 1.151.371l-.223.371c-.297-.204-.631-.316-.947-.316s-.613.204-.613.483c0 .334.39.445.817.594.502.148 1.022.353 1.022.947 0 .65-.502 1.021-1.133 1.021m5.497-2.599c.965.223 1.411.594 1.411 1.281s-.613 1.281-1.486 1.281-1.244-.241-1.764-.724l.297-.371c.446.427.892.631 1.486.631s.965-.316.965-.779-.222-.668-1.132-.872c-1.003-.223-1.449-.557-1.449-1.318s.595-1.243 1.43-1.243 1.077.186 1.523.557l-.279.39c-.408-.334-.798-.483-1.244-.483s-.928.316-.928.742.223.668 1.17.891m3.788 2.634c-.279.687-.576.947-1.059.947s-.464-.056-.687-.167l.167-.39a.88.88 0 0 0 .502.13c.204 0 .464-.148.65-.631l-1.449-3.322h.52l1.17 2.784 1.021-2.784h.501l-1.336 3.452v-.019zm3.026-.037a2.13 2.13 0 0 1-1.319-.483l.242-.353c.352.278.724.427 1.114.427s.668-.204.668-.538c0-.353-.371-.483-.798-.594-.502-.148-1.059-.334-1.059-.946 0-.594.465-.965 1.096-.965s.817.148 1.151.371l-.223.371c-.297-.204-.631-.316-.947-.316s-.612.204-.612.483c0 .334.39.445.817.594.501.148 1.021.353 1.021.947 0 .65-.502 1.021-1.133 1.021m2.581-1.04c0 .408.223.557.538.557s.297-.037.465-.111v.427c-.168.093-.353.148-.576.148-.52 0-.91-.26-.91-.947v-2.005h-.445v-.445h.445v-1.002h.483v1.002h1.021v.445h-1.021v1.949-.019zm3.157.594c.445 0 .742-.186 1.002-.464l.297.278c-.315.371-.705.631-1.318.631-.873 0-1.597-.705-1.597-1.745s.65-1.745 1.523-1.745 1.485.78 1.485 1.763v.148h-2.525c.074.724.557 1.132 1.133 1.132zm.947-1.503c-.056-.613-.39-1.132-1.022-1.132s-.984.483-1.039 1.132h2.061zm4.957-1.541c.743 0 1.189.52 1.189 1.336v2.06h-.483v-1.949c0-.65-.316-1.002-.836-1.002s-.891.371-.891 1.039v1.93h-.464v-1.967c0-.631-.316-1.002-.817-1.002s-.891.445-.891 1.058v1.912h-.483v-3.341h.483v.557c.204-.334.501-.631 1.04-.631s.854.297 1.021.668c.223-.371.575-.668 1.132-.668zM6.46 37.323c0 1.819-1.281 3.229-2.952 3.229h-.056C1.781 40.553.5 39.142.5 37.323v-.91h.65v1.021c.111 1.559.984 2.487 2.321 2.487s2.358-1.095 2.358-2.803H3.415c.13-1.93 1.077-2.877 2.692-2.877v.575c-1.003 0-1.634.538-1.894 1.633H6.46v.872zm4.419-.556v1.411c0 1.541-.576 2.283-1.931 2.357v-.631c.836 0 1.263-.538 1.281-1.596-.204.353-.557.538-1.077.538-1.003 0-1.745-.872-1.745-2.097s.706-2.079 1.745-2.079 1.708.872 1.708 2.116m-.613-.019c0-.854-.464-1.522-1.133-1.522s-1.077.668-1.077 1.485.464 1.522 1.114 1.522 1.096-.65 1.096-1.485zm3.863 2.227h-.724a1.15 1.15 0 0 1-.835-.353c-.26-.26-.39-.65-.39-1.151v-4.62h.65v4.232c0 .445.056.742.186.947.093.167.279.26.52.297h.576v.668l.019-.019z"/><path d="M22.929 38.994h-9.34v-.668h7.316v-.334c0-.724-.167-1.318-.501-1.745-.39-.52-.984-.761-1.745-.761h-1.875l1.393-2.598h.761l-1.096 1.949h.817c.928 0 1.652.297 2.21.891.538.594.798 1.355.798 2.32v.297h1.244v.668l.019-.019z"/><path d="M33.365 38.994H22.577v-.668h.854c.576 0 2.024-.408 2.024-1.206v-2.431h.65v2.636a2.85 2.85 0 0 1-.149.965v.037h1.188c.576 0 .78-.297.78-1.299v-2.338h.631v2.636c0 .408-.056.742-.167 1.002h1.096c.687 0 .91-.297.91-1.299v-2.338h.631v2.636c0 .408-.056.742-.186 1.002h2.525v.668zm-5.385-4.993h-.65v-.798h.65v.798zm.576-1.039h-.65v-.798h.65v.798zm.613 1.039h-.65v-.798h.65v.798z"/><use href="#H"/><use href="#I"/><path d="M41.72 36.767v1.411c0 1.541-.576 2.283-1.931 2.357v-.631c.835 0 1.263-.538 1.281-1.596-.204.353-.557.538-1.077.538-1.003 0-1.745-.872-1.745-2.097s.706-2.079 1.745-2.079 1.708.872 1.708 2.116m-.594-.019c0-.854-.464-1.522-1.133-1.522s-1.077.668-1.077 1.485.464 1.522 1.114 1.522 1.096-.65 1.096-1.485zm9.693-2.079v2.636c0 1.114-.446 1.67-1.337 1.67h-2.804c-1.745 0-2.637-.909-2.637-2.747v-1.559h.631v1.559c0 1.411.65 2.097 1.931 2.097h2.655c.65 0 .91-.26.91-1.299v-2.338h.631l.019-.019zm-3.621-.019h-.65v-.798h.65v.798zm1.188 0h-.65v-.798h.65v.798zm5.664 4.325h-.724c-.334 0-.594-.13-.836-.353-.26-.26-.39-.65-.39-1.151v-4.62h.65v4.232c0 .445.056.742.186.947.093.167.278.26.52.297h.576v.668l.019-.019z"/><path d="M60.139 38.029v.965h-6.332v-.668h5.552v-.334c0-1.596-.817-2.524-2.247-2.524s-1.355.316-1.708.947c-.093-.111-.279-.297-.557-.594.52-.668 1.263-1.002 2.265-1.002 1.82 0 3.008 1.244 3.008 3.211m4.123.964h-1.578c-.167.984-.798 1.485-1.857 1.559v-.631c.854 0 1.281-.483 1.281-1.596v-3.619h.631v3.638h1.504v.668l.018-.019z"/><path d="M67.195 38.994h-3.156v-.65h.576c.39 0 .65-.13.78-.39.093-.186.13-.483.13-.909v-2.339h.631v2.636c0 .408-.056.742-.167 1.002h1.188v.668l.019-.018zm-2.21-4.993h-.65v-.798h.65v.798zm1.188 0h-.65v-.798h.65v.798z"/><path d="M73.006 38.994h-.91c-.501 0-.854-.019-1.04-.056-.334-.074-.687-.223-1.096-.445-.39.241-.761.39-1.096.445-.186.037-.538.056-1.058.056h-.91v-.668h1.448a1.96 1.96 0 0 0 .928-.223c-.409-.204-.743-.501-.966-.872s-.334-.761-.334-1.188.167-1.002.501-1.355c.371-.408.854-.613 1.467-.613s1.114.204 1.485.613c.334.371.501.817.501 1.355s-.111.817-.334 1.188c-.223.39-.557.687-.966.872a1.96 1.96 0 0 0 .928.223h1.448v.668zm-3.045-1.299c.409-.186.724-.427.947-.779.204-.316.316-.65.316-1.002a1.31 1.31 0 0 0-.334-.909c-.223-.26-.538-.39-.947-.39-.799 0-1.263.575-1.263 1.281s.093.687.316 1.002c.223.353.557.612.966.779m-.241-4.417h-.65v-.798h.65v.798zm1.188 0h-.65v-.798h.65v.798z"/><path d="M80.026 38.994h-2.804c-.353.557-.854.817-1.541.817s-1.226-.278-1.578-.817h-1.355v-.668h1.077c-.037-.204-.074-.408-.074-.65 0-.631.167-1.132.501-1.541.353-.408.817-.612 1.411-.612s1.077.204 1.411.612c.316.39.483.891.483 1.522s-.019.446-.074.668h2.525v.668h.019zm-3.194-1.392c0-.427-.074-.761-.241-1.021-.186-.316-.483-.464-.873-.464s-.724.167-.947.501c-.167.278-.26.631-.26 1.095s.074.779.26 1.039c.204.316.52.464.91.464.761 0 1.151-.538 1.151-1.615z"/><path d="M82.978 38.994h-3.157v-.65h.576c.39 0 .65-.13.78-.39.093-.186.13-.483.13-.909V32.87h.631v4.454c0 .408-.056.742-.167 1.002h1.188v.668h.019z"/><use href="#H" x="49.631"/><path d="M94.972 38.994h-.13c-.836 0-1.485-.501-1.69-1.299 0 1.578-1.355 2.84-2.897 2.84s-2.952-1.485-2.952-3.378v-.947h.65v.817c0 1.708.891 2.84 2.34 2.84s2.284-1.058 2.284-2.19-.446-1.281-1.188-1.281v-.594s.167-.019.501-.019c.557 0 1.318.594 1.597 1.355.334.909.631 1.206 1.318 1.206h.186v.668l-.019-.019zm-4.939 3.044h-.65v-.798h.65v.798zm1.207 0h-.65v-.798h.65v.798z"/><path d="M97.961 38.994h-3.157v-.65h.576c.39 0 .65-.13.78-.39.093-.186.13-.483.13-.909v-2.339h.631v2.636c0 .408-.056.742-.167 1.002h1.188v.668l.019-.018zm-1.003-4.993h-.65v-.798h.65v.798z"/><path d="M105.945 38.994h-8.429v-.65h2.748v-5.457h.668l-.148 4.399c.612-1.559 1.838-2.598 3.026-2.598s2.191 1.077 2.191 3.211 0 .705-.056 1.095zm-.631-.668l.019-.594c0-1.503-.595-2.45-1.597-2.45s-2.525 1.466-2.952 3.044h4.511.019zm7.372.668h-2.321c-.186.984-.799 1.485-1.857 1.559v-.631h.074c.576 0 .966-.316 1.114-.91h-1.002c-.52 0-.929-.204-1.263-.612s-.501-.91-.501-1.541.167-1.132.52-1.541.798-.631 1.318-.631c1.021 0 1.634.65 1.634 1.893v1.763h2.247v.65h.037zm-2.897-.668v-2.005c0-.278-.074-.52-.241-.705-.186-.223-.446-.334-.78-.334s-.631.167-.854.501a1.85 1.85 0 0 0-.297.984c0 .353.074.724.26 1.021.204.353.501.538.854.538h1.058z"/><path d="M114.654 32.851v4.454c0 1.113-.446 1.67-1.337 1.67h-.798v-.65h.575c.39 0 .65-.13.78-.39.093-.167.13-.483.13-.909v-4.176h.631.019z"/><use href="#I" x="79.321"/><path d="M125.405 36.823c0 1.262-.761 2.134-1.894 2.134s-1.912-.872-1.912-2.134.185-1.151.538-1.559h-1.244c-.836 0-1.318.798-1.318 2.079v3.174h-.632v-3.211c0-1.763.65-2.617 1.95-2.617h2.637c1.151 0 1.893.835 1.893 2.134m-.779-.056c0-.91-.39-1.466-1.096-1.466s-1.17.594-1.17 1.578.427 1.485 1.133 1.485 1.133-.538 1.133-1.578m5.05 2.208h-1.783c-.334 0-.594-.13-.836-.353-.259-.26-.389-.65-.389-1.151v-4.62h.649v4.232c0 .445.056.742.186.947.093.167.279.26.52.297h1.634v.668l.019-.019z"/><path d="M137.9 38.994h-9.711v-.65h2.73v-5.457h.668l-.148 4.399c.613-1.578 1.857-2.598 3.008-2.598s2.191 1.077 2.191 3.211v.427h1.244v.668h.018zm-1.912-.668l.018-.594c0-1.466-.575-2.45-1.596-2.45s-2.526 1.466-2.953 3.044h4.512.019zm-1.356-4.324h-.649v-.798h.649v.798z"/><path d="M140.946 38.994h-3.157v-.65h.576c.39 0 .65-.13.78-.39.092-.186.129-.483.129-.909v-2.339h.632v2.636c0 .408-.056.742-.167 1.002h1.188v.668l.019-.018zm-1.003-4.993h-.65v-.798h.65v.798z"/><path d="M142.914 32.851v4.454c0 1.113-.446 1.67-1.337 1.67h-.799v-.65h.594c.39 0 .65-.13.78-.39.093-.167.13-.483.13-.909v-4.176h.632z"/><use href="#I" x="107.581"/><path d="M3.731 13.845H.648v-1.912h8.448v1.912h-3.1v8.389H3.731v-8.389zm4.641 3.23c.111-1.912 1.838-2.505 3.509-2.505s3.286.334 3.286 2.116v3.879c0 .687.074 1.355.26 1.652h-2.079a3.18 3.18 0 0 1-.149-.724c-.65.687-1.597.928-2.507.928-1.411 0-2.544-.705-2.544-2.246s1.263-2.097 2.544-2.264c1.263-.186 2.432-.148 2.432-.984s-.613-1.002-1.337-1.002-1.281.316-1.356 1.132h-2.04l-.019.018zm4.735 1.503c-.353.297-1.077.316-1.708.427-.631.13-1.207.353-1.207 1.095s.594.947 1.263.947c1.597 0 1.652-1.262 1.652-1.726v-.761.019zm12.181 3.657h-2.117l-1.318-5.011h-.037l-1.263 5.011h-2.135l-2.358-7.461h2.154l1.374 5.067h.037l1.244-5.067h1.987l1.281 5.048h.019l1.374-5.048h2.117l-2.358 7.461zm3.138-5.16c.111-1.912 1.838-2.505 3.509-2.505s3.287.334 3.287 2.116v3.879c0 .687.074 1.355.26 1.652h-2.08a3.18 3.18 0 0 1-.149-.724c-.65.687-1.597.928-2.507.928-1.411 0-2.544-.705-2.544-2.246s1.263-2.097 2.544-2.264c1.263-.186 2.432-.148 2.432-.984s-.613-1.002-1.337-1.002-1.281.316-1.356 1.132h-2.042l-.019.018zm4.735 1.503c-.353.297-1.077.316-1.708.427-.631.13-1.207.353-1.207 1.095s.594.947 1.263.947c1.597 0 1.652-1.262 1.652-1.726v-.761.019zm5.236 1.244c0 .891.761 1.262 1.578 1.262s1.337-.223 1.337-.947-.854-.835-2.321-1.151c-1.188-.26-2.377-.687-2.377-1.986 0-1.912 1.652-2.394 3.249-2.394s3.138.557 3.286 2.376h-1.95c-.056-.798-.668-1.002-1.393-1.002s-1.133.093-1.133.687 1.151.835 2.321 1.114c1.207.278 2.377.705 2.377 2.097 0 1.967-1.708 2.598-3.416 2.598s-3.416-.65-3.509-2.636h1.95v-.018zm13.165 2.413h-1.95v-1.039h-.037c-.52.835-1.411 1.244-2.284 1.244-2.172 0-2.729-1.225-2.729-3.081v-4.584h2.042v4.213c0 1.225.353 1.837 1.318 1.837s1.597-.613 1.597-2.134v-3.916h2.042v7.461zm3.657-10.301h-2.042v10.301h2.042V11.934z"/></g><defs><linearGradient id="D" x1="81.659" y1="16.928" x2="68.595" y2="2.362" gradientUnits="userSpaceOnUse"><stop stop-color="#ad1118"/><stop offset=".3" stop-color="#c40c16"/><stop offset=".5" stop-color="#d50814"/><stop offset=".7" stop-color="#df0613"/><stop offset="1" stop-color="#e30613"/></linearGradient><linearGradient id="E" x1="72.995" y1="22.709" x2="88.914" y2="16.723" gradientUnits="userSpaceOnUse"><stop stop-color="#9e151a"/><stop offset=".2" stop-color="#c10d16"/><stop offset=".5" stop-color="#d90713"/><stop offset=".6" stop-color="#e30613"/><stop offset=".9" stop-color="#e40f1a"/><stop offset="1" stop-color="#e30613"/></linearGradient><linearGradient id="F" x1="66.434" y1="10.132" x2="61.929" y2="26.718" gradientUnits="userSpaceOnUse"><stop stop-color="#634e42"/><stop offset=".2" stop-color="#6f5c4d"/><stop offset=".4" stop-color="#786655"/><stop offset=".7" stop-color="#7b6a58"/></linearGradient><path id="G" d="M24.973 44.321h.538v.557h-.538v-.557zm.037 1.262h.483v3.341h-.483v-3.341z"/><path id="H" d="M35.333 32.851v4.454c0 1.113-.446 1.67-1.337 1.67h-.798v-.65h.594c.39 0 .65-.13.78-.39.093-.167.13-.483.13-.909v-4.176h.631z"/><path id="I" d="M37.19 32.851h-.631v6.125h.631v-6.125z"/></defs></svg>