<svg width="188" height="59" viewBox="0 0 188 59" fill="none" xmlns="http://www.w3.org/2000/svg">
<mask id="mask0_5238_78370" style="mask-type:luminance" maskUnits="userSpaceOnUse" x="9" y="2" width="30" height="27">
<path d="M22.4303 3.11758C15.4669 9.29003 9.45703 19.4136 9.45703 19.4136C20.6894 24.1593 26.2261 28.7499 26.2261 28.7499C30.9719 27.4858 38.0905 20.6813 38.0905 20.6813C35.0856 13.7216 28.1222 6.28142 25.9083 3.7533C25.0212 2.74058 24.2894 2.4375 23.7239 2.4375C22.8812 2.4375 22.4266 3.12128 22.4266 3.12128" fill="white"/>
</mask>
<g mask="url(#mask0_5238_78370)">
<path d="M25.2976 -11.8053L-3.62793 14.1846L22.2458 42.9808L51.1713 16.991L25.2976 -11.8053Z" fill="url(#paint0_linear_5238_78370)"/>
</g>
<mask id="mask1_5238_78370" style="mask-type:luminance" maskUnits="userSpaceOnUse" x="21" y="20" width="26" height="25">
<path d="M38.0945 20.6775C31.6079 26.3732 21.7985 30.8048 21.7985 30.8048C20.3755 35.7095 23.0625 44.7279 23.0625 44.7279C27.3352 45.6778 40.6226 43.3049 43.6312 42.5139C46.6361 41.723 46.0041 40.3 46.0041 40.3C43.8308 29.5777 38.66 20.6738 38.1167 20.6738C38.1056 20.6738 38.0982 20.6738 38.0908 20.6812" fill="white"/>
</mask>
<g mask="url(#mask1_5238_78370)">
<path d="M43.3806 12.0138L12.1328 23.7715L23.6328 54.3343L54.8806 42.5766L43.3806 12.0138Z" fill="url(#paint1_linear_5238_78370)"/>
</g>
<mask id="mask2_5238_78370" style="mask-type:luminance" maskUnits="userSpaceOnUse" x="1" y="19" width="23" height="26">
<path d="M1.38853 37.924C1.38853 37.924 0.124471 40.6148 2.17949 41.5647C2.17949 41.5647 9.1429 45.9962 23.0623 44.7285C23.0623 44.7285 20.5305 32.5462 22.5892 26.2185C22.5892 26.2185 14.6796 20.5229 9.45707 19.4141C9.45707 19.4141 2.17949 33.1783 1.38483 37.924" fill="white"/>
</mask>
<g mask="url(#mask2_5238_78370)">
<path d="M1.69665 13.6131L-6.59375 44.1689L21.4901 51.7886L29.7805 21.2327L1.69665 13.6131Z" fill="url(#paint2_linear_5238_78370)"/>
</g>
<path d="M3.49485 56.9951H2.85913V51.8095H1V51.207H5.35398V51.8095H3.49485V56.9951Z" fill="white"/>
<path d="M6.91356 56.9954H6.30371V50.9561H6.91356V53.462C7.18338 53 7.60843 52.6267 8.31438 52.6267C9.30492 52.6267 9.88151 53.3215 9.88151 54.338V56.9917H9.27166V54.4932C9.27166 53.6985 8.8614 53.2033 8.14066 53.2033C7.41993 53.2033 6.91356 53.7392 6.91356 54.5413V56.9881V56.9954Z" fill="white"/>
<path d="M12.9788 56.5411C13.5406 56.5411 13.9361 56.3009 14.2688 55.9349L14.6495 56.2898C14.2392 56.7703 13.7402 57.0918 12.9641 57.0918C11.8405 57.0918 10.9238 56.19 10.9238 54.8594C10.9238 53.6175 11.7517 52.627 12.8864 52.627C14.0951 52.627 14.7936 53.636 14.7936 54.8927C14.7936 54.9518 14.7936 55.0183 14.7862 55.0922H11.5411C11.6261 56.02 12.2618 56.5411 12.9825 56.5411M14.1727 54.6228C14.1098 53.8467 13.6811 53.1666 12.868 53.1666C12.1546 53.1666 11.615 53.7875 11.5374 54.6228H14.1727Z" fill="white"/>
<path d="M22.4117 51.207H23.0179V56.9951H22.5189L18.9448 52.2456V56.9951H18.335V51.207H18.9189L22.4117 55.8456V51.207Z" fill="white"/>
<path d="M24.7179 53.54L24.5368 53.0189C24.9877 52.8045 25.4313 52.6641 26.0263 52.6641C27.1425 52.6641 27.7672 53.2591 27.7672 54.3827V56.9959H27.1795V56.3527C26.8949 56.7408 26.4218 57.0883 25.7011 57.0883C24.9397 57.0883 24.1709 56.641 24.1709 55.7503C24.1709 54.8595 24.8842 54.3606 25.9191 54.3606C26.444 54.3606 26.8136 54.4345 27.1795 54.5417V54.3938C27.1795 53.625 26.7286 53.2259 25.9598 53.2259C25.4756 53.2259 25.0986 53.3589 24.7179 53.54ZM24.7918 55.7207C24.7918 56.2677 25.2686 56.5819 25.8193 56.5819C26.5697 56.5819 27.1869 56.1014 27.1869 55.425V55.0111C26.8875 54.9187 26.4809 54.83 25.982 54.83C25.2132 54.83 24.7881 55.1774 24.7881 55.7244" fill="white"/>
<path d="M29.8443 55.779C29.8443 56.3001 30.1215 56.4886 30.5355 56.4886C30.7387 56.4886 30.9162 56.448 31.1305 56.3408V56.8878C30.9162 57.0024 30.687 57.0689 30.395 57.0689C29.7371 57.0689 29.2381 56.7289 29.2381 55.8603V53.2804H28.6689V52.7186H29.2381V51.4287H29.848V52.7186H31.1453V53.2804H29.848V55.779H29.8443Z" fill="white"/>
<path d="M32.2354 51.082H32.9339V51.7843H32.2354V51.082ZM32.276 52.7194H32.8859V56.9958H32.276V52.7194Z" fill="white"/>
<path d="M36.1684 57.0957C34.9413 57.0957 34.0469 56.0867 34.0469 54.8707C34.0469 53.6547 34.9487 52.6309 36.1832 52.6309C37.4177 52.6309 38.3121 53.6399 38.3121 54.8559C38.3121 56.0719 37.4029 57.0957 36.1684 57.0957ZM36.1684 53.189C35.2814 53.189 34.6715 53.9245 34.6715 54.8522C34.6715 55.7799 35.3183 56.5228 36.1832 56.5228C37.0481 56.5228 37.6875 55.7873 37.6875 54.867C37.6875 53.9467 37.0296 53.189 36.1684 53.189Z" fill="white"/>
<path d="M40.019 56.9957H39.4092V52.7194H40.019V53.4623C40.2888 53.0003 40.7176 52.627 41.4198 52.627C42.4104 52.627 42.987 53.3218 42.987 54.3382V56.992H42.3771V54.4935C42.3771 53.6988 41.9669 53.2035 41.2461 53.2035C40.5254 53.2035 40.019 53.7395 40.019 54.5415V56.9883V56.9957Z" fill="white"/>
<path d="M44.5209 53.54L44.3361 53.0189C44.787 52.8045 45.2305 52.6641 45.8256 52.6641C46.9418 52.6641 47.5664 53.2591 47.5664 54.3827V56.9959H46.9825V56.3527C46.6979 56.7408 46.2248 57.0883 45.504 57.0883C44.7426 57.0883 43.9775 56.641 43.9775 55.7503C43.9775 54.8595 44.6909 54.3606 45.7258 54.3606C46.2469 54.3606 46.6202 54.4345 46.9861 54.5417V54.3938C46.9861 53.625 46.5352 53.2259 45.7664 53.2259C45.2823 53.2259 44.9016 53.3589 44.5246 53.54M44.5911 55.7207C44.5911 56.2677 45.0679 56.5819 45.6223 56.5819C46.3726 56.5819 46.9898 56.1014 46.9898 55.425V55.0111C46.6868 54.9187 46.2839 54.83 45.7886 54.83C45.0198 54.83 44.5948 55.1774 44.5948 55.7244" fill="white"/>
<path d="M49.5259 50.9561H48.916V56.9954H49.5259V50.9561Z" fill="white"/>
<path d="M55.4064 53.7869C56.6409 54.0678 57.2101 54.5409 57.2101 55.4354C57.2101 56.437 56.4191 57.0801 55.3177 57.0801C54.438 57.0801 53.721 56.7734 53.0557 56.1524L53.4438 55.6719C54.0203 56.219 54.5748 56.4888 55.3435 56.4888C56.1123 56.4888 56.578 56.0859 56.578 55.4982C56.578 54.9512 56.3008 54.6444 55.1366 54.3894C53.8614 54.1011 53.2774 53.6687 53.2774 52.7077C53.2774 51.7467 54.0462 51.1221 55.0959 51.1221C55.9016 51.1221 56.4819 51.3623 57.0437 51.8317L56.6778 52.3344C56.1641 51.8982 55.6503 51.706 55.0774 51.706C54.3567 51.706 53.8984 52.12 53.8984 52.6485C53.8984 53.1771 54.183 53.5097 55.4027 53.7795" fill="white"/>
<path d="M61.2834 52.7188H61.8858V56.9951H61.2834V56.2522C61.0062 56.7142 60.5848 57.0875 59.8826 57.0875C58.892 57.0875 58.3154 56.3927 58.3154 55.3762V52.7224H58.9253V55.221C58.9253 56.0157 59.3355 56.5109 60.0563 56.5109C60.777 56.5109 61.2834 55.975 61.2834 55.1693V52.7224V52.7188Z" fill="white"/>
<path d="M65.0642 58.3376C64.3842 58.3376 63.7484 58.138 63.2051 57.7425L63.4823 57.2473C63.9517 57.6021 64.4729 57.7943 65.0568 57.7943C65.9587 57.7943 66.5464 57.2731 66.5464 56.2715V55.7651C66.1915 56.2641 65.6889 56.667 64.9386 56.667C63.9591 56.667 63.0166 55.9056 63.0166 54.6563C63.0166 53.407 63.9665 52.6309 64.9386 52.6309C65.7073 52.6309 66.2063 53.0263 66.539 53.492V52.7233H67.1488V56.2567C67.1488 57.639 66.3246 58.3413 65.0679 58.3413M65.0568 53.189C64.2807 53.189 63.6412 53.7434 63.6412 54.6378C63.6412 55.5323 64.2954 56.1015 65.0568 56.1015C65.8182 56.1015 66.5611 55.5212 66.5611 54.6452C66.5611 53.7693 65.833 53.189 65.0568 53.189Z" fill="white"/>
<path d="M70.3162 58.3376C69.6361 58.3376 69.0041 58.138 68.4571 57.7425L68.7343 57.2473C69.2 57.6021 69.7248 57.7943 70.3088 57.7943C71.2106 57.7943 71.7946 57.2731 71.7946 56.2715V55.7651C71.4398 56.2641 70.9408 56.667 70.1905 56.667C69.2074 56.667 68.2686 55.9056 68.2686 54.6563C68.2686 53.407 69.2184 52.6309 70.1905 52.6309C70.9556 52.6309 71.4546 53.0263 71.7872 53.492V52.7233H72.3971V56.2567C72.3971 57.639 71.5728 58.3413 70.3162 58.3413M70.3088 53.189C69.5326 53.189 68.8932 53.7434 68.8932 54.6378C68.8932 55.5323 69.5511 56.1015 70.3088 56.1015C71.0665 56.1015 71.8094 55.5212 71.8094 54.6452C71.8094 53.7693 71.0813 53.189 70.3088 53.189Z" fill="white"/>
<path d="M75.5609 56.5411C76.1227 56.5411 76.5182 56.3009 76.8508 55.9349L77.2315 56.2898C76.8175 56.7703 76.3223 57.0918 75.5461 57.0918C74.4225 57.0918 73.5059 56.19 73.5059 54.8594C73.5059 53.6175 74.3375 52.627 75.4685 52.627C76.6771 52.627 77.3757 53.636 77.3757 54.8927C77.3757 54.9518 77.3757 55.0183 77.3646 55.0922H74.1194C74.2081 56.02 74.8401 56.5411 75.5609 56.5411ZM76.7584 54.6228C76.6956 53.8467 76.2668 53.1666 75.4537 53.1666C74.7404 53.1666 74.2044 53.7875 74.1231 54.6228H76.7584Z" fill="white"/>
<path d="M79.7934 57.0767C79.2094 57.0767 78.5589 56.8364 78.1006 56.4483L78.4074 55.9937C78.8509 56.3412 79.3425 56.5408 79.823 56.5408C80.3034 56.5408 80.6694 56.2746 80.6694 55.8607V55.8422C80.6694 55.4134 80.1852 55.2471 79.6492 55.0882C79.0098 54.8997 78.2965 54.6668 78.2965 53.8796V53.8611C78.2965 53.1256 78.8805 52.6377 79.6899 52.6377C80.1889 52.6377 80.7433 52.8188 81.1609 53.1108L80.8837 53.5876C80.503 53.3326 80.0706 53.1736 79.6714 53.1736C79.1909 53.1736 78.8805 53.436 78.8805 53.7946V53.8094C78.8805 54.2159 79.3868 54.3712 79.9301 54.5449C80.5622 54.7445 81.246 54.9995 81.246 55.7683V55.7868C81.246 56.5962 80.6028 57.0693 79.7897 57.0693" fill="white"/>
<path d="M83.1234 55.779C83.1234 56.3001 83.4006 56.4886 83.8109 56.4886C84.0178 56.4886 84.1916 56.448 84.4059 56.3408V56.8878C84.1916 57.0024 83.9624 57.0689 83.6704 57.0689C83.0162 57.0689 82.5135 56.7289 82.5135 55.8603V53.2804H81.9443V52.7186H82.5135V51.4287H83.1234V52.7186H84.4207V53.2804H83.1234V55.779Z" fill="white"/>
<path d="M85.5107 51.082H86.2093V51.7843H85.5107V51.082ZM85.5514 52.7194H86.1613V56.9958H85.5514V52.7194Z" fill="white"/>
<path d="M89.4438 57.0957C88.2167 57.0957 87.3223 56.0867 87.3223 54.8707C87.3223 53.6547 88.2241 52.6309 89.4586 52.6309C90.6931 52.6309 91.5875 53.6399 91.5875 54.8559C91.5875 56.0719 90.6783 57.0957 89.4438 57.0957ZM89.4438 53.189C88.5568 53.189 87.9469 53.9245 87.9469 54.8522C87.9469 55.7799 88.5937 56.5228 89.4586 56.5228C90.3235 56.5228 90.9629 55.7873 90.9629 54.867C90.9629 53.9467 90.305 53.189 89.4438 53.189Z" fill="white"/>
<path d="M93.2944 56.9957H92.6846V52.7194H93.2944V53.4623C93.5642 53.0003 93.993 52.627 94.6952 52.627C95.6858 52.627 96.2624 53.3218 96.2624 54.3382V56.992H95.6525V54.4935C95.6525 53.6988 95.2386 53.2035 94.5215 53.2035C93.8045 53.2035 93.2944 53.7395 93.2944 54.5415V56.9883V56.9957Z" fill="white"/>
<path d="M98.9125 57.0767C98.3285 57.0767 97.678 56.8364 97.2197 56.4483L97.5302 55.9937C97.9737 56.3412 98.4653 56.5408 98.9458 56.5408C99.4263 56.5408 99.7922 56.2746 99.7922 55.8607V55.8422C99.7922 55.4134 99.308 55.2471 98.7721 55.0882C98.1327 54.8997 97.4193 54.6668 97.4193 53.8796V53.8611C97.4193 53.1256 98.0033 52.6377 98.8127 52.6377C99.3117 52.6377 99.8661 52.8188 100.287 53.1108L100.01 53.5876C99.6296 53.3326 99.1934 53.1736 98.8016 53.1736C98.3175 53.1736 98.0107 53.436 98.0107 53.7946V53.8094C98.0107 54.2159 98.517 54.3712 99.0641 54.5449C99.6998 54.7445 100.38 54.9995 100.38 55.7683V55.7868C100.38 56.5962 99.7404 57.0693 98.9236 57.0693" fill="white"/>
<path d="M107.972 57.1096L107.1 56.1745C106.593 56.7437 106.009 57.0764 105.289 57.0764C104.291 57.0764 103.548 56.4222 103.548 55.4464C103.548 54.6665 104.039 54.1121 104.886 53.7684C104.505 53.3064 104.331 52.9479 104.331 52.4858C104.331 51.7171 104.915 51.1035 105.795 51.1035C106.571 51.1035 107.14 51.6838 107.14 52.4193C107.14 53.1548 106.641 53.6353 105.836 53.9347L107.103 55.2838C107.347 54.9105 107.569 54.4743 107.769 53.9938L108.286 54.2415C108.039 54.7885 107.787 55.2838 107.484 55.6977L108.449 56.7326L107.976 57.1133L107.972 57.1096ZM105.241 54.175C104.505 54.4559 104.18 54.9253 104.18 55.4242C104.18 56.0526 104.653 56.522 105.337 56.522C105.858 56.522 106.316 56.2337 106.723 55.768L105.244 54.175H105.241ZM105.773 51.6431C105.274 51.6431 104.934 52.0054 104.934 52.4858C104.934 52.8333 105.067 53.0883 105.488 53.5614C106.194 53.3138 106.556 52.9663 106.556 52.4526C106.556 51.9795 106.224 51.6394 105.773 51.6394" fill="white"/>
<path d="M114.388 57.0949C112.791 57.0949 111.612 55.779 111.612 54.1084C111.612 52.4378 112.784 51.1035 114.414 51.1035C115.419 51.1035 116.022 51.4768 116.572 52.0238L116.144 52.5043C115.678 52.0423 115.157 51.7097 114.403 51.7097C113.176 51.7097 112.259 52.7446 112.259 54.0899C112.259 55.4353 113.187 56.4887 114.403 56.4887C115.161 56.4887 115.663 56.1819 116.192 55.6534L116.602 56.0747C116.025 56.6883 115.39 57.0912 114.388 57.0912" fill="white"/>
<path d="M119.378 57.0957C118.151 57.0957 117.257 56.0867 117.257 54.8707C117.257 53.6547 118.159 52.6309 119.393 52.6309C120.628 52.6309 121.522 53.6399 121.522 54.8559C121.522 56.0719 120.613 57.0957 119.378 57.0957ZM119.378 53.189C118.491 53.189 117.885 53.9245 117.885 54.8522C117.885 55.7799 118.532 56.5228 119.397 56.5228C120.262 56.5228 120.901 55.7873 120.901 54.867C120.901 53.9467 120.247 53.189 119.382 53.189" fill="white"/>
<path d="M127.306 52.6309C128.248 52.6309 128.825 53.2925 128.825 54.3532V56.9996H128.215V54.5011C128.215 53.6732 127.82 53.2111 127.154 53.2111C126.537 53.2111 126.023 53.6916 126.023 54.5343V56.9996H125.421V54.4863C125.421 53.6842 125.018 53.2111 124.367 53.2111C123.717 53.2111 123.229 53.7729 123.229 54.5602V56.9996H122.619V52.7233H123.229V53.444C123.499 53.0226 123.861 52.6346 124.552 52.6346C125.243 52.6346 125.643 53.0079 125.864 53.4884C126.16 53.0153 126.592 52.6346 127.306 52.6346" fill="white"/>
<path d="M132.322 57.0883C131.56 57.0883 131.069 56.6596 130.754 56.1791V58.3191H130.145V52.7196H130.754V53.5808C131.087 53.067 131.571 52.6309 132.322 52.6309C133.301 52.6309 134.277 53.4403 134.277 54.8559C134.277 56.2715 133.312 57.0883 132.322 57.0883ZM132.211 53.2001C131.449 53.2001 130.729 53.8617 130.729 54.8522C130.729 55.8428 131.449 56.5154 132.211 56.5154C132.972 56.5154 133.652 55.9019 133.652 54.8633C133.652 53.8247 132.987 53.2001 132.211 53.2001Z" fill="white"/>
<path d="M136.062 50.9561H135.452V56.9954H136.062V50.9561Z" fill="white"/>
<path d="M137.714 53.54L137.533 53.0189C137.984 52.8045 138.427 52.6641 139.019 52.6641C140.135 52.6641 140.76 53.2591 140.76 54.3827V56.9959H140.176V56.3527C139.891 56.7408 139.418 57.0883 138.693 57.0883C137.936 57.0883 137.167 56.641 137.167 55.7503C137.167 54.8595 137.88 54.3606 138.915 54.3606C139.436 54.3606 139.81 54.4345 140.172 54.5417V54.3938C140.172 53.625 139.721 53.2259 138.952 53.2259C138.472 53.2259 138.091 53.3589 137.71 53.54M137.784 55.7207C137.784 56.2677 138.257 56.5819 138.812 56.5819C139.562 56.5819 140.179 56.1014 140.179 55.425V55.0111C139.88 54.9187 139.477 54.83 138.978 54.83C138.209 54.83 137.784 55.1774 137.784 55.7244" fill="white"/>
<path d="M142.072 51.082H142.771V51.7843H142.072V51.082ZM142.113 52.7194H142.723V56.9958H142.113V52.7194Z" fill="white"/>
<path d="M144.748 56.9957H144.138V52.7194H144.748V53.4623C145.014 53.0003 145.442 52.627 146.148 52.627C147.139 52.627 147.715 53.3218 147.715 54.3382V56.992H147.106V54.4935C147.106 53.6988 146.695 53.2035 145.975 53.2035C145.254 53.2035 144.748 53.7395 144.748 54.5415V56.9883V56.9957Z" fill="white"/>
<path d="M149.833 55.779C149.833 56.3001 150.111 56.4886 150.521 56.4886C150.728 56.4886 150.902 56.448 151.116 56.3408V56.8878C150.902 57.0024 150.672 57.0689 150.38 57.0689C149.722 57.0689 149.223 56.7289 149.223 55.8603V53.2804H148.654V52.7186H149.223V51.4287H149.833V52.7186H151.131V53.2804H149.833V55.779Z" fill="white"/>
<path d="M153.559 57.0767C152.975 57.0767 152.325 56.8364 151.866 56.4483L152.177 55.9937C152.62 56.3412 153.108 56.5408 153.592 56.5408C154.076 56.5408 154.439 56.2746 154.439 55.8607V55.8422C154.439 55.4134 153.954 55.2471 153.419 55.0882C152.779 54.8997 152.066 54.6668 152.066 53.8796V53.8611C152.066 53.1256 152.653 52.6377 153.459 52.6377C153.962 52.6377 154.513 52.8188 154.934 53.1108L154.657 53.5876C154.28 53.3326 153.844 53.1736 153.448 53.1736C152.964 53.1736 152.657 53.436 152.657 53.7946V53.8094C152.657 54.2159 153.164 54.3712 153.711 54.5449C154.343 54.7445 155.023 54.9995 155.023 55.7683V55.7868C155.023 56.5962 154.383 57.0693 153.566 57.0693" fill="white"/>
<path d="M160.608 53.7869C161.842 54.0678 162.411 54.5409 162.411 55.4354C162.411 56.437 161.62 57.0801 160.519 57.0801C159.643 57.0801 158.922 56.7734 158.257 56.1524L158.645 55.6719C159.222 56.219 159.776 56.4888 160.545 56.4888C161.313 56.4888 161.779 56.0859 161.779 55.4982C161.779 54.9512 161.502 54.6444 160.338 54.3894C159.063 54.1011 158.479 53.6687 158.479 52.7077C158.479 51.7467 159.247 51.1221 160.297 51.1221C161.103 51.1221 161.683 51.3623 162.245 51.8317L161.883 52.3344C161.369 51.8982 160.855 51.706 160.282 51.706C159.562 51.706 159.103 52.12 159.103 52.6485C159.103 53.1771 159.388 53.5097 160.608 53.7795" fill="white"/>
<path d="M165.457 57.1358C165.109 58.0191 164.714 58.3444 164.097 58.3444C163.757 58.3444 163.505 58.2705 163.228 58.13L163.431 57.6237C163.631 57.7308 163.812 57.7826 164.075 57.7826C164.441 57.7826 164.666 57.583 164.914 56.9805L163.051 52.7227H163.723L165.213 56.2857L166.529 52.7227H167.179L165.461 57.1395L165.457 57.1358Z" fill="white"/>
<path d="M169.334 57.0767C168.75 57.0767 168.1 56.8364 167.642 56.4483L167.948 55.9937C168.392 56.3412 168.883 56.5408 169.364 56.5408C169.844 56.5408 170.21 56.2746 170.21 55.8607V55.8422C170.21 55.4134 169.726 55.2471 169.19 55.0882C168.547 54.8997 167.837 54.6668 167.837 53.8796V53.8611C167.837 53.1256 168.421 52.6377 169.231 52.6377C169.73 52.6377 170.284 52.8188 170.706 53.1108L170.428 53.5876C170.048 53.3326 169.612 53.1736 169.216 53.1736C168.732 53.1736 168.425 53.436 168.425 53.7946V53.8094C168.425 54.2159 168.932 54.3712 169.479 54.5449C170.111 54.7445 170.791 54.9995 170.791 55.7683V55.7868C170.791 56.5962 170.151 57.0693 169.338 57.0693" fill="white"/>
<path d="M172.664 55.779C172.664 56.3001 172.941 56.4886 173.352 56.4886C173.559 56.4886 173.732 56.448 173.947 56.3408V56.8878C173.732 57.0024 173.503 57.0689 173.208 57.0689C172.55 57.0689 172.054 56.7289 172.054 55.8603V53.2804H171.481V52.7186H172.054V51.4287H172.664V52.7186H173.962V53.2804H172.664V55.779Z" fill="white"/>
<path d="M176.723 56.5411C177.285 56.5411 177.68 56.3009 178.013 55.9349L178.39 56.2898C177.979 56.7703 177.48 57.0918 176.704 57.0918C175.581 57.0918 174.664 56.19 174.664 54.8594C174.664 53.6175 175.496 52.627 176.627 52.627C177.839 52.627 178.534 53.636 178.534 54.8927C178.534 54.9518 178.534 55.0183 178.526 55.0922H175.281C175.37 56.02 176.002 56.5411 176.723 56.5411ZM177.917 54.6228C177.854 53.8467 177.425 53.1666 176.612 53.1666C175.899 53.1666 175.363 53.7875 175.281 54.6228H177.917Z" fill="white"/>
<path d="M184.288 52.6309C185.231 52.6309 185.807 53.2925 185.807 54.3532V56.9996H185.197V54.5011C185.197 53.6732 184.802 53.2111 184.137 53.2111C183.519 53.2111 183.006 53.6916 183.006 54.5343V56.9996H182.403V54.4863C182.403 53.6842 182 53.2111 181.35 53.2111C180.699 53.2111 180.211 53.7729 180.211 54.5602V56.9996H179.602V52.7233H180.211V53.444C180.481 53.0226 180.843 52.6346 181.531 52.6346C182.218 52.6346 182.625 53.0079 182.847 53.4884C183.139 53.0153 183.575 52.6346 184.288 52.6346" fill="white"/>
<path d="M53.8943 19.2876H46.0586V14.4531H67.4774V19.2876H59.6454V40.5955H53.8943V19.2876Z" fill="white"/>
<path d="M65.6519 27.4894C65.9439 22.6179 70.3016 21.1543 74.5484 21.1543C78.3184 21.1543 82.8572 21.997 82.8572 26.5358V36.3858C82.8572 38.1082 83.042 39.8269 83.5151 40.5957H78.2445C78.0597 40.0117 77.9155 39.387 77.8785 38.7661C76.2301 40.4848 73.8129 41.1094 71.5065 41.1094C67.9176 41.1094 65.0605 39.3168 65.0605 35.4322C65.0605 31.1485 68.2835 30.1247 71.5065 29.6848C74.6925 29.208 77.6568 29.3189 77.6568 27.1937C77.6568 24.9613 76.1192 24.6323 74.2897 24.6323C72.3123 24.6323 71.0297 25.4381 70.8486 27.4894H65.6482H65.6519ZM77.6605 31.3333C76.7808 32.1021 74.9513 32.139 73.3398 32.431C71.7283 32.76 70.2646 33.3107 70.2646 35.2142C70.2646 37.1177 71.7652 37.6314 73.4506 37.6314C77.5126 37.6314 77.6605 34.4084 77.6605 33.2737V31.3333Z" fill="white"/>
<path d="M108.53 40.5954H103.182L99.8146 27.892H99.7407L96.5214 40.5954H91.1362L85.1338 21.6641H90.6262L94.1042 34.519H94.1781L97.3235 21.6641H102.38L105.599 34.4821H105.673L109.151 21.6641H114.499L108.53 40.5954Z" fill="white"/>
<path d="M116.48 27.4894C116.772 22.6179 121.13 21.1543 125.377 21.1543C129.147 21.1543 133.685 21.997 133.685 26.5358V36.3858C133.685 38.1082 133.866 39.8269 134.343 40.5957H129.073C128.888 40.0117 128.744 39.387 128.707 38.7661C127.058 40.4848 124.641 41.1094 122.335 41.1094C118.746 41.1094 115.889 39.3168 115.889 35.4322C115.889 31.1485 119.112 30.1247 122.335 29.6848C125.521 29.208 128.485 29.3189 128.485 27.1937C128.485 24.9613 126.947 24.6323 125.118 24.6323C123.14 24.6323 121.858 25.4381 121.677 27.4894H116.476H116.48ZM128.489 31.3333C127.609 32.1021 125.779 32.139 124.168 32.431C122.556 32.76 121.093 33.3107 121.093 35.2142C121.093 37.1177 122.593 37.6314 124.279 37.6314C128.341 37.6314 128.489 34.4084 128.489 33.2737V31.3333Z" fill="white"/>
<path d="M141.747 34.4456C141.784 36.715 143.687 37.6316 145.739 37.6316C147.239 37.6316 149.143 37.0439 149.143 35.2144C149.143 33.6399 146.984 33.0928 143.247 32.2871C140.246 31.6292 137.245 30.5684 137.245 27.2346C137.245 22.4038 141.418 21.1582 145.483 21.1582C149.549 21.1582 153.43 22.5479 153.833 27.1976H148.891C148.747 25.1832 147.21 24.6362 145.339 24.6362C144.168 24.6362 142.449 24.8543 142.449 26.3955C142.449 28.2621 145.376 28.5171 148.344 29.2157C151.382 29.9105 154.35 31.0082 154.35 34.5232C154.35 39.5018 150.03 41.1133 145.709 41.1133C141.388 41.1133 137.031 39.4649 136.812 34.4493H141.758L141.747 34.4456Z" fill="white"/>
<path d="M175.141 40.5956H170.199V37.9603H170.088C168.769 40.0855 166.499 41.1093 164.304 41.1093C158.774 41.1093 157.385 37.9972 157.385 33.3106V21.668H162.585V32.3607C162.585 35.4728 163.498 37.0104 165.915 37.0104C168.735 37.0104 169.94 35.4359 169.94 31.5919V21.668H175.141V40.5956Z" fill="white"/>
<path d="M184.444 14.4531H179.243V40.5955H184.444V14.4531Z" fill="white"/>
<defs>
<linearGradient id="paint0_linear_5238_78370" x1="33.8796" y1="26.281" x2="14.0954" y2="4.26215" gradientUnits="userSpaceOnUse">
<stop stop-color="#9E151A"/>
<stop offset="0.09" stop-color="#AC1118"/>
<stop offset="0.29" stop-color="#C30C16"/>
<stop offset="0.49" stop-color="#D40814"/>
<stop offset="0.72" stop-color="#DE0613"/>
<stop offset="1" stop-color="#E20613"/>
</linearGradient>
<linearGradient id="paint1_linear_5238_78370" x1="24.3704" y1="37.1145" x2="48.1332" y2="28.1732" gradientUnits="userSpaceOnUse">
<stop stop-color="#9E151A"/>
<stop offset="0.24" stop-color="#C00D16"/>
<stop offset="0.46" stop-color="#D80713"/>
<stop offset="0.59" stop-color="#E20613"/>
<stop offset="0.85" stop-color="#F5B29C"/>
<stop offset="0.86" stop-color="#F18A7C"/>
<stop offset="0.87" stop-color="#ED665F"/>
<stop offset="0.89" stop-color="#E94847"/>
<stop offset="0.9" stop-color="#E62F34"/>
<stop offset="0.91" stop-color="#E41D25"/>
<stop offset="0.93" stop-color="#E30F1A"/>
<stop offset="0.96" stop-color="#E20814"/>
<stop offset="1" stop-color="#E20613"/>
</linearGradient>
<linearGradient id="paint2_linear_5238_78370" x1="14.7222" y1="20.402" x2="7.91467" y2="45.4924" gradientUnits="userSpaceOnUse">
<stop stop-color="#634E42"/>
<stop offset="0.2" stop-color="#6F5C4D"/>
<stop offset="0.44" stop-color="#776655"/>
<stop offset="0.74" stop-color="#7A6A58"/>
<stop offset="0.96" stop-color="#CABA9F"/>
<stop offset="0.98" stop-color="#C1B197"/>
<stop offset="0.99" stop-color="#A4947D"/>
<stop offset="1" stop-color="#7A6A58"/>
</linearGradient>
</defs>
</svg>
