<svg xmlns="http://www.w3.org/2000/svg" width="78" height="79" fill="none" xmlns:v="https://vecta.io/nano"><g clip-path="url(#A)"><path d="M75.543 28.093L72.8 25.928V4.088a3.9 3.9 0 0 0-3.9-3.9H9.1a3.9 3.9 0 0 0-3.9 3.9v21.84l-2.748 2.17C.901 29.329-.002 31.201 0 33.182v38.506a6.51 6.51 0 0 0 6.5 6.5h65a6.51 6.51 0 0 0 6.5-6.5V33.182c.002-1.982-.903-3.857-2.457-5.088zm-.753 45.674L52.502 56.44 75.4 36.706v34.982c-.001.737-.212 1.459-.61 2.08zm-.864-43.634a3.89 3.89 0 0 1 1.474 3.049v.094l-2.6 2.241v-6.279l1.126.896zM9.1 2.788h59.8a1.3 1.3 0 0 1 1.3 1.3v33.67L50.407 54.813l-8.996-6.991c-1.416-1.107-3.405-1.107-4.822 0l-8.997 6.991L7.8 37.757V4.088a1.3 1.3 0 0 1 1.3-1.3zm-5.89 70.98c-.397-.621-.609-1.343-.61-2.08V36.706L25.498 56.44 3.21 73.767zm.859-43.636l1.131-.894v6.279l-2.6-2.241v-.094a3.89 3.89 0 0 1 1.469-3.05zM6.5 75.588a3.85 3.85 0 0 1-1.153-.194l32.841-25.523a1.32 1.32 0 0 1 1.628 0l32.838 25.52c-.372.124-.761.19-1.153.196h-65z" fill="#012e5d"/><g fill="#c63b2b"><path d="M39 44.387c10.77 0 19.5-8.73 19.5-19.5s-8.73-19.5-19.5-19.5-19.5 8.73-19.5 19.5c.012 10.765 8.735 19.488 19.5 19.5zm0-36.4c9.334 0 16.9 7.566 16.9 16.9s-7.566 16.9-16.9 16.9-16.9-7.566-16.9-16.9c.011-9.329 7.571-16.889 16.9-16.9zm-6.657 27.458a3.9 3.9 0 0 0 5.515 0l13-13a3.9 3.9 0 0 0 0-5.516c-1.544-1.473-3.972-1.473-5.516 0L35.1 27.172l-2.441-2.441a4 4 0 0 0-5.516 0 3.9 3.9 0 0 0 0 5.516l5.2 5.199zm-3.361-8.878a1.3 1.3 0 0 1 1.837 0l3.362 3.36a1.3 1.3 0 0 0 1.838 0l11.163-11.162a1.33 1.33 0 0 1 1.837 0 1.3 1.3 0 0 1 0 1.838l-13 13a1.33 1.33 0 0 1-1.838 0l-5.2-5.2a1.3 1.3 0 0 1 0-1.84l.001.003z"/></g></g><defs><clipPath id="A"><path fill="#fff" transform="translate(0 .188)" d="M0 0h78v78H0z"/></clipPath></defs></svg>