<svg xmlns="http://www.w3.org/2000/svg" width="84" height="85" fill="none" xmlns:v="https://vecta.io/nano"><style><![CDATA[.B{fill:#1a1a1a}.C{fill:#fff}.D{fill:#d60812}]]></style><mask id="A" maskUnits="userSpaceOnUse" x="0" y="0" width="84" height="85"><path d="M84 .5H0v84h84V.5z" class="C"/></mask><g mask="url(#A)"><path d="M30.704 20.788h-9.877a68.67 68.67 0 0 0-.071 9.856l4.206 9.576 4.431-10.075 4.42 10.075 4.431-10.075 4.425 10.075 4.425-10.075 4.431 10.075 4.425-10.075 4.425 10.075 4.162-9.471a69.34 69.34 0 0 0-.06-9.965H30.698h.005v.006zM9.84 33.625a1.59 1.59 0 0 0 1.323-.181 1.45 1.45 0 0 0 .527-.977v-.011a2.67 2.67 0 0 1-.906-.154c-.703-.28-1.285-.807-1.62-1.488a6.11 6.11 0 0 0-.511.543 2.27 2.27 0 0 0 .121 1.565 1.52 1.52 0 0 0 1.065.697m62.757-2.454a1.53 1.53 0 0 0 .966.78 1.3 1.3 0 0 0 1.268-1.334v-.055l.401.033c.005.62-.313 1.197-.84 1.521 1.01.126 1.96-.516 2.224-1.499.346-1.307-.319-2.564-2.01-3.788a5.63 5.63 0 0 1 .549 2.235c-.231 1.598-1.938 2.01-2.559 2.108z" class="C"/><path d="M76.199 31.988l-.165.121v.011a2.52 2.52 0 0 1-.066 1.702c-.132.22-.351.368-.598.412h-.028c0 .006-.027.006-.027.006a2.55 2.55 0 0 1-1.422-.686 2.69 2.69 0 0 0-2.218-.599 4.93 4.93 0 0 1 1.713 2.707c.351 1.235 1.493 2.07 2.778 2.032a1.9 1.9 0 0 0 1.581-1.801 4.54 4.54 0 0 0-1.537-3.887m.604 2.388a1.65 1.65 0 0 1-.571 2.262c-.033.022-.066.038-.099.055-.121.027-.242.044-.368.044a1.8 1.8 0 0 1-1.576-1.142l.373-.154c.022.044.461 1.087 1.45.878.011 0 .961-.439.423-1.795l.373-.143-.005-.006zm-10.735 8.213l.066.566a4.68 4.68 0 0 0 2.701 3.772c.555 0 1.082-.247 1.444-.67.247-.39.329-.862.242-1.312l.39-.093c.121.566.011 1.158-.307 1.642a1.86 1.86 0 0 1-1.016.686l.472.088c.889.209 1.801-.225 2.202-1.043.368-1.592-.066-3.261-1.164-4.469a3.83 3.83 0 0 1-.609 2.388c-.302.362-.747.582-1.219.598-1.406 0-2.668-.846-3.201-2.147M12.948 17.746a3.7 3.7 0 0 1-2.24-3.278 3.01 3.01 0 0 1 1.362-2.515 5.1 5.1 0 0 1 4.014.137c.121-1.34-1.373-2.18-1.395-2.191v-.011a4.66 4.66 0 0 0-1.241-.302l.033-.401a9.67 9.67 0 0 1 3.454 1.323 13.43 13.43 0 0 0 3.185 1.34c1.411.209 2.85.06 4.189-.428a10.5 10.5 0 0 1-2.537-.961l.022-.044-1.922-.544a11.55 11.55 0 0 0-2.745-.615l.022-.401a11.75 11.75 0 0 1 2.85.626 16.72 16.72 0 0 0 3.476.802c1.241.104 2.487-.143 3.596-.703-.988 0-1.966-.258-2.833-.73a12.75 12.75 0 0 0-3.119-1.12h-.39c-1.197-.082-2.399-.016-3.58.192l-.121-.384a14.7 14.7 0 0 1 3.706-.209h.428l.857.005a6.34 6.34 0 0 0 2.581-.555c-.977-.253-1.927-.615-2.828-1.082a6.93 6.93 0 0 0-3.19-.362 10.74 10.74 0 0 0-1.713.373.67.67 0 0 1-.093.038c-1.795.609-3.503 1.46-5.073 2.52l-.231-.329a21.47 21.47 0 0 1 5.276-2.613c.928-.472 1.598-1.34 1.823-2.355-6.1-.917-9.663 4.799-10.179 5.694v.022l-.055.093a8.17 8.17 0 0 0-.401 6.012 4.16 4.16 0 0 0 4.996 2.948m5.71-7.714a2.8 2.8 0 0 0 2.883.824l.132.379c-.308.11-.626.17-.95.17a3.47 3.47 0 0 1-2.377-1.104l.313-.274v.005zm1.697-1.636a2.84 2.84 0 0 0 2.965.5l.17.362c-.384.187-.802.286-1.23.286a3.55 3.55 0 0 1-2.174-.84l.264-.302.006-.005zM14.102 4.6a2.88 2.88 0 0 1 3.201-.598l-.192.346c-.933-.401-2.021-.187-2.734.544a3.94 3.94 0 0 1-1.521.922l-.088-.395c.494-.165.95-.445 1.323-.813m-2.888 5.853a3.19 3.19 0 0 0 1.422-.06c1.065-.291 2.202.093 2.872.972l-.34.22c-.566-.747-1.537-1.065-2.432-.802a3.53 3.53 0 0 1-1.625.055l.104-.384zm-2.504 1.554c.379.648.593 1.378.637 2.13a3.19 3.19 0 0 0 2.174 2.921l-.099.395c-2.312-.576-2.476-3.261-2.476-3.289a4.45 4.45 0 0 0-.56-1.922l.329-.236h-.005zm61.68 15.775a1.99 1.99 0 0 1-1.735 1.016c.686.631 2.416 1.944 3.937.972.5-.318.785-.884.736-1.477a4.45 4.45 0 0 0-1.625-3.108v-.016l-2.257-.939c.544.824 1.45 2.443.939 3.547m1.312.417a1.46 1.46 0 0 0-.104-1.115l.362-.198a1.91 1.91 0 0 1 .121 1.455 1.89 1.89 0 0 1-1.224 1.049l-.137-.379a1.52 1.52 0 0 0 .983-.813z" class="C"/><path d="M52.452 19.069l-.077-.016-.132-.038-.132-.027a48.43 48.43 0 0 0-9.427-.785c-6.072 0-10.772 1.038-11.58 1.592a.69.69 0 0 0-.132.121.85.85 0 0 0-.187.483h.527a15.16 15.16 0 0 1 5.018-1.082 63.34 63.34 0 0 1 6.369-.307c5.348 0 9.872.582 11.376 1.384h.489a2.2 2.2 0 0 0-.209-.483c-.011-.016-.016-.027-.027-.038h-.022v-.027a1.99 1.99 0 0 0-.719-.423l-.06-.022.049.022-.06-.022h.011c-.22-.093-.45-.17-.675-.242h-.022c-.132-.022-.269-.049-.401-.088m21.749-.6v-.027a4.14 4.14 0 0 1-1.192-.071 2.9 2.9 0 0 1-.686.434c-.187.077-.379.143-.571.192a5.9 5.9 0 0 1 2.718 1.966c1.197 1.752 3.366 2.559 5.419 2.01-.758-.631-1.389-1.406-1.861-2.273a4.01 4.01 0 0 0-3.816-2.229m4.118 3.349l.115.384a3.11 3.11 0 0 1-.84.121 3.81 3.81 0 0 1-2.833-1.62 4.22 4.22 0 0 0-1.4-1.301l.165-.368a4.55 4.55 0 0 1 1.565 1.433 3.08 3.08 0 0 0 3.234 1.345" class="C"/><path d="M80.421 14.907a2.96 2.96 0 0 0-.615-.494 3.74 3.74 0 0 0-4.508.137c-.324.384-.681.741-1.06 1.071a3.34 3.34 0 0 1-.148.928 4.05 4.05 0 0 1-.752 1.466 2.97 2.97 0 0 0 2.438-.736l.566-.384c.121-.104 2.493-2.235 4.079-1.982m-6.732-8.571a8.62 8.62 0 0 1 2.471 3.069 3.83 3.83 0 0 0 .461-2.987c-.434-1.191-1.79-1.724-2.778-2.108l-.242-.099c-.401-.148-.769-.379-1.076-.67a5.27 5.27 0 0 0 1.153 2.789m.296-1.274a3.24 3.24 0 0 1 2.372 2.526l-.395.071c-.209-1.065-1.01-1.916-2.059-2.196l.082-.401zm-42.222 6.183l2.064 3.519c.027 0 .055-.011.088-.011l.516-3.388.06-.406.06-.406.961-6.314.198-.022 2.3 6.314.154.417.154.417 1.021 2.806c.049 0 .093 0 .143-.011l.999-3.525.121-.417.121-.417 1.894-6.682 1.784 7.083.104.417.104.417.785 3.108.335.011 1.208-2.745.17-.39.17-.384 2.833-6.418.192.033.362 6.682.022.439.022.439.159 2.833.439.066 2.465-3.668.269-.401.269-.401 2.729-4.058.664-2.01-3.388 5.051-.269.401-.269.401-2.207 3.283-.203-2.443-.033-.423-.033-.423-.67-8.06-3.629 7.692-.176.373-.176.373-1.016 2.152-.626-2.377-.11-.412-.11-.412-2.125-8.077-2.3 7.676-.121.412-.121.412-.791 2.641-.725-1.944-.154-.412-.154-.412-2.866-7.665-1.312 7.895-.066.395-.066.395-.39 2.344-.137-.242-1.686-2.844-.264-.445-.264-.445-3.02-5.123.555 2.268 2.449 4.178.264.45.264.445v-.011z" class="C"/><path d="M52.09 15.067l-.159-.033-.642-.121-.522-.088-.088-.011-1.889-.242-.308-.027-.417-.038-.285-.022-2.043-.121-.406-.016-2.202-.049h-1.164l-2.449.066-.225.011-1.955.132-.291.027-.302.028-.302.027-2.482.346-.165.027a11.59 11.59 0 0 0-1.872.483 4.23 4.23 0 0 0-.511.225 1.74 1.74 0 0 0-.269.176.28.28 0 0 1-.044.033l-.126.126-.033.033a.48.48 0 0 0-.099.17l-.011.022c-.044.132-.071.269-.066.406 0 .082.006.17.027.253l.039-.055a1.26 1.26 0 0 1 .269-.242 4.38 4.38 0 0 1 1.153-.494l.28-.082c.395-.11.84-.209 1.345-.302l2.69-.368.329-.033.192-.016 5.178-.231h.511l1.093.011 3.437.137 2.092.192 1.395.192h.022a10.8 10.8 0 0 1 3.245.911c.17.088.324.203.45.351.017.022.033.039.044.06a1.31 1.31 0 0 0 .027-.329c-.011-.088-.033-.17-.066-.253a.81.81 0 0 0-.055-.121l-.027-.06-.121-.203c-.011-.016-.028-.027-.044-.044-.082-.077-.17-.143-.269-.198a6.89 6.89 0 0 0-1.933-.637m-12.65-.362v-.011h.006v.011h-.006zM20.585 59.886a2.59 2.59 0 0 0 1.4-1.823 2.67 2.67 0 0 0-.527-2.29 2.55 2.55 0 0 1-.983 1.268c-.308.17-.675.209-1.01.099a1.46 1.46 0 0 1-.961-.835c-.675-1.46.362-4.255 1.049-5.787a24.2 24.2 0 0 0 1.691-11.629c-.027 1.592-.17 3.179-.439 4.744-.445 2.224-1.252 4.354-2.388 6.314l-.505.972c-2.526 4.974-1.186 7.335-.5 8.121a2.91 2.91 0 0 0 3.174.84m-2.361-1.878l.313-.253c.285.428.747.708 1.257.763a1.84 1.84 0 0 0 1.18-.527l.297.275a2.15 2.15 0 0 1-1.444.659h-.055c-.631-.06-1.202-.395-1.565-.911m6.143 2.333c-.324.642-.928 1.104-1.631 1.246a3.47 3.47 0 0 1-2.602-1.169 3.41 3.41 0 0 1-1.109-.022c-.027.659-.017 2.866 1.235 3.778a3.42 3.42 0 0 0 3.366-.044c-.017-.395.088-.785.302-1.12a4.08 4.08 0 0 0 .445-2.674m-2.141 3.113h-.055a2.09 2.09 0 0 1-1.554-.912l.313-.252c.28.428.741.708 1.252.763h.044a1.76 1.76 0 0 0 1.148-.527l.296.269a2.1 2.1 0 0 1-1.444.659zm35.501-5.281c.351-.285.763-.483 1.203-.582l.252-.033-.022.252c-.099 1.373-.664 2.663-1.603 3.668l-.708.566c-1.905 1.219-3.201 3.201-3.547 5.441a3.59 3.59 0 0 0 2.092-1.208l.351-.395v.533a4.94 4.94 0 0 1-1.598 3.382c0 .011-.017.011-.017.016 2.141-.703 3.695-2.559 4.008-4.788.154-1.279.5-2.526 1.032-3.701a1.67 1.67 0 0 1 .703-.791v-.022c-.005 0 .06 0 .06 0a.56.56 0 0 1 .329 0 1.47 1.47 0 0 1 1.038.791c.06.077.994 1.257 1.845 1.082.571-.121 1.032-.84 1.34-2.097l.022.011a28.43 28.43 0 0 0-1.268-3.975l-.247-.67c-.686-1.905-.527-6.517-.522-6.715l.401-.027a8.11 8.11 0 0 0 1.455 3.272c.719.933 1.147 2.059 1.241 3.229h.028a1.46 1.46 0 0 0 1.148-.741c1.18-1.658-.659-5.798-1.082-6.682a14.73 14.73 0 0 1-2.246-5.688 61.9 61.9 0 0 1-5.677 15.89m-2.295 6.66c-.791.39-1.257 1.23-1.17 2.108l-.395.071a2.55 2.55 0 0 1 1.373-2.537c.401-.209.741-.505 1.01-.873l.351.209c-.302.428-.703.78-1.169 1.016m1.922 1.51c-.033 1.049-.703 1.971-1.691 2.333l-.121-.39a2.13 2.13 0 0 0 1.4-1.966c.016-.522.159-1.032.412-1.488l.34.22c-.214.395-.335.84-.346 1.29m5.172-9.642c.082.505.285.983.593 1.4a2.87 2.87 0 0 1 .132 3.218l-.329-.242c.522-.857.472-1.944-.126-2.751a3.71 3.71 0 0 1-.67-1.598l.406-.028h-.005zm3.053-6.984a3.39 3.39 0 0 0 .599 1.395c.692.944.741 2.218.121 3.217l-.324-.231c.538-.851.489-1.949-.126-2.751-.351-.472-.576-1.027-.67-1.609l.401-.022zm-.351 1.065l.203-.017c.06.346.198.67.406.95a1.99 1.99 0 0 1 .088 2.322l-.318-.242a1.64 1.64 0 0 0-.099-1.856c-.247-.34-.406-.73-.472-1.148l.198-.017-.005.005zM47.198 76.561a2.91 2.91 0 0 0-2.685 1.757c-.088.939-.017 1.889.214 2.806a6.03 6.03 0 0 1 4.058-2.707 7.4 7.4 0 0 0 3.146-3.091c-1.087.752-2.377 1.148-3.701 1.126l-1.038.11m4.59.444l-.302.747a7.61 7.61 0 0 1-2.191 3.064l-.241-.335c.906-.78 1.609-1.773 2.042-2.882l.34-.829a7.06 7.06 0 0 1-2.482 2.01 18.62 18.62 0 0 0-1.609 2.542 3.96 3.96 0 0 1-1.845 1.905c1.422.291 4.288.302 6.77-3.245a5.3 5.3 0 0 1-.5-2.976m13.36-21.711a5.56 5.56 0 0 0-1.12-2.877 6.87 6.87 0 0 1-1.164-2.103 20.28 20.28 0 0 0 .522 5.178l.176.472a5.64 5.64 0 0 1 .17-1.455l.099-.439.258.362c.28.373.642.67 1.065.862m-40.35 5.282a4.18 4.18 0 0 1-.543 2.663c-.511.719-.165 2.476 1.021 5.216l.082.198c.406.895.34 1.938-.181 2.773-.467.483-1.246.538-2.328.165-.192 1.093.115 2.213.835 3.053.686.577 1.801.615 3.294.104a9.29 9.29 0 0 1 .093-1.872l.395.066c-.005.033-.516 3.245.928 4.733a12.13 12.13 0 0 1 2.268 3.75 12.22 12.22 0 0 0 .269-1.334c.137-1.213.082-2.443-.159-3.646a.69.69 0 0 1-.033-.154c-.017-.044-.027-.093-.044-.143a8.69 8.69 0 0 0-1.521-3.058l-.774-.9-.346-.313.082.011-.038-.049.576.121c4.931.994 7.385-.088 8.115-.511a10.43 10.43 0 0 0-4.843-1.493c-2.613-.318-4.288-2.196-4.974-5.578a7.95 7.95 0 0 0-2.163-3.788m3.953 13.194l.999 2.432a6.11 6.11 0 0 1 .439 2.921l-.395-.077c.071-.917-.071-1.839-.423-2.69l-.999-2.427.379-.154v-.005zm.889-3.217l2.553.588c.895.209 1.828.198 2.723-.028l.143.379a4.17 4.17 0 0 1-1.395.22 7.16 7.16 0 0 1-1.565-.176l-2.553-.587.088-.384.005-.011zm-4.398 4.37l-.159.011c-.785-.033-1.455-.587-1.642-1.356l.39-.099a1.37 1.37 0 0 0 1.329 1.049c0-.011.977-.307.664-1.669a1.54 1.54 0 0 1-.868.719c-.846.06-1.609-.505-1.795-1.334l.39-.104c.016.044.302 1.142 1.329 1.049.005-.011 1.005-.313.648-1.73l.39-.099a2.11 2.11 0 0 1-.066 1.422l.335-.082a1.65 1.65 0 0 1-.857 2.18c-.033.017-.071.028-.104.044m1.675-6.6l-1.148-2.356a6.08 6.08 0 0 1-.626-2.894l.401.055a5.73 5.73 0 0 0 .582 2.663l1.153 2.361-.362.176v-.005z" class="C"/><path d="M30.544 14.742l-.34-1.45c-.824-.626-1.834-.961-2.872-.961a7.65 7.65 0 0 0-1.944.456l-.961.308a7.12 7.12 0 0 1 1.922.89 4.97 4.97 0 0 0 4.189.758m-3.92-.944l-.187-.362a3.23 3.23 0 0 1 3.426.456l-.264.308a2.82 2.82 0 0 0-2.981-.406m-3.271-.469a5.54 5.54 0 0 1-1.279 0c1.153.769 2.548 1.087 3.92.906a5.41 5.41 0 0 0-2.636-.9l-.005-.006zm-17.4 7.314c-.587 1.142-.664 2.476-.203 3.673.307.011 1.406-.093 3.81-1.878.884-.681 1.817-1.29 2.795-1.823a8.5 8.5 0 0 1-4.546-1.323 3.13 3.13 0 0 0-1.861 1.345m3.179.829l-.06.401c-.555-.187-1.159.115-1.345.675a1.05 1.05 0 0 0-.055.39h-.406c.011-.439.192-.857.505-1.158.384-.302.884-.417 1.362-.302m-.763-.879l-.066.406c-.56-.181-1.169.126-1.351.686-.038.121-.055.247-.049.373h-.406c-.033-.813.604-1.493 1.417-1.526a1.41 1.41 0 0 1 .456.055m22.267-3.102l-.027-.544h.022a1.7 1.7 0 0 1-.033-.242l-.527.659a6.1 6.1 0 0 1-.483.587l.966.401a1.63 1.63 0 0 1-.022-.285c0-.198.033-.395.104-.582" class="C"/><path d="M67.051 54.878a1.83 1.83 0 0 1-1.477.911 2.31 2.31 0 0 1-1.565-.796c-.269.9-.06 1.872.549 2.586a1.8 1.8 0 0 0 1.801.28c.917-.34 1.576-1.153 1.724-2.125a9.63 9.63 0 0 0-.983-5.051c.434 1.499.648 3.196-.055 4.189m-2.037 1.323a1.27 1.27 0 0 0 1.054.137c.291-.143.511-.395.615-.703l.384.126a1.62 1.62 0 0 1-.84.944 1.31 1.31 0 0 1-.505.099 2 2 0 0 1-.889-.242l.176-.362h.005zm1.373 1.334c-.143.055-.296.082-.456.082-.33-.011-.648-.104-.928-.275l.192-.351c.308.209.692.269 1.049.165a1.22 1.22 0 0 0 .637-.675l.379.143a1.7 1.7 0 0 1-.879.911m-5.177 4.267A4.25 4.25 0 0 0 61 63.13a1.06 1.06 0 0 0 1.488.192c.011-.011.027-.022.038-.033l.214.346c-.28.187-.604.291-.939.302-.269 0-.533-.088-.758-.247a3.63 3.63 0 0 0 .686 1.642 1.88 1.88 0 0 0 1.62.807 1.49 1.49 0 0 0 1.071-1.027 1.38 1.38 0 0 1-.73.209 1.48 1.48 0 0 1-.538-.093l.077-.181.077-.187c.549.209 1.164-.071 1.373-.62.006-.016.011-.038.022-.055a9.06 9.06 0 0 0-.038-3.102c-.351.994-.835 1.565-1.444 1.686a2.45 2.45 0 0 1-2.02-.961m-31.95 10.679c.901 1.016 1.526 2.24 1.823 3.569l.017.066.066.302a10.46 10.46 0 0 1 .176 3.558l-.121.868c2.635 3.47 5.54 3.41 6.88 3.146-.879-.593-1.592-1.406-2.07-2.35l-1.57-2.432h.373c1.85 0 3.481 1.889 4.102 2.712l.203-.868a5.54 5.54 0 0 0-.939-4.228 3.64 3.64 0 0 0-2.306-1.274l-.077-.016-6.298-3.003-.258-.038m4.865 4.096a4.54 4.54 0 0 0 1.779.878c1.444.329 2.548 1.51 2.778 2.976l-.406.038a3.19 3.19 0 0 0-2.471-2.624 4.78 4.78 0 0 1-1.966-.983l.28-.285h.006zm-1.763 3.223a4.39 4.39 0 0 1 1.268 1.554c.505 1.093 1.631 1.762 2.828 1.686l.055.401a2.66 2.66 0 0 1-.417.027c-1.219-.099-2.295-.835-2.828-1.933a4.04 4.04 0 0 0-1.131-1.395l.225-.335v-.005z" class="D"/><path d="M59.518 61.494a12.46 12.46 0 0 0-.983 3.58 6.39 6.39 0 0 1-6.133 5.485l-.78.154c-1.647.313-3.349.637-4.156 2.69a3.54 3.54 0 0 0 2.619-.038l.143.373H50.2c-.944.516-1.944.917-2.987 1.191-.889.225-1.658.802-2.119 1.598a4.34 4.34 0 0 0-.324.681c.648-.604 1.488-.972 2.372-1.038l1.065-.11c1.757-.165 2.943-.28 4.272-1.801 0-.005.005-.011.011-.028h.005l.154-.17.335.22c-.022.033-1.839 3.487-.038 6.012a4.21 4.21 0 0 1 1.202-1.883 7.66 7.66 0 0 0 1.483-4.239l.406.017a4.72 4.72 0 0 1-.028.351h.005c-.022.719.231 1.422.697 1.971a2.81 2.81 0 0 0 2.147.785c.604.011 1.186-.231 1.603-.67.873-1.219 1.334-2.69 1.307-4.189a2.36 2.36 0 0 1-1.455.406c-.401-.049-.758-.269-.983-.598-.933-1.329-.066-4.887-.027-5.04.016-.049 1.093-4.222.664-6.281a1.59 1.59 0 0 0-.45.577m-9.85 13.891c-.291 0-.587-.05-.862-.148l.159-.373a1.99 1.99 0 0 0 2.559-1.164l.033-.099.368.17c-.34.961-1.241 1.609-2.257 1.62m4.195.209a2.52 2.52 0 0 0-.373 2.839l-.346.203a2.96 2.96 0 0 1 .412-3.305 3.58 3.58 0 0 0 .73-1.384l.401.066a3.84 3.84 0 0 1-.818 1.576m.297-4.2a3.32 3.32 0 0 0-1.526.319l-.209-.346a3.72 3.72 0 0 1 1.735-.379 2.49 2.49 0 0 0 2.427-1.521l.379.132a2.98 2.98 0 0 1-2.806 1.795zm4.689 5.123a1.23 1.23 0 0 1-.62-.165c-.478-.472-.549-1.219-.165-1.768l.335.214a1 1 0 0 0 .082 1.241c.033.022.653.362 1.241-.511l.335.225a1.45 1.45 0 0 1-1.208.763zm.077-3.503l.335.22c-.269.379-.236.889.071 1.235.038.022.659.368 1.246-.505l.34.225a1.46 1.46 0 0 1-1.219.758 1.27 1.27 0 0 1-.615-.159 1.38 1.38 0 0 1-.165-1.779m-40.047-16.88c.132.302.395.533.714.621.231.077.489.055.703-.071a2.58 2.58 0 0 0 .9-1.362l.093-.34.242.247a3.1 3.1 0 0 1 .862 2.921c-.181.928-.802 1.718-1.664 2.114a1.32 1.32 0 0 0-.137.044c.538.571 1.29.889 2.075.878.637-.093 1.175-.615 1.609-1.554l.242-.527.137.566c0 .016.022.121.049.275a8.43 8.43 0 0 1 2.646 4.332 10.53 10.53 0 0 0 .659 2.147l.017-.011a4.14 4.14 0 0 0 4.436 1.515 4.69 4.69 0 0 1-1.213-2.185c-.22-.983-.505-1.944-.862-2.883h.022l-.121-.209-1.444-2.295-.28-.489-1.191-2.163-.203-.406-1.18-2.476c0-.017-.006-.027-.017-.038-1.878-4.25-3.289-8.697-4.206-13.254.006 3.141-.615 6.254-1.834 9.153-1.104 2.504-1.488 4.491-1.049 5.458m9.202 6.693a4.57 4.57 0 0 1 .933 1.9 3.08 3.08 0 0 0 2.509 2.416l-.038.401a3.52 3.52 0 0 1-2.866-2.723c-.143-.626-.423-1.213-.829-1.713l.291-.28zm-4.403-5.617c-.049-.736.077-1.471.357-2.152l.362.181a4.35 4.35 0 0 0-.318 1.944 3.63 3.63 0 0 1-2.043 3.498l-.143-.373c1.181-.566 1.889-1.801 1.774-3.102m-2.218-6.671l.39.088a4.49 4.49 0 0 1-1.093 1.812 3.05 3.05 0 0 0-.675 3.415l-.362.187c-.566-1.323-.269-2.861.747-3.882.445-.461.785-1.016.994-1.62zm3.827-44.083h.214c0 .005.511-.016.511-.016l-.5.401-.247.165a4.58 4.58 0 0 0 2.163-.401 4.75 4.75 0 0 0-2.965-1.839c-1.224-.34-2.531-.264-3.712.209a10.99 10.99 0 0 1 1.153.335h.011l1.208.489a6.62 6.62 0 0 0 2.152.659m-2.344-1.285a3.26 3.26 0 0 1 3.338.917l-.308.269c-.725-.807-1.85-1.12-2.893-.813l-.137-.373zM8.439 16.664a4.71 4.71 0 0 1-.796-1.537h-.011a2.62 2.62 0 0 0-3.305-.889 1.79 1.79 0 0 0-1.274 1.515 3.2 3.2 0 0 0 .994 2.476c.181-.67.62-1.241 1.224-1.587a3.88 3.88 0 0 1 3.168.017m-3.591-1.345c-.983.395-.587 1.499-.571 1.548l-.379.143a1.54 1.54 0 0 1 .747-2.042c.066-.044.824-.45 2.218.747l-.264.308c-1.164-1.005-1.751-.703-1.751-.703zm50.684-2.773l-.165.598-.384 1.422a5.26 5.26 0 0 0 1.504-.741l.049-.044.252-.242.813-.741a4.3 4.3 0 0 0-2.092-.198l.017-.06.006.005zm-.857 6.231l.176-.088.082-.044c.044-.022.082-.049.121-.077l.071-.049c.137-.093.264-.203.379-.324l-.17-.17-.17-.159a3.85 3.85 0 0 0-.434-.038v.11c-.005.033-.005.071-.005.104a2.22 2.22 0 0 1-.027.329l-.027.401m24.937-3.387a1.49 1.49 0 0 1 .708 1.521l-.198-.049-.198-.038a1.07 1.07 0 0 0-.879-1.23 8.42 8.42 0 0 0-1.504.879l.181-.017c.066-.011.137-.011.209-.011 1.109.088 2.02.917 2.213 2.015a3.79 3.79 0 0 0 .796-2.504 1.66 1.66 0 0 0-.121-.428c-.357-.242-.807-.291-1.208-.132M13.118 3.503h-.011c.637-1.208.362-1.905.165-2.196a5.72 5.72 0 0 1-2.954 2.229l-1.076.467a2.23 2.23 0 0 0-1.235 1.279c-.253.972-.181 1.993.203 2.921a13.42 13.42 0 0 1 4.914-4.705m-2.712.527c.489-.181.933-.467 1.301-.84l.313.247c-.406.434-.906.769-1.472.961a2.48 2.48 0 0 0-1.686 2.24l-.406.022a2.89 2.89 0 0 1 1.949-2.63zm55.827 34.228a31.24 31.24 0 0 0-.22 3.201h.011c.005.022.813 2.894 3.075 2.894h.143c.324-.005.637-.137.862-.368a12.52 12.52 0 0 1-.532-8.34l.148-.642.242.609a5.23 5.23 0 0 0 3.508 2.723 6.74 6.74 0 0 1-.401-1.944c0-.928-.928-2.992-2.042-3.283l-.609-.159.587-.225a3.12 3.12 0 0 1 3.152.543 2.14 2.14 0 0 0 1.153.566c.132-.022.242-.104.307-.214a2.01 2.01 0 0 0 .038-1.318 3 3 0 0 1-1.488.214c-.966-.104-1.977-.653-2.021-1.504l-.011-.198.203-.011c.022 0 2.174-.159 2.405-1.757a4.81 4.81 0 0 0-.988-2.767h.005l-1.038-.576a4.94 4.94 0 0 1 .988 2.608 2 2 0 0 1-.911 1.828c-2.235 1.422-4.667-1.23-4.766-1.345l-.285-.318.428-.017c.983-.038 1.603-.319 1.839-.824.566-1.224-1.109-3.432-1.252-3.624a8.32 8.32 0 0 1-3.816-2.476 74.82 74.82 0 0 1 0 9.285l-.033.434c0 .071-.011.154-.016.242 1.845 1.768 1.614 4.085 1.34 6.781m4.722-4.107a3.14 3.14 0 0 0 .631 1.356l.917 1.175-.313.247-.922-1.175a3.5 3.5 0 0 1-.714-1.576l.401-.027zm-4.59-10.899l1.784 1.345a5.14 5.14 0 0 1 1.609 1.966l-.379.132c-.34-.703-.846-1.312-1.472-1.779l-1.795-1.367.247-.297h.005zm-.258 3.569a3.69 3.69 0 0 1 .67 1.592 2.42 2.42 0 0 0 1.878 2.015l-.055.406c-1.153-.258-2.031-1.186-2.218-2.35a3.42 3.42 0 0 0-.582-1.4l.308-.264zm.231 4.206l.39.104a2.89 2.89 0 0 0 .181 1.894 10.62 10.62 0 0 1 .445 5.024c-.159.977-.28 3.569.961 3.937l-.121.384c-1.828-.544-1.263-4.217-1.246-4.376.247-1.609.11-3.256-.401-4.799a3.19 3.19 0 0 1-.203-2.163M74.2 15.116c1.175-.928 1.894-2.312 1.982-3.799 0-1.082-.483-2.767-2.751-4.672-.176-.148-.324-.324-.445-.522l-.088 1.598c.006.027.011.055.011.082l-.401.049c-.362-2.883-3.443-2.948-3.569-2.948l-.856-.055c.566.609 1.504 1.719 1.504 2.273h-.192l-.148.126c-1.186-1.395-3.168-1.268-5.891.346.121.176.461.483 1.356.412a1.86 1.86 0 0 1 .961.132l-.159.373a1.46 1.46 0 0 0-.763-.104h-.044a2.9 2.9 0 0 0-1.554.895 2.1 2.1 0 0 1-1.268.461 3.52 3.52 0 0 0 4.661.472 3.85 3.85 0 0 1 2.647-.351l-.093.395c-.791-.176-1.62-.071-2.339.302a4.84 4.84 0 0 1-2.339.714c.807 1.203 2.476.807 3.607.538a5.54 5.54 0 0 1 .741-.143 6.12 6.12 0 0 1 .609-.027 4.13 4.13 0 0 1 1.345.187c.022.005 3.075.983 3.465 3.267M66.25 9.609c-.549.434-1.224.681-1.922.714a2.29 2.29 0 0 1-1.279-.379l.22-.34a2.46 2.46 0 0 0 2.729-.307 3.85 3.85 0 0 1 1.548-.774l.066.406a3.3 3.3 0 0 0-1.362.686m2.619-1.482a3.53 3.53 0 0 0-3.717-.555l-.181-.362c1.395-.598 3.003-.357 4.162.615l-.264.302zm4.645-.176l.988 1.845a4.92 4.92 0 0 1 .609 2.311l-.406-.038a4.6 4.6 0 0 0-.555-2.081l-.994-1.845.357-.192zm-3.305 3.602c-.774-.637-1.861-.736-2.74-.247-.505.264-1.065.417-1.636.445H65.8l.028-.401a3.48 3.48 0 0 0 1.46-.406c1.032-.555 2.3-.428 3.207.318l-.28.291h-.005zm1.856-1.115a3.68 3.68 0 0 1-1.4-3.898l.379.121a3.28 3.28 0 0 0 1.263 3.454 4.93 4.93 0 0 1 1.444 1.707l-.373.148c-.318-.604-.774-1.131-1.323-1.537" class="D"/><path d="M30.643 15.165c-.088.027-.187.071-.308.121-1.389.609-2.91.851-4.42.703a9.43 9.43 0 0 1-2.372-.445l-.049-.027a11.89 11.89 0 0 0-4.81-1.922 5.51 5.51 0 0 0-2.855.549 5.77 5.77 0 0 1 2.883 1.181c.434.329.9.604 1.395.818l.022.39c-1.834.681-5.013.637-6.545-.428-.554-.34-.895-.939-.911-1.587a2.46 2.46 0 0 1 2.042-2.432 3.59 3.59 0 0 0-2.438.209c-.725.489-1.164 1.307-1.164 2.185 0 .077-.066 2.053 2.564 3.157l.549.231-.576.148a6.59 6.59 0 0 1-1.532.165 5.1 5.1 0 0 1-2.883-.813l-.011.011c-.95-.527-2.042-.741-3.124-.615l1.993 2.224a8.69 8.69 0 0 0 5.189 1.23c.494-.143 1.01-.198 1.526-.159l-.017.406-.483-.011h.006a5.6 5.6 0 0 0-1.724 2.191 10.61 10.61 0 0 0 6.051-2.163 19.43 19.43 0 0 0 1.916-1.768 8.15 8.15 0 0 1 1.257-1.126 5.56 5.56 0 0 1 2.125-.648l.549-.099.077.395-.56.104c-.011 0-.022 0-.033.005l.011.017a4.56 4.56 0 0 0-1.757 2.064 6.73 6.73 0 0 1 2.235-.379 3.19 3.19 0 0 0 2.707-1.834l.362.17a4.34 4.34 0 0 1-.588.884c-.033.384-.022.769.044 1.153a8.88 8.88 0 0 0 2.767-2.306 5.68 5.68 0 0 1 1.06-1.175c0-.016.011-.027.022-.038l-.181-.73-.011-.005zm-16.68 4.321a4.22 4.22 0 0 0-1.889-.038c-.242.044-.489.06-.736.06-1.164.06-2.268-.522-2.877-1.515l.346-.203c.708 1.027 1.971 1.526 3.19 1.257a4.64 4.64 0 0 1 2.092.049l-.132.384.006.006zm-.132 2.657v-.412c1.087-.011 2.064-.648 2.526-1.631l.373.148a3.24 3.24 0 0 1-2.899 1.894zm6.281-4.129c-.664-.56-1.609-.659-2.372-.242-.445.231-.933.362-1.433.379h-.049l.011-.203.011-.203a2.86 2.86 0 0 0 1.274-.335c.917-.483 2.037-.362 2.833.307l-.274.297zm1.532-1.988a3.45 3.45 0 0 1-1.351-.895 2.26 2.26 0 0 0-2.498-.598l-.17-.362c1.032-.401 2.207-.126 2.959.686a3.22 3.22 0 0 0 1.169.791l-.11.379zm1.845 2.773h-.066l.011-.406h.055c1.021.038 1.982-.505 2.465-1.406l.368.165c-.544 1.054-1.647 1.697-2.833 1.647zm3.81.082l-.132-.379c.994-.313 1.719-1.18 1.856-2.213l.401.022a3.05 3.05 0 0 1-2.125 2.575M60.38 41.224l-4.425-10.075-4.425 10.075-4.425-10.075-4.425 10.075-4.425-10.075-4.431 10.075-4.425-10.075-4.425 10.075-4.129-9.4.148 1.746.071.686.077.73.434 3.168h.011a.6.6 0 0 0 .011.143 66.39 66.39 0 0 0 4.716 16.274l.203.445.84 1.79.395.769.791 1.466.56.988.752 1.23.725 1.137.73 1.065.879 1.213.752.961 1.005 1.241.796.9 1.115 1.213a23.03 23.03 0 0 0 .906.889l1.175 1.142 1.098.939 1.175.999 1.565 1.164.873.659 2.207-1.642.362-.291 2.021-1.718c.049-.044.082-.082.126-.126a43.11 43.11 0 0 0 1.828-1.768l.198-.198 1.741-1.905c.066-.071.121-.148.187-.225a44.87 44.87 0 0 0 1.554-1.916l.066-.082a45.25 45.25 0 0 0 1.428-1.982l.264-.39 1.213-1.883.148-.242.983-1.73.417-.769.62-1.224a59.41 59.41 0 0 0 .758-1.587l.247-.549a68.39 68.39 0 0 0 5.238-20.299.81.81 0 0 0 .011-.121l.082-.884.077-.879.038-.423v-.022l-4.074 9.29-.006.005z" class="D"/><path d="M31.148 18.905c-.066 0-.132-.033-.181-.082a.67.67 0 0 1-.126-.181 1.4 1.4 0 0 1-.121-.577 1.37 1.37 0 0 1 .121-.571c.017-.033.033-.066.055-.093.049-.093.143-.159.253-.17.192 0 .412.346.412.834s-.22.84-.412.84zm11.349-1.522a.84.84 0 0 1-.022-1.68.85.85 0 0 1 .818.593.79.79 0 0 1 .044.253.84.84 0 0 1-.84.84m12.009.878a1.23 1.23 0 0 1-.11.373c-.077.154-.187.242-.285.242-.231 0-.423-.384-.423-.84a1.28 1.28 0 0 1 .022-.253c.055-.335.214-.587.401-.587s.274.154.351.406l.016.055.038.192.011.181a1.55 1.55 0 0 1-.017.225m-18.964-1.295a.84.84 0 0 1 .483-.802.49.49 0 0 1 .198-.038.51.51 0 0 1 .22.049c.296.148.478.461.467.796.077.373-.159.747-.538.824-.373.077-.747-.159-.824-.538a.63.63 0 0 1 0-.286m13.205.808a.77.77 0 0 1-.686-.84.97.97 0 0 1 .17-.549.64.64 0 0 1 .516-.291.63.63 0 0 1 .522.313.95.95 0 0 1 .154.527c.044.417-.258.791-.675.84zM10.921 31.923c1.186.439 2.366-.17 3.223-1.642a3.64 3.64 0 0 1-2.734-.296c-.478-.379-.725-.977-.659-1.587a3.7 3.7 0 0 1 1.614-3.124 3.7 3.7 0 0 0-3.075 3.179c-.406 1.406.291 2.893 1.636 3.47m-.593-2.322a1.3 1.3 0 0 0 1.032 1.515 1.33 1.33 0 0 0 .489 0l.06.395a1.08 1.08 0 0 1-.231.011c-.434.011-.857-.132-1.191-.406a1.88 1.88 0 0 1-.571-1.521h.406l.005.006zm-.115 7.356a2.13 2.13 0 0 0 1.713-1.252 3.46 3.46 0 0 0 .022-2.679 1.68 1.68 0 0 1-.549.741 1.99 1.99 0 0 1-1.647.242c-.555-.088-1.043-.417-1.334-.895-.181-.324-.269-.692-.258-1.065a3.82 3.82 0 0 0 .357 4.442 1.97 1.97 0 0 0 1.702.456m-1.905-1.872l.329-.231a1.73 1.73 0 0 0 1.202.857 1.65 1.65 0 0 0 1.213-.445l.28.297a2.19 2.19 0 0 1-1.367.56c-.055 0-.115 0-.17-.011-.626-.099-1.175-.472-1.488-1.021m7.501 8.893a2.17 2.17 0 0 1-.983-.763 6.19 6.19 0 0 0 .598 2.877 1.07 1.07 0 0 0 1.51 0l.055-.06.264.307a1.69 1.69 0 0 1-1.093.461c-.049 0-.093-.017-.143-.022.483.329 1.098.412 1.647.209 1.202-.346 1.686-1.482 1.779-2.904a1.45 1.45 0 0 1-1.082.467c-.055 0-.11 0-.165-.011l.066-.401c.099.017.966.121 1.191-.994a16.36 16.36 0 0 0-.154-1.795c-.071.972-.599 1.845-1.428 2.355a2.48 2.48 0 0 1-2.07.275" class="D"/><path d="M13.837 40.686c-.198.187-.428.335-.681.434a2.04 2.04 0 0 1-.703.126 3.01 3.01 0 0 1-1.455-.428l.192-.362c.533.357 1.203.461 1.817.28.494-.225.89-.626 1.098-1.131.055-.659.017-1.329-.121-1.977l-.099.214a2.3 2.3 0 0 1-1.686 1.082c-.703.209-1.455.093-2.064-.313-.39-.318-.648-.769-.725-1.263-.066-.005-.121-.022-.187-.027-.379 1.334-.115 2.767.708 3.882a2.31 2.31 0 0 0 2.432.61c.626-.126 1.159-.527 1.455-1.093 0-.011 0-.022.011-.038" class="D"/><path d="M31.159 15.594a2.56 2.56 0 0 1 .269-.148l.269-.121c.615-.231 1.252-.401 1.9-.522l-1.85-3.163-.264-.45-.264-.45-2.322-3.964 2.081 8.939a1.34 1.34 0 0 1 .176-.132m5.485-1.208l.483-.049.285-.022 1.713-.121-.906-2.493-.154-.417-.154-.417-2.257-6.193-.95 6.149-.06.401-.06.406-.483 3.097 2.235-.307.302-.027m11.382-.073l.285.027h.016l.307.027.308.027 1.73.22-.137-2.526-.022-.439-.022-.439-.346-6.517-2.767 6.248-.17.384-.17.384-1.082 2.449 1.79.11.285.022" fill="#c07d00"/><path d="M42.179 14.095h1.049l1.96.038-.708-2.8-.104-.417-.11-.412-1.664-6.589-1.762 6.199-.121.417-.121.417-.911 3.212 2.202-.06h.291m14.581-7.083l.044-.115-2.498 3.712-.269.401-.269.401-2.246 3.338.11.022.961.209a7.98 7.98 0 0 1 1.164.373l.269.121.269.159a1.2 1.2 0 0 1 .159.132l2.416-8.972-.104.214-.005.005zm-3.118 9.477a21.6 21.6 0 0 0-5.474-1.01l-.11-.011-.22-.017-2.893-.159-2.262-.038a58.65 58.65 0 0 0-7.011.384l-2.196.351-.494.11a5.81 5.81 0 0 0-1.746.642.65.65 0 0 0-.296.335.48.48 0 0 1 .214-.06c.346 0 .615.456.615 1.038s-.269 1.038-.615 1.038c-.055 0-.115-.011-.165-.038l.027.549c.999-.664 6.012-1.614 11.678-1.614a47.43 47.43 0 0 1 9.449.785 10.24 10.24 0 0 1 1.455.417 3.05 3.05 0 0 1 .741.384l.033-.511v-.093a.44.44 0 0 1-.258.099c-.362 0-.631-.456-.631-1.038 0-.06 0-.126.011-.187.049-.489.302-.857.62-.857.126 0 .247.06.329.154v-.033c-.022-.214-.302-.423-.796-.631m-17.421 1.521a.98.98 0 0 1-.889-1.038 1.14 1.14 0 0 1 .329-.807c.302-.307.796-.313 1.104-.016.011.011.022.022.033.038.198.214.307.494.302.785a.97.97 0 0 1-.884 1.038m6.276-.417c-.571 0-1.032-.467-1.038-1.038a1.02 1.02 0 0 1 .483-.873c.165-.11.357-.165.555-.165a1.04 1.04 0 0 1 1.038 1.038 1.04 1.04 0 0 1-1.038 1.038zm6.259.39c-.527-.044-.928-.505-.89-1.038a1.16 1.16 0 0 1 .137-.555c.181-.412.659-.604 1.071-.423a.82.82 0 0 1 .434.456c.082.165.121.346.121.527a.97.97 0 0 1-.879 1.038" fill="#c07d00"/><path d="M64.004 6.798a2.18 2.18 0 0 0-.285-.093 3.65 3.65 0 0 0-1.883-.071 3.02 3.02 0 0 0-1.203.615l-.252-.307a3.37 3.37 0 0 1 1.131-.626l.324-.088a3.77 3.77 0 0 1 .785-.082c.642.005 1.279.148 1.867.412.346-.159.697-.302 1.06-.423a7.55 7.55 0 0 0-2.998-.862h-.099c-1.911.049-3.624 1.208-4.376 2.97a6.64 6.64 0 0 1 2.35-.494 5.72 5.72 0 0 0 1.883-.093 2.27 2.27 0 0 0 .522-.214l.143-.088L64 6.794m4.27 11.314c1.197.576 2.57.692 3.849.324a2.94 2.94 0 0 0 1.576-1.993c.071-.236.11-.483.121-.73.077-2.235-2.718-3.305-3.174-3.459.209.434.313.911.307 1.395a2.94 2.94 0 0 1-.791 1.9c-1.493 1.719-5.035.73-5.595.566-.439-.099-.862-.253-1.263-.45l.181-.362a5.27 5.27 0 0 0 1.131.412.53.53 0 0 0 .082.022c1.296.302 2.663-.082 3.607-1.021-1.499-1.257-3.091-1.06-6.001-.159a6.75 6.75 0 0 1-4.096.296c-.027 0-.06-.011-.088-.016v-.011c-.088-.033-.176-.071-.258-.121l.121-.17.11-.17a1.31 1.31 0 0 0 .241.104c2.141.362 3.366-1.598 3.712-2.268-1.834-.423-3.745.209-4.963 1.642l-.319.308a6.25 6.25 0 0 1-1.9.906l-.258.961a1.5 1.5 0 0 1 .209.566v.11a1.37 1.37 0 0 1-.049.329h.016a10.83 10.83 0 0 1 1.148 1.038 4.43 4.43 0 0 0 3.876 1.12c-.505-1.493-1.916-2.498-3.492-2.487l.044-.401a4.95 4.95 0 0 1 2.416.84 4.48 4.48 0 0 1 1.861 1.23c.846.642 1.944.862 2.97.587-.434-.944-1.241-1.669-2.224-2.004-.017 0-.022 0-.022-.005-.258-.093-.516-.165-.785-.214l.066-.395c.28.049.555.121.824.214a6.75 6.75 0 0 1 4.376 2.498l.84 1.005c1.471 1.828 2.559 3.163 5.902 2.926a4.59 4.59 0 0 1-.818-1.521 4.4 4.4 0 0 0-2.355-2.493l.011-.022a7.7 7.7 0 0 1-1.318-.456l.176-.368h-.005zm1.927-1.054c.867.17 1.708-.39 1.878-1.257.038-.187.038-.379.011-.571l.401-.049a2.21 2.21 0 0 1-.5 1.658 2.18 2.18 0 0 1-1.669.62h-.137l.017-.401zm-2.586-2.443l-.181.362a2.81 2.81 0 0 0-2.987.308l-.269-.308c.977-.774 2.317-.911 3.432-.362m-6.248-1.817l-.099.395a2.81 2.81 0 0 0-2.844.972l-.324-.231a3.24 3.24 0 0 1 3.272-1.131m-4.634 4.228a2.85 2.85 0 0 0 2.586 1.537l.027.401-.231.005c-1.164-.06-2.202-.736-2.74-1.768l.362-.176h-.005zm6.215 1.323l.033.401-.242.011a3.27 3.27 0 0 1-2.74-1.768l.362-.181a2.79 2.79 0 0 0 2.58 1.537m8.505 3.926a3.18 3.18 0 0 1-.758.093 3.78 3.78 0 0 1-2.91-1.746 4.19 4.19 0 0 0-1.378-1.362l.181-.368a4.75 4.75 0 0 1 1.532 1.515 3.11 3.11 0 0 0 3.228 1.477l.099.39h.005zm-2.46-1.988a2.11 2.11 0 0 0 2.196 1.01l.104.39a2.04 2.04 0 0 1-.544.071 2.74 2.74 0 0 1-2.092-1.252 2.95 2.95 0 0 0-.939-.939l.187-.362a3.2 3.2 0 0 1 1.093 1.076" class="C"/><path d="M76.017 17.614a3.16 3.16 0 0 1 1.74-.769c.055 0 .104-.011.159-.011 1.296-.011 1.74 1.285 1.872 1.85.022.088.038.17.049.258l.066.434.285-.335c.011-.011.05-.06.11-.137.236-.302.445-.626.615-.966a3.45 3.45 0 0 0 .423-2.059c-.006-.044-.022-.088-.028-.126-.17-.719-.642-1.334-1.29-1.686a4.25 4.25 0 0 0-4.129-.346 4.59 4.59 0 0 0 .697-2.405 4.43 4.43 0 0 0-.242-1.411 4.49 4.49 0 0 0 .642-3.618c-.494-1.027-1.395-1.801-2.482-2.136l-.527-.214-.154-.06-.077-.033c-.165-.066-.324-.143-.472-.231a1.93 1.93 0 0 1-.823-.84c-.038-.082-.066-.17-.082-.258 0-.027-.005-.049-.011-.066 0-.055-.011-.088-.011-.099l-.406.011c0 .06 0 .121.016.176.093.972.308 1.922.642 2.839l-.055 1.191a3.81 3.81 0 0 0-2.482-1.889c-.362-.104-.741-.165-1.115-.187l-1.878-.121.362.373.9 1.005.417.538c-.368-.214-.774-.351-1.191-.401a4.33 4.33 0 0 0-1.455.088 9.26 9.26 0 0 0-1.356-.637c-.703-.28-1.45-.445-2.207-.483h-.11a5.39 5.39 0 0 0-4.936 3.679l-.06.17-.104.286.439-.203.483-.198a8.99 8.99 0 0 1 1.296-.384c.269-.06.549-.082.824-.071.45.038.906.044 1.356.011h.038c.379-.027.747-.121 1.087-.28l.027-.011c.038-.016.071-.038.11-.06a1.2 1.2 0 0 0 .132.159 1.28 1.28 0 0 0 .324.242 1.71 1.71 0 0 0 .291.121c-.022.011-.044.027-.066.038-.258.154-.494.335-.714.544l-.11.099a.65.65 0 0 1-.121.093c-.39.192-.818.286-1.252.258l-.406-.016.121.176.11.165c.395.593.95 1.054 1.598 1.334.324.137.67.22 1.021.253a2.33 2.33 0 0 0 2.224 1.23 8.71 8.71 0 0 0 1.955-.286l.483-.104.198-.033.494-.027a6.8 6.8 0 0 1 .818.049 2.62 2.62 0 0 1 .373.862c.071.302.088.609.044.917-.082.516-.319.999-.675 1.384-.901.758-2.103 1.06-3.256.813.823-.214 1.57-.653 2.152-1.279l.099-.126.017-.022-.055-.049-.082-.077c-.351-.329-.758-.598-1.202-.796-1.148-.417-2.399-.445-3.558-.077-.544.121-1.137.291-1.784.494-.511.159-1.027.286-1.554.373l-.291.039-.099.011a2.57 2.57 0 0 0 .379-.214 4.95 4.95 0 0 0 1.329-1.246c.231-.313.434-.653.598-1.005l.088-.22-.038-.011-.192-.044a5.34 5.34 0 0 0-4.398.686c-.741-.319-1.559-.439-2.361-.341l1.587-5.891.906-2.756-.181-.093-3.629 5.408.011-3.206-2.844 4.107-.708-8.571-3.854 8.159-.807-2.921-1.186 2.614L42.678.5l-1.12 3.728-1.323 4.403-.933-2.284-.911 2.965-2.916-7.769-.198.022-.489 2.943-.84 5.101-2.652-4.206-.038 3.228-.67-1.131-2.537-4.299-.187.077.714 2.883h-.011a1595.99 1595.99 0 0 0 .549 2.372l1.027 4.42-.011-.033-.055-.22c-.813-.533-1.774-.807-2.745-.774-.088 0-.17.005-.258.022a8.51 8.51 0 0 0-1.801.461l-1.109.34a5.25 5.25 0 0 1-2.476.099l-.28-.066-.253-.028v.346l.06.06c1.208 1.093 2.806 1.636 4.431 1.504.297-.022.587-.06.878-.121.78.456 1.653.719 2.553.774-.362.093-.73.165-1.098.209-.67.077-1.345.093-2.021.06-.763-.044-1.515-.187-2.24-.423a13.91 13.91 0 0 0-3.898-1.801c-.357-.093-.725-.148-1.093-.176-1.274-.121-2.542.203-3.596.928l-.379.313.494.044h.022a8.84 8.84 0 0 1 1.845.395c.505.154.966.412 1.362.763l.066.044.988.637a8.2 8.2 0 0 1-1.548.247c-1.428.17-2.877-.104-4.145-.785-.236-.154-.428-.362-.571-.609a1.32 1.32 0 0 1-.165-.648 2.09 2.09 0 0 1 1.801-2.07 3.72 3.72 0 0 1 .736-.104l.544.209.225.104.055-.242a2.49 2.49 0 0 0 .049-.291c.049-.549-.104-1.093-.434-1.532l-.121-.159.379.192.439.231.154.082c.862.483 1.768.884 2.712 1.186h.022l.406.104c.807.159 1.631.17 2.443.038.933-.137 1.845-.395 2.718-.769l-.071-.384a6.01 6.01 0 0 1-1.323-.264l-.593-.203c.071.011.154.017.225.022.604.055 1.213.033 1.812-.071l.181-.033h.022l.159-.033.038-.011.143-.039.049-.011.121-.033.06-.017.11-.033.066-.022.093-.033.077-.027.082-.027.082-.027.066-.027.088-.033.06-.027.088-.038.055-.027.088-.038.049-.022.088-.038.038-.022.082-.038.038-.022.077-.038.038-.016.071-.038.033-.016.066-.038.033-.022.06-.033.033-.022.049-.027.033-.022.038-.027.033-.022.033-.022.033-.022.022-.011.033-.022h.011l.077-.055-.132-.275-.038-.077c-.044.011-.093.022-.143.027-.434.055-.873.055-1.307 0-.697-.077-1.373-.291-1.988-.637-.384-.214-.78-.401-1.191-.549l-.659-.231c.648-.06 1.279-.203 1.883-.439v.044l.269.044h.017c.692.104 1.4.071 2.075-.11.34-.088.67-.214.977-.39l.082-.055.06-.038-.049-.115-.016-.044c-.022-.06-.626-1.532-3.322-2.246a6.82 6.82 0 0 0-1.158-.203c-1.186-.121-2.377.132-3.404.73h-.022a5.96 5.96 0 0 0-.549-.022c-.302 0-.598.016-.9.055l-.132.016-.489.077h-.038c.56-.566.95-1.29 1.115-2.07l.027-.126.016-.104.011-.088h-.027l-.165-.033a8.93 8.93 0 0 0-5.183.626 2 2 0 0 0-.286-2.405l-.115-.093-.055-.044-.104.137-.022.027a5.46 5.46 0 0 1-2.943 2.295l-1.082.472c-.049.022-.099.049-.148.077h-.016c-.412.209-.758.516-1.016.895-.11.165-.198.34-.264.527-.055.154-.099.318-.132.483a5.77 5.77 0 0 0 .45 3.036c-.642 1.373-.889 2.899-.708 4.409.038.417.099.835.187 1.246-.631-.549-1.466-.807-2.301-.697-.329.038-.653.121-.961.242a2.54 2.54 0 0 0-.944.598 2.11 2.11 0 0 0-.582 1.246c-.055.84.192 1.669.697 2.339.192.269.428.511.703.697l.269.181.027-.225.011-.099s0-.038.022-.104a2.42 2.42 0 0 1 .824-1.345 1.85 1.85 0 0 1 .253-.17l.022-.011.181-.082 1.839 2.059-.148.049c-.472.17-.9.439-1.257.785-.192.187-.357.39-.494.615a4.99 4.99 0 0 0-.22 4.134l.016.044.011.049.066.022.033.011c.093.027.187.044.28.038.522-.033 1.038-.176 1.499-.417.884-.423 1.724-.939 2.504-1.537a18.57 18.57 0 0 1 2.959-1.9 4.78 4.78 0 0 1 .851-.308c-.56.533-1.444 1.488-1.444 2.295V23h.187a10.78 10.78 0 0 0 6.188-1.988c-.099.659-.417 1.263-.895 1.724-.692.642-1.537 1.098-2.454 1.323l-.977.264-.038.017-.637.165c-2.597.659-3.898.988-4.629 3.8-.17.631-.154 1.296.038 1.922.016.049.027.104.049.154l-.121.11c-.895.802-1.471 1.9-1.631 3.091-.038.566.016 1.131.159 1.675.137.571.434 1.087.851 1.499.027.027.06.05.088.077.154.132.329.242.516.324-.417 1.477-.121 3.058.796 4.288a2.53 2.53 0 0 0 2.097.84c-.236 1.878.472 3.75 1.889 5.002l.544.5-.137-.428-.082-.269c-.313-1.148-.269-2.361.126-3.486.099-.247.22-.483.362-.708l-.005.264c-.082 1.296.28 2.586 1.038 3.646a2.01 2.01 0 0 0 1.323.659 2.76 2.76 0 0 0 .994-.115c2.992-.867 2.075-5.611 1.471-8.757 0-.017 0-.028-.011-.044v-.028l-.104-.554-.049-.231-.077-.45c-.038-.258-.06-.522-.06-.785a13.05 13.05 0 0 1 1.444-5.079l.132 1.636.038.384.044.472.038.434h-.011c.335 3.058.258 6.144-.231 9.18-.258 1.438-.703 2.833-1.329 4.156l-1.021 2.042-.104.198-.406.78c-2.63 5.2-1.18 7.72-.439 8.571.225.258.494.478.785.659.22.137.456.242.703.324-.088 1.175.148 2.355.681 3.404a2.79 2.79 0 0 0 .719.802 2.67 2.67 0 0 0 1.592.494c.697-.016 1.389-.159 2.032-.428a14.88 14.88 0 0 0 1.263 4.046l.082.198a3.65 3.65 0 0 1 .225 1.054c.071.456-.049.917-.324 1.285-.082.082-.176.143-.28.187-.258.099-.544.126-.818.077-.253-.038-.5-.099-.741-.181l-.291-.104-.231-.093-.027.192-.011.049c0 .022-.027.148-.044.346v.028c-.049.571-.017 1.153.099 1.713a2.83 2.83 0 0 0 .89 1.587l.154.121a3.61 3.61 0 0 0 3.124.181l.302-.093c.049 1.027.434 2.01 1.104 2.789a12.72 12.72 0 0 1 2.355 4.063l.027.082.176.516.132-.324.071-.181v-.011c.011-.033.066-.17.126-.395l.104-.384c.609.78 1.334 1.46 2.158 2.02a6.63 6.63 0 0 0 3.706 1.169 5.53 5.53 0 0 0 2.065-.362l-.039-.132-.071-.252c-.467 0-.906-.203-1.208-.549-.351-.34-.664-.719-.933-1.131-.165-.242-.297-.467-.379-.632l-1.153-1.801c1.757.291 3.3 2.388 3.58 2.795l.044.066.264.39.417-1.773c.291-1.598-.077-3.239-1.027-4.557a4.11 4.11 0 0 0-2.553-1.416l-.648-.308-4.53-2.163c4.557.445 6.391-1.005 6.484-1.082l.143-.121.06-.049-.22-.154c-1.565-1.043-3.388-1.647-5.271-1.735-1.329-.121-2.537-.829-3.3-1.922a4.53 4.53 0 0 0 1.966.813h.044l.242.028c.67.049 1.34-.028 1.977-.231l.346-.104-.269-.242c-.653-.593-1.115-1.367-1.345-2.218l-.055-.253c-.104-.483-.241-.977-.384-1.411l.159.209.22.291.165.22.384.516.143.187.456.582.983 1.192.088.099.395.456 1.279 1.395.472.494.203.203 1.587 1.521.055.049.258.231.324.28.423.368.231.192.719.598.099.077.494.39 2.213 1.642.055.038h.126l.033-.027.017-.011 2.421-1.79a1.44 1.44 0 0 0 .137-.121l.242-.203 1.834-1.565.626-.593 1.411-1.362.736-.785 1.137-1.241.384-.461.428-.522.406-.5.483-.598.099-.137.582-.785.209-.291.659-.9.972-1.483.099-.154.318-.5.417-.692.648-1.12.082-.137.071-.121.011.017c.39-.423.851-.78 1.367-1.043h.005l.028-.011.11-.044-.077.434a6.66 6.66 0 0 1-.467 1.45c0 .005-.006.016-.011.027l-.011.022a3.6 3.6 0 0 1-.862 1.18l-.692.549a11.07 11.07 0 0 0-2.372 2.295 7.78 7.78 0 0 0-1.367 3.673l-.022.192v.027h.22a2.63 2.63 0 0 0 .719-.121l.038-.011.121-.038.049-.016.121-.044c.417-.17.807-.406 1.147-.708-.049.258-.121.511-.214.752a4.63 4.63 0 0 1-1.186 1.773l-.082.066c-.675.423-1.438.686-2.229.758-1.537.291-3.421.648-4.349 2.674-.066.143-.121.291-.181.45l-.016.044-.038.115.148.088a3.38 3.38 0 0 0 1.515.357c-.489.203-.988.368-1.499.494-.137.033-.269.071-.401.121-.824.319-1.521.901-1.971 1.664a4.48 4.48 0 0 0-.264.511 7.32 7.32 0 0 0-.027 4.876l.143.522.148-.313.082-.17a5.88 5.88 0 0 1 3.519-2.822c-.511.708-.966 1.45-1.367 2.218-.291.609-.736 1.136-1.29 1.526a1.46 1.46 0 0 1-1.12.28l-.082.242-.05.143a5.83 5.83 0 0 0 2.185.39c2.394-.06 4.601-1.323 5.869-3.355a4.19 4.19 0 0 0 .445.582l.132.148.368.412-.082-.39-.071-.346c-.006-.005-.137-.703.961-1.889l.176-.187c.642-.73 1.087-1.609 1.29-2.553l.082-.346c.093.264.225.511.39.741l.011.011c.06.082.126.165.198.242.653.637 1.543.972 2.449.911.143 0 .285-.011.423-.033.56-.082 1.076-.346 1.466-.758.878-1.136 1.373-2.526 1.4-3.964l.033-.912-.011-.423-.324.269a2.52 2.52 0 0 1-1.427.571h-.055c-.033 0-.071-.011-.104-.017a.98.98 0 0 1-.593-.428 2.79 2.79 0 0 1-.362-1.45c0-1.043.121-2.081.351-3.097l.038-.165c.566-2.064.796-4.206.686-6.347.22.099.401.264.522.472a4.6 4.6 0 0 0-.297 2.092 3.94 3.94 0 0 0 .807 2.064c.428.609 1.125.972 1.867.966.044 0 .088-.011.132-.016a1.59 1.59 0 0 0 .944-.549l.077-.082c.181-.231.324-.489.423-.769.829-2.24.093-5.156-.653-7.341.033.028.06.06.093.093a2.09 2.09 0 0 0 .258.192 2.18 2.18 0 0 0 1.724.231 1.53 1.53 0 0 0 .225-.066 3.11 3.11 0 0 0 1.988-2.432 6.08 6.08 0 0 0 .016-1.785 16.77 16.77 0 0 0-2.35-6.012l-.06-.082-.121-.165-.016-.027a.89.89 0 0 0-.033-.071l-.022-.05h-.017c-.373-.566-.697-1.164-.983-1.784l-.038-.088c-.269-.593-.494-1.208-.681-1.834a11.96 11.96 0 0 1-.527-2.916l.346-1.911.659-4.898.027-.247.137-1.57c0-.049.011-.093.011-.143 0-.027 0-.055.011-.082s.005-.066.011-.099c.34.384.615.829.796 1.312a10.87 10.87 0 0 1 .181 4.865l-.115 1.192a21.15 21.15 0 0 0-.093 2.361c.011.489.049.972.115 1.455a5.01 5.01 0 0 0 3.953 4.414l.34.049.373.017c.132 0 .269-.005.401-.022.758-.044 1.433-.483 1.784-1.153l.06-.154a3.82 3.82 0 0 0 .192-1.669 6.87 6.87 0 0 0-1.834-3.668l-.423-.428.077.593c.022.176.038.351.038.527.038.637-.071 1.268-.319 1.856a10.6 10.6 0 0 1-.791-3.657c-.033-.637-.022-1.279.028-1.916.049-.587.126-1.175.242-1.751a4.48 4.48 0 0 0 .483.631 6.17 6.17 0 0 0 3.305 1.883l.11.028.373.082-.143-.351c-.225-.593-.39-1.202-.483-1.828.038.06.082.11.121.165l.033.044.022.028c.576.78 1.51 1.208 2.476 1.142h.049c.049-.005.099-.016.148-.027.999-.242 1.719-1.104 1.773-2.13a4.56 4.56 0 0 0-.472-2.69c-.291-.577-.692-1.087-1.169-1.521a2.33 2.33 0 0 0 .45-.774 2.17 2.17 0 0 0 .071-.225c.664-2.542-1.922-4.837-7.901-7.022a11.99 11.99 0 0 1-2.246-1.06c-.884-.434-1.592-1.164-1.999-2.064v-.027c-.005 0-.027-.154-.027-.154h-10.07c-.038-.176-.099-.346-.187-.5h.011l.044-.659c.225-.082.439-.192.637-.329.187-.126.357-.264.511-.428a4.9 4.9 0 0 0 4.316 1.038l.176-.055-.011-.06-.016-.099c-.099-.45-.297-.878-.571-1.252a4.32 4.32 0 0 1 .269.203c.137.11.258.236.368.373.071.082.148.159.231.225a4.1 4.1 0 0 0 3.393.423l.176-.066-.038-.121-.016-.06a1.12 1.12 0 0 0-.06-.165 4.02 4.02 0 0 0-1.12-1.515c.302.126.599.28.879.45.664.412 1.263.922 1.773 1.515.038.044.077.093.121.137.198.231.379.456.56.675l.148.181c1.12 1.384 2.064 2.553 3.953 2.948l.066.011.187.033a9.27 9.27 0 0 0 2.465.033l.456-.049-.055-.044-.291-.258a2.66 2.66 0 0 1-.351-.395c-.198-.269-.368-.555-.5-.862-.055-.121-.104-.253-.148-.395a3.41 3.41 0 0 0-.329-.719 5.39 5.39 0 0 0-1.252-1.433l-.082-.066h.011a2.82 2.82 0 0 0 .307.011l-.011.06s.104.016.269.055c.439.11.862.269 1.263.483.703.362 1.323.878 1.801 1.51.253.33.533.642.84.922a5.04 5.04 0 0 0 3.536 1.4 6.7 6.7 0 0 0 1.049-.088c.258-.038.527-.093.802-.165l.384-.104-.318-.253c-.829-.664-1.526-1.471-2.059-2.388a4.83 4.83 0 0 0-3.075-2.438 3.4 3.4 0 0 0 .379-.242c.121-.088.242-.159.351-.242M70.499 44.15a3.83 3.83 0 0 0 .609-2.388c1.098 1.208 1.532 2.883 1.164 4.475-.401.818-1.312 1.252-2.202 1.043-.148-.016-.307-.055-.472-.088a1.89 1.89 0 0 0 1.016-.686c.319-.483.428-1.076.307-1.642l-.39.099c.088.45 0 .922-.242 1.312a1.91 1.91 0 0 1-1.45.67 4.68 4.68 0 0 1-2.701-3.772l-.066-.566a3.46 3.46 0 0 0 3.201 2.147c.472-.017.917-.236 1.219-.599m7.242-8.285c-.033.9-.692 1.653-1.581 1.801a2.81 2.81 0 0 1-2.778-2.032c-.253-1.071-.857-2.021-1.713-2.707.791-.137 1.603.082 2.218.599.39.373.889.609 1.422.686h.06c.253-.049.472-.198.599-.417a2.52 2.52 0 0 0 .066-1.702v-.011a1.28 1.28 0 0 0 .165-.121 4.55 4.55 0 0 1 1.537 3.887m-1.109-5.244a2.05 2.05 0 0 1-2.224 1.504c.527-.324.846-.9.84-1.521l-.406-.038a1.3 1.3 0 0 1-1.208 1.384h-.055a1.52 1.52 0 0 1-.972-.78c.62-.099 2.328-.505 2.559-2.108a5.53 5.53 0 0 0-.544-2.235c1.691 1.224 2.356 2.482 2.01 3.789m-4.92-5.43v.016c.933.769 1.521 1.894 1.62 3.108.049.593-.236 1.159-.736 1.477-1.521.972-3.245-.346-3.937-.972a1.99 1.99 0 0 0 1.735-1.016c.511-1.098-.401-2.723-.939-3.547a31.81 31.81 0 0 1 2.262.939m-6.792 6.051l.033-.434a74.95 74.95 0 0 0 0-9.29 8.32 8.32 0 0 0 3.816 2.476c.148.192 1.817 2.405 1.252 3.624-.231.505-.856.785-1.839.824l-.428.016.286.319c.104.115 2.531 2.767 4.766 1.345.62-.395.972-1.098.911-1.828a4.96 4.96 0 0 0-.988-2.608c.368.192.714.384 1.038.576h-.005a4.81 4.81 0 0 1 .988 2.767c-.231 1.598-2.383 1.752-2.405 1.757l-.203.011.011.198c.044.851 1.049 1.4 2.02 1.504.505.055 1.016-.017 1.488-.214.132.428.121.895-.038 1.318-.066.115-.181.192-.307.214a2.14 2.14 0 0 1-1.153-.566c-.868-.752-2.081-.961-3.152-.544l-.587.225.609.159c1.12.291 2.042 2.361 2.042 3.283.033.664.17 1.318.401 1.944-1.515-.34-2.8-1.34-3.508-2.723l-.242-.609-.148.642c-1.098 4.826.242 7.786.533 8.34-.231.231-.538.362-.862.373h-.143c-2.262 0-3.069-2.866-3.075-2.893h-.011c.016-1.071.093-2.141.22-3.201.28-2.685.505-5.013-1.34-6.781l.016-.242m15.906-15.725a1.66 1.66 0 0 1 .121.428c.044.9-.242 1.79-.796 2.504-.192-1.098-1.104-1.927-2.213-2.015-.071 0-.137 0-.209.011l-.181.016c.467-.346.972-.637 1.504-.878a1.07 1.07 0 0 1 .879 1.23l.192.038.198.049a1.49 1.49 0 0 0-.708-1.521c.401-.159.851-.11 1.208.132M72.53 3.553a3.09 3.09 0 0 0 1.076.67l.242.093c.988.379 2.339.911 2.778 2.108.258 1.016.093 2.097-.461 2.987-.571-1.202-1.417-2.257-2.471-3.075-.653-.796-1.054-1.768-1.153-2.789m-9.559 3.81l-.143.088a2.27 2.27 0 0 1-.522.214 5.87 5.87 0 0 1-1.883.093c-.807.016-1.603.187-2.35.494a4.92 4.92 0 0 1 4.376-2.97h.099c1.049.077 2.064.373 2.992.862-.362.121-.714.258-1.06.423-.587-.264-1.224-.406-1.867-.412-.264 0-.527.027-.785.082a2.6 2.6 0 0 0-.324.088 3.37 3.37 0 0 0-1.131.626l.253.307c.351-.296.758-.505 1.202-.615.62-.143 1.274-.121 1.883.071l.285.093a17.99 17.99 0 0 0-1.032.56m6.413 4.299a8.39 8.39 0 0 0-.609.027c-.253.033-.5.082-.741.143-1.131.269-2.795.659-3.607-.538a4.84 4.84 0 0 0 2.339-.714c.719-.368 1.548-.472 2.339-.302l.093-.395a3.85 3.85 0 0 0-2.646.351c-1.45 1.049-3.454.845-4.661-.472.461-.011.906-.176 1.268-.461.412-.45.955-.763 1.554-.895h.044c.258-.033.522 0 .763.104l.159-.373a1.92 1.92 0 0 0-.961-.132c-.901.071-1.241-.242-1.356-.412 2.723-1.62 4.705-1.741 5.891-.346l.148-.126h.192c0-.555-.944-1.664-1.504-2.273l.857.055c.132 0 3.212.071 3.569 2.948l.401-.049c0-.027 0-.055-.011-.082l.082-1.592a2.36 2.36 0 0 0 .445.522c2.268 1.9 2.745 3.585 2.751 4.667-.088 1.493-.807 2.877-1.982 3.8-.39-2.284-3.448-3.261-3.465-3.267-.434-.137-.889-.203-1.345-.187m-11.788 1.142c-.28.231-.555.478-.813.736l-.253.242-.049.044c-.461.324-.966.577-1.504.741l.384-1.422.165-.598-.017.066c.703-.11 1.422-.044 2.092.198m-3.163 2.976a1.2 1.2 0 0 0-.159-.132 1.92 1.92 0 0 0-.269-.159c-.082-.044-.17-.082-.269-.121a8.7 8.7 0 0 0-1.164-.373c-.291-.071-.615-.143-.961-.209l-.104-.022 2.246-3.338.269-.401.269-.401 2.498-3.717-.044.115.104-.214-2.41 8.972h-.005zM28.221 3.904l3.02 5.123.264.445.264.445 1.686 2.844.137.242.39-2.344.066-.401.066-.395 1.312-7.895 2.866 7.67.154.412.154.412.725 1.944.791-2.646.121-.412.121-.412 2.311-7.681 2.125 8.077.11.412.11.412.626 2.377 1.016-2.152.176-.373.176-.373 3.629-7.692.664 8.066.033.423.033.423.203 2.443 2.207-3.283.269-.401.269-.401L57.7 4.157l-.664 2.01-2.729 4.063-.269.401-.269.401-2.465 3.668c-.137-.028-.285-.049-.439-.066l-.154-2.833-.022-.439-.022-.439-.362-6.682-.198-.038-2.833 6.418-.17.39-.17.384-1.208 2.745-.335-.011-.785-3.108-.104-.423-.104-.417-1.784-7.083-1.9 6.682-.121.417-.121.417-.999 3.525c-.044.005-.093.011-.137.011l-1.021-2.806-.154-.417-.154-.417-2.295-6.309-.198.022-.966 6.309-.06.406-.06.406-.522 3.388c-.033 0-.06.011-.088.011l-2.064-3.519-.264-.45-.264-.45-2.454-4.178-.554-2.268.005.027zM50.65 14.605c-.533-.082-1.115-.154-1.73-.22l-.307-.027-.307-.027h-.017l-.285-.027-.285-.022a54.97 54.97 0 0 0-1.79-.11l1.082-2.449.17-.384.17-.39L50.118 4.7l.346 6.517.022.439.022.439.132 2.52.011-.011zm-5.469-.472l-1.955-.038h-1.34l-2.202.06.912-3.212.121-.417.121-.417 1.762-6.193 1.664 6.589.104.417.104.417.708 2.795zm-6.062.05l-1.713.121-.285.022-.483.049-.302.028c-.813.088-1.565.192-2.235.307l.483-3.097.06-.406.06-.401.95-6.149 2.257 6.193.154.417.154.417.906 2.493-.006.005zM28.897 6.781l2.323 3.964.264.45.264.45 1.85 3.163a10.94 10.94 0 0 0-1.9.522c-.099.038-.187.077-.269.121a2.56 2.56 0 0 0-.269.148 1.34 1.34 0 0 0-.176.132l-2.086-8.944v-.005zm-6.841 6.539a5.53 5.53 0 0 0 1.279 0c.944.071 1.85.379 2.635.906a5.69 5.69 0 0 1-3.92-.906m4.299.67c-.593-.39-1.241-.692-1.922-.889a11.58 11.58 0 0 0 .961-.307c.626-.236 1.279-.39 1.944-.456 1.038 0 2.043.335 2.871.961l.341 1.449a4.98 4.98 0 0 1-4.195-.758zM24.46 4.777c1.186.214 2.246.868 2.965 1.839-.681.307-1.422.445-2.163.401.082-.055.165-.104.247-.165l.5-.401-.511.022h-.22c-.752-.104-1.477-.324-2.152-.67-.379-.165-.78-.335-1.208-.489h-.011a12.15 12.15 0 0 0-1.153-.335c1.18-.478 2.482-.549 3.712-.209M11.223 2.905a3.67 3.67 0 0 0-.269.099 2.93 2.93 0 0 1 .269-.099zM8.005 5.282c.214-.582.664-1.043 1.235-1.279l1.076-.467c1.202-.395 2.24-1.18 2.948-2.229.198.291.472.988-.165 2.185h.011a13.42 13.42 0 0 0-4.909 4.711C7.819 7.275 7.747 6.254 8 5.282m.351 3.497l.055-.093v-.022c.516-.895 4.079-6.611 10.179-5.694-.225 1.016-.895 1.883-1.823 2.355-1.872.626-3.646 1.504-5.276 2.614l.231.329c1.576-1.06 3.278-1.911 5.073-2.526.033 0 .066-.022.093-.033a9.63 9.63 0 0 1 1.713-.373c1.076-.132 2.169-.011 3.19.362a13.36 13.36 0 0 0 2.828 1.082 6.34 6.34 0 0 1-2.581.555c-.291 0-.571 0-.857-.005h-.428c-1.241-.088-2.482-.016-3.706.209l.121.384c1.18-.209 2.383-.275 3.585-.192h.39a12.68 12.68 0 0 1 3.119 1.12c.873.472 1.845.725 2.833.73-1.109.56-2.355.807-3.596.703-1.186-.143-2.35-.412-3.476-.802-.922-.329-1.878-.538-2.85-.626l-.022.401c.939.088 1.861.296 2.751.615.587.187 1.23.379 1.922.544l-.022.044a10.5 10.5 0 0 0 2.537.961c-1.34.489-2.778.637-4.189.428a12.98 12.98 0 0 1-3.184-1.34c-1.054-.659-2.229-1.109-3.453-1.323l-.033.401a4.77 4.77 0 0 1 1.241.302V9.9c.016.011 1.515.851 1.395 2.191a5.1 5.1 0 0 0-4.014-.137 3.01 3.01 0 0 0-1.362 2.515c.049 1.433.922 2.712 2.24 3.278a4.16 4.16 0 0 1-4.996-2.948 8.17 8.17 0 0 1 .401-6.012m-3.097 7.862c-.598.346-1.038.917-1.224 1.587a3.21 3.21 0 0 1-.994-2.476c.082-.714.582-1.312 1.274-1.521 1.169-.566 2.575-.187 3.305.889h.011c.165.555.434 1.076.796 1.537-1.005-.456-2.158-.461-3.168-.017zm4.288 5.787c-2.405 1.784-3.503 1.894-3.81 1.878-.456-1.197-.384-2.537.203-3.673a3.15 3.15 0 0 1 1.861-1.345 8.49 8.49 0 0 0 4.546 1.323 20.86 20.86 0 0 0-2.795 1.823m3.025.214c.379-.862.972-1.62 1.724-2.185h-.005a7.07 7.07 0 0 1 .483 0l.017-.406c-.516-.038-1.032.017-1.526.159-1.817.143-3.629-.286-5.189-1.23l-1.993-2.224c1.082-.121 2.174.093 3.124.615l.011-.011c.857.555 1.861.84 2.883.813a6.82 6.82 0 0 0 1.532-.165l.576-.148-.549-.231c-2.63-1.104-2.57-3.08-2.564-3.157 0-.878.439-1.697 1.164-2.185a3.59 3.59 0 0 1 2.438-.209 2.46 2.46 0 0 0-2.043 2.432c.011.648.357 1.246.911 1.587 1.532 1.065 4.716 1.104 6.545.428l-.022-.395c-.494-.214-.966-.489-1.395-.818a5.74 5.74 0 0 0-2.883-1.181c.878-.434 1.861-.626 2.844-.555 1.724.28 3.366.933 4.81 1.922l.049.022c.769.247 1.565.395 2.372.445 1.515.148 3.042-.093 4.431-.708.121-.049.22-.093.308-.121l.176.741c-.011.011-.017.022-.022.038a5.57 5.57 0 0 0-1.06 1.18 8.77 8.77 0 0 1-2.767 2.306c-.06-.379-.077-.769-.044-1.153a3.93 3.93 0 0 0 .587-.884l-.362-.17a3.19 3.19 0 0 1-2.707 1.834 6.87 6.87 0 0 0-2.235.379c.362-.851.977-1.57 1.762-2.064l-.011-.017c.011 0 .022 0 .033-.006a8.18 8.18 0 0 0 .56-.104l-.077-.395c-.187.038-.379.066-.549.099a5.59 5.59 0 0 0-2.125.648 8.16 8.16 0 0 0-1.257 1.126c-.598.631-1.241 1.219-1.916 1.768-1.746 1.329-3.86 2.087-6.051 2.163m41.761-2.762l.028.038c.093.148.159.313.209.483h-.489c-1.504-.802-6.023-1.384-11.376-1.384a61.68 61.68 0 0 0-6.369.307 15.13 15.13 0 0 0-5.018 1.082h-.527a.79.79 0 0 1 .187-.483c.038-.044.082-.088.132-.121.807-.549 5.501-1.592 11.58-1.592a48.01 48.01 0 0 1 9.427.785l.132.027.132.038.077.016c.132.033.264.066.401.088h.022a5.8 5.8 0 0 1 .675.242.91.91 0 0 0 .06.022c.269.088.511.231.719.423v.027zm.165-1.603c-.017.132-.055.258-.11.373-.077.154-.187.242-.286.242-.231 0-.423-.384-.423-.84a1.96 1.96 0 0 1 .022-.253c.055-.335.214-.587.401-.587s.275.154.351.406c0 .016.011.038.017.055.016.066.027.126.038.192a2 2 0 0 1 .011.181 1.55 1.55 0 0 1-.017.225m-.077-1.114c-.082-.093-.203-.148-.329-.154-.313 0-.566.362-.62.857-.006.06-.011.126-.011.187 0 .582.275 1.038.626 1.038a.41.41 0 0 0 .264-.099v.093l-.033.511c-.231-.165-.478-.291-.741-.384-.478-.176-.961-.318-1.46-.417a47.43 47.43 0 0 0-9.449-.785c-5.661 0-10.674.955-11.679 1.614l-.027-.549a.6.6 0 0 0 .165.038c.346 0 .615-.456.615-1.038s-.269-1.038-.615-1.038a.42.42 0 0 0-.214.06c.06-.143.165-.258.296-.335a5.67 5.67 0 0 1 1.746-.642 9.89 9.89 0 0 1 .5-.11c.637-.132 1.378-.253 2.196-.351a59.82 59.82 0 0 1 7.011-.384c.785 0 1.537.011 2.262.038 1.032.033 2.004.088 2.893.159l.22.016.11.011c1.861.099 3.701.434 5.474 1.01.5.203.78.417.802.631l-.011.033.011-.011zm-23.291.077c.192 0 .412.346.412.835s-.22.84-.412.84c-.066 0-.132-.033-.181-.082-.055-.055-.093-.115-.126-.181-.082-.181-.121-.379-.121-.576a1.37 1.37 0 0 1 .121-.571c.017-.033.033-.066.055-.093.049-.093.143-.159.253-.17zm-.604 1.12c-.329-.115-.653-.247-.972-.401a8.36 8.36 0 0 0 .483-.588 9.1 9.1 0 0 1 .527-.659c0 .082.016.159.033.242h-.022l.027.538c-.071.187-.104.384-.104.582 0 .093.011.192.022.285M9.296 28.452a3.7 3.7 0 0 1 3.075-3.179c-1.032.703-1.636 1.878-1.614 3.124a1.79 1.79 0 0 0 .659 1.587c.84.45 1.817.56 2.734.296-.857 1.471-2.037 2.081-3.223 1.642a2.9 2.9 0 0 1-1.636-3.47m-.631 2.91a5.34 5.34 0 0 1 .511-.544c.34.681.917 1.208 1.62 1.488.291.104.598.154.906.154v.011a1.45 1.45 0 0 1-.527.977c-.39.253-.878.319-1.323.181a1.52 1.52 0 0 1-1.065-.697 2.26 2.26 0 0 1-.121-1.565m-.137 5.128c-.686-.785-1.005-1.823-.884-2.855a3.65 3.65 0 0 1 .527-1.587 2.11 2.11 0 0 0 .258 1.065c.291.478.78.807 1.334.895.56.165 1.164.077 1.647-.247a1.71 1.71 0 0 0 .549-.741 3.46 3.46 0 0 1-.022 2.679 2.14 2.14 0 0 1-1.713 1.252c-.609.121-1.241-.044-1.702-.456m1.433 4.705c-.824-1.115-1.087-2.548-.708-3.882.066.011.121.027.187.033.077.5.335.95.725 1.263.61.406 1.362.522 2.065.313a2.3 2.3 0 0 0 1.686-1.082c.038-.066.066-.137.099-.22.137.648.176 1.318.121 1.977-.209.505-.599.906-1.098 1.131-.615.181-1.285.077-1.817-.28l-.192.362a3.01 3.01 0 0 0 1.455.428 2.04 2.04 0 0 0 .703-.126c.253-.099.483-.247.681-.434 0 .011-.005.022-.011.038-.296.566-.829.966-1.455 1.093a2.3 2.3 0 0 1-2.432-.609m9.372.132a16.5 16.5 0 0 1 .154 1.795c-.225 1.114-1.093 1.016-1.191.994l-.066.401c.055.005.11.011.165.011.412 0 .802-.165 1.082-.467-.104 1.422-.576 2.559-1.779 2.904-.549.198-1.164.121-1.647-.214.055 0 .093.022.143.022a1.67 1.67 0 0 0 1.093-.461l-.264-.308a1.07 1.07 0 0 1-1.504.11c-.022-.017-.038-.038-.06-.055-.428-.895-.637-1.883-.598-2.877a2.28 2.28 0 0 0 .983.763 2.46 2.46 0 0 0 2.07-.275c.829-.511 1.356-1.389 1.428-2.355m-4.431 1.169c.016-.17.055-.335.11-.494.566-1.082 1.021-2.213 1.373-3.382.06.401.154.791.285 1.175.961 2.789.231 3.832.22 3.849-.302.066-.615.044-.906-.06a2.12 2.12 0 0 1-1.082-1.082m5.584-22.121l-.022.176v.088c0 .038 0 .082-.011.143-.006.088-.017.198-.027.329 0 .049-.006.104-.011.159-.011.115-.017.241-.028.379a1.66 1.66 0 0 1-.011.159l-.033.544a31.77 31.77 0 0 0-.038.862l-.038 1.186-.016 1.082v.62a77.79 77.79 0 0 0 .137 4.541c-.011.017-.027.049-.06.104s-.044.077-.071.126l-.044.082c-.027.06-.066.121-.099.192a4.54 4.54 0 0 1-.115.231c-.044.082-.082.176-.126.269-.066.143-.137.297-.203.461l-.071.17-.082.198c-.082.203-.165.417-.242.642-.423 1.104-.653 2.268-.686 3.448a4.89 4.89 0 0 0 .066.802c.027.143.049.302.077.467h-.011c0 .005.027.121.066.302.017.099.038.198.06.302.115.615.17 1.241.176 1.867 0 .148 0 .302-.017.45s-.022.302-.044.45c-.022.159-.055.324-.093.483-.044.176-.099.351-.17.516-.077.192-.181.373-.302.544-.017.022-.033.049-.055.071-.082.104-.176.198-.274.285-.104.088-.214.165-.335.225-.104.055-.209.104-.313.148a3.53 3.53 0 0 0 .165-1.12c-.006-.637-.099-1.268-.269-1.878-.033-.126-.071-.258-.115-.395l-.137-.423a5.23 5.23 0 0 1-.126-.417c-.038-.143-.071-.286-.099-.434a7.29 7.29 0 0 1-.11-.906c-.011-.203-.022-.412-.022-.62a18.94 18.94 0 0 1 1.153-5.836l.033-.093-.379-.126-.027.088a21.34 21.34 0 0 0-1.104 4.662l-.033.362c-.011.121-.017.253-.022.379a9.5 9.5 0 0 0-.011.406v.428l-.022-.011c-.456 1.768-1.153 3.465-2.081 5.04-.06.093-.121.187-.17.28s-.104.187-.148.28c-.06.121-.121.253-.165.379l-.126.379a5.65 5.65 0 0 0-.22 1.603 6.42 6.42 0 0 0 .082 1.027c-.225-.264-.428-.549-.598-.851a6.25 6.25 0 0 1-.22-.423c-.066-.143-.121-.28-.17-.417-.126-.362-.22-.73-.269-1.115-.033-.247-.049-.489-.049-.736 0-.242.016-.483.049-.719.099-.016.198-.038.302-.066a2.46 2.46 0 0 0 1.713-1.296 3.33 3.33 0 0 0 .33-1.208 5.89 5.89 0 0 0 .033-.62 7.59 7.59 0 0 0-.165-1.318c-.06-.329-.132-.626-.203-.878-.033-.126-.066-.242-.099-.346-.016-.049-.027-.099-.044-.143-.027-.088-.055-.159-.071-.214s-.033-.088-.038-.104l-.373.143a2.33 2.33 0 0 1 .121.703c0 .126-.011.247-.038.368-.017.066-.033.126-.055.187a1.13 1.13 0 0 1-.082.187c-.313.489-.829.807-1.406.867-.582.181-1.213.093-1.724-.231l-.099-.082c-.033-.027-.06-.06-.088-.088-.049-.055-.099-.121-.143-.181a1.71 1.71 0 0 1-.242-.566c.148 0 .291-.011.434-.033.884-.104 1.653-.664 2.021-1.477.209-.461.318-.966.318-1.471 0-.082 0-.17-.005-.253-.011-.17-.033-.34-.06-.505a4.52 4.52 0 0 0-.428-1.235c1.197-.319 2.163-1.192 2.603-2.35l.203-.417-.45.137c-.016.005-1.9.576-2.828-.121-.033-.027-.066-.049-.093-.077s-.06-.055-.082-.088a.98.98 0 0 1-.137-.198c-.055-.099-.093-.203-.121-.313a2.35 2.35 0 0 1-.06-.587c.06-2.421 1.905-3.146 3.003-3.585l.137-.049 1.005-.269c3.426-.977 3.657-3.218 3.662-3.756.664-.538 1.29-1.115 1.889-1.724.357-.401.758-.758 1.192-1.071.329-.198.692-.34 1.076-.417a5.24 5.24 0 0 0-.862.977c-.055.077-.104.165-.154.247-.093.159-.17.324-.242.494-.033.088-.066.176-.093.269a5.13 5.13 0 0 0-.071.28l-.104.549.439-.362a4.46 4.46 0 0 1 2.432-.522 3.38 3.38 0 0 0 2.054-.774 1.91 1.91 0 0 0 .242 1.164l.104.099.121-.06c.84-.428 1.62-.977 2.3-1.631a10.83 10.83 0 0 0 1.411.571l.055 1.027h.022a.57.57 0 0 0-.071.126.64.64 0 0 0-.049.132c-.022.088-.039.181-.049.275H20.491l-.005-.011zM17.416 59.04c-.686-.785-2.021-3.146.5-8.12l.505-.972a20.71 20.71 0 0 0 2.388-6.314 32.02 32.02 0 0 0 .439-4.744c.401 3.953-.181 7.95-1.691 11.629-.686 1.532-1.724 4.327-1.049 5.787.176.412.532.714.961.835.335.11.703.071 1.01-.099.456-.307.796-.752.983-1.268a2.67 2.67 0 0 1 .527 2.29 2.57 2.57 0 0 1-1.4 1.823 2.91 2.91 0 0 1-3.174-.84m6.188 5.079a3.42 3.42 0 0 1-3.366.044c-1.252-.917-1.263-3.124-1.235-3.777a3.3 3.3 0 0 0 1.115.022 3.44 3.44 0 0 0 2.602 1.169c.708-.143 1.307-.604 1.631-1.246.165.917.006 1.861-.445 2.674-.214.335-.319.725-.302 1.12m12.205 11.393l.077.016a3.66 3.66 0 0 1 2.306 1.274 5.54 5.54 0 0 1 .939 4.228l-.203.868c-.62-.824-2.246-2.712-4.101-2.712h-.373l1.57 2.432a6.19 6.19 0 0 0 2.07 2.35c-1.345.264-4.244.324-6.88-3.146a16.08 16.08 0 0 0 .121-.862c.148-1.186.088-2.388-.176-3.558a2.97 2.97 0 0 0-.066-.302c0-.022-.011-.044-.017-.066-.296-1.323-.922-2.553-1.823-3.569.093.011.187.033.258.038l6.298 3.009zm-3.893-5.584a10.49 10.49 0 0 1 4.843 1.493c-.719.423-3.185 1.499-8.11.511l-.576-.121.038.049-.082-.011.346.313.774.901c.703.906 1.224 1.949 1.521 3.058.016.049.027.099.044.143.005.049.016.104.033.154a11.77 11.77 0 0 1 .159 3.646c-.066.45-.154.895-.269 1.334-.522-1.378-1.29-2.646-2.268-3.75-1.444-1.488-.933-4.7-.928-4.733l-.395-.066a9.29 9.29 0 0 0-.093 1.872c-1.488.511-2.602.472-3.294-.104a3.73 3.73 0 0 1-.835-3.053c1.082.373 1.856.319 2.328-.165a2.94 2.94 0 0 0 .181-2.773l-.082-.198c-1.192-2.745-1.537-4.497-1.021-5.216a4.18 4.18 0 0 0 .544-2.663c1.06 1.038 1.812 2.345 2.163 3.788.686 3.382 2.361 5.26 4.974 5.578m-.681-4.184a4.69 4.69 0 0 0 1.213 2.185c-1.653.461-3.415-.143-4.436-1.521l-.017.011c-.291-.692-.516-1.411-.659-2.147a8.4 8.4 0 0 0-2.646-4.332 2.42 2.42 0 0 0-.049-.275l-.137-.566-.241.527c-.434.939-.972 1.46-1.609 1.554-.785.005-1.537-.313-2.075-.879.044-.011.088-.033.137-.044a2.94 2.94 0 0 0 1.664-2.114 3.09 3.09 0 0 0-.857-2.921l-.242-.247-.093.34a2.58 2.58 0 0 1-.901 1.362c-.214.121-.467.148-.703.071-.318-.088-.582-.318-.714-.62-.439-.961-.055-2.948 1.049-5.458 1.219-2.899 1.839-6.012 1.834-9.153.917 4.557 2.322 8.999 4.2 13.254.005.011.011.028.016.039a56.26 56.26 0 0 0 1.18 2.476c.066.143.137.274.203.406a60.45 60.45 0 0 0 1.191 2.163l.28.489c.456.774.933 1.537 1.444 2.295.044.071.077.137.121.203h-.022c.357.944.648 1.911.862 2.893m13.501 15.379a8.33 8.33 0 0 1-.214-2.806c.461-1.071 1.515-1.762 2.685-1.757.362-.044.708-.077 1.038-.11 1.323.022 2.619-.373 3.701-1.126a7.43 7.43 0 0 1-3.146 3.091 6.03 6.03 0 0 0-4.058 2.707m.774 2.103a3.96 3.96 0 0 0 1.845-1.905c.467-.889 1.005-1.74 1.609-2.542a7.06 7.06 0 0 0 2.482-2.01l-.34.829c-.434 1.115-1.137 2.103-2.042 2.882l.242.335c.972-.824 1.724-1.872 2.191-3.064l.302-.747c-.121 1.021.049 2.053.5 2.976-2.482 3.547-5.353 3.536-6.77 3.245m13.781-16.021c-.038.154-.901 3.712.027 5.04.225.335.587.555.983.599.516.027 1.027-.115 1.455-.406a7.02 7.02 0 0 1-1.307 4.189c-.417.434-.999.681-1.603.67-.796.055-1.576-.231-2.147-.785a2.94 2.94 0 0 1-.697-1.971h-.006a4.52 4.52 0 0 0 .028-.351l-.406-.017a7.6 7.6 0 0 1-1.482 4.239c-.566.505-.977 1.158-1.203 1.883-1.801-2.531.017-5.979.038-6.012l-.335-.22a2.38 2.38 0 0 1-.154.17h-.005c0 .011-.011.022-.011.027-1.323 1.526-2.515 1.642-4.272 1.801-.34.028-.697.066-1.065.11-.884.066-1.724.434-2.372 1.038.088-.236.192-.461.324-.681a3.48 3.48 0 0 1 2.119-1.598 12.76 12.76 0 0 0 2.987-1.191h.028l-.148-.373c-.835.351-1.773.362-2.619.038.807-2.059 2.509-2.377 4.156-2.69l.78-.154a6.39 6.39 0 0 0 6.133-5.485c.148-1.235.483-2.438.983-3.58.104-.225.258-.417.445-.577.428 2.059-.648 6.237-.664 6.281m5.408-3.009c-.176.56-.774.873-1.334.697-.017-.005-.038-.011-.055-.022l-.077.187-.077.181a1.39 1.39 0 0 0 .538.093c.258 0 .511-.071.73-.214a1.48 1.48 0 0 1-1.071 1.027c-.642.028-1.252-.275-1.62-.807-.362-.478-.598-1.043-.686-1.642a1.29 1.29 0 0 0 .758.247c.335-.011.659-.115.939-.302l-.214-.346a1.06 1.06 0 0 1-1.493-.121c-.017-.017-.033-.038-.044-.055 0-.45.066-.906.198-1.334a2.44 2.44 0 0 0 2.021.961c.609-.126 1.087-.692 1.444-1.685.192 1.021.203 2.075.038 3.102m3.393-8.412a2.71 2.71 0 0 1-1.724 2.125c-.609.242-1.296.132-1.801-.28a2.78 2.78 0 0 1-.555-2.586 2.3 2.3 0 0 0 1.565.796c.615-.038 1.169-.379 1.477-.911.708-.994.489-2.685.055-4.189a9.61 9.61 0 0 1 .983 5.051m-4.294-1.664l-.099.439a5.67 5.67 0 0 0-.17 1.455 13.36 13.36 0 0 0-.176-.472c-.401-1.697-.577-3.437-.522-5.178.264.763.653 1.477 1.164 2.103a5.5 5.5 0 0 1 1.12 2.877 2.86 2.86 0 0 1-1.065-.862l-.264-.362h.011zm1.839-6.111c.423.889 2.268 5.029 1.082 6.682a1.46 1.46 0 0 1-1.147.741h-.028a6 6 0 0 0-1.241-3.234c-.725-.966-1.219-2.086-1.449-3.272l-.401.027c0 .198-.165 4.81.522 6.715.077.198.154.423.247.67.516 1.29.939 2.619 1.268 3.975l-.022-.011c-.308 1.263-.769 1.982-1.34 2.097-.851.181-1.784-1.005-1.845-1.082a1.47 1.47 0 0 0-1.038-.791.56.56 0 0 0-.33 0h-.066v.022a1.7 1.7 0 0 0-.697.796 12.6 12.6 0 0 0-1.032 3.701 5.92 5.92 0 0 1-4.008 4.788s.011-.005.017-.017a4.93 4.93 0 0 0 1.598-3.382v-.532l-.351.395c-.538.631-1.274 1.06-2.092 1.208.346-2.24 1.636-4.217 3.547-5.441.258-.198.5-.379.708-.566a6.01 6.01 0 0 0 1.603-3.668l.022-.252-.252.027c-.439.099-.851.296-1.203.582a61.56 61.56 0 0 0 5.677-15.89 14.65 14.65 0 0 0 2.246 5.688M64.459 31.95a5.69 5.69 0 0 0-.033.423l-.077.878-.082.884a.91.91 0 0 1-.011.121c-.692 6.995-2.46 13.842-5.238 20.299l-.247.549c-.242.533-.494 1.054-.758 1.587l-.626 1.23-.417.769c-.313.582-.637 1.153-.983 1.73-.049.077-.099.159-.148.242-.384.626-.785 1.257-1.213 1.883l-.264.39c-.456.67-.928 1.334-1.428 1.982l-.066.082c-.494.648-1.016 1.29-1.554 1.916-.066.082-.121.154-.187.225-.554.648-1.136 1.279-1.74 1.905-.06.066-.132.132-.198.198a43.17 43.17 0 0 1-1.828 1.768l-.126.126c-.648.588-1.323 1.164-2.02 1.719-.121.104-.247.192-.362.286-.714.566-1.444 1.109-2.207 1.642-.302-.214-.582-.439-.873-.659-.532-.384-1.065-.763-1.565-1.164-.412-.329-.791-.664-1.175-.999l-1.093-.939c-.412-.368-.791-.763-1.175-1.142-.302-.296-.615-.582-.906-.889-.384-.395-.747-.807-1.109-1.213-.269-.308-.549-.599-.796-.901-.351-.412-.681-.829-1.005-1.241l-.752-.961c-.302-.401-.587-.813-.878-1.213l-.73-1.065c-.253-.379-.489-.758-.725-1.137l-.752-1.23c-.198-.329-.379-.659-.56-.988-.274-.483-.538-.972-.791-1.466l-.395-.769-.84-1.79-.203-.45a66.39 66.39 0 0 1-4.716-16.274c-.006-.049-.011-.093-.011-.143h-.027c-.176-1.093-.313-2.147-.434-3.168l-.077-.73-.071-.686c-.06-.593-.104-1.175-.148-1.746l4.129 9.4 4.425-10.07 4.425 10.07 4.431-10.07 4.425 10.07 4.425-10.07 4.425 10.07 4.425-10.07 4.425 10.07 4.085-9.29v.022zm-9.79-11.162h9.812a68.61 68.61 0 0 1 .06 9.965l-4.162 9.471-4.425-10.075-4.425 10.075-4.425-10.075-4.425 10.075-4.425-10.075-4.431 10.075-4.425-10.075-4.425 10.075-4.206-9.576a69.46 69.46 0 0 1 .071-9.855h33.838l-.005-.005zm-.093-3.876c-.016-.022-.027-.044-.044-.06a1.56 1.56 0 0 0-.45-.351c-1.027-.472-2.125-.78-3.245-.912h-.022a25.4 25.4 0 0 0-1.395-.192 55.48 55.48 0 0 0-2.092-.192 62.31 62.31 0 0 0-3.437-.137l-1.098-.011h-.511a64.11 64.11 0 0 0-5.178.231l-.192.016-.329.033a33.8 33.8 0 0 0-2.69.368 16.26 16.26 0 0 0-1.345.302 9.14 9.14 0 0 0-.28.082 4.38 4.38 0 0 0-1.153.494c-.104.066-.192.148-.269.242-.016.017-.027.038-.038.055a1.27 1.27 0 0 1-.027-.252c0-.137.022-.275.066-.406l.011-.022a.51.51 0 0 1 .099-.165l.033-.033.126-.126c.011-.011.027-.022.044-.033.082-.066.176-.126.269-.176.165-.088.335-.165.511-.225a12.95 12.95 0 0 1 1.867-.483l.165-.027c.73-.132 1.565-.247 2.482-.34l.302-.028.302-.027.291-.027a50.05 50.05 0 0 1 1.955-.132l.225-.011c.785-.038 1.603-.06 2.449-.066h1.164a57.01 57.01 0 0 1 2.202.049l.406.016 2.042.121.285.022.417.038.307.027a30.86 30.86 0 0 1 1.889.242l.088.011c.181.027.351.055.522.088a15 15 0 0 1 .642.121l.159.033c.67.121 1.323.335 1.933.637a1.36 1.36 0 0 1 .269.198c.017.017.033.027.044.044.044.066.082.137.121.203.011.022.022.038.028.06s.038.077.055.121c.033.082.055.165.066.253 0 .11 0 .22-.027.329m.533 1.603c-.022.016-.049.033-.071.049a1.63 1.63 0 0 1-.121.077l-.082.044c-.06.033-.121.06-.176.088l.027-.401a1.34 1.34 0 0 0 .028-.329v-.214a2.3 2.3 0 0 1 .439.038c.06.055.115.104.17.159l.17.17c-.115.121-.242.231-.379.324m13.15-.406l-.176.362c.423.192.862.346 1.318.456l-.011.022c1.087.478 1.938 1.378 2.355 2.493a4.59 4.59 0 0 0 .818 1.521c-3.344.241-4.425-1.098-5.902-2.927-.264-.319-.533-.659-.84-1.005-1.082-1.362-2.652-2.257-4.376-2.498-.269-.093-.544-.165-.824-.214l-.066.395a5.3 5.3 0 0 1 .785.203c0 .007.007.011.022.011a3.78 3.78 0 0 1 2.224 2.004c-1.027.274-2.125.06-2.97-.588a4.48 4.48 0 0 0-1.861-1.23 4.96 4.96 0 0 0-2.416-.846l-.044.401a3.66 3.66 0 0 1 3.492 2.487c-1.4.269-2.839-.143-3.876-1.12a10.83 10.83 0 0 0-1.148-1.038l-.011-.011-.006.011a1.37 1.37 0 0 0 .049-.329v-.11c-.027-.203-.099-.395-.203-.566l.258-.961c.681-.192 1.323-.5 1.9-.906.099-.082.203-.192.324-.307a5.01 5.01 0 0 1 4.963-1.642c-.351.67-1.57 2.63-3.712 2.268a1.04 1.04 0 0 1-.242-.104l-.11.17-.121.17a1.69 1.69 0 0 0 .269.121v.011c.022.005.049.011.082.016a6.75 6.75 0 0 0 4.096-.296c2.91-.901 4.502-1.098 6.001.159a3.87 3.87 0 0 1-3.607 1.021l-.082-.022c-.395-.088-.774-.231-1.131-.412l-.181.362c.401.198.824.351 1.263.45.56.165 4.101 1.153 5.595-.566.483-.516.763-1.191.791-1.9.005-.483-.099-.961-.308-1.395.456.154 3.256 1.224 3.174 3.459-.011.247-.049.494-.121.73-.198.867-.78 1.603-1.581 1.993-1.279.368-2.646.253-3.849-.324m9.713 2.603a7.84 7.84 0 0 0 1.867 2.273 5.01 5.01 0 0 1-5.419-2.009 5.9 5.9 0 0 0-2.718-1.966c.198-.049.384-.115.571-.192a2.79 2.79 0 0 0 .686-.434 3.94 3.94 0 0 0 1.191.071v.027c1.603-.088 3.102.791 3.816 2.229m-4.656-2.685a4.14 4.14 0 0 0 .752-1.466c.093-.302.143-.615.148-.928.379-.329.736-.686 1.06-1.071a3.74 3.74 0 0 1 4.508-.137 2.96 2.96 0 0 1 .615.494c-1.587-.252-3.964 1.878-4.079 1.982-.198.121-.384.253-.566.384a2.97 2.97 0 0 1-2.438.736" class="B"/><path d="M39.424 14.717v-.014h-.007v.014h.007zm14.175 4.698l-.049-.022h-.011l.059.027" class="B"/><path d="M20.469 20.387h10.119a2.22 2.22 0 0 1 .049-.274.65.65 0 0 1 .049-.132c.022-.044.044-.088.071-.126h-.022l-.055-1.027c-.483-.159-.955-.351-1.411-.571-.686.653-1.461 1.202-2.301 1.631l-.121.06-.104-.099c-.198-.351-.286-.763-.242-1.164-.576.483-1.301.758-2.053.774a4.51 4.51 0 0 0-2.432.522l-.439.362.104-.549.071-.28.093-.269a3.43 3.43 0 0 1 .242-.494l.154-.247a5.02 5.02 0 0 1 .862-.977 3.48 3.48 0 0 0-1.076.417c-.434.313-.835.67-1.191 1.071-.593.615-1.219 1.197-1.878 1.735 0 .538-.242 2.778-3.662 3.756l-1.005.269-.137.049c-1.104.439-2.949 1.164-3.003 3.585-.005.198.011.395.06.587.027.11.066.214.121.313a.98.98 0 0 0 .137.198c.027.033.055.06.082.088a.63.63 0 0 0 .093.077c.928.697 2.811.121 2.828.121l.45-.137-.209.417c-.439 1.153-1.406 2.032-2.602 2.35a4.99 4.99 0 0 1 .302.73 5.22 5.22 0 0 1 .121.505c.033.17.049.34.06.511l.005.253a3.48 3.48 0 0 1-.318 1.471c-.368.813-1.137 1.373-2.021 1.477a2.88 2.88 0 0 1-.434.033 1.62 1.62 0 0 0 .242.566c.044.066.088.126.143.181l.088.088.099.082a2.1 2.1 0 0 0 1.724.231 1.92 1.92 0 0 0 1.406-.867 1.13 1.13 0 0 0 .082-.187c.022-.06.038-.126.055-.187.028-.121.038-.241.038-.368a2.2 2.2 0 0 0-.121-.703l.373-.143c.005.017.022.049.038.104l.071.214c.017.044.027.088.044.143l.099.346.203.878a7.54 7.54 0 0 1 .132 1.312 5.81 5.81 0 0 1-.033.62 3.41 3.41 0 0 1-.329 1.208c-.34.67-.972 1.153-1.713 1.296l-.302.066a5.21 5.21 0 0 0-.055.719c0 .247.017.494.049.736.022.17.055.351.099.538.044.192.104.384.17.576l.17.417.22.423a5.11 5.11 0 0 0 .598.846c-.055-.34-.082-.681-.082-1.027 0-.543.071-1.082.225-1.603l.126-.379.165-.379.148-.28.17-.28a19.35 19.35 0 0 0 2.081-5.04l.022.011v-.428l.011-.406.022-.379.033-.362a21.19 21.19 0 0 1 1.104-4.661l.033-.088.379.126-.033.093c-.686 1.872-1.076 3.843-1.153 5.837l.022.62c.017.302.055.604.11.906l.099.434.126.417.137.423.115.395a7.25 7.25 0 0 1 .269 1.878 3.69 3.69 0 0 1-.165 1.12 2.74 2.74 0 0 0 .313-.148c.121-.066.231-.137.335-.225.099-.088.192-.181.274-.286.022-.022.038-.049.055-.071.121-.17.225-.351.302-.544a3.54 3.54 0 0 0 .17-.516l.093-.483a4.18 4.18 0 0 0 .044-.45l.016-.45a10.14 10.14 0 0 0-.176-1.867l-.06-.302-.066-.302h.011l-.082-.461c-.038-.264-.06-.533-.06-.802.033-1.181.269-2.345.686-3.448l.242-.642.082-.198.071-.17.203-.461.121-.269c.033-.088.077-.159.121-.231s.066-.137.099-.192l.044-.082.071-.132a.91.91 0 0 1 .06-.104l-.137-4.541v-.62l.017-1.082.038-1.186.038-.862.033-.544c0-.055.006-.11.011-.159l.027-.379c0-.055.011-.11.011-.159l.027-.329c0-.06.011-.104.011-.137v-.044-.044l.033-.176h.006zm-6.331 5.935l-.231-.329a3.96 3.96 0 0 1 1.768-.56c1.104-.049 2.059-.774 2.405-1.828l.39.099c-.395 1.208-1.488 2.053-2.756 2.136-.555.038-1.098.203-1.581.483m1.812 2.086c.285-.516.697-.95 1.191-1.257l1.246-.807.22.346-1.246.807a3.09 3.09 0 0 0-1.038 1.076l-.373-.159v-.006zm2.443 5.123a3.67 3.67 0 0 0-.132 1.74l-.39.115a3.96 3.96 0 0 1 .137-1.977l.527-1.642.39.121-.533 1.647v-.005zm-.703-4.925c-.428.274-.78.642-1.038 1.082l-.368-.165c.285-.511.692-.944 1.191-1.257l1.257-.807.214.34-1.252.813-.005-.005z" class="C"/><path d="M42.992 15.637a1.03 1.03 0 0 0-1.049.038c-.214.137-.368.346-.439.588a1.01 1.01 0 0 0-.038.285c0 .571.461 1.038 1.038 1.038.571 0 1.038-.461 1.038-1.038 0-.384-.209-.73-.544-.917m-.5 1.757a.84.84 0 0 1-.791-1.12c.154-.434.626-.659 1.06-.511a.83.83 0 0 1 .516.538c.028.082.044.165.044.253a.84.84 0 0 1-.84.84m-6.26-1.465a.78.78 0 0 0-.56.242c-.214.214-.335.505-.329.807a.9.9 0 0 0 .747 1.027.9.9 0 0 0 1.027-.747.8.8 0 0 0 0-.28 1.14 1.14 0 0 0-.302-.785.82.82 0 0 0-.582-.258m0 1.878c-.417-.049-.719-.423-.681-.84a.84.84 0 0 1 .483-.802.49.49 0 0 1 .198-.038c.077 0 .148.016.22.049.296.148.478.461.467.796.038.417-.264.791-.681.84m12.522-1.916c-.324.011-.609.198-.752.489a1.22 1.22 0 0 0-.137.555.9.9 0 0 0 .741 1.027c.489.082.944-.253 1.027-.741a.83.83 0 0 0 0-.285 1.17 1.17 0 0 0-.121-.527.88.88 0 0 0-.758-.522m0 1.889a.77.77 0 0 1-.686-.84.97.97 0 0 1 .17-.549.64.64 0 0 1 .516-.291.63.63 0 0 1 .522.313c.104.159.154.34.154.527.044.417-.258.791-.675.84zm-30.279 5.922l-.39-.093a2.67 2.67 0 0 1-2.405 1.828 3.88 3.88 0 0 0-1.768.56l.231.329c.483-.274 1.021-.439 1.581-.483a3.11 3.11 0 0 0 2.756-2.136m11.304 55.345l.395.077a6.18 6.18 0 0 0-.439-2.921l-.999-2.432-.373.154.999 2.427a5.86 5.86 0 0 1 .423 2.69" class="B"/><path d="M29.013 64.728c-.154-.697-.478-1.351-.933-1.9l-.291.28a4.26 4.26 0 0 1 .829 1.713 3.52 3.52 0 0 0 2.866 2.723l.038-.401a3.07 3.07 0 0 1-2.509-2.416zm-1.719-45.846a3.06 3.06 0 0 0 2.125-2.575l-.401-.022a2.68 2.68 0 0 1-1.856 2.213l.132.379v.006zm5.968 62.664a3.46 3.46 0 0 0 2.828 1.933c.137 0 .28-.011.417-.033l-.055-.401a2.91 2.91 0 0 1-2.828-1.686c-.296-.609-.73-1.142-1.268-1.554l-.225.335a4.11 4.11 0 0 1 1.131 1.4m20.294-6.193a2.96 2.96 0 0 0-.412 3.305l.346-.203c-.478-.933-.33-2.064.373-2.839a3.76 3.76 0 0 0 .818-1.57l-.401-.066a3.5 3.5 0 0 1-.73 1.384" class="B"/><path d="M48.971 74.875l-.159.373c1.252.461 2.641-.181 3.102-1.433 0-.011.011-.028.017-.038l-.368-.17c-.329 1.049-1.444 1.631-2.493 1.301l-.099-.033zm-10.701 5.6l.406-.038c-.231-1.466-1.334-2.641-2.778-2.976a4.51 4.51 0 0 1-1.779-.879l-.28.285c.571.472 1.241.813 1.966.983a3.19 3.19 0 0 1 2.471 2.624m-12.42-7.68a2.11 2.11 0 0 0 .066-1.422l-.39.099c.362 1.417-.642 1.719-.648 1.73-1.027.088-1.318-1.005-1.329-1.049l-.395.104c.187.829.95 1.395 1.795 1.334a1.57 1.57 0 0 0 .862-.719c.313 1.362-.659 1.658-.664 1.669-.631 0-1.186-.434-1.329-1.049l-.395.099a1.78 1.78 0 0 0 1.642 1.356c.055 0 .104 0 .159-.011a1.66 1.66 0 0 0 1.005-2.119.57.57 0 0 0-.044-.104l-.34.082h.005zm-8.384-44.528c-.494.313-.906.747-1.191 1.257l.368.165a3.17 3.17 0 0 1 1.038-1.082l1.252-.813-.214-.34-1.257.807.005.005zm.537 5.145a3.9 3.9 0 0 0-.137 1.977l.39-.115c-.093-.582-.049-1.175.132-1.741l.533-1.642-.39-.126-.527 1.642v.006z" class="B"/><path d="M17.356 27.492l1.246-.807-.22-.346-1.246.807a3.44 3.44 0 0 0-1.191 1.257l.368.159a3.09 3.09 0 0 1 1.038-1.076M54.17 70.999a3.71 3.71 0 0 0-1.735.379l.203.346a3.33 3.33 0 0 1 1.526-.319c1.213.028 2.322-.681 2.806-1.795l-.379-.132c-.406.966-1.378 1.576-2.427 1.526m-34.332-12.09a2.12 2.12 0 0 0 1.444-.659l-.296-.275c-.319.313-.736.5-1.181.527-.511-.055-.972-.335-1.257-.763l-.313.253a2.13 2.13 0 0 0 1.565.911h.044l-.006.005zm5.688 4.233l-.401-.055a6.15 6.15 0 0 0 .62 2.899l1.148 2.355.362-.176-1.153-2.361c-.406-.829-.604-1.741-.582-2.663m-3.304-.103h-.044c-.511-.055-.966-.335-1.252-.763l-.313.253a2.11 2.11 0 0 0 1.554.911h.055a2.15 2.15 0 0 0 1.444-.659l-.297-.269c-.302.307-.714.5-1.147.527zm11.448 8.675a4.03 4.03 0 0 0 1.395-.22l-.143-.379a5.78 5.78 0 0 1-2.723.027l-2.553-.582-.093.39 2.553.587a7.47 7.47 0 0 0 1.565.176zM68.61 30.852l.055-.406c-.983-.22-1.73-1.021-1.878-2.02-.093-.576-.324-1.12-.67-1.592l-.307.264a3.43 3.43 0 0 1 .582 1.4c.192 1.164 1.071 2.097 2.218 2.35m3.586 6.066l.313-.247-.917-1.175c-.318-.395-.532-.856-.631-1.356l-.401.027a3.55 3.55 0 0 0 .714 1.576l.922 1.175z" class="B"/><path d="M69.39 26.685l.379-.132c-.362-.78-.917-1.455-1.609-1.966l-1.784-1.345-.242.324 1.79 1.345a4.87 4.87 0 0 1 1.472 1.779m-2.443 11.322c-.016.159-.582 3.838 1.246 4.376l.121-.384c-1.241-.362-1.115-2.959-.961-3.937.258-1.686.104-3.41-.445-5.029a2.88 2.88 0 0 1-.181-1.894l-.39-.104c-.187.725-.115 1.488.203 2.163a10.31 10.31 0 0 1 .401 4.799m-.703 19.155c-.357.104-.741.044-1.049-.165l-.192.351a1.96 1.96 0 0 0 .928.275 1.31 1.31 0 0 0 .456-.082 1.68 1.68 0 0 0 .879-.911l-.379-.137a1.22 1.22 0 0 1-.637.675m7.253-38.116l-.165.362c.56.324 1.038.769 1.4 1.301a3.8 3.8 0 0 0 2.828 1.62 2.94 2.94 0 0 0 .846-.121l-.115-.384a3.07 3.07 0 0 1-3.234-1.345 4.5 4.5 0 0 0-1.565-1.433m2.519 17.279c-.988.214-1.433-.835-1.455-.879l-.368.154c.258.659.873 1.104 1.576 1.142a1.38 1.38 0 0 0 .368-.044 1.65 1.65 0 0 0 .725-2.224l-.055-.099-.373.148c.538 1.356-.412 1.79-.423 1.795m-3.948-25.875c.549.406 1.005.933 1.323 1.537l.373-.148c-.34-.67-.835-1.257-1.444-1.708a3.28 3.28 0 0 1-1.263-3.454l-.379-.121c-.379 1.466.176 3.009 1.4 3.898m-6.105 43.645l.324.231a2.87 2.87 0 0 0-.121-3.218 3.4 3.4 0 0 1-.598-1.395l-.401.028c.093.576.318 1.125.67 1.598.615.802.664 1.9.126 2.751m-6.868 20.716a1.27 1.27 0 0 0 .615.159 1.46 1.46 0 0 0 1.219-.758l-.34-.225c-.587.873-1.208.527-1.246.505-.307-.346-.34-.857-.071-1.235l-.335-.22a1.37 1.37 0 0 0 .165 1.779m3.677-16.483c.598.802.648 1.894.126 2.745l.329.242a2.87 2.87 0 0 0-.132-3.217 3.32 3.32 0 0 1-.593-1.395l-.406.027c.093.577.324 1.126.67 1.598M58.491 76.05a1 1 0 0 1-.082-1.241l-.335-.214c-.384.549-.313 1.301.165 1.768a1.22 1.22 0 0 0 .62.165 1.44 1.44 0 0 0 1.208-.763l-.335-.225c-.587.873-1.202.533-1.241.511zm-1.542-9.734c-.017.878-.577 1.664-1.4 1.966l.121.39a2.56 2.56 0 0 0 1.691-2.333 2.94 2.94 0 0 1 .346-1.29l-.34-.225a3.29 3.29 0 0 0-.412 1.488" class="B"/><path d="M66.222 56.712c.395-.187.703-.527.84-.944l-.384-.126a1.27 1.27 0 0 1-.615.703 1.27 1.27 0 0 1-1.054-.137l-.181.362c.275.148.576.231.889.242a1.24 1.24 0 0 0 .505-.099zm-.626-2.91l.318.242a1.99 1.99 0 0 0-.088-2.322 2.4 2.4 0 0 1-.406-.95l-.203.016-.198.016a2.6 2.6 0 0 0 .483 1.148 1.63 1.63 0 0 1 .099 1.856m1.835-38.84l.181-.362a3.22 3.22 0 0 0-3.432.362l.269.307a2.81 2.81 0 0 1 2.987-.307M10.498 31.121c.335.275.758.417 1.191.406l.231-.011-.06-.395a1.3 1.3 0 0 1-1.521-1.027 1.19 1.19 0 0 1 0-.483h-.406a1.88 1.88 0 0 0 .571 1.521M25.96 6.364l.307-.269c-.84-.922-2.141-1.279-3.338-.917l.137.373a2.82 2.82 0 0 1 2.893.813z" class="B"/><path d="M61.259 13.183l.099-.395a3.24 3.24 0 0 0-3.272 1.131l.324.231c.681-.846 1.79-1.219 2.844-.972m-4.651 50.639l-.351-.203a2.92 2.92 0 0 1-1.01.868c-.933.483-1.477 1.493-1.373 2.537l.395-.071c-.088-.879.379-1.719 1.169-2.108a3.26 3.26 0 0 0 1.169-1.016M13.831 21.732v.412a3.25 3.25 0 0 0 2.899-1.894l-.373-.148c-.456.983-1.438 1.62-2.526 1.631zm9.85 35.485c.11 1.301-.593 2.537-1.774 3.102l.143.373c1.329-.642 2.141-2.026 2.043-3.497-.044-.664.066-1.329.318-1.944l-.362-.181c-.285.681-.406 1.417-.362 2.147" class="B"/><path d="M23.418 18.393l-.011.406h.066c1.186.049 2.29-.593 2.833-1.647l-.368-.165c-.483.9-1.444 1.45-2.465 1.406h-.06.005zm42.579-9.091a2.46 2.46 0 0 1-2.729.307l-.22.34a2.34 2.34 0 0 0 1.279.379 3.36 3.36 0 0 0 1.922-.714 3.29 3.29 0 0 1 1.362-.681l-.066-.406a3.91 3.91 0 0 0-1.548.774zm-36.133 4.589a3.26 3.26 0 0 0-3.426-.456l.187.362c.988-.45 2.147-.291 2.981.406l.264-.313h-.005zm29.242 5.08l.231-.006-.027-.401c-1.082.022-2.086-.571-2.586-1.537l-.362.176a3.28 3.28 0 0 0 2.74 1.768m13.385-3.789l-.401.049c.143.873-.45 1.691-1.318 1.834-.187.033-.379.027-.571-.011l-.017.401h.137a2.15 2.15 0 0 0 1.669-.62 2.21 2.21 0 0 0 .5-1.658m-4.37 5.232a4.8 4.8 0 0 0-1.532-1.515l-.181.368a4.24 4.24 0 0 1 1.378 1.362 3.79 3.79 0 0 0 2.91 1.746 3.18 3.18 0 0 0 .758-.093l-.099-.39c-1.279.231-2.57-.357-3.234-1.477zm6.589-8.33l.406.039a4.94 4.94 0 0 0-.609-2.312l-.988-1.845-.362.192.994 1.845a4.6 4.6 0 0 1 .555 2.081m-2.637 16.264a1.91 1.91 0 0 0-.121-1.455l-.362.198a1.48 1.48 0 0 1 .104 1.114c-.192.401-.555.697-.983.813l.137.379a1.88 1.88 0 0 0 1.224-1.049z" class="B"/><path d="M67.288 10.949a3.47 3.47 0 0 1-1.46.406l-.027.401h.033a3.94 3.94 0 0 0 1.636-.445c.873-.489 1.96-.395 2.74.242l.28-.291a2.89 2.89 0 0 0-3.206-.318M64.97 7.22l.181.362c1.241-.544 2.685-.324 3.717.555l.264-.302c-1.159-.972-2.767-1.213-4.162-.615zm2.74 12.349c.379.242.697.56.933.939a2.72 2.72 0 0 0 2.092 1.252c.187 0 .368-.022.544-.071l-.104-.39a2.12 2.12 0 0 1-2.196-1.01c-.275-.439-.648-.807-1.093-1.076l-.181.357h.005zm-7.708-2.575c.532 1.032 1.576 1.708 2.74 1.768l.242-.011-.033-.401a2.79 2.79 0 0 1-2.581-1.537l-.362.181h-.005zM6.48 22.067h.406a1.07 1.07 0 0 1 1.027-1.115c.126 0 .253.011.373.049l.066-.406a1.47 1.47 0 0 0-1.817 1.016 1.42 1.42 0 0 0-.055.456zM23.489 9.258l-.17-.362a2.84 2.84 0 0 1-2.965-.5l-.269.302a3.48 3.48 0 0 0 2.174.84c.428 0 .846-.093 1.23-.286M4.662 14.951a1.54 1.54 0 0 0-.774 2.032l.39-.126c-.016-.049-.412-1.153.571-1.548 0 0 .587-.302 1.751.703l.264-.307c-1.395-1.202-2.152-.791-2.202-.758m6.764 2.513l.099-.395a3.2 3.2 0 0 1-2.174-2.921 4.69 4.69 0 0 0-.637-2.13l-.329.231a4.3 4.3 0 0 1 .56 1.922c0 .027.165 2.712 2.476 3.289m.582 1.591c-1.219.269-2.482-.225-3.19-1.257l-.346.203a3.18 3.18 0 0 0 2.877 1.515 4.12 4.12 0 0 0 .736-.06 4.14 4.14 0 0 1 1.889.038l.132-.384a4.64 4.64 0 0 0-2.092-.049M9.977 36.107c.511-.022.994-.22 1.367-.56l-.28-.297a1.65 1.65 0 0 1-1.213.445 1.73 1.73 0 0 1-1.202-.856l-.329.231c.313.549.862.922 1.488 1.021a.58.58 0 0 0 .17.011M75.957 7.654l.395-.071a3.24 3.24 0 0 0-2.372-2.526l-.082.395c1.049.275 1.85 1.131 2.059 2.196M7.248 22.929h.406c-.027-.587.423-1.087 1.01-1.115a1.05 1.05 0 0 1 .39.055l.06-.401c-.478-.11-.977 0-1.362.302a1.62 1.62 0 0 0-.505 1.159z" class="B"/><path d="M20.727 11.399c.324 0 .648-.055.95-.17l-.132-.379c-1.038.307-2.163-.017-2.883-.824l-.307.274a3.45 3.45 0 0 0 2.377 1.098m-.263 40.768a3.53 3.53 0 0 0-.752 3.876l.362-.187a3.05 3.05 0 0 1 .675-3.415 4.49 4.49 0 0 0 1.093-1.812l-.39-.088c-.209.61-.544 1.164-.994 1.62m-.175-37.028a3.45 3.45 0 0 0 1.351.895l.11-.384a3.14 3.14 0 0 1-1.169-.785c-.752-.818-1.927-1.087-2.959-.686l.17.362a2.26 2.26 0 0 1 2.498.599zm-5.897-10.24c.714-.73 1.795-.944 2.734-.544l.192-.346a2.89 2.89 0 0 0-3.201.598 3.41 3.41 0 0 1-1.323.813l.088.395c.571-.187 1.087-.5 1.515-.922m-1.657 5.909a2.25 2.25 0 0 1 2.432.802l.34-.22c-.67-.878-1.806-1.263-2.872-.972a3.19 3.19 0 0 1-1.422.06l-.104.384a3.46 3.46 0 0 0 1.625-.055zm7.374 7.22l.28-.297a2.57 2.57 0 0 0-2.833-.307 2.87 2.87 0 0 1-1.274.335l-.011.203-.011.203h.049a3.34 3.34 0 0 0 1.433-.379c.763-.417 1.708-.324 2.372.242M8.868 6.639c.044-1.021.714-1.916 1.686-2.24.56-.198 1.065-.527 1.472-.961l-.313-.247a3.52 3.52 0 0 1-1.301.84 2.9 2.9 0 0 0-1.949 2.63l.412-.022H8.87z" class="B"/></g></svg>