<svg xmlns="http://www.w3.org/2000/svg" width="64" height="64" fill="none" xmlns:v="https://vecta.io/nano"><path d="M64 50.78V4.375H0V50.78h22.747l1.442 5.096h-9.206v3.75h34.102v-3.75h-9.273l1.442-5.096H64zM60.246 8.125V39.53H26.277V22.318H18.77v-8.443H7.508V39.53H3.754V8.125h56.492zm-45.23 14.193V39.53h-3.754V17.625h3.754v4.693zm3.754 3.75h3.754V39.53H18.77V26.068zM3.754 43.28h56.492v3.75H3.754v-3.75zm32.157 12.596H28.09l-1.442-5.096h10.704l-1.442 5.096z" fill="#012e5d"/><path d="M44.608 35.62c6.553 0 11.885-5.326 11.885-11.873s-5.331-11.873-11.885-11.873-11.885 5.326-11.885 11.873S38.054 35.62 44.608 35.62zm0-3.75a8.14 8.14 0 0 1-8.131-8.123c0-1.561.444-3.021 1.212-4.26l6.142 6.135h8.688c-.85 3.578-4.073 6.248-7.91 6.248zm7.91-9.998h-7.132l-5.042-5.037c1.241-.767 2.702-1.211 4.265-1.211 3.837 0 7.06 2.67 7.91 6.248z" fill="#c63b2b"/></svg>