<svg width="64" height="64" viewBox="0 0 64 64" fill="none" xmlns="http://www.w3.org/2000/svg">
<path d="M64 50.7795V4.375H0V50.7795H22.7469L24.1885 55.875H14.9824V59.625H49.0843V55.875H39.8115L41.2531 50.7795H64ZM60.2461 8.125V39.5295H26.2774V22.3184H18.7695V13.875H7.50787V39.5295H3.75388V8.125H60.2461ZM15.0156 22.3184V39.5295H11.2618V17.625H15.0156V22.3184ZM18.7695 26.0684H22.5234V39.5295H18.7695V26.0684ZM3.75388 43.2795H60.246V47.0295H3.75388V43.2795ZM35.9106 55.875H28.0895L26.6479 50.7795H37.3522L35.9106 55.875Z" fill="white"/>
<path d="M44.6075 35.6201C51.1609 35.6201 56.4925 30.2941 56.4925 23.7476C56.4925 17.2011 51.161 11.875 44.6075 11.875C38.054 11.875 32.7227 17.201 32.7227 23.7476C32.7227 30.2943 38.0542 35.6201 44.6075 35.6201ZM44.6075 31.8701C40.124 31.8701 36.4765 28.2264 36.4765 23.7476C36.4765 22.1861 36.9209 20.7269 37.6885 19.4874L43.8302 25.6226H52.5177C51.6678 29.2001 48.445 31.8701 44.6075 31.8701ZM52.5175 21.8726H45.385L40.3429 16.8358C41.5837 16.069 43.0444 15.625 44.6075 15.625C48.445 15.625 51.6678 18.2951 52.5175 21.8726Z" fill="white"/>
</svg>
