<svg width="138" height="138" viewBox="0 0 138 138" fill="none" xmlns="http://www.w3.org/2000/svg">
<g clip-path="url(#clip0_5507_208016)">
<path d="M97.4119 128.53C97.4119 124.794 94.383 121.765 90.6471 121.765H47.3531C43.6172 121.765 40.5882 124.794 40.5882 128.53V129.883H97.4119V128.53ZM105.529 138H32.4707V128.53C32.4707 120.31 39.1339 113.647 47.3531 113.647H90.6471C98.8663 113.647 105.529 120.31 105.529 128.53V138Z" fill="white"/>
<path d="M89.2941 97.4119V121.765H48.7059V97.4119H89.2941ZM56.8235 113.647H81.1766V105.529H56.8235V113.647Z" fill="white"/>
<path d="M113.647 129.882V138H24.3529V129.882H113.647Z" fill="white"/>
<path d="M77.1176 24.353C77.1176 19.8698 73.4833 16.2352 69.0001 16.2352C64.5168 16.2352 60.8823 19.8697 60.8823 24.353C60.8823 28.8362 64.5169 32.4705 69.0001 32.4705C73.4833 32.4705 77.1176 28.8362 77.1176 24.353ZM85.2354 24.353C85.2354 33.3194 77.9665 40.5883 69.0001 40.5883C60.0336 40.5883 52.7648 33.3195 52.7648 24.353C52.7648 15.3865 60.0336 8.11768 69.0001 8.11768C77.9666 8.11772 85.2354 15.3865 85.2354 24.353Z" fill="white"/>
<path d="M73.0588 36.5293V101.471H64.9413V36.5293H73.0588Z" fill="white"/>
<path d="M138 20.2942V28.4117H81.1765V20.2942H138Z" fill="white"/>
<path d="M138 72.247V73.0588C138 86.5084 127.097 97.4116 113.647 97.4116C100.197 97.4116 89.2942 86.5084 89.2942 73.0588V72.247L113.647 13.7998L138 72.247ZM97.4296 73.8271C97.8308 82.4367 104.938 89.2941 113.647 89.2941C122.356 89.2941 129.463 82.4367 129.864 73.8271L113.647 34.9056L97.4296 73.8271Z" fill="white"/>
<path d="M133.941 69V77.1175H93.3529V69H133.941Z" fill="white"/>
<path d="M56.8235 20.2942V28.4117H0V20.2942H56.8235Z" fill="white"/>
<path d="M48.7059 72.247V73.0588C48.7059 86.5084 37.8025 97.4116 24.3528 97.4116C10.9032 97.4116 2.35473e-05 86.5084 0 73.0588V72.247L24.3528 13.7998L48.7059 72.247ZM8.13542 73.8271C8.53657 82.4367 15.644 89.2941 24.3528 89.2941C33.0617 89.2941 40.1688 82.4367 40.57 73.8271L24.3528 34.9056L8.13542 73.8271Z" fill="white"/>
<path d="M44.647 69V77.1175H4.05884V69H44.647Z" fill="white"/>
<path d="M73.0588 0V12.1765H64.9413V0H73.0588Z" fill="white"/>
</g>
<defs>
<clipPath id="clip0_5507_208016">
<rect width="138" height="138" fill="white"/>
</clipPath>
</defs>
</svg>
