<svg xmlns="http://www.w3.org/2000/svg" width="78" height="79" fill="none" xmlns:v="https://vecta.io/nano"><g fill="#c63b2b"><use href="#B"/><use href="#B" x="13"/><use href="#B" x="26"/></g><path d="M8.902 40.921a30.72 30.72 0 0 1-4.55 5.256c-.61.565-.792 1.455-.452 2.214.303.705.998 1.161 1.765 1.158h.149c4.667-.283 9.231-1.492 13.425-3.558 1.611.427 3.255.721 4.914.882-.491 1.744-.745 3.547-.754 5.358 0 12.903 12.246 23.4 27.3 23.4 2.72.001 5.429-.349 8.06-1.04a35.21 35.21 0 0 0 13.419 3.55h.151a1.91 1.91 0 0 0 1.77-1.152c.339-.758.155-1.647-.455-2.21a30.78 30.78 0 0 1-4.55-5.255c5.503-4.06 8.796-10.456 8.905-17.294 0-11.981-10.565-21.874-24.126-23.229.481-1.75.725-3.557.725-5.372C54.6 10.728 42.354.23 27.3.23S0 10.728 0 23.631a21.93 21.93 0 0 0 8.902 17.29zM75.4 52.231c-.145 6.424-3.433 12.367-8.799 15.903a1.3 1.3 0 0 0-.364 1.729c1.217 1.995 2.661 3.843 4.302 5.508-3.833-.39-7.555-1.511-10.967-3.301a1.3 1.3 0 0 0-.996-.122c-2.563.72-5.214 1.085-7.877 1.083-13.62 0-24.7-9.331-24.7-20.8s11.08-20.8 24.7-20.8 24.7 9.331 24.7 20.8zm-48.1-49.4c13.62 0 24.7 9.331 24.7 20.8a17.69 17.69 0 0 1-.803 5.222c-.166 0-.329-.022-.497-.022-11.814 0-21.871 6.478-25.663 15.499a28.13 28.13 0 0 1-5.61-.98 1.31 1.31 0 0 0-1 .121c-3.411 1.79-7.133 2.91-10.965 3.301a30.44 30.44 0 0 0 4.3-5.508 1.3 1.3 0 0 0-.365-1.729C6.032 35.998 2.745 30.054 2.6 23.631c0-11.469 11.08-20.8 24.7-20.8z" fill="#012e5d"/><path d="M63.7 56.132a3.9 3.9 0 0 0 0-7.8 3.9 3.9 0 0 0 0 7.8zm0-5.2a1.3 1.3 0 0 1 0 2.6 1.3 1.3 0 0 1 0-2.6zm-16.9 1.3a3.9 3.9 0 1 0 7.8 0 3.9 3.9 0 1 0-7.8 0zm5.2 0a1.3 1.3 0 0 1-2.6 0 1.3 1.3 0 0 1 2.6 0zm-14.3-3.9a3.9 3.9 0 0 0 0 7.8 3.9 3.9 0 0 0 0-7.8zm0 5.2a1.3 1.3 0 0 1 0-2.6 1.3 1.3 0 0 1 0 2.6z" fill="#c63b2b"/><defs ><path id="B" d="M14.3 27.531a3.9 3.9 0 1 0 0-7.8 3.9 3.9 0 1 0 0 7.8zm0-5.2a1.3 1.3 0 0 1 0 2.6 1.3 1.3 0 0 1 0-2.6z"/></defs></svg>