<svg xmlns="http://www.w3.org/2000/svg" width="34" height="42" fill="none" xmlns:v="https://vecta.io/nano"><path d="M17 .063c4.358.005 8.536 1.739 11.617 4.82s4.815 7.259 4.82 11.617c0 7.038-3.739 13.218-7.565 17.7-3.347 3.921-6.755 6.535-7.768 7.275l-.279.201a1.44 1.44 0 0 1-1.558.059l-.093-.059c-.32-.223-4.223-2.997-8.047-7.477S.563 23.538.563 16.5l.006-.408c.109-4.21 1.829-8.224 4.814-11.209S12.382.178 16.592.068L17 .063zm0 10.375c-1.608 0-3.15.639-4.287 1.775s-1.775 2.679-1.775 4.287c0 1.199.355 2.371 1.021 3.368s1.613 1.773 2.721 2.232 2.327.58 3.503.346 2.257-.811 3.104-1.659 1.425-1.928 1.659-3.104.113-2.395-.346-3.503-1.236-2.055-2.232-2.721-2.169-1.021-3.368-1.021z" fill="#c63b2b" stroke="#012e5d" stroke-width=".125"/></svg>