<svg xmlns="http://www.w3.org/2000/svg" width="80" height="81" fill="none" xmlns:v="https://vecta.io/nano"><style><![CDATA[.B{fill:#1a1a1a}.C{fill:#fff}.D{fill:#d60812}]]></style><mask id="A" maskUnits="userSpaceOnUse" x="18" y="6" width="44" height="45"><path d="M61.775 6.785H18v43.388h43.775V6.785z" class="C"/></mask><g mask="url(#A)"><path d="M34.001 17.265h-5.147a35.01 35.01 0 0 0-.037 5.09l2.192 4.946 2.309-5.204 2.303 5.204 2.309-5.204 2.306 5.204 2.306-5.204 2.309 5.204 2.306-5.204 2.306 5.204 2.169-4.892a35.53 35.53 0 0 0-.031-5.147H33.998h.003v.003zm-10.874 6.63a.83.83 0 0 0 .69-.094.75.75 0 0 0 .275-.505v-.006a1.41 1.41 0 0 1-.472-.079c-.366-.145-.67-.417-.844-.768a3.11 3.11 0 0 0-.266.281 1.16 1.16 0 0 0 .063.808.79.79 0 0 0 .555.36m32.704-1.268c.103.199.286.346.504.403.375-.009.67-.318.661-.689v-.028l.209.017a.91.91 0 0 1-.438.786c.526.065 1.022-.267 1.159-.774.18-.675-.166-1.324-1.047-1.957a2.87 2.87 0 0 1 .286 1.154c-.12.825-1.01 1.038-1.333 1.089z" class="C"/><path d="M57.709 23.049l-.086.062v.006a1.29 1.29 0 0 1-.034.879c-.069.114-.183.19-.312.213h-.014a1.31 1.31 0 0 1-.755-.352 1.41 1.41 0 0 0-1.156-.309 2.55 2.55 0 0 1 .893 1.398c.183.638.778 1.069 1.448 1.049.463-.077.807-.468.824-.93.077-.76-.22-1.509-.801-2.008m.315 1.234a.85.85 0 0 1-.297 1.168.48.48 0 0 1-.051.028.87.87 0 0 1-.192.023c-.366-.02-.69-.252-.821-.59l.194-.079c.012.023.24.561.755.454.006 0 .501-.227.22-.927l.195-.074-.003-.003zm-5.595 4.244l.034.292a2.42 2.42 0 0 0 1.408 1.948 1 1 0 0 0 .753-.346c.129-.201.172-.445.126-.678l.203-.048a1.11 1.11 0 0 1-.16.848.97.97 0 0 1-.529.355l.246.045a1.02 1.02 0 0 0 1.147-.539 2.55 2.55 0 0 0-.607-2.308c.034.434-.077.868-.318 1.234a.87.87 0 0 1-.635.309 1.8 1.8 0 0 1-1.668-1.109M24.747 15.693A1.91 1.91 0 0 1 23.58 14a1.55 1.55 0 0 1 .71-1.299 2.68 2.68 0 0 1 2.092.071c.063-.692-.715-1.126-.727-1.132v-.006a2.45 2.45 0 0 0-.647-.156l.017-.207c.638.111 1.25.343 1.8.684.521.301 1.079.533 1.66.692a4.5 4.5 0 0 0 2.183-.221 5.52 5.52 0 0 1-1.322-.496l.011-.023-1.001-.281a6.07 6.07 0 0 0-1.431-.318l.011-.207c.506.045 1.007.156 1.485.323a8.78 8.78 0 0 0 1.811.414c.647.054 1.296-.074 1.874-.363a3.12 3.12 0 0 1-1.476-.377 6.64 6.64 0 0 0-1.625-.578h-.203c-.624-.043-1.25-.008-1.866.099l-.063-.198c.635-.116 1.285-.153 1.931-.108h.223l.446.003a3.33 3.33 0 0 0 1.345-.286 7.06 7.06 0 0 1-1.473-.559 3.64 3.64 0 0 0-1.663-.187 5.66 5.66 0 0 0-.893.193.35.35 0 0 1-.049.02c-.936.315-1.826.754-2.644 1.302l-.12-.17a11.24 11.24 0 0 1 2.75-1.35 1.81 1.81 0 0 0 .95-1.217c-3.179-.474-5.036 2.479-5.305 2.941v.011l-.029.048c-.466.97-.541 2.082-.209 3.105a2.17 2.17 0 0 0 2.604 1.523m2.976-3.985a1.47 1.47 0 0 0 1.502.425l.069.196a1.48 1.48 0 0 1-.495.088c-.472-.023-.919-.227-1.239-.57l.163-.142v.003zm.884-.845a1.49 1.49 0 0 0 1.545.258l.089.187a1.48 1.48 0 0 1-.641.147c-.418-.014-.815-.167-1.133-.434l.137-.156.003-.003zm-3.251-1.957a1.51 1.51 0 0 1 1.668-.309l-.1.179c-.486-.207-1.053-.096-1.425.281a2.04 2.04 0 0 1-.793.476l-.046-.204a1.8 1.8 0 0 0 .69-.42m-1.505 3.023a1.68 1.68 0 0 0 .741-.031 1.42 1.42 0 0 1 1.497.502l-.177.113a1.18 1.18 0 0 0-1.268-.414 1.86 1.86 0 0 1-.847.028l.054-.199zm-1.305.803a2.44 2.44 0 0 1 .332 1.1 1.65 1.65 0 0 0 1.133 1.509l-.051.204c-1.205-.298-1.29-1.684-1.29-1.699a2.28 2.28 0 0 0-.292-.993l.172-.122h-.003zm32.147 8.148a1.04 1.04 0 0 1-.904.525c.358.326 1.259 1.004 2.051.502a.82.82 0 0 0 .383-.763 2.29 2.29 0 0 0-.847-1.605v-.008l-1.176-.485c.283.425.755 1.262.489 1.832m.684.216a.75.75 0 0 0-.054-.576l.189-.102a.98.98 0 0 1 .063.752.98.98 0 0 1-.638.542l-.072-.196a.79.79 0 0 0 .512-.42z" class="C"/><path d="M45.335 16.376l-.04-.009-.069-.02-.069-.014a25.46 25.46 0 0 0-4.913-.405c-3.165 0-5.614.536-6.035.822-.026.017-.049.04-.069.062a.44.44 0 0 0-.097.25h.275a7.96 7.96 0 0 1 2.615-.559l3.319-.159c2.787 0 5.145.301 5.929.715h.255c-.026-.088-.063-.17-.109-.25l-.014-.02h-.012v-.014a1.04 1.04 0 0 0-.375-.218l-.032-.011.026.011-.032-.011h.006a4 4 0 0 0-.352-.125h-.012a1.95 1.95 0 0 1-.209-.045m11.335-.309v-.014c-.209.017-.418.006-.621-.037-.109.091-.229.167-.358.224a2.17 2.17 0 0 1-.298.099 3.07 3.07 0 0 1 1.416 1.015c.624.905 1.754 1.322 2.824 1.038a4.05 4.05 0 0 1-.97-1.174c-.369-.743-1.153-1.197-1.989-1.151m2.146 1.73l.06.198a1.62 1.62 0 0 1-.438.062 1.99 1.99 0 0 1-1.476-.837 2.2 2.2 0 0 0-.73-.672l.086-.19c.326.179.607.434.816.74a1.61 1.61 0 0 0 1.685.695" class="C"/><path d="M59.909 14.226c-.094-.099-.203-.184-.32-.255-.713-.499-1.671-.471-2.349.071-.169.198-.355.383-.552.553-.003.162-.029.323-.077.479a2.08 2.08 0 0 1-.392.757 1.56 1.56 0 0 0 1.27-.38l.295-.198c.063-.054 1.299-1.154 2.126-1.024m-3.508-4.426a4.46 4.46 0 0 1 1.288 1.585c.289-.459.378-1.018.24-1.543-.226-.615-.933-.89-1.448-1.089l-.126-.051c-.209-.077-.401-.196-.561-.346a2.71 2.71 0 0 0 .601 1.441m.154-.658a1.68 1.68 0 0 1 1.236 1.305l-.206.037c-.109-.55-.526-.99-1.073-1.134l.043-.207zm-22.003 3.194l1.076 1.818c.014 0 .029-.006.046-.006l.269-1.75.032-.21.032-.21.501-3.261.103-.011 1.199 3.261.08.215.08.216.532 1.449c.026 0 .049 0 .074-.006l.521-1.821.063-.216.063-.216.987-3.451.93 3.658.054.216.054.216.409 1.605.175.006.63-1.418.089-.201.089-.199 1.476-3.315.1.017.189 3.451.011.227.011.227.083 1.463.229.034 1.285-1.894.14-.207.14-.207 1.422-2.096.346-1.038-1.765 2.609-.14.207-.14.207-1.15 1.696-.106-1.262-.017-.218-.017-.218-.349-4.163-1.891 3.973-.092.193-.092.193-.529 1.112-.326-1.228-.057-.213-.057-.213-1.107-4.172-1.199 3.965-.063.213-.063.213-.412 1.364-.378-1.004-.08-.213-.08-.213-1.494-3.959-.684 4.078-.034.204-.034.204-.203 1.211-.072-.125-.878-1.469-.137-.23-.137-.23-1.574-2.646.289 1.171 1.276 2.158.137.232.137.23v-.006z" class="C"/><path d="M45.145 14.309l-.083-.017-.335-.062-.272-.045-.046-.006-.984-.125-.16-.014-.218-.02-.149-.011-1.064-.062-.212-.008-1.147-.025h-.607l-1.276.034-.117.006-1.019.068-.152.014-.157.014-.157.014-1.293.179-.086.014a6.18 6.18 0 0 0-.976.249 2.25 2.25 0 0 0-.266.116.91.91 0 0 0-.14.091c-.006.006-.014.011-.023.017l-.066.065-.017.017c-.023.026-.04.054-.051.088l-.006.011a.58.58 0 0 0-.034.21.51.51 0 0 0 .014.13l.02-.028a.65.65 0 0 1 .14-.125 2.28 2.28 0 0 1 .601-.255l.146-.043a8.23 8.23 0 0 1 .701-.156l1.402-.19.172-.017.1-.008 2.698-.119h.266l.569.006 1.791.071 1.09.099.727.099h.011c.584.068 1.156.227 1.691.471.089.045.169.105.235.181.009.011.017.02.023.031a.69.69 0 0 0 .014-.17.53.53 0 0 0-.034-.13c-.008-.023-.017-.043-.029-.062l-.014-.031-.063-.105c-.006-.008-.014-.014-.023-.023-.043-.04-.089-.074-.14-.102-.318-.159-.658-.269-1.007-.329m-6.592-.187v-.006h.003v.006h-.003zM28.727 37.46a1.34 1.34 0 0 0 .73-.942 1.37 1.37 0 0 0-.275-1.183 1.32 1.32 0 0 1-.512.655.67.67 0 0 1-.527.051.76.76 0 0 1-.501-.431c-.352-.754.189-2.198.546-2.989a12.4 12.4 0 0 0 .881-6.007 15.96 15.96 0 0 1-.229 2.45 10.59 10.59 0 0 1-1.245 3.261l-.263.502c-1.316 2.569-.618 3.789-.26 4.194.409.468 1.064.641 1.654.434m-1.23-.97l.163-.13c.149.221.389.366.655.394.232-.014.449-.111.615-.272l.155.142c-.198.204-.466.326-.753.34h-.029a1.13 1.13 0 0 1-.815-.471m3.203 1.206a1.23 1.23 0 0 1-.85.644c-.518 0-1.013-.218-1.356-.604-.192.028-.389.023-.578-.011-.014.34-.008 1.48.644 1.951.546.298 1.213.289 1.754-.023a.99.99 0 0 1 .157-.579 2.09 2.09 0 0 0 .232-1.381m-1.116 1.608h-.029a1.09 1.09 0 0 1-.81-.471l.163-.13c.146.221.386.366.652.394h.023a.92.92 0 0 0 .598-.272l.154.139a1.1 1.1 0 0 1-.752.34zm18.501-2.727a1.53 1.53 0 0 1 .627-.301l.132-.017-.011.131c-.051.709-.346 1.375-.836 1.894l-.369.292c-.993.63-1.668 1.653-1.848 2.81a1.87 1.87 0 0 0 1.09-.624l.183-.204v.275c-.037.669-.335 1.296-.833 1.747a3.04 3.04 0 0 0 2.08-2.465 6.46 6.46 0 0 1 .538-1.911.86.86 0 0 1 .366-.408v-.011c-.003 0 .031 0 .031 0 .057-.017.114-.017.172 0 .235.045.435.196.541.408.032.04.518.65.961.559.298-.062.538-.434.698-1.083l.012.006a14.55 14.55 0 0 0-.661-2.053l-.129-.346c-.358-.984-.275-3.366-.272-3.468l.209-.014c.123.613.381 1.188.758 1.69.375.482.598 1.063.647 1.667.266-.023.489-.164.612-.383.615-.857-.343-2.995-.564-3.451a7.57 7.57 0 0 1-1.17-2.938c-.604 2.859-1.599 5.618-2.959 8.207m-1.196 3.44a1.09 1.09 0 0 0-.609 1.089l-.206.037c-.057-.542.226-1.061.715-1.31.209-.108.386-.261.526-.451l.183.108a1.67 1.67 0 0 1-.609.525m1.001.78a1.33 1.33 0 0 1-.881 1.205l-.063-.201a1.1 1.1 0 0 0 .73-1.015c.009-.269.083-.533.215-.769l.177.114a1.47 1.47 0 0 0-.18.666m2.695-4.98c.043.261.149.508.309.723a1.47 1.47 0 0 1 .069 1.662l-.172-.125c.272-.442.246-1.004-.066-1.421a1.91 1.91 0 0 1-.349-.825l.212-.014h-.003zm1.591-3.607c.049.261.155.508.312.72.361.488.386 1.146.063 1.662l-.169-.119c.28-.44.255-1.007-.066-1.421-.183-.244-.3-.53-.349-.831l.209-.011zm-.183.55l.106-.008c.031.179.103.346.212.491a1.02 1.02 0 0 1 .046 1.2l-.166-.125a.84.84 0 0 0-.052-.959 1.36 1.36 0 0 1-.246-.593l.103-.008-.003.003zm-9.393 13.31a1.52 1.52 0 0 0-1.399.907c-.046.485-.009.976.112 1.449.475-.74 1.242-1.248 2.114-1.398a3.84 3.84 0 0 0 1.639-1.597 3.31 3.31 0 0 1-1.928.581l-.541.057m2.392.231l-.157.386a3.92 3.92 0 0 1-1.142 1.582l-.126-.173a3.79 3.79 0 0 0 1.064-1.489l.177-.428a3.67 3.67 0 0 1-1.293 1.038 9.54 9.54 0 0 0-.838 1.313c-.197.428-.535.774-.961.984.741.15 2.235.156 3.528-1.676a2.71 2.71 0 0 1-.26-1.537m6.961-11.214a2.86 2.86 0 0 0-.584-1.486c-.266-.323-.469-.692-.607-1.086a10.39 10.39 0 0 0 .272 2.674l.092.244c-.003-.252.026-.508.089-.751l.051-.227.135.187c.146.193.335.346.555.445" class="C"/><path d="M30.914 37.816c.063.476-.037.961-.283 1.375-.266.372-.086 1.279.532 2.694l.043.102a1.51 1.51 0 0 1-.094 1.432c-.243.25-.65.278-1.213.085-.1.564.06 1.143.435 1.577.358.298.939.318 1.717.054a4.74 4.74 0 0 1 .049-.967l.206.034c-.003.017-.269 1.676.484 2.445.509.57.91 1.225 1.182 1.937a6.23 6.23 0 0 0 .14-.689c.072-.627.043-1.262-.083-1.883a.36.36 0 0 1-.017-.079c-.009-.023-.014-.048-.023-.074-.155-.573-.426-1.109-.793-1.58l-.404-.465-.18-.162.043.006-.02-.025.3.062c2.569.513 3.848-.045 4.229-.264a5.47 5.47 0 0 0-2.524-.771c-1.362-.164-2.235-1.134-2.592-2.881-.183-.743-.575-1.421-1.127-1.957m2.06 6.815l.521 1.256a3.13 3.13 0 0 1 .229 1.509l-.206-.04a3 3 0 0 0-.22-1.39l-.521-1.254.197-.079v-.003zm.463-1.662l1.331.303a3.04 3.04 0 0 0 1.419-.014l.074.196c-.235.079-.481.116-.727.113a3.72 3.72 0 0 1-.815-.091l-1.331-.303.046-.199.003-.006zm-2.292 2.258l-.083.006a.92.92 0 0 1-.856-.7l.203-.051a.71.71 0 0 0 .692.542c0-.006.509-.159.346-.862a.8.8 0 0 1-.452.372c-.441.031-.838-.261-.936-.689l.203-.054c.009.023.157.59.692.542.003-.006.524-.162.338-.893l.203-.051a1.08 1.08 0 0 1-.034.734l.175-.042a.85.85 0 0 1-.446 1.126l-.054.023m.873-3.409l-.598-1.217a3.12 3.12 0 0 1-.326-1.495l.209.028a2.94 2.94 0 0 0 .303 1.376l.601 1.219-.189.091v-.003zm1.902-27.685l-.177-.749a2.49 2.49 0 0 0-1.496-.496 4.01 4.01 0 0 0-1.013.235l-.501.159c.355.102.692.258 1.001.459a2.61 2.61 0 0 0 2.183.391m-2.043-.488l-.097-.187c.592-.269 1.285-.179 1.785.235l-.137.159a1.48 1.48 0 0 0-1.554-.21" class="C"/><path d="M30.163 13.41a2.86 2.86 0 0 1-.667 0 3 3 0 0 0 2.043.468c-.409-.272-.884-.431-1.373-.465l-.003-.003zm-9.067 3.778a2.3 2.3 0 0 0-.106 1.897c.16.006.732-.048 1.986-.97a11.17 11.17 0 0 1 1.456-.942 4.46 4.46 0 0 1-2.369-.683 1.63 1.63 0 0 0-.97.695m1.657.428l-.032.207c-.289-.096-.604.06-.701.349a.54.54 0 0 0-.029.201h-.212a.86.86 0 0 1 .263-.598.84.84 0 0 1 .71-.156m-.398-.454l-.034.21a.56.56 0 0 0-.704.355.55.55 0 0 0-.026.193h-.212c-.017-.42.315-.771.738-.788a.77.77 0 0 1 .238.028m11.607-1.604l-.014-.281h.011a.88.88 0 0 1-.017-.125l-.275.34a3 3 0 0 1-.252.303l.504.207a.83.83 0 0 1-.011-.148c0-.102.017-.204.054-.301" class="C"/><path d="M52.942 34.872c-.16.275-.449.451-.77.471a1.21 1.21 0 0 1-.816-.411 1.42 1.42 0 0 0 .286 1.336c.263.213.624.269.938.145.478-.176.821-.596.898-1.098.072-.899-.106-1.801-.512-2.609.226.774.338 1.651-.029 2.164m-1.062.684a.67.67 0 0 0 .549.071.63.63 0 0 0 .32-.363l.2.065a.84.84 0 0 1-.438.488.69.69 0 0 1-.263.051c-.163-.006-.32-.048-.463-.125l.091-.187h.003zm.715.689a.67.67 0 0 1-.237.043 1 1 0 0 1-.483-.142l.1-.181c.16.108.361.139.547.085a.63.63 0 0 0 .332-.349l.197.074a.88.88 0 0 1-.458.471m-2.696 2.203a2.18 2.18 0 0 0-.103.689c.186.241.535.284.775.099.006-.006.014-.011.02-.017l.112.179a.94.94 0 0 1-.489.156.69.69 0 0 1-.395-.128 1.87 1.87 0 0 0 .358.848c.192.272.509.431.844.417.269-.065.481-.27.558-.53a.72.72 0 0 1-.381.108.78.78 0 0 1-.28-.048l.04-.094.04-.096c.286.108.607-.037.715-.321.003-.008.006-.02.011-.028.086-.53.08-1.072-.02-1.602-.183.513-.435.808-.752.871-.412.011-.804-.173-1.053-.496m-16.65 5.513a4.12 4.12 0 0 1 .95 1.843l.009.034.034.156a5.36 5.36 0 0 1 .091 1.838l-.063.448c1.373 1.792 2.887 1.761 3.585 1.625a3.23 3.23 0 0 1-1.079-1.214l-.818-1.256h.195c.964 0 1.814.976 2.137 1.401l.106-.448c.143-.763-.034-1.551-.489-2.184a1.9 1.9 0 0 0-1.202-.658l-.04-.009-3.282-1.551-.135-.02m2.535 2.116a2.38 2.38 0 0 0 .927.454c.753.17 1.328.78 1.448 1.537l-.212.02c-.106-.672-.618-1.211-1.288-1.356a2.5 2.5 0 0 1-1.024-.508l.146-.148h.003zm-.918 1.665a2.28 2.28 0 0 1 .661.803 1.52 1.52 0 0 0 1.474.871l.029.207a1.45 1.45 0 0 1-.218.014 1.8 1.8 0 0 1-1.474-.998 2.09 2.09 0 0 0-.589-.72l.117-.173v-.003z" class="D"/><path d="M49.017 38.289a6.4 6.4 0 0 0-.512 1.849 3.32 3.32 0 0 1-3.196 2.833l-.406.079c-.858.162-1.745.329-2.166 1.39a1.86 1.86 0 0 0 1.365-.02l.074.193c-.506.267-1.027.474-1.571.615a1.78 1.78 0 0 0-1.104.825 2.21 2.21 0 0 0-.169.352 2.05 2.05 0 0 1 1.236-.536l.555-.057c.916-.085 1.534-.145 2.226-.93l.009-.014.08-.088.175.114c-.011.017-.959 1.801-.02 3.105.117-.374.332-.709.627-.973a3.93 3.93 0 0 0 .773-2.189l.212.008a2.55 2.55 0 0 1-.014.181h.003c-.012.372.12.735.363 1.018a1.47 1.47 0 0 0 1.119.406 1.13 1.13 0 0 0 .836-.346 3.59 3.59 0 0 0 .681-2.164 1.24 1.24 0 0 1-.758.21.73.73 0 0 1-.512-.309c-.486-.686-.034-2.524-.014-2.603.009-.026.569-2.181.346-3.244-.1.079-.18.181-.235.298m-5.133 7.175c-.152 0-.306-.026-.449-.077l.083-.193a1.04 1.04 0 0 0 1.333-.601l.017-.051.192.088c-.177.496-.647.831-1.176.837m2.186.108a1.29 1.29 0 0 0-.195 1.466l-.18.105a1.52 1.52 0 0 1 .215-1.707c.177-.207.309-.451.381-.715l.209.034c-.074.301-.223.578-.426.814m.154-2.169a1.74 1.74 0 0 0-.795.164l-.109-.179a1.96 1.96 0 0 1 .904-.196 1.3 1.3 0 0 0 1.265-.786l.197.068c-.252.576-.83.942-1.462.927zm2.444 2.646c-.114 0-.223-.028-.323-.085-.249-.244-.286-.63-.086-.913l.175.111c-.137.199-.12.465.043.641.017.011.34.187.647-.264l.175.116c-.126.233-.363.38-.629.394zm.04-1.809l.175.113a.51.51 0 0 0 .037.638c.02.011.343.19.649-.261l.177.116a.76.76 0 0 1-.635.391.66.66 0 0 1-.32-.082c-.252-.244-.289-.632-.086-.919m-20.875-8.717c.069.156.206.275.372.321a.45.45 0 0 0 .366-.037 1.33 1.33 0 0 0 .469-.703l.049-.176.126.128a1.59 1.59 0 0 1 .449 1.509c-.094.479-.418.888-.867 1.092-.023.006-.049.014-.072.023.28.295.672.459 1.082.454.332-.048.612-.318.838-.803l.126-.272.072.292c0 .009.011.062.026.142a4.35 4.35 0 0 1 1.379 2.237 5.41 5.41 0 0 0 .343 1.109l.009-.006a2.17 2.17 0 0 0 2.312.783c-.309-.312-.529-.703-.632-1.129a10.68 10.68 0 0 0-.449-1.489h.011l-.063-.108-.752-1.185-.146-.252-.621-1.117-.106-.21-.615-1.279c0-.008-.003-.014-.009-.02a32.88 32.88 0 0 1-2.192-6.846 12.05 12.05 0 0 1-.956 4.728c-.575 1.293-.775 2.32-.547 2.819m4.796 3.457a2.35 2.35 0 0 1 .486.981c.134.644.652 1.14 1.308 1.248l-.02.207a1.83 1.83 0 0 1-1.494-1.407 2.15 2.15 0 0 0-.432-.885l.152-.145zm-2.295-2.901c-.026-.38.04-.76.186-1.112l.189.094a2.23 2.23 0 0 0-.166 1.004 1.87 1.87 0 0 1-1.064 1.806l-.074-.193c.615-.292.984-.93.924-1.602m-1.156-3.446l.203.045a2.32 2.32 0 0 1-.569.936c-.478.457-.618 1.16-.352 1.764l-.189.096c-.295-.683-.14-1.478.389-2.005a2.28 2.28 0 0 0 .518-.837zm1.995-22.769h.112c0 .003.266-.008.266-.008l-.26.207-.129.085a2.4 2.4 0 0 0 1.127-.207 2.48 2.48 0 0 0-1.545-.95c-.638-.176-1.319-.136-1.934.108a5.79 5.79 0 0 1 .601.173h.006l.629.252a3.47 3.47 0 0 0 1.122.34m-1.222-.664a1.71 1.71 0 0 1 1.74.474l-.16.139c-.378-.417-.964-.579-1.508-.42l-.071-.193zm-7.549 5.934a2.43 2.43 0 0 1-.415-.794h-.006c-.381-.556-1.113-.749-1.722-.46a.93.93 0 0 0-.664.783c-.023.482.166.947.518 1.279a1.35 1.35 0 0 1 .638-.82 2.04 2.04 0 0 1 1.651.009m-1.871-.695c-.512.204-.306.774-.298.8l-.197.074a.79.79 0 0 1 .389-1.055c.034-.023.429-.233 1.156.386l-.137.159c-.607-.519-.913-.363-.913-.363zm26.413-1.432l-.086.309-.2.735a2.76 2.76 0 0 0 .784-.383l.026-.023.132-.125.423-.383a2.26 2.26 0 0 0-1.09-.102l.009-.031.003.003zm-.447 3.218l.092-.045.043-.023a.47.47 0 0 0 .063-.04l.037-.026a1.23 1.23 0 0 0 .197-.167l-.089-.088-.089-.082a2.03 2.03 0 0 0-.226-.02v.057c-.003.017-.003.037-.003.054a1.15 1.15 0 0 1-.014.17l-.014.207m12.996-1.749c.275.162.421.474.369.786l-.103-.026-.103-.02c.051-.301-.154-.584-.458-.635a4.37 4.37 0 0 0-.784.454l.094-.008c.034-.006.072-.006.109-.006a1.27 1.27 0 0 1 1.153 1.041c.289-.369.438-.828.415-1.293a.85.85 0 0 0-.063-.221.68.68 0 0 0-.63-.068M24.836 8.336h-.006c.332-.624.189-.984.086-1.134a2.98 2.98 0 0 1-1.539 1.151l-.561.241c-.298.122-.532.363-.644.661-.132.502-.094 1.029.106 1.509a6.97 6.97 0 0 1 2.561-2.43m-1.413.272a1.86 1.86 0 0 0 .678-.434l.163.128a1.88 1.88 0 0 1-.767.496c-.506.17-.856.63-.878 1.157l-.212.011c.023-.618.426-1.157 1.016-1.358zm29.093 17.679a16 16 0 0 0-.114 1.653h.006c.003.011.423 1.495 1.602 1.495h.074a.65.65 0 0 0 .449-.19 6.41 6.41 0 0 1-.278-4.308l.077-.332.126.315c.369.715 1.039 1.231 1.828 1.407-.12-.323-.189-.661-.209-1.004 0-.479-.483-1.546-1.064-1.696l-.318-.082.306-.116c.558-.213 1.19-.105 1.642.281a1.12 1.12 0 0 0 .601.292.23.23 0 0 0 .16-.111 1.03 1.03 0 0 0 .02-.681 1.58 1.58 0 0 1-.775.111c-.504-.054-1.03-.338-1.053-.777l-.006-.102.106-.006c.011 0 1.133-.082 1.253-.907a2.47 2.47 0 0 0-.515-1.429h.003l-.541-.298a2.54 2.54 0 0 1 .515 1.347 1.03 1.03 0 0 1-.475.944c-1.164.735-2.432-.635-2.484-.695l-.149-.165.223-.009c.512-.02.836-.164.959-.425.295-.632-.578-1.772-.652-1.872a4.34 4.34 0 0 1-1.989-1.279 38.33 38.33 0 0 1 0 4.796l-.017.224c0 .037-.006.079-.009.125.961.913.841 2.11.698 3.502m2.461-2.121a1.62 1.62 0 0 0 .329.7l.478.607-.163.128-.481-.607a1.8 1.8 0 0 1-.372-.814l.209-.014zm-2.392-5.629l.93.695a2.65 2.65 0 0 1 .838 1.015l-.197.068a2.52 2.52 0 0 0-.767-.919l-.936-.706.129-.153h.003zm-.135 1.843a1.9 1.9 0 0 1 .349.823c.077.516.466.93.979 1.041l-.029.21a1.49 1.49 0 0 1-1.156-1.214 1.76 1.76 0 0 0-.303-.723l.16-.136zm.12 2.172l.203.054a1.48 1.48 0 0 0 .094.978c.286.834.366 1.724.232 2.595-.083.505-.146 1.843.501 2.033l-.063.198c-.953-.281-.658-2.178-.649-2.26a5.28 5.28 0 0 0-.209-2.479 1.64 1.64 0 0 1-.106-1.117m4.091-8.225a2.7 2.7 0 0 0 1.033-1.963c0-.559-.252-1.429-1.433-2.413-.092-.077-.169-.167-.232-.269l-.046.825c.003.014.006.028.006.043l-.209.025c-.189-1.489-1.794-1.523-1.86-1.523l-.446-.028c.295.315.784.888.784 1.174h-.1l-.077.065c-.618-.72-1.651-.655-3.07.179.063.091.24.25.707.213.169-.02.343 0 .501.068l-.083.193c-.126-.054-.263-.071-.398-.054h-.023a1.52 1.52 0 0 0-.81.462 1.1 1.1 0 0 1-.661.238c.63.681 1.674.786 2.429.244.424-.221.913-.286 1.379-.181l-.049.204a1.81 1.81 0 0 0-1.219.156 2.54 2.54 0 0 1-1.219.369c.421.621 1.291.417 1.88.278.126-.034.255-.057.386-.074a3.32 3.32 0 0 1 .318-.014 2.17 2.17 0 0 1 .701.096c.011.003 1.602.508 1.806 1.687m-4.138-2.844a1.76 1.76 0 0 1-1.001.369c-.237 0-.469-.065-.667-.196l.114-.176a1.29 1.29 0 0 0 1.422-.159c.235-.193.512-.329.807-.4l.034.21c-.26.062-.504.181-.71.354m1.365-.766c-.538-.457-1.288-.567-1.937-.287l-.094-.187c.727-.309 1.565-.184 2.169.318l-.137.156zm2.421-.091l.515.953a2.53 2.53 0 0 1 .318 1.194l-.212-.02a2.36 2.36 0 0 0-.289-1.075l-.518-.953.186-.099zm-1.722 1.86c-.403-.329-.97-.38-1.428-.128-.263.136-.555.216-.853.23h-.017l.014-.207a1.83 1.83 0 0 0 .761-.21 1.52 1.52 0 0 1 1.671.165l-.146.15h-.003zm.967-.576a1.89 1.89 0 0 1-.73-2.014l.197.062a1.69 1.69 0 0 0 .658 1.784c.315.232.572.533.753.882l-.195.077a2.36 2.36 0 0 0-.69-.794" class="D"/><path d="M33.969 14.36c-.046.014-.097.037-.16.062a4.65 4.65 0 0 1-2.303.363 4.95 4.95 0 0 1-1.236-.23l-.026-.014c-.753-.511-1.608-.848-2.506-.993-.512-.04-1.027.059-1.488.284.549.062 1.067.275 1.502.61a3.51 3.51 0 0 0 .727.423l.011.201c-.956.352-2.612.329-3.411-.221a.99.99 0 0 1-.475-.82c0-.621.446-1.151 1.064-1.256a1.88 1.88 0 0 0-1.27.108 1.36 1.36 0 0 0-.607 1.129c0 .04-.034 1.061 1.336 1.631l.286.119-.3.076c-.263.06-.529.088-.798.085-.532.011-1.056-.133-1.502-.42l-.006.006a2.73 2.73 0 0 0-1.628-.318l1.039 1.149a4.56 4.56 0 0 0 2.704.635 2.28 2.28 0 0 1 .795-.082l-.009.21-.252-.006h.003a2.9 2.9 0 0 0-.899 1.132 5.56 5.56 0 0 0 3.153-1.117c.352-.281.687-.587.999-.913a4.24 4.24 0 0 1 .655-.581 2.92 2.92 0 0 1 1.107-.335l.286-.051.04.204-.292.054-.011.011a2.37 2.37 0 0 0-.916 1.066c.375-.131.767-.196 1.165-.196a1.66 1.66 0 0 0 1.411-.947l.189.088a2.24 2.24 0 0 1-.306.457 2.31 2.31 0 0 0 .023.596 4.62 4.62 0 0 0 1.442-1.191 2.92 2.92 0 0 1 .552-.607c0-.008.006-.014.011-.02l-.094-.377-.006-.003zm-8.693 2.232a2.22 2.22 0 0 0-.984-.02c-.126.023-.255.031-.383.031a1.66 1.66 0 0 1-1.499-.783l.18-.105a1.61 1.61 0 0 0 1.662.649 2.44 2.44 0 0 1 1.09.026l-.069.198.003.003zm-.069 1.373v-.213a1.47 1.47 0 0 0 1.316-.842l.195.077a1.69 1.69 0 0 1-1.511.978zm3.273-2.133a1.11 1.11 0 0 0-1.236-.125 1.76 1.76 0 0 1-.747.196h-.026l.006-.105.006-.105a1.5 1.5 0 0 0 .664-.173 1.34 1.34 0 0 1 1.476.159l-.143.153zm.798-1.027a1.8 1.8 0 0 1-.704-.462c-.326-.36-.844-.485-1.302-.309l-.089-.187a1.42 1.42 0 0 1 1.542.355 1.68 1.68 0 0 0 .609.408l-.057.196zm.961 1.432h-.034l.006-.21h.029a1.4 1.4 0 0 0 1.285-.726l.192.085a1.59 1.59 0 0 1-1.476.851zm1.986.042l-.069-.196c.518-.162.896-.61.967-1.143l.209.011a1.58 1.58 0 0 1-1.107 1.33m17.241 11.538l-2.306-5.204-2.306 5.204-2.306-5.204-2.306 5.204-2.306-5.204-2.309 5.204-2.306-5.204-2.306 5.204-2.152-4.855.077.902.037.355.04.377.226 1.636h.006c0 .026 0 .051.006.074a34.07 34.07 0 0 0 2.458 8.406l.106.23.438.925.206.397.412.757.292.51.392.635.378.587.38.55.458.627.392.496.524.641.415.465.581.627.472.459.612.59.572.485.612.516.816.601.455.34 1.15-.848.189-.15 1.053-.888c.026-.023.043-.043.066-.065l.953-.913.103-.102.907-.984.097-.116.81-.99.034-.042.744-1.024.137-.201.632-.973.077-.125.512-.893.217-.397.323-.632.395-.82.129-.284c1.448-3.335 2.369-6.872 2.73-10.485a.47.47 0 0 0 .006-.062l.043-.457.04-.454.02-.218v-.011l-2.123 4.799-.003.003z" class="D"/><path d="M34.232 16.291c-.034 0-.069-.017-.094-.043s-.049-.059-.066-.094c-.043-.094-.063-.196-.063-.298a.7.7 0 0 1 .063-.295c.009-.017.017-.034.029-.048.026-.048.074-.082.132-.088.1 0 .215.179.215.431s-.114.434-.215.434zm5.915-.784c-.243.003-.441-.19-.444-.428a.44.44 0 0 1 .432-.44c.195 0 .369.122.426.306.014.043.023.085.023.13 0 .241-.197.434-.438.434m6.258.453a.63.63 0 0 1-.057.193c-.04.079-.097.125-.149.125-.12 0-.22-.199-.22-.434a.67.67 0 0 1 .011-.13c.029-.173.112-.303.209-.303s.143.079.183.21l.009.028.02.099.006.094a.8.8 0 0 1-.009.116m-9.883-.671c-.009-.176.092-.34.252-.414a.26.26 0 0 1 .103-.02.27.27 0 0 1 .114.026.44.44 0 0 1 .243.411.36.36 0 0 1-.28.425c-.194.04-.389-.082-.429-.278-.011-.048-.011-.099 0-.148m6.882.419a.4.4 0 0 1-.358-.434.5.5 0 0 1 .089-.284.33.33 0 0 1 .269-.15c.112.003.215.065.272.162a.49.49 0 0 1 .08.272c.023.215-.134.408-.352.434zm-19.718 7.306c.618.227 1.233-.088 1.68-.848-.478.136-.99.079-1.425-.153-.249-.196-.378-.505-.343-.82-.011-.644.303-1.251.841-1.614a1.92 1.92 0 0 0-1.602 1.642 1.49 1.49 0 0 0 .853 1.792m-.309-1.2a.67.67 0 0 0 .538.783.7.7 0 0 0 .255 0l.032.204a.57.57 0 0 1-.12.006c-.226.006-.446-.068-.621-.21a.97.97 0 0 1-.298-.786h.212l.003.003zm-.061 3.8a1.11 1.11 0 0 0 .893-.647 1.77 1.77 0 0 0 .011-1.384c-.057.153-.157.284-.286.383a1.04 1.04 0 0 1-.858.125 1 1 0 0 1-.695-.462c-.095-.167-.14-.357-.134-.55a1.96 1.96 0 0 0 .186 2.294 1.03 1.03 0 0 0 .887.235m-.993-.967l.172-.119a.9.9 0 0 0 .627.442c.235.011.461-.071.632-.23l.146.153c-.198.176-.449.278-.713.289-.029 0-.06 0-.089-.006-.326-.051-.612-.244-.775-.527m3.908 4.597a1.13 1.13 0 0 1-.512-.394 3.18 3.18 0 0 0 .312 1.486.56.56 0 0 0 .787 0l.029-.031.137.159a.89.89 0 0 1-.569.238c-.026 0-.049-.008-.074-.011a.95.95 0 0 0 .858.108c.627-.179.878-.766.927-1.5-.146.156-.349.244-.564.241-.029 0-.057 0-.086-.006l.034-.207c.052.009.503.062.621-.513a8.46 8.46 0 0 0-.08-.927c-.037.502-.312.953-.744 1.217a1.3 1.3 0 0 1-1.079.142" class="D"/><path d="M25.211 27.541c-.103.096-.223.173-.355.224a1.07 1.07 0 0 1-.366.065 1.58 1.58 0 0 1-.758-.221l.1-.187a1.14 1.14 0 0 0 .947.145c.258-.116.464-.323.572-.584.029-.34.009-.686-.063-1.021l-.052.111a1.2 1.2 0 0 1-.878.559 1.29 1.29 0 0 1-1.076-.162 1.05 1.05 0 0 1-.378-.652c-.034-.003-.063-.011-.097-.014-.197.689-.06 1.429.369 2.005.323.343.818.465 1.268.315a1.1 1.1 0 0 0 .758-.564c0-.006 0-.011.006-.02" class="D"/><path d="M34.238 14.582a1.36 1.36 0 0 1 .14-.077l.14-.062a5.94 5.94 0 0 1 .99-.269l-.964-1.634-.137-.232-.137-.233-1.21-2.048 1.084 4.617a.7.7 0 0 1 .092-.068m2.857-.624l.252-.026.149-.011.893-.062-.472-1.287-.08-.216-.08-.216-1.176-3.199-.495 3.176-.032.207-.032.21-.252 1.599 1.165-.159.157-.014m5.932-.036l.149.014h.008l.16.014.16.014.901.113-.072-1.305-.012-.227-.011-.227-.18-3.366-1.442 3.227-.089.198-.089.199-.564 1.265.933.057.149.011" fill="#c07d00"/><path d="M39.981 13.807h.547l1.021.02-.369-1.446-.054-.216-.057-.213-.867-3.403-.919 3.202-.063.216-.063.215-.475 1.659 1.147-.031h.152m7.599-3.659l.023-.059-1.302 1.917-.14.207-.14.207-1.17 1.724.057.011.501.108a4.19 4.19 0 0 1 .607.193l.14.062.14.082a.62.62 0 0 1 .083.068l1.259-4.634-.054.111-.003.003zm-1.625 4.896a11.35 11.35 0 0 0-2.853-.522l-.057-.006-.114-.008-1.508-.082-1.179-.02a30.84 30.84 0 0 0-3.654.199l-1.145.181-.258.057c-.32.062-.627.173-.91.332a.34.34 0 0 0-.155.173c.034-.02.072-.028.112-.031.18 0 .321.235.321.536s-.14.536-.321.536c-.029 0-.06-.006-.086-.02l.014.284c.521-.343 3.133-.834 6.086-.834 1.651-.028 3.302.108 4.924.406.258.054.512.125.758.215a1.6 1.6 0 0 1 .386.199l.017-.264v-.048a.23.23 0 0 1-.134.051c-.189 0-.329-.235-.329-.536 0-.031 0-.065.006-.096.026-.252.157-.442.323-.442.066 0 .129.031.172.079v-.017c-.011-.111-.157-.218-.415-.326m-9.079.785a.51.51 0 0 1-.464-.536c0-.156.06-.306.172-.417a.41.41 0 0 1 .575-.008c.006.006.011.011.017.02a.58.58 0 0 1 .157.406.5.5 0 0 1-.461.536m3.27-.215a.54.54 0 0 1-.541-.536c0-.184.094-.354.252-.451a.52.52 0 0 1 .289-.085.54.54 0 0 1 .541.536.54.54 0 0 1-.541.536zm3.262.201c-.275-.023-.483-.261-.463-.536a.59.59 0 0 1 .072-.287c.094-.213.343-.312.558-.218.103.045.186.13.226.235.043.085.063.179.063.272.02.272-.183.511-.458.536" fill="#c07d00"/><path d="M51.354 10.038a1.14 1.14 0 0 0-.149-.048 1.92 1.92 0 0 0-.981-.037 1.58 1.58 0 0 0-.627.318l-.132-.159a1.76 1.76 0 0 1 .589-.323l.169-.045c.135-.028.272-.043.409-.043a2.45 2.45 0 0 1 .973.213 5.44 5.44 0 0 1 .552-.218 3.96 3.96 0 0 0-1.562-.445h-.051c-.996.026-1.888.624-2.28 1.534.389-.159.804-.244 1.225-.255.326.037.658.023.981-.048.094-.026.186-.062.272-.111l.074-.045.535-.289m2.226 5.844a2.85 2.85 0 0 0 2.006.167 1.52 1.52 0 0 0 .821-1.03 1.53 1.53 0 0 0 .063-.377c.04-1.154-1.416-1.707-1.654-1.787a1.6 1.6 0 0 1 .16.72 1.51 1.51 0 0 1-.412.981c-.778.888-2.624.377-2.916.292-.229-.051-.449-.13-.658-.233l.094-.187a2.77 2.77 0 0 0 .589.213.28.28 0 0 0 .043.011 2.03 2.03 0 0 0 1.88-.527c-.781-.649-1.611-.547-3.127-.082a3.55 3.55 0 0 1-2.135.153c-.014 0-.032-.006-.046-.009v-.006c-.046-.017-.092-.037-.135-.062l.063-.088.057-.088a.7.7 0 0 0 .126.054c1.116.187 1.754-.825 1.934-1.171-.956-.218-1.951.108-2.587.848l-.166.159a3.25 3.25 0 0 1-.99.468l-.134.496a.77.77 0 0 1 .109.292v.057c0 .057-.011.113-.026.17h.009a5.61 5.61 0 0 1 .598.536 2.32 2.32 0 0 0 2.02.579 1.91 1.91 0 0 0-1.82-1.285l.023-.207a2.59 2.59 0 0 1 1.259.434 2.34 2.34 0 0 1 .97.635 1.81 1.81 0 0 0 1.548.303 1.97 1.97 0 0 0-1.159-1.035c-.146-.051-.28-.088-.421-.113l.034-.204a2.8 2.8 0 0 1 .429.111 3.53 3.53 0 0 1 2.281 1.29l.438.519c.767.944 1.333 1.634 3.076 1.512a2.34 2.34 0 0 1-.426-.786 2.28 2.28 0 0 0-1.227-1.288l.006-.011a4.01 4.01 0 0 1-.687-.235l.092-.19h-.003zm1.004-.545c.452.088.89-.201.979-.649a.85.85 0 0 0 .006-.295l.209-.025c.034.309-.06.618-.26.856a1.15 1.15 0 0 1-.87.321h-.072l.009-.207zm-1.348-1.262l-.095.187c-.506-.249-1.113-.187-1.556.159l-.14-.159c.509-.4 1.208-.471 1.788-.187m-3.256-.939l-.052.204c-.549-.13-1.127.065-1.482.502l-.169-.119c.406-.505 1.07-.732 1.705-.584m-2.415 2.184c.26.496.781.805 1.348.794l.014.207-.12.003a1.71 1.71 0 0 1-1.428-.913l.189-.091h-.003zm3.239.684l.017.207-.126.006c-.607-.031-1.147-.377-1.428-.913l.189-.094c.255.502.778.811 1.345.794m4.432 2.028a1.67 1.67 0 0 1-.395.048 1.97 1.97 0 0 1-1.517-.902c-.18-.287-.426-.527-.718-.703l.094-.19c.323.196.595.465.798.783.346.579 1.016.882 1.682.763l.051.201h.003zm-1.282-1.027c.235.394.69.604 1.145.522l.054.201a1.06 1.06 0 0 1-.283.037 1.43 1.43 0 0 1-1.09-.647 1.53 1.53 0 0 0-.489-.485l.097-.187a1.66 1.66 0 0 1 .569.556" class="C"/><path d="M57.615 15.625c.255-.221.569-.36.907-.397.029 0 .054-.006.083-.006.675-.006.907.664.976.956a1.1 1.1 0 0 1 .026.133l.034.224.149-.173c.006-.006.026-.031.057-.071a2.97 2.97 0 0 0 .321-.499 1.77 1.77 0 0 0 .22-1.063c-.003-.023-.011-.045-.014-.065-.089-.372-.335-.689-.672-.871a2.23 2.23 0 0 0-2.152-.179c.235-.372.361-.803.363-1.242a2.27 2.27 0 0 0-.126-.729 2.3 2.3 0 0 0 .335-1.869c-.258-.53-.727-.93-1.293-1.103l-.275-.111-.08-.031-.04-.017c-.086-.034-.169-.074-.246-.119a1 1 0 0 1-.429-.434.56.56 0 0 1-.043-.133c0-.014-.003-.026-.006-.034 0-.028-.006-.045-.006-.051l-.212.006c0 .031 0 .062.009.091a5.86 5.86 0 0 0 .335 1.466l-.029.615c-.272-.493-.741-.848-1.293-.976a2.7 2.7 0 0 0-.581-.096l-.979-.062.189.193.469.519.218.278c-.192-.111-.403-.181-.621-.207-.252-.028-.509-.011-.758.045-.226-.128-.461-.238-.707-.329a3.63 3.63 0 0 0-1.15-.25h-.057c-1.173.037-2.2.797-2.572 1.9l-.032.088-.054.148.229-.105.252-.102a4.72 4.72 0 0 1 .675-.199 1.68 1.68 0 0 1 .429-.037 4.53 4.53 0 0 0 .707.006h.02a1.62 1.62 0 0 0 .567-.145l.014-.006c.02-.008.037-.02.057-.031.02.028.043.057.069.082.049.051.106.091.169.125.049.026.097.045.152.062-.011.006-.023.014-.034.02a2.09 2.09 0 0 0-.372.281l-.057.051c-.02.02-.04.034-.063.048a1.3 1.3 0 0 1-.652.133l-.212-.008.063.091.057.085c.206.306.495.544.833.689.169.071.349.113.532.13.226.42.678.669 1.159.635a4.58 4.58 0 0 0 1.019-.148l.252-.054.103-.017.258-.014c.143 0 .283.009.426.026a1.35 1.35 0 0 1 .194.445c.037.156.046.315.023.474-.043.267-.166.516-.352.715-.469.391-1.096.547-1.697.42a2.33 2.33 0 0 0 1.122-.661l.052-.065.008-.011-.029-.025-.043-.04c-.183-.17-.395-.309-.627-.411-.598-.215-1.25-.23-1.854-.04-.283.062-.592.15-.93.255-.266.082-.535.148-.81.193l-.152.02-.052.006c.069-.031.134-.068.197-.111a2.57 2.57 0 0 0 .692-.644 3.08 3.08 0 0 0 .312-.519l.046-.114-.02-.006-.1-.023c-.781-.218-1.617-.088-2.292.354-.386-.164-.813-.227-1.23-.176l.827-3.043.472-1.424-.094-.048-1.891 2.793.006-1.656-1.482 2.121-.369-4.427-2.009 4.214-.421-1.509-.618 1.35-1.167-4.393-.584 1.926-.689 2.274-.486-1.18-.475 1.531-1.519-4.013-.103.011-.255 1.52-.438 2.635-1.382-2.172-.02 1.668-.349-.584-1.322-2.221-.097.04.372 1.489h-.006c0 .003.286 1.225.286 1.225l.535 2.283-.006-.017-.029-.113a2.48 2.48 0 0 0-1.431-.4.71.71 0 0 0-.135.011 4.46 4.46 0 0 0-.938.238l-.578.176a2.76 2.76 0 0 1-1.291.051l-.146-.034-.132-.014v.179l.031.031c.63.564 1.462.845 2.309.777a3.56 3.56 0 0 0 .458-.062c.406.235.861.371 1.331.4a4.42 4.42 0 0 1-.572.108 6.53 6.53 0 0 1-1.053.031 4.66 4.66 0 0 1-1.167-.218 7.28 7.28 0 0 0-2.032-.93 3.22 3.22 0 0 0-.569-.091c-.664-.062-1.325.105-1.874.479l-.197.162.258.023h.012a4.64 4.64 0 0 1 .961.204 1.9 1.9 0 0 1 .71.394l.034.023.515.329a4.3 4.3 0 0 1-.807.128c-.744.088-1.499-.054-2.16-.406-.123-.079-.223-.187-.298-.315a.68.68 0 0 1-.086-.335c0-.539.4-.995.938-1.069.126-.031.255-.048.383-.054l.283.108.117.054.029-.125a1.27 1.27 0 0 0 .026-.15c.026-.284-.054-.564-.226-.791l-.063-.082.197.099.229.119.08.042a7.7 7.7 0 0 0 1.413.613h.011l.212.054c.421.082.85.088 1.273.02.486-.071.961-.204 1.416-.397l-.037-.199a3.16 3.16 0 0 1-.689-.136l-.309-.105c.037.006.08.008.117.011.315.028.632.017.944-.037l.094-.017h.011l.083-.017.02-.006.074-.02.026-.006.063-.017.031-.008.057-.017.034-.011.049-.017.04-.014.043-.014.043-.014.034-.014.046-.017.031-.014.046-.02.029-.014.046-.02.026-.011.046-.02.02-.011.043-.02.02-.011.04-.02.02-.008.037-.02.017-.008.034-.02.017-.011.031-.017.017-.011.026-.014.017-.011.02-.014.017-.011.017-.011.017-.011.011-.006.017-.011h.006l.04-.028-.069-.142-.02-.04c-.023.006-.049.011-.074.014a2.73 2.73 0 0 1-.681 0c-.363-.04-.715-.15-1.036-.329a4.21 4.21 0 0 0-.621-.284l-.343-.119c.338-.031.667-.105.982-.227v.023l.14.023h.009c.361.054.73.037 1.082-.057a2.07 2.07 0 0 0 .509-.201l.043-.028.032-.02-.026-.06-.009-.023c-.011-.031-.326-.791-1.731-1.16-.197-.051-.398-.088-.604-.105a2.95 2.95 0 0 0-1.774.377h-.011a3.13 3.13 0 0 0-.286-.011c-.157 0-.312.009-.469.028l-.069.009-.255.04h-.02c.292-.292.495-.666.581-1.069l.014-.065.009-.054.006-.045h-.014l-.086-.017c-.913-.162-1.854-.048-2.701.323.238-.4.177-.908-.149-1.242l-.06-.048-.029-.023-.054.071-.012.014c-.355.562-.898.981-1.534 1.185l-.564.244c-.026.011-.052.026-.077.04h-.009c-.215.108-.395.267-.529.462-.057.085-.103.176-.137.272a1.79 1.79 0 0 0-.069.25c-.066.533.014 1.075.235 1.568a4.16 4.16 0 0 0-.369 2.277c.02.216.052.431.097.644-.329-.284-.764-.417-1.199-.36-.172.02-.341.062-.501.125-.186.065-.355.173-.492.309-.172.176-.278.403-.303.644-.029.434.1.862.363 1.208.1.139.223.264.366.36l.14.094.014-.116.006-.051s0-.02.012-.054a1.25 1.25 0 0 1 .429-.695c.043-.034.086-.062.132-.088l.011-.006.095-.043.959 1.064-.077.026a1.84 1.84 0 0 0-.655.406c-.1.096-.186.201-.258.318-.349.661-.389 1.441-.114 2.136l.009.023.006.025.034.011.017.006c.049.014.097.023.146.02a1.97 1.97 0 0 0 .781-.216c.461-.218.898-.485 1.305-.794.481-.374.999-.703 1.542-.981a2.51 2.51 0 0 1 .444-.159c-.292.275-.752.769-.752 1.186v.102h.097a5.65 5.65 0 0 0 3.225-1.027c-.052.34-.217.652-.466.891-.361.332-.801.567-1.279.683l-.509.136-.02.009-.332.085c-1.353.34-2.032.511-2.412 1.962-.089.326-.08.669.02.993.008.026.014.054.026.079l-.063.057a2.6 2.6 0 0 0-.85 1.597 2.66 2.66 0 0 0 .083.865c.072.295.226.562.444.774.014.014.032.026.046.04.08.068.172.125.269.167-.218.763-.063 1.58.415 2.215.275.306.681.468 1.093.434a2.94 2.94 0 0 0 .984 2.584l.283.258-.072-.221-.043-.139a3 3 0 0 1 .066-1.801c.052-.128.114-.25.189-.366l-.003.136a2.9 2.9 0 0 0 .541 1.883 1.05 1.05 0 0 0 .689.34 1.45 1.45 0 0 0 .518-.06c1.559-.448 1.082-2.898.767-4.523 0-.009 0-.014-.006-.023l-.054-.301-.026-.119-.04-.233a2.74 2.74 0 0 1-.031-.405c.069-.916.323-1.809.753-2.623l.069.845.02.199.023.244.02.224h-.006c.175 1.58.134 3.173-.12 4.742-.134.743-.366 1.463-.692 2.147l-.532 1.055-.054.102-.212.403c-1.371 2.686-.615 3.987-.229 4.427a1.81 1.81 0 0 0 .409.34c.114.071.238.125.366.167-.046.607.077 1.217.355 1.758.097.162.223.301.375.414a1.4 1.4 0 0 0 .83.255c.363-.008.724-.082 1.059-.221a7.64 7.64 0 0 0 .658 2.09l.043.102a1.87 1.87 0 0 1 .117.544c.037.235-.026.474-.169.664a.45.45 0 0 1-.146.096.81.81 0 0 1-.426.04 2.26 2.26 0 0 1-.386-.094l-.152-.054-.12-.048-.014.099-.006.026c0 .011-.014.077-.023.179v.014a3.06 3.06 0 0 0 .052.885 1.46 1.46 0 0 0 .463.82l.08.062c.501.275 1.099.309 1.628.094l.157-.048c.026.53.226 1.038.575 1.441.538.618.953 1.33 1.227 2.099l.014.043.092.267.069-.167.037-.094v-.006c.006-.017.034-.088.066-.204l.054-.199a4.96 4.96 0 0 0 1.124 1.044c.569.389 1.242.598 1.931.604.366.006.733-.057 1.076-.187l-.02-.068-.037-.13a.84.84 0 0 1-.63-.284c-.183-.176-.346-.371-.486-.584-.086-.125-.155-.241-.197-.326l-.601-.93c.916.15 1.72 1.234 1.866 1.444l.023.034.137.201.217-.916c.152-.825-.04-1.673-.535-2.354-.338-.397-.813-.658-1.33-.732l-.338-.159-2.361-1.117c2.375.23 3.33-.519 3.379-.559l.074-.062.031-.026-.114-.079c-.816-.539-1.765-.851-2.747-.896-.692-.062-1.322-.428-1.72-.992.303.218.655.363 1.024.42H34l.126.014a2.75 2.75 0 0 0 1.03-.119l.18-.054-.14-.125c-.34-.306-.581-.706-.701-1.146l-.029-.131c-.054-.25-.126-.505-.2-.729l.083.108.114.15.086.114.2.267.074.096.237.301.512.615.046.051.206.235.667.72.246.255.106.105.827.786.029.026.135.119.169.145.22.19.12.099.375.309.052.04.258.201 1.153.848.029.02h.066l.017-.014.009-.006 1.262-.925c.026-.02.049-.04.072-.062l.126-.105.956-.808.326-.306.735-.703.383-.406.592-.641.2-.238.223-.27.212-.258.252-.309.051-.071.303-.406.109-.15.343-.465.506-.766.052-.079.166-.258.217-.357.338-.579.043-.071.037-.062.006.008c.203-.218.444-.403.712-.539h.003l.014-.006.057-.023-.04.224c-.052.258-.135.511-.243.749l-.011.025a1.86 1.86 0 0 1-.449.61l-.36.284a5.74 5.74 0 0 0-1.236 1.185c-.398.562-.641 1.214-.712 1.897l-.011.099v.014h.114a1.38 1.38 0 0 0 .375-.062l.02-.006.063-.02.026-.008.063-.023a2.09 2.09 0 0 0 .598-.366 2.25 2.25 0 0 1-.112.389 2.39 2.39 0 0 1-.618.916l-.043.034c-.352.218-.75.355-1.162.391-.801.15-1.783.335-2.266 1.381l-.094.233-.009.023-.02.06.077.045c.246.122.515.184.79.184-.255.105-.515.19-.781.255a1.79 1.79 0 0 0-.209.062c-.429.165-.793.465-1.027.859-.052.085-.097.173-.137.264a3.75 3.75 0 0 0-.014 2.518l.074.269.077-.162.043-.088a3.06 3.06 0 0 1 1.834-1.458 9.34 9.34 0 0 0-.712 1.146c-.152.315-.383.587-.672.788-.166.125-.378.179-.584.145l-.043.125-.026.074c.363.139.75.207 1.139.201 1.247-.031 2.398-.683 3.059-1.733a2.16 2.16 0 0 0 .232.301l.069.077.192.213-.043-.201-.037-.179c-.003-.003-.072-.363.501-.976l.091-.096a2.92 2.92 0 0 0 .672-1.319l.043-.179a1.54 1.54 0 0 0 .203.383l.006.006a1.4 1.4 0 0 0 .103.125 1.68 1.68 0 0 0 1.276.471 1.42 1.42 0 0 0 .22-.017c.292-.043.561-.179.764-.391.458-.587.715-1.305.73-2.047l.017-.471-.006-.218-.169.139a1.32 1.32 0 0 1-.744.295h-.029c-.017 0-.037-.006-.054-.008a.51.51 0 0 1-.309-.221 1.43 1.43 0 0 1-.189-.749 7.16 7.16 0 0 1 .183-1.599l.02-.085a10.3 10.3 0 0 0 .358-3.278c.114.051.209.136.272.244-.135.343-.189.712-.154 1.081.034.388.18.757.421 1.066.223.315.587.502.973.499.023 0 .046-.006.069-.008a.83.83 0 0 0 .492-.284l.04-.043c.094-.119.169-.252.22-.397.432-1.157.049-2.663-.34-3.792.017.014.032.031.049.048.043.037.089.071.135.099.269.162.595.204.898.119.04-.009.08-.02.117-.034a1.61 1.61 0 0 0 1.036-1.256 3.11 3.11 0 0 0 .009-.922c-.2-1.103-.618-2.158-1.225-3.105l-.032-.043-.063-.085-.009-.014c-.006-.014-.011-.025-.017-.037l-.011-.026h-.009c-.195-.292-.363-.601-.512-.922l-.02-.045a7.4 7.4 0 0 1-.355-.947 6.13 6.13 0 0 1-.275-1.506l.18-.987.343-2.53.014-.128.072-.811c0-.026.006-.048.006-.074 0-.014 0-.028.006-.043s.003-.034.006-.051a2.18 2.18 0 0 1 .415.678c.223.82.255 1.679.094 2.513l-.06.615a10.83 10.83 0 0 0-.049 1.22 6.62 6.62 0 0 0 .06.752c.112 1.123.944 2.048 2.06 2.28l.177.025.194.009a1.72 1.72 0 0 0 .209-.011c.395-.023.747-.25.93-.596l.031-.079c.097-.275.132-.57.1-.862-.117-.712-.449-1.375-.956-1.895l-.22-.221.04.306c.011.091.02.181.02.272.02.329-.037.655-.166.959a5.43 5.43 0 0 1-.412-1.889c-.017-.329-.011-.661.014-.99a7.99 7.99 0 0 1 .126-.905c.074.116.157.224.252.326a3.22 3.22 0 0 0 1.723.973l.057.014.194.043-.074-.181c-.117-.306-.203-.621-.252-.944.02.031.043.057.063.085l.017.023.011.014c.3.403.787.624 1.291.59h.026a.75.75 0 0 0 .077-.014 1.2 1.2 0 0 0 .924-1.1 2.34 2.34 0 0 0-.246-1.39 2.72 2.72 0 0 0-.61-.785 1.2 1.2 0 0 0 .235-.4c.014-.037.026-.074.037-.116.346-1.313-1.001-2.498-4.117-3.627-.409-.142-.801-.326-1.17-.547a2.2 2.2 0 0 1-1.041-1.066v-.014c-.003 0-.014-.079-.014-.079h-5.248a.91.91 0 0 0-.097-.258h.006l.023-.34a1.47 1.47 0 0 0 .332-.17c.097-.065.186-.136.266-.221a2.57 2.57 0 0 0 2.249.536l.092-.028-.006-.031-.009-.051a1.71 1.71 0 0 0-.297-.647l.14.105a1.23 1.23 0 0 1 .192.193c.037.042.077.082.12.116.529.323 1.173.406 1.768.218l.092-.034-.02-.062-.009-.031c0-.006-.011-.037-.032-.085a2.08 2.08 0 0 0-.584-.783 3.46 3.46 0 0 1 .458.232 3.99 3.99 0 0 1 .924.783l.063.071.292.349.077.094c.584.715 1.076 1.319 2.06 1.523l.034.006.097.017c.426.062.858.068 1.285.017l.238-.026-.029-.023-.152-.133c-.069-.062-.129-.131-.183-.204-.103-.139-.192-.286-.26-.445-.029-.062-.054-.131-.077-.204-.043-.131-.1-.255-.172-.372a2.79 2.79 0 0 0-.652-.74l-.043-.034h.006a1.48 1.48 0 0 0 .16.006l-.006.031.14.028c.229.057.449.139.658.25.366.187.689.454.938.78a3.65 3.65 0 0 0 .438.477 2.64 2.64 0 0 0 1.843.723 3.53 3.53 0 0 0 .547-.045c.134-.02.275-.048.418-.085l.2-.054-.166-.13c-.432-.343-.795-.76-1.073-1.234-.332-.627-.913-1.083-1.602-1.259.069-.037.135-.079.197-.125l.183-.125m-2.864 13.723c.24-.366.352-.8.318-1.234a2.56 2.56 0 0 1 .607 2.311 1.02 1.02 0 0 1-1.147.539c-.077-.009-.16-.028-.246-.045.212-.057.398-.181.529-.355a1.11 1.11 0 0 0 .16-.848l-.203.051a.94.94 0 0 1-.126.678 1 1 0 0 1-.755.346 2.42 2.42 0 0 1-1.408-1.948l-.034-.292c.278.672.939 1.109 1.668 1.109a.87.87 0 0 0 .635-.309m3.774-4.279a.98.98 0 0 1-.824.93c-.667.02-1.265-.414-1.448-1.049-.132-.553-.446-1.044-.893-1.398a1.43 1.43 0 0 1 1.156.309c.203.193.464.315.741.355h.032c.132-.026.246-.102.312-.216a1.29 1.29 0 0 0 .034-.879v-.006a.66.66 0 0 0 .086-.062 2.34 2.34 0 0 1 .801 2.008m-.578-2.708c-.137.511-.632.84-1.159.777a.91.91 0 0 0 .438-.786l-.212-.02c.026.369-.258.689-.629.715h-.029a.79.79 0 0 1-.506-.403c.323-.051 1.213-.261 1.333-1.089-.012-.4-.109-.794-.283-1.154.881.632 1.227 1.282 1.047 1.957m-2.564-2.805v.008a2.32 2.32 0 0 1 .844 1.605.82.82 0 0 1-.383.763c-.793.502-1.691-.179-2.052-.502a1.04 1.04 0 0 0 .904-.525c.266-.567-.209-1.407-.489-1.832l1.179.485m-3.539 3.125l.017-.224c.1-1.597.1-3.199 0-4.798a4.34 4.34 0 0 0 1.989 1.279c.077.099.947 1.242.652 1.872-.12.261-.446.406-.959.425l-.223.008.149.165c.054.06 1.319 1.429 2.484.695.323-.204.506-.567.475-.944a2.55 2.55 0 0 0-.515-1.347l.541.298h-.003a2.47 2.47 0 0 1 .515 1.429c-.12.825-1.242.905-1.253.907l-.106.006.006.102c.023.439.547.723 1.053.777a1.58 1.58 0 0 0 .775-.111c.069.221.063.462-.02.681a.23.23 0 0 1-.16.111 1.12 1.12 0 0 1-.601-.292c-.452-.389-1.084-.496-1.642-.281l-.306.116.318.082c.584.15 1.064 1.22 1.064 1.696a3.36 3.36 0 0 0 .209 1.004c-.79-.176-1.459-.692-1.828-1.407l-.126-.315-.077.332c-.572 2.493.126 4.021.278 4.308a.67.67 0 0 1-.449.193h-.074c-1.179 0-1.6-1.48-1.602-1.495h-.006c.009-.553.049-1.106.114-1.653.146-1.387.263-2.589-.698-3.502l.009-.125m8.289-8.122a.85.85 0 0 1 .063.221c.023.465-.126.925-.415 1.293a1.27 1.27 0 0 0-1.153-1.041c-.037 0-.072 0-.109.006l-.094.008a4.3 4.3 0 0 1 .784-.454c.303.051.509.335.458.635l.1.02.103.026c.052-.312-.094-.624-.369-.786a.68.68 0 0 1 .63.068m-4.315-6.163a1.61 1.61 0 0 0 .561.346l.126.048c.515.196 1.219.471 1.448 1.089.135.525.049 1.083-.24 1.543-.297-.621-.738-1.165-1.287-1.588-.341-.411-.549-.913-.601-1.441m-4.981 1.968l-.074.045c-.086.048-.177.085-.272.111a3.09 3.09 0 0 1-.981.048c-.421.008-.836.096-1.225.255.395-.907 1.285-1.506 2.28-1.534h.052c.547.04 1.076.193 1.559.445a4.85 4.85 0 0 0-.552.218 2.45 2.45 0 0 0-.973-.213c-.137 0-.275.014-.409.043-.054.011-.112.026-.169.045a1.76 1.76 0 0 0-.589.323l.132.159c.183-.153.395-.261.627-.318a1.89 1.89 0 0 1 .982.037l.149.048-.538.289m3.342 2.221l-.318.014c-.132.017-.26.043-.386.074-.589.139-1.456.34-1.88-.278a2.54 2.54 0 0 0 1.219-.369 1.85 1.85 0 0 1 1.219-.156l.049-.204c-.466-.105-.956-.04-1.379.181a1.85 1.85 0 0 1-2.429-.244 1.12 1.12 0 0 0 .661-.238c.215-.233.498-.394.81-.462h.023c.134-.017.272 0 .398.054l.083-.193a1.01 1.01 0 0 0-.501-.068c-.469.037-.647-.125-.707-.213 1.419-.837 2.452-.899 3.07-.179l.077-.065h.1c0-.286-.492-.859-.784-1.174l.446.028c.069 0 1.674.037 1.86 1.523l.209-.025c0-.014 0-.028-.006-.043l.043-.822a1.22 1.22 0 0 0 .232.269c1.182.981 1.431 1.852 1.434 2.411-.046.771-.421 1.486-1.033 1.963-.203-1.18-1.797-1.685-1.805-1.687-.226-.071-.464-.105-.701-.096m-6.143.59l-.424.38-.132.125-.026.023a2.79 2.79 0 0 1-.784.383l.2-.735.086-.309-.009.034c.366-.057.741-.023 1.09.102m-1.648 1.537c-.026-.026-.054-.048-.083-.068a1.01 1.01 0 0 0-.14-.082c-.043-.023-.089-.043-.14-.062a4.56 4.56 0 0 0-.607-.193l-.501-.108-.054-.011 1.17-1.724.14-.207.14-.207 1.302-1.92-.023.059.054-.111-1.256 4.634h-.003zM32.707 8.543l1.574 2.646.137.23.137.23.878 1.469.072.125.203-1.211.034-.207.034-.204.684-4.078 1.494 3.962.08.213.08.213.378 1.004.412-1.367.063-.213.063-.213 1.205-3.968 1.107 4.172.057.213.057.213.326 1.228.529-1.112.092-.193.091-.193 1.891-3.973.346 4.166.017.218.017.218.106 1.262 1.15-1.696.14-.207.14-.207 1.765-2.609-.346 1.038-1.422 2.099-.14.207-.14.207-1.285 1.894-.229-.034-.08-1.463-.011-.227-.011-.227-.189-3.451-.103-.02-1.477 3.315-.089.201-.089.198-.63 1.418-.174-.006-.409-1.605-.054-.218-.054-.216-.93-3.658-.99 3.451-.063.216-.063.216-.521 1.821-.072.006-.532-1.449-.08-.216-.08-.216-1.196-3.258-.103.011-.504 3.259-.032.21-.032.21-.272 1.75c-.017 0-.032.006-.046.006l-1.076-1.818-.137-.232-.137-.233-1.279-2.158-.289-1.171.003.014zm11.688 5.527l-.901-.114-.16-.014-.16-.014h-.009l-.149-.014-.149-.011-.933-.057.564-1.265.089-.198.089-.201 1.442-3.227.18 3.366.011.227.011.227.069 1.302.006-.006zm-2.85-.244l-1.019-.02h-.698l-1.147.031.475-1.659.063-.216.063-.215.918-3.199.867 3.403.054.216.054.216.369 1.444zm-3.159.025l-.893.062-.149.011-.252.026-.157.014-1.164.159.252-1.599.031-.21.031-.207.495-3.176 1.176 3.199.08.216.08.215.472 1.288-.003.003zm-5.328-3.823l1.21 2.048.137.232.137.233.964 1.634a5.74 5.74 0 0 0-.99.269c-.051.02-.097.04-.14.062a1.34 1.34 0 0 0-.14.077c-.031.02-.063.043-.091.068l-1.087-4.62v-.003zm-3.565 3.378c.223.026.446.026.667 0a2.86 2.86 0 0 1 1.373.468c-.715.096-1.442-.071-2.043-.468m2.24.346c-.309-.201-.647-.357-1.001-.459.174-.045.34-.102.501-.159a4.01 4.01 0 0 1 1.013-.235c.541 0 1.064.173 1.496.496l.177.749c-.75.201-1.554.057-2.186-.391zm-.984-4.759c.618.111 1.17.448 1.545.95-.355.159-.741.23-1.127.207l.129-.085.26-.207-.266.011h-.114a3.53 3.53 0 0 1-1.122-.346l-.63-.252h-.006a6.38 6.38 0 0 0-.601-.173c.615-.247 1.293-.284 1.934-.108m-6.901-.964c-.037.011-.083.028-.14.051l.14-.051zm-1.677 1.228a1.15 1.15 0 0 1 .644-.661l.561-.241c.627-.204 1.167-.61 1.537-1.151.103.15.246.51-.086 1.129h.006c-1.05.581-1.931 1.418-2.558 2.433-.2-.479-.238-1.007-.106-1.509m.183 1.807l.029-.048v-.011c.269-.462 2.126-3.414 5.305-2.941-.117.525-.466.973-.95 1.217a11.24 11.24 0 0 0-2.75 1.35l.12.17c.821-.547 1.708-.987 2.644-1.305.017 0 .034-.011.049-.017.292-.091.589-.156.893-.193.561-.068 1.13-.006 1.662.187a7 7 0 0 0 1.474.559 3.33 3.33 0 0 1-1.345.286c-.152 0-.298 0-.446-.003h-.223c-.647-.045-1.293-.008-1.931.108l.063.199a7.77 7.77 0 0 1 1.868-.099h.203c.564.122 1.11.315 1.625.579a3.16 3.16 0 0 0 1.476.377c-.578.289-1.227.417-1.874.363a8.78 8.78 0 0 1-1.811-.414c-.481-.17-.979-.278-1.485-.323l-.011.207a5.92 5.92 0 0 1 1.433.318l1.002.281-.011.023c.418.221.861.388 1.322.496a4.5 4.5 0 0 1-2.183.221c-.581-.156-1.139-.389-1.66-.692a5.06 5.06 0 0 0-1.8-.683l-.017.207c.223.023.441.077.647.156v.006c.009.006.79.44.727 1.132a2.68 2.68 0 0 0-2.092-.071 1.55 1.55 0 0 0-.71 1.299c.026.74.481 1.401 1.167 1.693a2.17 2.17 0 0 1-2.604-1.523c-.332-1.024-.258-2.133.209-3.105m-1.614 4.061c-.312.179-.541.474-.638.82a1.65 1.65 0 0 1-.518-1.279c.043-.369.303-.678.664-.785a1.37 1.37 0 0 1 1.723.459h.006c.086.286.226.556.415.794a2.04 2.04 0 0 0-1.651-.009zm2.235 2.989c-1.253.922-1.826.978-1.986.97-.238-.618-.2-1.31.106-1.897a1.64 1.64 0 0 1 .97-.695 4.45 4.45 0 0 0 2.369.683 10.88 10.88 0 0 0-1.456.942m1.577.111c.197-.445.506-.837.898-1.129h-.003.252l.009-.21a2.28 2.28 0 0 0-.795.082 4.56 4.56 0 0 1-2.704-.635l-1.039-1.149a2.77 2.77 0 0 1 1.628.318l.006-.006c.446.286.97.434 1.502.42a3.58 3.58 0 0 0 .798-.085l.3-.076-.286-.119c-1.37-.57-1.339-1.591-1.336-1.631a1.36 1.36 0 0 1 .607-1.129c.398-.181.847-.221 1.27-.108-.618.105-1.067.638-1.064 1.256a.98.98 0 0 0 .475.82c.798.55 2.458.57 3.411.221l-.011-.204c-.258-.111-.504-.252-.727-.423-.435-.338-.956-.547-1.502-.61a2.9 2.9 0 0 1 1.482-.286c.898.145 1.754.482 2.507.993l.026.011c.401.128.815.204 1.236.23.79.076 1.585-.048 2.309-.366l.16-.062.092.383c-.006.006-.009.011-.011.02a2.89 2.89 0 0 0-.552.61c-.392.491-.881.896-1.442 1.191-.032-.196-.04-.397-.023-.596a2.03 2.03 0 0 0 .306-.457l-.189-.088c-.257.547-.801.913-1.411.947a3.61 3.61 0 0 0-1.165.196 2.35 2.35 0 0 1 .918-1.066l-.006-.008.309-.057-.04-.204-.286.051c-.386.037-.764.15-1.107.335-.238.17-.458.366-.655.581-.312.326-.647.63-.999.913a5.56 5.56 0 0 1-3.153 1.117m21.763-1.427l.014.02c.049.077.083.162.109.25h-.255c-.784-.414-3.139-.715-5.929-.715-1.107-.003-2.217.048-3.319.159-.898.037-1.783.227-2.615.559h-.275c.003-.091.037-.179.097-.25.02-.023.043-.045.069-.062.421-.284 2.867-.822 6.034-.822 1.648-.026 3.293.111 4.913.406l.069.014.069.02.04.009.209.045h.012c.12.034.237.077.352.125l.032.011a1.02 1.02 0 0 1 .375.218v.014zm.086-.828c-.009.068-.029.133-.057.193-.04.079-.097.125-.149.125-.12 0-.22-.199-.22-.434 0-.043.006-.088.011-.13.029-.173.112-.304.209-.304s.143.079.183.21c0 .008.006.02.009.028l.02.099.006.094c0 .04-.003.077-.009.116m-.04-.576c-.043-.048-.106-.077-.172-.079-.163 0-.295.187-.323.443l-.006.096c0 .301.143.536.326.536.052 0 .1-.02.137-.051v.048l-.017.264c-.12-.085-.249-.15-.386-.198-.249-.091-.501-.165-.761-.216a24.94 24.94 0 0 0-4.924-.405c-2.95 0-5.562.494-6.086.834l-.014-.284c.029.011.057.017.086.02.18 0 .321-.235.321-.536s-.14-.536-.321-.536c-.04 0-.077.011-.112.031.032-.074.086-.133.155-.173a2.97 2.97 0 0 1 .91-.332l.26-.057 1.145-.181c1.213-.136 2.432-.204 3.654-.199l1.179.02 1.508.082.114.008.057.006c.97.051 1.929.224 2.853.522.26.105.406.215.418.326l-.006.017.006-.006zm-12.138.04c.1 0 .215.179.215.431s-.114.434-.215.434c-.034 0-.069-.017-.094-.043s-.049-.06-.066-.094c-.043-.094-.063-.196-.063-.298a.7.7 0 0 1 .063-.295c.009-.017.017-.034.029-.048.026-.048.074-.082.132-.088zm-.315.579c-.172-.06-.34-.128-.506-.207.089-.097.172-.199.252-.303l.275-.34c0 .043.009.082.017.125h-.011l.014.278c-.037.096-.054.198-.054.301 0 .048.006.099.011.147m-11.073 5.218c.109-.839.761-1.506 1.602-1.642-.538.363-.853.97-.841 1.614a.92.92 0 0 0 .343.82c.438.233.947.289 1.425.153-.446.76-1.062 1.075-1.68.848-.701-.298-1.064-1.069-.853-1.792m-.329 1.503c.083-.099.172-.196.266-.281.177.352.478.624.844.768a1.41 1.41 0 0 0 .472.079v.006c-.02.198-.12.38-.275.505a.83.83 0 0 1-.69.094.79.79 0 0 1-.555-.36 1.16 1.16 0 0 1-.063-.808m-.072 2.649c-.358-.406-.524-.942-.461-1.475a1.87 1.87 0 0 1 .275-.82c-.006.193.043.383.134.55a1 1 0 0 0 .695.462 1.03 1.03 0 0 0 .858-.128c.129-.099.229-.233.286-.383.183.442.18.942-.011 1.384-.16.357-.501.601-.893.647-.318.062-.647-.023-.887-.235m.747 2.43c-.429-.576-.567-1.316-.369-2.005l.097.017c.04.258.175.491.378.652a1.29 1.29 0 0 0 1.076.162 1.2 1.2 0 0 0 .878-.559c.02-.034.034-.071.051-.113a3.5 3.5 0 0 1 .063 1.021c-.109.261-.312.468-.572.584a1.14 1.14 0 0 1-.947-.145l-.1.187a1.58 1.58 0 0 0 .758.221c.126 0 .249-.023.366-.065.132-.051.252-.128.355-.224 0 .006-.003.011-.006.02a1.1 1.1 0 0 1-.758.564c-.449.153-.944.028-1.268-.315m4.884.068a8.46 8.46 0 0 1 .08.927c-.117.576-.569.525-.621.513l-.034.207.086.006c.215 0 .418-.085.564-.241-.054.735-.3 1.322-.927 1.5-.286.102-.607.062-.858-.111.029 0 .049.011.074.011.212-.009.415-.091.569-.238l-.137-.159a.56.56 0 0 1-.784.057c-.012-.009-.02-.02-.032-.028a3.14 3.14 0 0 1-.312-1.486 1.19 1.19 0 0 0 .512.394 1.29 1.29 0 0 0 1.079-.142 1.56 1.56 0 0 0 .744-1.217m-2.309.604c.009-.088.029-.173.057-.255a9.88 9.88 0 0 0 .715-1.747c.032.207.08.408.149.607.501 1.441.12 1.979.114 1.988-.157.034-.32.023-.472-.031a1.1 1.1 0 0 1-.564-.559m2.91-11.426l-.011.091v.045c0 .02 0 .043-.006.074l-.014.17a.84.84 0 0 1-.006.082l-.014.196c0 .026-.003.054-.006.082l-.017.281-.02.445-.02.613-.009.559v.32l.072 2.345c-.006.009-.014.026-.031.054l-.037.065-.023.043-.052.099-.06.119c-.023.043-.043.091-.066.139l-.106.238-.037.088-.043.102-.126.332c-.22.57-.34 1.171-.358 1.781a2.5 2.5 0 0 0 .034.414l.04.241h-.006c0 .003.014.062.034.156l.032.156a5.44 5.44 0 0 1 .091.964l-.009.233-.023.233a2.59 2.59 0 0 1-.049.25 1.72 1.72 0 0 1-.089.267c-.04.099-.094.193-.157.281-.009.011-.017.025-.029.037-.043.054-.091.102-.143.147a.89.89 0 0 1-.175.116l-.163.077a1.81 1.81 0 0 0 .086-.579 3.7 3.7 0 0 0-.14-.97l-.06-.204-.072-.218c-.026-.071-.046-.142-.066-.215l-.052-.224c-.029-.156-.049-.312-.057-.468l-.011-.321a9.71 9.71 0 0 1 .601-3.015l.017-.048-.197-.065-.014.045a10.94 10.94 0 0 0-.575 2.408l-.017.187-.012.196-.006.21v.221l-.011-.006a10.04 10.04 0 0 1-1.084 2.603l-.089.145-.077.145c-.032.062-.063.131-.086.196l-.066.196c-.077.269-.117.547-.114.828a3.29 3.29 0 0 0 .043.53c-.117-.136-.223-.284-.312-.44l-.114-.218-.089-.216a2.82 2.82 0 0 1-.166-.956c0-.125.009-.25.026-.371l.157-.034a1.28 1.28 0 0 0 .893-.669c.097-.196.155-.408.172-.624a2.99 2.99 0 0 0 .017-.32 3.89 3.89 0 0 0-.086-.681l-.106-.454-.052-.179-.023-.074-.037-.111c-.009-.028-.017-.045-.02-.054l-.195.074c.04.116.06.238.063.363a.84.84 0 0 1-.02.19l-.029.096a.58.58 0 0 1-.043.096c-.163.252-.432.417-.733.448a1.09 1.09 0 0 1-.898-.119l-.052-.043c-.017-.014-.032-.031-.046-.045a1.19 1.19 0 0 1-.074-.094.88.88 0 0 1-.126-.292c.077 0 .152-.006.226-.017.461-.054.861-.343 1.053-.763.109-.238.166-.499.166-.76l-.003-.13c-.006-.088-.017-.176-.032-.261a2.32 2.32 0 0 0-.223-.638c.624-.164 1.127-.615 1.356-1.214l.106-.215-.235.071c-.009.003-.99.298-1.474-.062l-.049-.04c-.014-.014-.031-.028-.043-.045-.029-.031-.052-.065-.072-.102a.65.65 0 0 1-.063-.162c-.023-.099-.034-.201-.032-.303.032-1.251.993-1.625 1.565-1.852l.072-.026.524-.139c1.786-.505 1.906-1.662 1.909-1.94.346-.278.672-.576.984-.89a3.82 3.82 0 0 1 .621-.553 1.77 1.77 0 0 1 .561-.216 2.71 2.71 0 0 0-.449.505c-.029.04-.054.085-.08.128-.049.082-.089.167-.126.255l-.049.139-.037.145-.054.284.229-.187a2.34 2.34 0 0 1 1.267-.269 1.77 1.77 0 0 0 1.07-.4.98.98 0 0 0 .126.601l.054.051.063-.031a5.04 5.04 0 0 0 1.199-.842 5.68 5.68 0 0 0 .735.295l.029.53h.011a.3.3 0 0 0-.037.065c-.011.023-.02.045-.026.068-.012.045-.02.094-.026.142h-5.265l-.003-.006zm-1.599 19.965c-.358-.406-1.053-1.625.26-4.194l.263-.502a10.64 10.64 0 0 0 1.245-3.261 16.4 16.4 0 0 0 .229-2.45 12.4 12.4 0 0 1-.881 6.007c-.358.791-.898 2.235-.547 2.989.092.213.278.369.501.431a.67.67 0 0 0 .526-.051c.238-.159.415-.389.512-.655a1.37 1.37 0 0 1 .275 1.183 1.33 1.33 0 0 1-.73.942c-.59.207-1.245.034-1.654-.434m3.225 2.623c-.541.312-1.207.32-1.754.023-.652-.474-.658-1.614-.644-1.951.192.037.386.04.581.011a1.8 1.8 0 0 0 1.356.604 1.22 1.22 0 0 0 .85-.644c.086.474.003.961-.232 1.381a.99.99 0 0 0-.157.579m6.361 5.885l.04.009c.469.065.898.298 1.202.658a2.84 2.84 0 0 1 .489 2.184l-.106.448c-.323-.425-1.17-1.401-2.137-1.401h-.195l.818 1.256c.249.491.621.908 1.079 1.214-.701.136-2.212.167-3.585-1.625a8.35 8.35 0 0 0 .063-.445c.077-.613.046-1.234-.092-1.838-.008-.051-.02-.105-.034-.156 0-.011-.006-.023-.009-.034a4.13 4.13 0 0 0-.95-1.843l.134.02 3.282 1.554zm-2.029-2.884c.893.048 1.76.315 2.524.771-.375.218-1.66.774-4.226.264l-.3-.062.02.026-.043-.006.18.162.403.465a4.45 4.45 0 0 1 .793 1.58l.023.074c.003.026.009.054.017.079.126.618.155 1.254.083 1.883a6.25 6.25 0 0 1-.14.689c-.272-.712-.672-1.367-1.182-1.937-.752-.769-.486-2.428-.484-2.445l-.206-.034a4.76 4.76 0 0 0-.049.967c-.775.264-1.356.244-1.717-.054-.375-.437-.532-1.012-.435-1.577.564.193.967.164 1.213-.085a1.51 1.51 0 0 0 .094-1.432l-.043-.102c-.621-1.418-.801-2.323-.532-2.694.246-.414.346-.899.283-1.376.552.536.944 1.211 1.127 1.957.358 1.747 1.23 2.717 2.592 2.881m-.355-2.161c.103.425.323.817.632 1.129-.861.238-1.78-.074-2.312-.786l-.009.006a5.59 5.59 0 0 1-.343-1.109c-.215-.868-.698-1.651-1.379-2.237l-.026-.142-.072-.292-.126.272c-.226.485-.507.754-.838.803-.409.003-.801-.162-1.082-.454.023-.006.046-.017.072-.023.449-.204.773-.61.867-1.092.129-.544-.04-1.117-.446-1.509l-.126-.128-.049.176c-.074.278-.24.525-.469.703a.46.46 0 0 1-.366.037c-.166-.045-.303-.165-.372-.321-.229-.496-.029-1.523.547-2.819a12.05 12.05 0 0 0 .956-4.728 32.93 32.93 0 0 0 2.189 6.846l.009.02.615 1.279.106.21.621 1.117.146.252.752 1.185.063.105h-.011c.186.488.338.987.449 1.495m7.036 7.944c-.12-.474-.157-.964-.112-1.449.24-.553.79-.91 1.399-.907l.541-.057c.689.011 1.365-.193 1.928-.581-.372.686-.944 1.242-1.64 1.597-.873.15-1.639.658-2.114 1.398m.403 1.086c.423-.207.764-.556.961-.984.243-.459.524-.899.838-1.313a3.67 3.67 0 0 0 1.293-1.038l-.177.428c-.226.576-.592 1.086-1.064 1.489l.126.173a3.97 3.97 0 0 0 1.142-1.583l.157-.386a2.74 2.74 0 0 0 .26 1.537c-1.293 1.832-2.79 1.826-3.528 1.676m7.182-8.275c-.02.079-.469 1.917.014 2.603.117.173.306.286.512.309a1.24 1.24 0 0 0 .758-.21c.011.774-.226 1.534-.681 2.164a1.14 1.14 0 0 1-.835.346 1.47 1.47 0 0 1-1.119-.405 1.51 1.51 0 0 1-.363-1.018h-.003l.014-.181-.212-.008c-.029.788-.298 1.551-.772 2.189a2.16 2.16 0 0 0-.627.973c-.938-1.307.009-3.088.02-3.105l-.175-.114-.08.088h-.003c-.695.803-1.316.862-2.232.944l-.555.057c-.461.034-.898.224-1.236.536.046-.122.1-.238.169-.352a1.81 1.81 0 0 1 1.105-.825 6.68 6.68 0 0 0 1.556-.615l-.063-.193c-.435.181-.924.187-1.365.02.421-1.063 1.308-1.228 2.166-1.39l.406-.079a3.32 3.32 0 0 0 3.196-2.833c.077-.638.252-1.259.512-1.849.054-.116.135-.216.232-.298.223 1.063-.338 3.222-.346 3.244m2.818-1.554c-.092.289-.404.451-.695.36-.009-.003-.02-.006-.029-.011l-.04.096-.04.094a.73.73 0 0 0 .28.048.7.7 0 0 0 .381-.111c-.077.264-.289.465-.558.53-.335.014-.652-.142-.844-.417a1.84 1.84 0 0 1-.358-.848c.114.082.252.128.395.128a.94.94 0 0 0 .489-.156l-.111-.179c-.232.196-.581.167-.778-.062-.009-.008-.017-.02-.023-.028 0-.233.034-.468.103-.689.249.323.641.51 1.053.496.318-.065.566-.357.752-.871a4.64 4.64 0 0 1 .02 1.602m1.768-4.345c-.077.499-.421.919-.898 1.098-.318.125-.675.068-.938-.145-.318-.369-.426-.871-.289-1.336.206.238.498.386.816.411.321-.02.609-.196.77-.471.369-.513.255-1.387.029-2.164.406.805.584 1.707.512 2.609m-2.237-.859l-.052.227a2.91 2.91 0 0 0-.089.752l-.091-.244a10.14 10.14 0 0 1-.272-2.674c.137.394.34.763.607 1.086a2.83 2.83 0 0 1 .584 1.486c-.22-.102-.409-.255-.555-.445l-.137-.187h.006zm.959-3.156c.22.459 1.182 2.598.564 3.451a.76.76 0 0 1-.598.383c-.06-.607-.283-1.188-.661-1.67-.378-.499-.635-1.078-.755-1.69l-.209.014c0 .102-.086 2.484.272 3.468l.129.346a15.07 15.07 0 0 1 .661 2.053l-.012-.006c-.16.652-.401 1.024-.698 1.083-.444.094-.93-.519-.961-.559-.106-.213-.306-.363-.541-.408-.057-.017-.114-.017-.172 0h-.034v.011a.88.88 0 0 0-.363.411 6.46 6.46 0 0 0-.538 1.911c-.166 1.151-.976 2.11-2.089 2.473.507-.459.807-1.089.841-1.755v-.275l-.183.204c-.28.326-.664.547-1.09.624a4.07 4.07 0 0 1 1.848-2.811l.369-.292a3.09 3.09 0 0 0 .835-1.894l.011-.131-.132.014a1.53 1.53 0 0 0-.627.301 31.61 31.61 0 0 0 2.959-8.207 7.53 7.53 0 0 0 1.17 2.938m-.609-8.264l-.017.218-.04.454-.043.457c0 .02-.003.043-.006.062-.36 3.613-1.282 7.15-2.73 10.485l-.129.284a26.63 26.63 0 0 1-.395.82l-.326.635-.217.397a21.67 21.67 0 0 1-.512.893c-.026.04-.051.082-.077.125-.2.323-.409.649-.632.973l-.137.201a21.22 21.22 0 0 1-.744 1.024l-.034.042c-.258.335-.529.666-.81.99-.034.043-.063.08-.097.116a22.37 22.37 0 0 1-.907.984c-.031.034-.069.068-.103.102-.303.309-.621.613-.953.913l-.066.065c-.338.303-.69.601-1.053.888-.063.054-.129.099-.189.147a23.53 23.53 0 0 1-1.15.848c-.157-.111-.303-.227-.455-.34-.277-.199-.555-.394-.816-.601-.215-.17-.412-.343-.612-.516l-.569-.485c-.215-.19-.412-.394-.612-.59-.157-.153-.32-.301-.472-.459-.2-.204-.389-.417-.578-.627-.14-.159-.286-.309-.415-.465-.183-.213-.355-.428-.524-.641l-.392-.496c-.157-.207-.306-.42-.458-.627l-.381-.55c-.132-.196-.255-.391-.378-.587l-.392-.635c-.103-.17-.197-.34-.292-.51a19.52 19.52 0 0 1-.412-.757l-.206-.397-.438-.925-.106-.233a34.06 34.06 0 0 1-2.458-8.406c-.003-.026-.006-.048-.006-.074h-.014c-.092-.564-.163-1.109-.226-1.636l-.04-.377-.037-.355c-.032-.306-.054-.607-.077-.902l2.152 4.855 2.306-5.201 2.306 5.201 2.309-5.201 2.306 5.201 2.306-5.201 2.306 5.201 2.306-5.201 2.306 5.201 2.129-4.799v.011zm-5.102-5.765h5.113a35.12 35.12 0 0 1 .032 5.147l-2.169 4.892-2.306-5.204-2.306 5.204-2.306-5.204-2.306 5.204-2.306-5.204-2.309 5.204-2.306-5.204-2.306 5.204-2.192-4.946c-.109-1.696-.097-3.398.037-5.091h17.634l-.003-.003zm-.049-2.002c-.008-.011-.014-.023-.023-.031a.81.81 0 0 0-.235-.181c-.535-.244-1.107-.403-1.691-.471h-.011c-.223-.037-.466-.071-.727-.099-.335-.037-.698-.071-1.09-.099-.544-.037-1.139-.062-1.791-.071l-.572-.006h-.266a33.75 33.75 0 0 0-2.698.119l-.1.008-.172.017a17.74 17.74 0 0 0-1.402.19 8.54 8.54 0 0 0-.701.156c-.051.014-.1.028-.146.043-.212.057-.415.142-.601.255a.59.59 0 0 0-.14.125c-.008.008-.014.02-.02.028a.65.65 0 0 1-.014-.13.66.66 0 0 1 .034-.21l.006-.011a.26.26 0 0 1 .052-.085l.017-.017.066-.065a.16.16 0 0 1 .023-.017.91.91 0 0 1 .14-.091c.086-.045.175-.085.266-.116.318-.108.644-.19.973-.249l.086-.014c.381-.068.816-.128 1.293-.176l.157-.014.157-.014.152-.014a26.35 26.35 0 0 1 1.019-.068l.117-.006c.409-.02.835-.031 1.276-.034h.607c.392 0 .775.011 1.147.026l.212.008 1.064.062.149.011.217.02.16.014a16.31 16.31 0 0 1 .984.125l.046.006c.094.014.183.028.272.045a7.79 7.79 0 0 1 .335.062l.083.017a3.81 3.81 0 0 1 1.007.329.7.7 0 0 1 .14.102c.009.008.017.014.023.023.023.034.043.071.063.105.006.011.012.02.014.031s.02.04.029.062c.017.043.029.085.034.13 0 .057 0 .113-.014.17m.278.828c-.011.009-.026.017-.037.026s-.043.028-.063.04l-.043.023c-.031.017-.063.031-.091.045l.014-.207c.011-.057.017-.113.014-.17v-.111c.08 0 .154.006.229.02.031.028.06.054.089.082l.089.088a1.23 1.23 0 0 1-.197.167m6.853-.21l-.092.187c.22.099.449.179.687.235l-.006.011a2.29 2.29 0 0 1 1.227 1.287 2.36 2.36 0 0 0 .426.786c-1.742.125-2.306-.567-3.076-1.512-.137-.165-.277-.34-.438-.519a3.55 3.55 0 0 0-2.28-1.29 2.8 2.8 0 0 0-.429-.111l-.034.204c.14.026.278.06.409.105.524.179.944.55 1.17 1.041a1.8 1.8 0 0 1-1.548-.303c-.263-.289-.598-.508-.97-.635a2.6 2.6 0 0 0-1.259-.437l-.023.207c.824-.006 1.557.513 1.82 1.285a2.32 2.32 0 0 1-2.02-.579 5.62 5.62 0 0 0-.598-.536l-.006-.006-.003.006a.7.7 0 0 0 .026-.17v-.057a.75.75 0 0 0-.106-.292l.134-.496a3.27 3.27 0 0 0 .99-.468c.052-.043.106-.099.169-.159.632-.74 1.631-1.069 2.587-.848-.183.346-.818 1.358-1.934 1.171-.043-.011-.086-.031-.126-.054l-.057.088-.063.088c.046.025.092.045.14.062v.006a.64.64 0 0 0 .043.008c.71.17 1.456.116 2.135-.153 1.516-.465 2.346-.567 3.127.082a2.03 2.03 0 0 1-1.88.527l-.043-.011a2.52 2.52 0 0 1-.59-.213l-.094.187a2.97 2.97 0 0 0 .658.232c.292.085 2.137.596 2.916-.292.252-.267.398-.615.412-.981.003-.25-.052-.496-.16-.72.237.079 1.697.632 1.654 1.787a1.53 1.53 0 0 1-.063.377c-.103.448-.406.828-.824 1.029a2.85 2.85 0 0 1-2.006-.167m5.062 1.344c.246.448.575.845.973 1.174-1.067.281-2.2-.133-2.824-1.038-.363-.468-.855-.82-1.416-1.015a2.15 2.15 0 0 0 .297-.099c.129-.057.252-.133.358-.224.203.043.412.057.621.037v.014c.835-.045 1.617.408 1.989 1.151m-2.426-1.387a2.13 2.13 0 0 0 .392-.757 1.71 1.71 0 0 0 .077-.479 5.06 5.06 0 0 0 .552-.553c.678-.542 1.637-.57 2.349-.071.117.071.226.156.32.255-.827-.13-2.066.97-2.126 1.024-.103.062-.2.13-.295.198a1.56 1.56 0 0 1-1.27.38" class="B"/><path d="M38.546 14.13v-.009h-.004v.009h.004zm7.385 2.424l-.025-.011h-.005l.03.014" class="B"/><path d="M28.667 17.058h5.273c.006-.048.014-.096.026-.142a.33.33 0 0 1 .026-.068c.012-.023.023-.045.037-.065h-.011l-.029-.53a6.11 6.11 0 0 1-.735-.295c-.358.337-.761.621-1.199.842l-.063.031-.054-.051c-.103-.181-.149-.394-.126-.601-.3.25-.678.391-1.07.4a2.37 2.37 0 0 0-1.268.27l-.229.187.054-.284.037-.145.049-.139a1.77 1.77 0 0 1 .126-.255l.08-.128a2.6 2.6 0 0 1 .449-.505c-.197.04-.386.113-.561.216a3.82 3.82 0 0 0-.621.553 11.17 11.17 0 0 1-.979.896c0 .278-.126 1.435-1.908 1.94l-.524.139-.072.026c-.575.227-1.537.601-1.565 1.852-.003.102.006.204.031.303.014.057.034.111.063.162.02.037.043.071.072.102a.65.65 0 0 0 .043.045c.014.014.032.028.049.04.483.36 1.465.062 1.474.062l.235-.071-.109.216a2 2 0 0 1-1.356 1.214c.063.122.114.247.157.377a2.69 2.69 0 0 1 .063.261 2.08 2.08 0 0 1 .032.264l.003.131c0 .264-.054.522-.166.76-.192.42-.592.709-1.053.763a1.52 1.52 0 0 1-.226.017.83.83 0 0 0 .126.292.6.6 0 0 0 .074.094l.046.045.052.043a1.1 1.1 0 0 0 .898.119 1 1 0 0 0 .733-.448.58.58 0 0 0 .043-.096c.012-.031.02-.065.029-.096a.84.84 0 0 0 .02-.19c0-.122-.023-.247-.063-.363l.195-.074c.003.009.011.026.02.054l.037.111c.009.023.014.045.023.074l.052.179.106.454c.043.224.066.451.069.678a2.98 2.98 0 0 1-.017.32 1.75 1.75 0 0 1-.172.624c-.177.346-.506.596-.893.669l-.157.034c-.017.122-.029.247-.029.372s.009.255.026.38c.012.088.029.181.052.278s.054.199.089.298l.089.215.114.218c.089.156.195.303.312.437a3.29 3.29 0 0 1-.043-.53c0-.281.037-.559.117-.828l.066-.196.086-.196.077-.145.089-.145c.484-.814.85-1.69 1.084-2.603l.011.006v-.221l.006-.21.011-.196.017-.187a10.86 10.86 0 0 1 .575-2.408l.017-.045.197.065-.017.048a9.79 9.79 0 0 0-.601 3.015l.011.32c.009.156.029.312.057.468l.051.224.066.215.072.218.06.204c.089.315.137.644.14.97a1.89 1.89 0 0 1-.086.578 1.43 1.43 0 0 0 .163-.076 1.04 1.04 0 0 0 .175-.116c.052-.045.1-.094.143-.148.011-.011.02-.026.029-.037a1.36 1.36 0 0 0 .157-.281 1.82 1.82 0 0 0 .089-.267l.049-.25c.011-.077.02-.156.023-.233l.009-.233a5.2 5.2 0 0 0-.091-.964l-.032-.156-.034-.156h.006l-.043-.238c-.02-.136-.031-.275-.031-.414.017-.61.14-1.211.358-1.781l.126-.332.043-.102.037-.088.106-.238.063-.139c.017-.045.04-.082.063-.119s.034-.071.052-.099l.023-.043.037-.068c.014-.028.026-.045.032-.054l-.072-2.345v-.32l.009-.559.02-.613.02-.445.017-.281c0-.028.003-.057.006-.082l.014-.196c0-.028.006-.057.006-.082l.014-.17c0-.031.006-.054.006-.071v-.023-.023l.017-.091h.003zm-3.299 3.066l-.12-.17a2.08 2.08 0 0 1 .921-.289 1.38 1.38 0 0 0 1.253-.944l.203.051a1.62 1.62 0 0 1-1.436 1.103c-.289.02-.572.105-.824.25m.944 1.078c.149-.267.363-.491.621-.649l.649-.417.114.179-.649.417c-.223.139-.409.329-.541.556l-.194-.082v-.003zm1.273 2.646a1.88 1.88 0 0 0-.069.899l-.203.06a2.03 2.03 0 0 1 .072-1.021l.275-.848.203.062-.278.851v-.003zm-.366-2.544c-.223.142-.406.332-.541.559l-.192-.085a1.81 1.81 0 0 1 .621-.65l.655-.417.112.176-.652.42-.003-.003z" class="C"/><path d="M40.404 14.604a.54.54 0 0 0-.775.323.51.51 0 0 0-.02.147.541.541 0 1 0 1.082 0 .54.54 0 0 0-.283-.474m-.26.907c-.243 0-.438-.196-.438-.434 0-.048.009-.099.026-.145.08-.224.326-.34.552-.264a.43.43 0 0 1 .269.278c.014.043.023.085.023.13 0 .241-.197.434-.438.434m-3.263-.754a.41.41 0 0 0-.292.125c-.112.111-.175.261-.172.417-.04.252.135.491.389.53a.47.47 0 0 0 .535-.386.41.41 0 0 0 0-.145c0-.15-.054-.298-.157-.405a.43.43 0 0 0-.303-.133m0 .97a.4.4 0 0 1-.355-.434c-.009-.176.092-.34.252-.414.032-.014.069-.02.103-.02a.27.27 0 0 1 .114.026c.154.077.249.238.243.411a.4.4 0 0 1-.355.434m6.527-.991a.45.45 0 0 0-.392.252.62.62 0 0 0-.072.286c-.04.252.132.488.386.53s.492-.13.535-.383a.41.41 0 0 0 0-.148.6.6 0 0 0-.063-.272c-.069-.156-.223-.261-.395-.269m0 .975a.4.4 0 0 1-.358-.434.5.5 0 0 1 .089-.284c.06-.091.16-.147.269-.15.112.003.215.065.272.162a.49.49 0 0 1 .08.272c.023.216-.134.408-.352.434zm-15.778 3.063l-.203-.048a1.39 1.39 0 0 1-1.253.944 2.03 2.03 0 0 0-.921.289l.12.17a1.99 1.99 0 0 1 .824-.25 1.62 1.62 0 0 0 1.436-1.103m5.891 28.587l.206.04a3.17 3.17 0 0 0-.229-1.509l-.521-1.256-.194.079.521 1.254a3 3 0 0 1 .22 1.39" class="B"/><path d="M33.12 39.96c-.08-.36-.249-.698-.486-.981l-.152.145a2.19 2.19 0 0 1 .432.885c.16.729.752 1.285 1.494 1.407l.02-.207c-.655-.108-1.176-.604-1.308-1.248zm-.896-23.679a1.58 1.58 0 0 0 1.107-1.33l-.209-.011a1.39 1.39 0 0 1-.967 1.143l.069.196v.003zm3.11 32.366c.28.567.838.947 1.474.998a1.41 1.41 0 0 0 .218-.017l-.029-.207c-.627.04-1.21-.306-1.474-.871-.154-.315-.38-.59-.661-.803l-.117.173a2.13 2.13 0 0 1 .589.723m10.575-3.198a1.52 1.52 0 0 0-.215 1.707l.18-.105a1.29 1.29 0 0 1 .195-1.466 1.93 1.93 0 0 0 .426-.811l-.209-.034c-.072.264-.2.508-.38.715" class="B"/><path d="M43.52 45.202l-.083.193c.652.238 1.376-.094 1.617-.74 0-.006.006-.014.009-.02l-.192-.088c-.172.542-.752.842-1.299.672l-.051-.017zm-5.577 2.893l.212-.02c-.12-.757-.695-1.364-1.448-1.537a2.35 2.35 0 0 1-.927-.454l-.146.147c.298.244.647.42 1.024.508.67.145 1.182.684 1.288 1.356m-6.472-3.968a1.08 1.08 0 0 0 .034-.734l-.203.051c.189.732-.335.888-.338.893-.535.045-.687-.519-.692-.542l-.206.054c.097.428.495.72.936.689a.82.82 0 0 0 .449-.371c.163.703-.343.856-.346.862a.71.71 0 0 1-.692-.542l-.206.051c.097.394.444.681.855.7.029 0 .054 0 .083-.006.449-.159.684-.649.524-1.095a.31.31 0 0 0-.023-.054l-.177.042h.003zm-4.369-23a1.83 1.83 0 0 0-.621.649l.192.085c.132-.227.318-.417.541-.559l.652-.42-.112-.176-.655.417.003.003zm.28 2.657c-.112.329-.137.681-.072 1.021l.203-.059a1.92 1.92 0 0 1 .069-.899l.277-.848-.203-.065-.275.848v.003z" class="B"/><path d="M27.045 20.726l.65-.417-.114-.179-.649.417c-.26.162-.475.386-.621.649l.192.082a1.6 1.6 0 0 1 .541-.556M46.23 43.2a1.96 1.96 0 0 0-.904.196l.106.179a1.75 1.75 0 0 1 .795-.164c.632.014 1.21-.352 1.462-.927l-.197-.068c-.212.499-.718.814-1.265.788m-17.891-6.246a1.11 1.11 0 0 0 .753-.34l-.155-.142a.96.96 0 0 1-.615.272c-.266-.028-.506-.173-.655-.394l-.163.131a1.11 1.11 0 0 0 .816.471h.023l-.003.003zm2.964 2.186l-.209-.028a3.15 3.15 0 0 0 .323 1.497l.598 1.217.189-.091-.601-1.22a2.94 2.94 0 0 1-.303-1.375m-1.723-.054h-.023a.9.9 0 0 1-.652-.394l-.163.13a1.1 1.1 0 0 0 .81.471h.029c.286-.014.555-.136.753-.34l-.154-.139a.93.93 0 0 1-.598.272zm5.966 4.48a2.12 2.12 0 0 0 .727-.114l-.074-.196a3.04 3.04 0 0 1-1.419.014l-1.331-.301-.049.201 1.331.303a3.91 3.91 0 0 0 .816.091zm18.215-21.107l.029-.21c-.512-.114-.901-.527-.979-1.044-.049-.298-.169-.578-.349-.822l-.16.136a1.76 1.76 0 0 1 .303.723c.1.601.558 1.083 1.156 1.214m1.868 3.133l.163-.128-.478-.607a1.6 1.6 0 0 1-.329-.7l-.209.014a1.83 1.83 0 0 0 .372.814l.481.607z" class="B"/><path d="M54.161 20.309l.197-.068a2.66 2.66 0 0 0-.838-1.015l-.93-.695-.126.167.933.695c.326.241.59.556.767.919m-1.273 5.848c-.009.082-.303 1.982.649 2.26l.063-.198c-.647-.187-.581-1.529-.501-2.033a5.45 5.45 0 0 0-.232-2.598 1.48 1.48 0 0 1-.094-.978l-.203-.054a1.64 1.64 0 0 0 .106 1.117 5.28 5.28 0 0 1 .209 2.479m-.366 9.894c-.186.054-.386.023-.547-.085l-.1.181a1.03 1.03 0 0 0 .484.142.67.67 0 0 0 .237-.043.87.87 0 0 0 .458-.471l-.197-.071a.63.63 0 0 1-.332.349m3.779-19.686l-.086.187a2.23 2.23 0 0 1 .73.672c.341.485.881.791 1.474.837a1.55 1.55 0 0 0 .441-.062l-.06-.199c-.652.139-1.325-.136-1.685-.695a2.34 2.34 0 0 0-.816-.74m1.313 8.925c-.515.111-.747-.431-.758-.454l-.192.079c.134.34.455.57.821.59.066 0 .129-.006.192-.023a.85.85 0 0 0 .378-1.149l-.029-.051-.194.077c.28.701-.215.925-.22.927m-2.058-13.365a2.37 2.37 0 0 1 .69.794l.195-.076a2.52 2.52 0 0 0-.752-.882c-.567-.406-.827-1.112-.658-1.784l-.197-.062a1.89 1.89 0 0 0 .73 2.014m-3.185 22.541l.169.119a1.47 1.47 0 0 0-.063-1.662 1.75 1.75 0 0 1-.312-.72l-.209.014a1.88 1.88 0 0 0 .349.825c.32.414.346.981.066 1.421m-3.579 10.701c.097.054.209.082.32.082a.76.76 0 0 0 .635-.391l-.177-.116c-.306.451-.63.272-.649.261a.51.51 0 0 1-.037-.638l-.175-.114c-.203.284-.169.675.086.919m1.917-8.513a1.26 1.26 0 0 1 .066 1.418l.172.125a1.47 1.47 0 0 0-.069-1.662c-.157-.213-.263-.459-.309-.72l-.212.014a1.91 1.91 0 0 0 .349.825m-2.235 9.154c-.163-.179-.18-.442-.043-.641l-.175-.111c-.2.284-.163.672.086.913a.64.64 0 0 0 .323.085.75.75 0 0 0 .63-.394l-.174-.116c-.306.451-.627.275-.647.264zm-.804-5.029a1.11 1.11 0 0 1-.73 1.015l.063.201c.515-.184.864-.661.881-1.205a1.51 1.51 0 0 1 .18-.666l-.177-.116c-.132.235-.206.499-.215.769" class="B"/><path d="M52.51 35.821a.83.83 0 0 0 .438-.488l-.2-.065c-.054.156-.172.286-.321.363-.186.057-.386.031-.549-.071l-.094.187c.143.077.3.119.463.125a.65.65 0 0 0 .263-.051zm-.326-1.504l.166.125a1.02 1.02 0 0 0-.046-1.2c-.106-.145-.177-.315-.212-.491l-.106.008-.103.008a1.33 1.33 0 0 0 .252.593.84.84 0 0 1 .052.959m.956-20.06l.094-.187a1.69 1.69 0 0 0-1.788.187l.14.159c.444-.346 1.05-.408 1.557-.159m-29.675 8.343a.95.95 0 0 0 .621.21l.12-.006-.032-.204c-.366.071-.721-.167-.793-.53a.62.62 0 0 1 0-.25h-.212c-.026.292.083.581.298.786m8.055-12.794l.16-.139a1.7 1.7 0 0 0-1.74-.474l.072.193c.544-.159 1.127.003 1.508.42z" class="B"/><path d="M49.924 13.336l.051-.204c-.635-.147-1.299.079-1.705.584l.169.119a1.48 1.48 0 0 1 1.482-.502M47.497 39.49l-.183-.105a1.52 1.52 0 0 1-.526.448c-.486.249-.77.771-.715 1.31l.206-.037a1.09 1.09 0 0 1 .609-1.089c.243-.125.452-.303.609-.525m-22.289-21.74v.213c.652-.011 1.239-.391 1.511-.978l-.195-.076a1.47 1.47 0 0 1-1.316.842zm5.133 18.33a1.62 1.62 0 0 1-.924 1.602l.074.193c.692-.332 1.116-1.047 1.064-1.806a2.23 2.23 0 0 1 .166-1.004l-.189-.093a2.46 2.46 0 0 0-.189 1.109" class="B"/><path d="M30.204 16.027l-.006.21h.034a1.59 1.59 0 0 0 1.476-.851l-.192-.085c-.252.465-.753.749-1.285.726H30.2h.003zm22.189-4.695a1.29 1.29 0 0 1-1.422.159l-.114.176a1.23 1.23 0 0 0 .667.196 1.76 1.76 0 0 0 1.002-.369 1.72 1.72 0 0 1 .71-.352l-.034-.21a2.05 2.05 0 0 0-.807.4zm-18.83 2.371a1.71 1.71 0 0 0-1.786-.235l.097.187a1.48 1.48 0 0 1 1.554.21l.137-.162h-.003zm15.239 2.623l.12-.003-.014-.207c-.564.011-1.087-.295-1.348-.794l-.189.091a1.71 1.71 0 0 0 1.428.913m6.976-1.958l-.209.025c.074.451-.235.874-.687.947a.81.81 0 0 1-.298-.006l-.009.207h.072a1.13 1.13 0 0 0 .87-.32c.2-.238.295-.547.26-.857m-2.277 2.704c-.203-.318-.475-.584-.798-.783l-.094.19a2.2 2.2 0 0 1 .718.703 1.98 1.98 0 0 0 1.517.902 1.67 1.67 0 0 0 .395-.048l-.051-.201a1.63 1.63 0 0 1-1.685-.763zm3.434-4.302l.212.02c-.006-.417-.114-.828-.318-1.194l-.515-.953-.189.099.518.953a2.36 2.36 0 0 1 .289 1.075m-1.373 8.4a.98.98 0 0 0-.063-.751l-.189.102a.76.76 0 0 1 .054.576.8.8 0 0 1-.512.42l.072.196a.98.98 0 0 0 .638-.542z" class="B"/><path d="M53.065 12.182a1.83 1.83 0 0 1-.761.21l-.014.207h.017a2.08 2.08 0 0 0 .853-.23c.455-.252 1.021-.204 1.428.125l.146-.15a1.52 1.52 0 0 0-1.671-.165m-1.206-1.923l.094.187a1.86 1.86 0 0 1 1.937.286l.137-.156c-.604-.502-1.442-.627-2.169-.318zm1.429 6.378a1.55 1.55 0 0 1 .486.485 1.42 1.42 0 0 0 1.09.647c.097 0 .192-.011.283-.037l-.054-.201a1.11 1.11 0 0 1-1.145-.522 1.72 1.72 0 0 0-.569-.556l-.094.184h.003zm-4.017-1.329a1.71 1.71 0 0 0 1.428.913l.126-.006-.017-.207c-.567.017-1.09-.292-1.345-.794l-.189.094h-.003zm-27.892 2.621h.212c-.011-.306.226-.564.535-.576a.64.64 0 0 1 .195.026l.034-.21c-.406-.113-.833.119-.947.525a.72.72 0 0 0-.029.235zm8.864-6.617l-.089-.187a1.49 1.49 0 0 1-1.545-.258l-.14.156c.318.269.715.423 1.133.434.223 0 .441-.048.641-.148m-9.812 2.943a.79.79 0 0 0-.403 1.049l.203-.065c-.009-.026-.215-.596.298-.8 0 0 .306-.156.913.363l.137-.159c-.727-.621-1.122-.408-1.147-.391m3.524 1.3l.052-.204c-.658-.221-1.11-.822-1.133-1.509a2.41 2.41 0 0 0-.332-1.1l-.172.119a2.21 2.21 0 0 1 .292.993c0 .014.086 1.401 1.29 1.699m.304.82c-.635.139-1.293-.116-1.662-.649l-.18.105c.318.513.893.814 1.499.783a2.16 2.16 0 0 0 .383-.031 2.18 2.18 0 0 1 .984.02l.069-.199a2.44 2.44 0 0 0-1.09-.026m-1.059 8.81c.266-.011.518-.113.712-.289l-.146-.153c-.172.159-.398.241-.632.23-.266-.048-.495-.21-.627-.442l-.172.119c.163.284.449.476.775.527a.29.29 0 0 0 .089.006M57.583 10.48l.206-.037a1.68 1.68 0 0 0-1.236-1.305l-.043.204a1.47 1.47 0 0 1 1.073 1.134" class="B"/><path d="M21.777 18.37h.212a.55.55 0 0 1 .73-.547l.032-.207a.85.85 0 0 0-.71.156c-.166.156-.26.372-.263.598zm7.025-5.956a1.4 1.4 0 0 0 .495-.088l-.069-.196a1.47 1.47 0 0 1-1.502-.425l-.16.142c.323.343.767.547 1.239.567m-.138 21.058a1.81 1.81 0 0 0-.392 2.002l.189-.096c-.266-.601-.126-1.304.352-1.764a2.31 2.31 0 0 0 .569-.936l-.203-.045a2.2 2.2 0 0 1-.518.837m-.091-19.127a1.8 1.8 0 0 0 .704.462l.057-.199a1.64 1.64 0 0 1-.609-.405 1.41 1.41 0 0 0-1.542-.354l.089.187c.458-.176.976-.051 1.302.309zm-3.074-5.289a1.29 1.29 0 0 1 1.425-.281l.1-.179c-.567-.247-1.23-.125-1.668.309-.195.19-.429.335-.69.42l.046.204a2.01 2.01 0 0 0 .79-.476m-.864 3.052a1.18 1.18 0 0 1 1.268.414l.177-.113a1.42 1.42 0 0 0-1.497-.502 1.67 1.67 0 0 1-.741.031l-.054.199a1.82 1.82 0 0 0 .847-.028zm3.843 3.73l.146-.153a1.35 1.35 0 0 0-1.477-.159 1.51 1.51 0 0 1-.664.173l-.006.105-.006.105h.026a1.76 1.76 0 0 0 .747-.196c.398-.216.89-.167 1.236.125m-5.862-5.878a1.28 1.28 0 0 1 .878-1.157c.292-.102.555-.272.767-.496l-.163-.128a1.84 1.84 0 0 1-.678.434 1.5 1.5 0 0 0-1.016 1.358l.215-.011h-.003z" class="B"/></g><path d="M25.269 58.844a3.44 3.44 0 0 1 .04-.51 5.66 5.66 0 0 1 .14-.59l.24-.67.72.28-.18.53-.11.47a3.12 3.12 0 0 0-.03.42c0 .28.06.517.18.71a1.47 1.47 0 0 0 .52.49c.22.127.47.22.75.28.287.06.59.09.91.09.387 0 .747-.033 1.08-.1a3.49 3.49 0 0 0 .89-.29 1.89 1.89 0 0 0 .61-.42.71.71 0 0 0 .22-.5.35.35 0 0 0-.1-.24c-.067-.073-.167-.143-.3-.21s-.293-.13-.48-.19l-.64-.2.19-.83.92.34.7.21.52.12c.147.02.27.03.37.03.14 0 .24.04.3.12.067.073.1.163.1.27a.42.42 0 0 1-.14.3c-.093.087-.213.13-.36.13h-.12-.13-.12l.03.14a.9.9 0 0 1 .01.15c0 .247-.087.487-.26.72-.167.233-.413.443-.74.63-.327.193-.723.347-1.19.46-.46.113-.987.17-1.58.17-.527 0-1.017-.087-1.47-.26a2.45 2.45 0 0 1-1.08-.76c-.273-.34-.41-.77-.41-1.29zm3.68 4.2a.49.49 0 0 1-.36-.15c-.093-.093-.14-.207-.14-.34a.5.5 0 0 1 .14-.35.49.49 0 0 1 .36-.15c.133 0 .247.05.34.15a.48.48 0 0 1 .15.35c0 .133-.05.247-.15.34-.093.1-.207.15-.34.15zm-1.37 0a.49.49 0 0 1-.36-.15c-.093-.093-.14-.207-.14-.34a.5.5 0 0 1 .14-.35.49.49 0 0 1 .36-.15c.133 0 .247.05.34.15a.48.48 0 0 1 .15.35c0 .133-.05.247-.15.34-.093.1-.207.15-.34.15zm4.753-4.16l.1-.82c.333 0 .593-.023.78-.07a.72.72 0 0 0 .42-.29c.1-.147.18-.357.24-.63l.22-1.07.78.15-.09.4-.09.44a2.65 2.65 0 0 0-.03.37 1.85 1.85 0 0 0 .02.28c.013.087.063.16.15.22s.233.11.44.15c.207.033.503.05.89.05.14 0 .24.04.3.12.067.073.1.163.1.27a.42.42 0 0 1-.14.3c-.093.087-.213.13-.36.13a6.18 6.18 0 0 1-.97-.06c-.24-.047-.423-.113-.55-.2a.75.75 0 0 1-.26-.32 2.6 2.6 0 0 1-.11-.46l.3.02a2.14 2.14 0 0 1-.35.52c-.12.133-.26.237-.42.31s-.353.123-.58.15a6.68 6.68 0 0 1-.79.04zm2.67-3.91a.51.51 0 0 1-.36-.14.5.5 0 0 1-.14-.35.5.5 0 0 1 .14-.35.49.49 0 0 1 .36-.15c.133 0 .247.05.34.15a.48.48 0 0 1 .15.35.48.48 0 0 1-.15.35c-.093.093-.207.14-.34.14zm-1.37 0a.51.51 0 0 1-.36-.14.5.5 0 0 1-.14-.35.5.5 0 0 1 .14-.35.49.49 0 0 1 .36-.15c.133 0 .247.05.34.15a.48.48 0 0 1 .15.35.48.48 0 0 1-.15.35c-.093.093-.207.14-.34.14zm2.431 3.91l.1-.82c.187 0 .343-.04.47-.12s.25-.213.37-.4.25-.437.39-.75c.193-.427.383-.75.57-.97.193-.22.383-.37.57-.45a1.48 1.48 0 0 1 .57-.12 1.17 1.17 0 0 1 .63.18 1.75 1.75 0 0 1 .51.46 2.27 2.27 0 0 1 .34.64 1.89 1.89 0 0 1 .13.68c0 .4-.07.72-.21.96a1.28 1.28 0 0 1-.54.51 1.56 1.56 0 0 1-.67.15c-.207 0-.473-.04-.8-.12-.32-.08-.727-.283-1.22-.61l.39-.63c.327.207.62.35.88.43.267.073.487.11.66.11.193 0 .347-.027.46-.08.113-.06.197-.143.25-.25a.8.8 0 0 0 .08-.36 1.33 1.33 0 0 0-.14-.58c-.093-.193-.213-.353-.36-.48a.66.66 0 0 0-.45-.19.68.68 0 0 0-.35.1c-.113.067-.23.19-.35.37s-.257.44-.41.78a5.43 5.43 0 0 1-.46.86c-.14.207-.283.36-.43.46s-.3.163-.46.19a2.46 2.46 0 0 1-.52.05zm5.834 2.25l-.18-.82a7.05 7.05 0 0 0 1.1-.23 2.56 2.56 0 0 0 .87-.41 1.76 1.76 0 0 0 .57-.71c.133-.293.2-.66.2-1.1 0-.453-.083-.83-.25-1.13s-.383-.45-.65-.45c-.14 0-.27.053-.39.16a1.24 1.24 0 0 0-.3.43 1.55 1.55 0 0 0-.11.59.53.53 0 0 0 .08.3.58.58 0 0 0 .23.18 1.79 1.79 0 0 0 .4.09 4.58 4.58 0 0 0 .56.03h2.11c.14 0 .24.04.3.12.067.073.1.163.1.27a.42.42 0 0 1-.14.3c-.093.087-.213.13-.36.13h-2.39a2.64 2.64 0 0 1-.84-.13 1.43 1.43 0 0 1-.62-.4c-.153-.187-.23-.43-.23-.73 0-.28.043-.547.13-.8.087-.26.203-.49.35-.69a1.83 1.83 0 0 1 .53-.49 1.31 1.31 0 0 1 .67-.18 1.33 1.33 0 0 1 .82.27c.24.18.43.453.57.82.14.36.21.817.21 1.37 0 .62-.127 1.153-.38 1.6-.247.453-.62.813-1.12 1.08-.493.267-1.107.443-1.84.53zm4.137-2.25l.1-.82h.77c.553 0 .963-.03 1.23-.09s.44-.14.52-.24a.47.47 0 0 0 .13-.31c0-.16-.06-.337-.18-.53a3.85 3.85 0 0 0-.46-.59l-.6-.61-.59-.55-.46-.43c-.12-.127-.18-.217-.18-.27 0-.1.007-.197.02-.29.02-.093.043-.18.07-.26a.58.58 0 0 1 .12-.19c.133-.14.317-.287.55-.44a7.82 7.82 0 0 1 .81-.48l.98-.5 1.05-.52.34.74-.96.48-.93.46-.85.47c-.26.153-.497.31-.71.47l.06-.34.85.73.76.72c.24.24.463.5.67.78a7.33 7.33 0 0 1 .58.93c.14.26.303.45.49.57a1.71 1.71 0 0 0 .55.24c.187.033.337.05.45.05.14 0 .24.04.3.12.067.073.1.163.1.27a.42.42 0 0 1-.14.3c-.093.087-.213.13-.36.13-.18 0-.393-.027-.64-.08a2.1 2.1 0 0 1-.71-.34c-.233-.167-.427-.42-.58-.76l.3.12a2.11 2.11 0 0 1-.35.47c-.127.127-.29.237-.49.33a3.1 3.1 0 0 1-.73.2c-.287.04-.637.06-1.05.06h-.83zm5.078 0l.09-.82a6.45 6.45 0 0 0 1.02-.08 6.97 6.97 0 0 0 .98-.23c.32-.1.627-.22.92-.36a6.34 6.34 0 0 0 .85-.5 2.75 2.75 0 0 0-.6-.4c-.227-.113-.477-.2-.75-.26a3.48 3.48 0 0 0-.85-.1l-.3.01a2.03 2.03 0 0 0-.28.04l-.32.06-.16-.76c.18-.053.36-.093.54-.12a2.86 2.86 0 0 1 .52-.05 3.17 3.17 0 0 1 .94.13c.28.08.533.18.76.3l.65.36.6.31a1.55 1.55 0 0 0 .6.12h.21l.07.72c-.287 0-.55.04-.79.12a4.41 4.41 0 0 0-.71.31l-.72.39-.84.39c-.307.12-.66.22-1.06.3-.393.08-.85.12-1.37.12zM24.955 72.525v-7.23h1.28l2.18 5.97 2.21-5.97H31.9v7.23h-.955V66.68l-2.095 5.845h-.865l-2.08-5.79v5.79h-.95zm9.182 1.65c-.303 0-.512-.022-.625-.065l-.17-.065v-.6l.53.01a1.67 1.67 0 0 0 .475-.04.88.88 0 0 0 .305-.135c.077-.057.135-.12.175-.19l.105-.2.18-.49-2.02-5.045h.935l1.525 3.99 1.515-3.99h.905l-2.175 5.56c-.137.327-.288.582-.455.765s-.347.312-.55.385a1.89 1.89 0 0 1-.655.11zm7.682-1.55c-.633 0-1.18-.145-1.64-.435s-.813-.715-1.06-1.265-.37-1.215-.37-1.995c0-.787.125-1.458.375-2.015s.613-.982 1.08-1.275 1.018-.445 1.655-.445a2.76 2.76 0 0 1 1.025.19 2.83 2.83 0 0 1 .85.52 2.58 2.58 0 0 1 .59.745c.15.28.235.572.255.875h-.99a1.85 1.85 0 0 0-.31-.745 1.84 1.84 0 0 0-.61-.555c-.243-.14-.518-.21-.825-.21-.417 0-.783.103-1.1.31s-.558.518-.735.945-.26.973-.26 1.64c0 .513.053.953.16 1.32s.255.665.445.895.418.395.675.505a2.19 2.19 0 0 0 .84.16c.303 0 .567-.053.79-.16a1.75 1.75 0 0 0 .565-.41 1.95 1.95 0 0 0 .345-.545c.083-.197.128-.385.135-.565l.03-.64h-1.76v-.68l2.72.005v3.73h-.695v-1.1a2.89 2.89 0 0 1-.48.585 2.24 2.24 0 0 1-.71.445c-.277.113-.607.17-.99.17zm6.559 0c-.477 0-.893-.102-1.25-.305s-.628-.508-.825-.905-.295-.882-.295-1.455c0-.54.092-1.013.275-1.42a2.11 2.11 0 0 1 .805-.945c.353-.223.785-.34 1.295-.34.477 0 .89.105 1.24.315s.622.512.815.915.295.895.295 1.475c0 .527-.09.99-.27 1.39s-.445.713-.795.94-.777.335-1.29.335zm.005-.73c.307 0 .567-.078.78-.235a1.44 1.44 0 0 0 .485-.675c.11-.293.17-.642.17-1.045 0-.37-.05-.702-.15-.995s-.25-.532-.46-.705-.485-.26-.825-.26a1.32 1.32 0 0 0-.795.235c-.217.153-.382.377-.495.67s-.165.645-.165 1.055c0 .363.048.693.145.99s.257.532.47.705.497.26.84.26zm4.822.63l-1.87-5.17h.87l1.375 4.01h.085l1.38-4.01h.865l-1.86 5.17h-.845z" fill="#000"/></svg>