<svg width="64" height="64" viewBox="0 0 64 64" fill="none" xmlns="http://www.w3.org/2000/svg">
<path d="M51.5571 7.5V0H4.94287V56.5H12.4429V64H59.0571V7.5H51.5571ZM8.69287 52.75V3.75H47.8071V7.5H12.4429V52.75H8.69287ZM55.3071 60.25H16.1929V11.25H55.3071V60.25Z" fill="#012E5D"/>
<path d="M25.3132 42.3099L28.2003 40.7045C28.8096 41.1339 29.4525 41.5092 30.125 41.828V45.1399H41.375V41.828C42.0476 41.5091 42.6905 41.1339 43.2996 40.7045L46.1867 42.31L51.6543 32.4781L48.841 30.9136C48.8636 30.5985 48.8748 30.2824 48.8748 29.9667C48.8748 29.7181 48.8677 29.4686 48.8536 29.2194L51.6542 27.662L46.1866 17.83L43.4617 19.3452C42.8048 18.867 42.1077 18.4528 41.3748 18.1054V15H30.1248V18.1054C29.392 18.4528 28.6948 18.867 28.038 19.3452L25.3131 17.83L19.8456 27.662L22.6462 29.2194C22.6321 29.4686 22.625 29.7181 22.625 29.9667C22.625 30.2824 22.6363 30.5986 22.6588 30.9136L19.8456 32.4781L25.3132 42.3099ZM26.519 31.6127C26.262 30.1604 26.3795 28.6191 26.6993 27.1824L24.9456 26.2071L26.7681 22.9298L28.4902 23.8874L29.4853 22.9928C30.4067 22.1645 31.4631 21.5362 32.6248 21.1255L33.875 20.6838V18.75H37.625V20.6838L38.8751 21.1256C40.037 21.5363 41.0932 22.1646 42.0146 22.9929L43.0098 23.8875L44.7318 22.9299L46.5545 26.2073L44.8006 27.1825C45.207 29.0755 45.1895 31.0424 44.7483 32.9287L46.5545 33.9331L44.7318 37.2105L42.8875 36.1849L41.8952 37.0469C41.0022 37.8228 39.9861 38.4152 38.8748 38.8081L37.625 39.25V41.39H33.875V39.25L32.625 38.8081C31.5137 38.4151 30.4976 37.8226 29.6046 37.0467L28.6123 36.1847L26.768 37.2104L24.9455 33.933L26.7516 32.9286L26.519 31.6127Z" fill="#C63B2B"/>
<path d="M35.75 35.6951C38.8516 35.6951 41.375 33.1717 41.375 30.0701C41.375 26.9684 38.8516 24.4451 35.75 24.4451C32.6484 24.4451 30.125 26.9684 30.125 30.0701C30.125 33.1717 32.6483 35.6951 35.75 35.6951ZM35.75 28.1951C36.7839 28.1951 37.625 29.0362 37.625 30.0701C37.625 31.1039 36.7839 31.9451 35.75 31.9451C34.7161 31.9451 33.875 31.1039 33.875 30.0701C33.875 29.0362 34.716 28.1951 35.75 28.1951Z" fill="#012E5D"/>
<path d="M27.5119 47.625H23.7619V50.25H19.9429V54H23.7619V56.625H27.5119V54H51.5571V50.25H27.5119V47.625Z" fill="#012E5D"/>
</svg>
