<svg width="64" height="64" viewBox="0 0 64 64" fill="none" xmlns="http://www.w3.org/2000/svg">
<path d="M22.187 26.3246L16.9645 39.7711L32.4142 48.7876L41.889 37.5938L44.9864 24.9715L31.7044 14.6918L22.187 26.3246ZM40.7635 26.4451L38.4571 35.8438L31.5856 43.9621L21.6187 38.1455L25.4667 28.2379L32.2955 19.8913L40.7635 26.4451Z" fill="#C63B2B"/>
<path d="M56.7163 39.885V24.115C58.8987 23.341 60.4663 21.2569 60.4663 18.8125C60.4663 15.7109 57.9429 13.1875 54.8413 13.1875C53.4484 13.1875 52.1732 13.6975 51.1897 14.5391L37.5292 6.65225C37.5911 6.319 37.6249 5.976 37.6249 5.625C37.6249 2.52338 35.1016 0 31.9999 0C28.8983 0 26.3749 2.52338 26.3749 5.625C26.3749 5.976 26.4088 6.319 26.4707 6.65225L12.8102 14.5391C11.8267 13.6975 10.5514 13.1875 9.15857 13.1875C6.05694 13.1875 3.53357 15.7109 3.53357 18.8125C3.53357 21.2569 5.10119 23.341 7.28357 24.115V39.885C5.10119 40.659 3.53357 42.7431 3.53357 45.1875C3.53357 48.2891 6.05694 50.8125 9.15857 50.8125C10.5514 50.8125 11.8267 50.3025 12.8102 49.4609L26.4707 57.3478C26.4088 57.681 26.3749 58.024 26.3749 58.375C26.3749 61.4766 28.8983 64 31.9999 64C35.1016 64 37.6249 61.4766 37.6249 58.375C37.6249 58.024 37.5911 57.681 37.5292 57.3478L51.1897 49.4609C52.1732 50.3025 53.4484 50.8125 54.8413 50.8125C57.9429 50.8125 60.4663 48.2891 60.4663 45.1875C60.4663 42.7431 58.8987 40.659 56.7163 39.885ZM49.2163 45.1875C49.2163 45.5385 49.2502 45.8815 49.3121 46.2147L35.6516 54.1016C34.6681 53.26 33.3928 52.75 31.9999 52.75C30.6071 52.75 29.3318 53.26 28.3483 54.1016L14.6878 46.2147C14.7496 45.8814 14.7836 45.5384 14.7836 45.1875C14.7836 42.7431 13.2159 40.659 11.0336 39.885V24.115C13.2159 23.341 14.7836 21.2569 14.7836 18.8125C14.7836 18.4615 14.7497 18.1185 14.6878 17.7852L28.3483 9.89837C29.3318 10.74 30.6071 11.25 31.9999 11.25C33.3928 11.25 34.6681 10.74 35.6516 9.89837L49.3121 17.7852C49.2503 18.1186 49.2163 18.4616 49.2163 18.8125C49.2163 21.2569 50.7839 23.341 52.9663 24.115V39.885C50.7841 40.659 49.2163 42.7431 49.2163 45.1875ZM54.8413 16.9375C55.8752 16.9375 56.7163 17.7786 56.7163 18.8125C56.7163 19.8464 55.8752 20.6875 54.8413 20.6875C53.8074 20.6875 52.9663 19.8464 52.9663 18.8125C52.9663 17.7786 53.8074 16.9375 54.8413 16.9375ZM31.9999 3.75C33.0338 3.75 33.8749 4.59113 33.8749 5.625C33.8749 6.65887 33.0338 7.5 31.9999 7.5C30.9661 7.5 30.1249 6.65887 30.1249 5.625C30.1249 4.59113 30.9661 3.75 31.9999 3.75ZM9.15857 16.9375C10.1924 16.9375 11.0336 17.7786 11.0336 18.8125C11.0336 19.8464 10.1924 20.6875 9.15857 20.6875C8.12469 20.6875 7.28357 19.8464 7.28357 18.8125C7.28357 17.7786 8.12469 16.9375 9.15857 16.9375ZM9.15857 47.0625C8.12469 47.0625 7.28357 46.2214 7.28357 45.1875C7.28357 44.1536 8.12469 43.3125 9.15857 43.3125C10.1924 43.3125 11.0336 44.1536 11.0336 45.1875C11.0336 46.2214 10.1924 47.0625 9.15857 47.0625ZM31.9999 60.25C30.9661 60.25 30.1249 59.4089 30.1249 58.375C30.1249 57.3411 30.9661 56.5 31.9999 56.5C33.0338 56.5 33.8749 57.3411 33.8749 58.375C33.8749 59.4089 33.0338 60.25 31.9999 60.25ZM54.8413 47.0625C53.8074 47.0625 52.9663 46.2214 52.9663 45.1875C52.9663 44.1536 53.8074 43.3125 54.8413 43.3125C55.8752 43.3125 56.7163 44.1536 56.7163 45.1875C56.7163 46.2214 55.8752 47.0625 54.8413 47.0625Z" fill="#012E5D"/>
</svg>
