<svg width="64" height="64" viewBox="0 0 64 64" fill="none" xmlns="http://www.w3.org/2000/svg">
<g clip-path="url(#clip0_4294_8301)">
<path d="M50.8758 18.7502C53.9772 18.7502 56.5004 16.227 56.5004 13.1255C56.5004 10.0241 53.9772 7.50085 50.8758 7.50085C47.7743 7.50085 45.2511 10.0241 45.2511 13.1255C45.2511 16.227 47.7743 18.7502 50.8758 18.7502ZM50.8758 11.2506C51.9096 11.2506 52.7506 12.0917 52.7506 13.1255C52.7506 14.1593 51.9096 15.0004 50.8758 15.0004C49.8419 15.0004 49.0009 14.1593 49.0009 13.1255C49.0009 12.0917 49.8419 11.2506 50.8758 11.2506Z" fill="#C63B2B"/>
<path d="M52.6218 26.1334C59.036 25.2769 64 19.7704 64 13.1255C64 5.88886 58.1125 0.00134277 50.8758 0.00134277C43.6391 0.00134277 37.7516 5.88886 37.7516 13.1255C37.7516 16.9946 39.4349 20.4774 42.107 22.8815L37.1335 30.3298C36.69 30.217 36.2259 30.1566 35.7478 30.1566C35.3597 30.1566 34.9806 30.1961 34.6145 30.2714L25.17 15.3785C25.9227 14.4218 26.3734 13.2168 26.3734 11.9077C26.3734 8.80631 23.8502 6.28309 20.7487 6.28309C17.6473 6.28309 15.1241 8.80631 15.1241 11.9077C15.1241 12.7751 15.3217 13.5969 15.6738 14.3312L10.2078 19.7973V0.00246771H6.45798V3.79386H0V7.54364H6.45798V11.2934H0V15.0432H6.45798V18.793H0V22.5427H6.45798V26.2925H0V30.0423H6.45798V33.792H0V37.5418H6.45798V41.2916H0V45.0414H6.45798V48.7911H0V52.5409H6.45798V57.5406H11.4577V63.9986H15.2075V57.5406H18.9572V63.9986H22.707V57.5406H26.4568V63.9986H30.2065V57.5406H33.9563V63.9986H37.7061V57.5406H41.4559V63.9986H45.2056V57.5406H48.9554V63.9986H52.7052V57.5406H56.455V63.9986H60.2047V57.5406H63.9961V53.7908H52.6218V26.1334ZM41.5014 13.1255C41.5014 7.95649 45.7067 3.75112 50.8758 3.75112C56.0449 3.75112 60.2502 7.95649 60.2502 13.1255C60.2502 18.2946 56.0449 22.5 50.8758 22.5C45.7067 22.5 41.5014 18.2947 41.5014 13.1255ZM48.872 26.097V53.7908H37.6227V41.0835C39.805 40.3095 41.3725 38.2255 41.3725 35.7813C41.3725 34.5196 40.9548 33.3536 40.2506 32.4143L45.2225 24.9683C46.3587 25.5129 47.5847 25.8989 48.872 26.097ZM22.6236 18.3651L31.4045 32.2115C30.6044 33.1832 30.1232 34.4271 30.1232 35.7813C30.1232 38.2255 31.6907 40.3095 33.8729 41.0835V53.7908H22.6236V18.3651ZM37.6227 35.7813C37.6227 36.8151 36.7816 37.6562 35.7478 37.6562C34.714 37.6562 33.8729 36.8151 33.8729 35.7813C33.8729 34.7475 34.714 33.9064 35.7478 33.9064C36.7816 33.9064 37.6227 34.7475 37.6227 35.7813ZM20.7487 10.0329C21.7826 10.0329 22.6236 10.8739 22.6236 11.9077C22.6236 12.9416 21.7826 13.7826 20.7487 13.7826C19.7149 13.7826 18.8739 12.9416 18.8739 11.9077C18.8739 10.8739 19.7149 10.0329 20.7487 10.0329ZM10.2078 25.1002L18.3253 16.9827C18.5031 17.0679 18.6864 17.1433 18.8739 17.2099V53.7908H10.2078V25.1002Z" fill="#012E5D"/>
</g>
<defs>
<clipPath id="clip0_4294_8301">
<rect width="64" height="64" fill="white"/>
</clipPath>
</defs>
</svg>
