<svg width="64" height="64" viewBox="0 0 64 64" fill="none" xmlns="http://www.w3.org/2000/svg">
<path d="M45.6983 0L36.8437 8.85457V12.0873H39.8659V15.9148H19.3325L9.44702 25.8003V64H47.5725V29.3032H51.5309V12.0873H54.5529V8.85457L45.6983 0ZM19.0871 21.4613V25.5549H14.9936L19.0871 21.4613ZM43.8241 60.2516H13.1955V29.3032H22.8356V19.6632H39.8659V29.3032H43.8242L43.8241 60.2516ZM47.7824 8.33891V25.5547H43.6143V8.33891H42.6605L45.6983 5.30104L48.736 8.33891H47.7824Z" fill="#012E5D"/>
<path d="M37.8809 38.0496H30.384V33.0516H19.1387V52.7546H16.944V56.503H40.0757V52.7546H37.881L37.8809 38.0496ZM22.8871 52.7547V36.8001H26.6356V52.7546H22.8871V52.7547ZM30.384 52.7547V41.7981H34.1324V52.7547H30.384Z" fill="#C63B2B"/>
</svg>
