<svg width="64" height="64" viewBox="0 0 64 64" fill="none" xmlns="http://www.w3.org/2000/svg">
<g clip-path="url(#clip0_4294_8265)">
<path d="M7.5 52.75H11.25V56.5H7.5V52.75Z" fill="#012E5D"/>
<path d="M15 52.75H18.75V56.5H15V52.75Z" fill="#012E5D"/>
<path d="M22.5 52.75H26.25V56.5H22.5V52.75Z" fill="#012E5D"/>
<path d="M45.2832 52.75H49.0332V56.5H45.2832V52.75Z" fill="#012E5D"/>
<path d="M52.7832 52.75H56.5332V56.5H52.7832V52.75Z" fill="#012E5D"/>
<path d="M50.069 30.25V0H24.3031L13.931 10.728V30.25H0V64H64V30.25H50.069ZM24.1249 5.5795V10.5436H19.3254L24.1249 5.5795ZM17.681 14.2936H27.8749V3.75H46.319V30.25H17.681V14.2936ZM60.25 60.25H3.75V49H60.25V60.25ZM3.75 45.25V34H60.25V45.25H3.75Z" fill="#012E5D"/>
<path d="M7.5 37.75H11.25V41.5H7.5V37.75Z" fill="#012E5D"/>
<path d="M15 37.75H18.75V41.5H15V37.75Z" fill="#012E5D"/>
<path d="M22.5 37.75H26.25V41.5H22.5V37.75Z" fill="#012E5D"/>
<path d="M45.2832 37.75H49.0332V41.5H45.2832V37.75Z" fill="#012E5D"/>
<path d="M52.7832 37.75H56.5332V41.5H52.7832V37.75Z" fill="#012E5D"/>
<path d="M21.431 18.0436H42.569V21.7936H21.431V18.0436Z" fill="#C63B2B"/>
<path d="M31.6249 10.5436H42.569V14.2936H31.6249V10.5436Z" fill="#C63B2B"/>
</g>
<defs>
<clipPath id="clip0_4294_8265">
<rect width="64" height="64" fill="white"/>
</clipPath>
</defs>
</svg>
