<svg xmlns="http://www.w3.org/2000/svg" width="64" height="64" fill="none" xmlns:v="https://vecta.io/nano"><g clip-path="url(#A)"><path d="M64 0H0v11.294h3.765v37.647h26.353v4.088c-2.191.777-3.765 2.869-3.765 5.323C26.353 61.467 28.886 64 32 64s5.647-2.533 5.647-5.647c0-2.454-1.574-4.546-3.765-5.323v-4.088h26.353V11.294H64V0zM32 60.235c-1.038 0-1.882-.844-1.882-1.882s.845-1.882 1.882-1.882 1.882.844 1.882 1.882-.844 1.882-1.882 1.882zm24.471-15.059H7.529V11.294h48.941v33.882zm3.765-37.647H3.765V3.765h56.471v3.765z" fill="#012e5d"/><path d="M25.802 20.154l-2.662-2.662-6.198 6.198-2.434-2.434-2.662 2.662 5.096 5.096 8.86-8.86z" fill="#c63b2b"/><g fill="#012e5d"><use href="#B"/><path d="M33.883 24.471h18.823v3.765H33.883v-3.765zm-22.589 9.412h18.824v3.765H11.294v-3.765zm22.589 0h18.823v3.765H33.883v-3.765z"/></g></g><defs><clipPath id="A"><path fill="#fff" d="M0 0h64v64H0z"/></clipPath><path id="B" d="M33.883 16.941h18.823v3.765H33.883v-3.765z"/></defs></svg>