<svg xmlns="http://www.w3.org/2000/svg" width="87" height="85" fill="#14b4c4" xmlns:v="https://vecta.io/nano"><path d="M47.54 84.19c-4.145 0-8.309-.67-12.36-2.019-9.967-3.321-18.056-10.364-22.776-19.827C2.666 42.811 10.479 18.913 29.83 9.078s43.024-1.948 52.767 17.586 1.93 43.432-17.421 53.267c-5.565 2.83-11.58 4.26-17.636 4.26zm-.098-78.368c-5.79 0-11.659 1.326-17.173 4.128-18.874 9.595-26.5 32.903-16.995 51.956 4.603 9.232 12.491 16.095 22.215 19.336s20.108 2.462 29.252-2.184 15.944-12.609 19.154-22.426 2.439-20.298-2.163-29.53a38.33 38.33 0 0 0-34.29-21.284v.005z"/><path d="M39.535 84.19c-4.145 0-8.308-.67-12.36-2.019C17.208 78.85 9.119 71.808 4.399 62.345-5.344 42.811 2.474 18.913 21.825 9.078s43.024-1.948 52.767 17.586 1.93 43.432-17.421 53.267c-5.565 2.83-11.579 4.26-17.636 4.26zm-.098-78.368c-5.79 0-11.659 1.326-17.173 4.128-18.879 9.595-26.5 32.903-16.995 51.956 4.603 9.232 12.491 16.095 22.215 19.336s20.108 2.462 29.253-2.184S72.68 66.449 75.89 56.632s2.439-20.298-2.163-29.53a38.33 38.33 0 0 0-34.29-21.284v.005z"/><path d="M44.147 79.538c-4.145 0-8.309-.67-12.36-2.019-9.967-3.321-18.056-10.364-22.776-19.827-9.743-19.534-1.93-43.432 17.425-53.267s43.024-1.948 52.767 17.586c4.72 9.463 5.509 20.213 2.22 30.275s-10.266 18.227-19.64 22.992c-5.565 2.83-11.579 4.26-17.636 4.26zM44.045 1.17c-5.79 0-11.659 1.326-17.173 4.128C7.998 14.893.376 38.201 9.881 57.249c4.603 9.232 12.491 16.095 22.215 19.336s20.108 2.462 29.253-2.184 15.944-12.609 19.154-22.426 2.439-20.298-2.163-29.53C71.61 8.963 58.073 1.17 44.045 1.17z"/></svg>