<svg xmlns="http://www.w3.org/2000/svg" width="129" height="128" fill="none" xmlns:v="https://vecta.io/nano"><g fill-rule="evenodd"><path d="M64.375 22.96c-22.666 0-41.04 18.374-41.04 41.04s18.374 41.041 41.04 41.041S105.416 86.666 105.416 64 87.041 22.96 64.375 22.96zM11.848 64c0-29.01 23.517-52.528 52.528-52.528S116.903 34.99 116.903 64s-23.518 52.528-52.528 52.528S11.848 93.011 11.848 64z" fill="#e5eaef" fill-opacity=".5"/><path d="M111.198 69.419c-3.172.022-5.761-2.532-5.783-5.704l-.032-1.343c-.018-.464.019-.918.106-1.354-.149-.419-.251-.863-.3-1.325l-.369-2.66a5.81 5.81 0 0 1-.072-1.356c-.202-.396-.361-.822-.47-1.274l-.713-2.589a5.75 5.75 0 0 1-.248-1.335 5.75 5.75 0 0 1-.633-1.202l-1.045-2.474c-.194-.422-.333-.855-.42-1.291-.298-.33-.562-.701-.784-1.109l-1.359-2.316a5.76 5.76 0 0 1-.585-1.225 5.75 5.75 0 0 1-.922-.997l-1.65-2.119c-.297-.357-.544-.739-.74-1.138a5.75 5.75 0 0 1-1.044-.868l-.941-.959-.972-.928c-.341-.315-.636-.662-.883-1.032-.402-.191-.788-.432-1.148-.724l-2.142-1.62c-.379-.268-.716-.573-1.01-.908a5.75 5.75 0 0 1-1.233-.568l-2.335-1.326c-.411-.216-.785-.475-1.12-.768a5.76 5.76 0 0 1-1.297-.403l-2.488-1.011c-.436-.161-.841-.369-1.21-.616a5.76 5.76 0 0 1-1.339-.23l-2.599-.677a5.75 5.75 0 0 1-1.28-.453 5.76 5.76 0 0 1-1.357-.053l-2.665-.332a5.76 5.76 0 0 1-1.329-.281c-.435.093-.888.136-1.352.124l-1.343-.013c-3.172.022-5.761-2.532-5.783-5.704s2.532-5.761 5.704-5.783l1.719.016c.596.015 1.168.121 1.704.303a5.74 5.74 0 0 1 1.727-.102l3.411.425a5.74 5.74 0 0 1 1.65.523c.564-.045 1.145-.007 1.726.124l3.326.867c.571.169 1.097.419 1.567.734.565.029 1.136.142 1.695.349l3.185 1.293a5.74 5.74 0 0 1 1.458.932 5.74 5.74 0 0 1 1.635.567l2.989 1.698a5.74 5.74 0 0 1 1.324 1.114c.539.174 1.06.432 1.547.775l2.742 2.074a5.74 5.74 0 0 1 1.167 1.278c.511.243.995.566 1.432.971l1.244 1.187 1.204 1.227a5.75 5.75 0 0 1 .99 1.419 5.74 5.74 0 0 1 1.294 1.149l2.112 2.713c.35.482.615 1 .796 1.536.431.367.815.805 1.133 1.308l1.739 2.965c.285.524.479 1.072.589 1.627a5.74 5.74 0 0 1 .953 1.445l1.337 3.166c.214.556.335 1.125.372 1.69a5.75 5.75 0 0 1 .755 1.557l.913 3.314c.139.579.185 1.159.148 1.724a5.73 5.73 0 0 1 .546 1.642l.472 3.405a5.72 5.72 0 0 1-.078 1.729c.19.533.303 1.104.327 1.699l.04 1.718c.022 3.172-2.532 5.761-5.704 5.783z" fill="url(#A)"/></g><defs><linearGradient id="A" x1="121.894" y1="56.693" x2="56.625" y2="18.537" gradientUnits="userSpaceOnUse"><stop stop-color="#012e5d"/><stop offset=".755" stop-color="#012e5d" stop-opacity=".01"/><stop offset="1" stop-color="#e5eaef" stop-opacity="0"/></linearGradient></defs></svg>