<svg xmlns="http://www.w3.org/2000/svg" width="33" height="32" fill="none" xmlns:v="https://vecta.io/nano"><g clip-path="url(#A)" fill="#999"><path d="M12.767 0a3.74 3.74 0 0 0-3.733 3.733v.533a2.67 2.67 0 0 0-2.667 2.667v.533h-.533a2.67 2.67 0 0 0-2.667 2.667v19.2A2.67 2.67 0 0 0 5.833 32h18.133a2.67 2.67 0 0 0 2.667-2.667V28.8h.533a2.67 2.67 0 0 0 2.667-2.667v-19.2a2.67 2.67 0 0 0-2.667-2.667H16.5v-.533A3.74 3.74 0 0 0 12.767 0zM10.1 3.733c0-1.473 1.194-2.667 2.667-2.667s2.667 1.194 2.667 2.667v.533h-1.067v-.533a1.6 1.6 0 1 0-3.2 0v.533H10.1v-.533zm0 1.6h1.067V8c0 .295.239.533.533.533s.533-.239.533-.533V5.333H13.3v3.2a1.6 1.6 0 1 1-3.2 0v-3.2zm2.133-1.067v-.533c0-.295.239-.533.533-.533s.533.239.533.533v.533h-1.067zm13.333 25.067a1.6 1.6 0 0 1-1.6 1.6H5.833a1.6 1.6 0 0 1-1.6-1.6v-19.2a1.6 1.6 0 0 1 1.6-1.6h.533v17.6A2.67 2.67 0 0 0 9.033 28.8h16.533v.533zm3.2-22.4v19.2a1.6 1.6 0 0 1-1.6 1.6H9.033a1.6 1.6 0 0 1-1.6-1.6v-19.2a1.6 1.6 0 0 1 1.6-1.6v3.2c0 1.473 1.194 2.667 2.667 2.667s2.667-1.194 2.667-2.667v-3.2h12.8a1.6 1.6 0 0 1 1.6 1.6z"/><g fill-rule="evenodd"><path d="M10.633 14.4H13.3c.295 0 .533-.239.533-.533s-.239-.533-.533-.533h-2.667c-.294 0-.533.239-.533.533s.239.533.533.533zm4.267-.534c0 .295.239.533.533.533H26.1c.295 0 .533-.239.533-.533s-.239-.533-.533-.533H15.433c-.295 0-.533.239-.533.533z"/><use href="#B"/><path d="M26.1 19.733h-3.2c-.294 0-.533.239-.533.533s.239.533.533.533h3.2c.295 0 .533-.239.533-.533s-.239-.533-.533-.533zM10.633 20.8h10.133c.295 0 .533-.239.533-.533s-.239-.533-.533-.533H10.633c-.294 0-.533.239-.533.533s.239.533.533.533zM26.1 22.933H10.633c-.294 0-.533.239-.533.533s.239.533.533.533H26.1c.294 0 .533-.239.533-.533s-.239-.533-.533-.533z"/></g></g><defs><clipPath id="A"><path fill="#fff" transform="translate(.5)" d="M0 0h32v32H0z"/></clipPath><path id="B" d="M26.1 16.533H10.633c-.294 0-.533.239-.533.533s.239.533.533.533H26.1c.294 0 .533-.239.533-.533s-.239-.533-.533-.533z"/></defs></svg>