<svg xmlns="http://www.w3.org/2000/svg" width="91" height="85" fill="none" xmlns:v="https://vecta.io/nano"><g clip-path="url(#G)"><mask id="A" maskUnits="userSpaceOnUse" x="17" y="0" width="58" height="53"><path d="M43.561 1.875C29.803 14.088 17.916 34.056 17.916 34.056c22.178 9.352 33.13 18.428 33.13 18.428 9.356-2.476 23.444-15.953 23.444-15.953C68.546 22.779 54.788 8.091 50.44 3.085 48.679 1.105 47.248.5 46.148.5c-1.651 0-2.587 1.375-2.587 1.375z" fill="#fff"/></mask><g mask="url(#A)"><path d="M49.349-27.443L-7.834 23.843l51.087 56.913 57.182-51.286-51.086-56.913z" fill="url(#D)"/></g><mask id="B" maskUnits="userSpaceOnUse" x="41" y="36" width="50" height="49"><path d="M74.49 36.531C61.667 47.753 42.295 56.554 42.295 56.554c-2.807 9.682 2.477 27.505 2.477 27.505 8.42 1.87 34.726-2.805 40.614-4.401 5.944-1.54 4.678-4.401 4.678-4.401-4.293-21.179-14.529-38.782-15.574-38.782" fill="#fff"/></mask><g mask="url(#B)"><path d="M84.998 19.525L23.233 42.731l22.693 60.35 61.766-23.207-22.694-60.349z" fill="url(#E)"/></g><mask id="C" maskUnits="userSpaceOnUse" x="1" y="34" width="44" height="51"><path d="M1.955 70.581s-2.476 5.336 1.541 7.206c0 0 13.758 8.747 41.275 6.271 0 0-5.008-24.039-.936-36.582 0 0-15.629-11.277-25.921-13.423 0 0-14.364 27.175-15.96 36.582" fill="#fff"/></mask><g mask="url(#C)"><path d="M2.598 22.612l-16.406 60.358 55.498 15.072 16.406-60.358L2.598 22.612z" fill="url(#F)"/></g></g><defs><linearGradient id="D" x1="70.417" y1="50.673" x2="31.697" y2="7.501" gradientUnits="userSpaceOnUse"><stop stop-color="#ad1118"/><stop offset=".3" stop-color="#c40c16"/><stop offset=".5" stop-color="#d50814"/><stop offset=".7" stop-color="#df0613"/><stop offset="1" stop-color="#e30613"/></linearGradient><linearGradient id="E" x1="44.738" y1="67.808" x2="91.921" y2="50.066" gradientUnits="userSpaceOnUse"><stop stop-color="#9e151a"/><stop offset=".2" stop-color="#c10d16"/><stop offset=".5" stop-color="#d90713"/><stop offset=".6" stop-color="#e30613"/><stop offset=".9" stop-color="#e40f1a"/><stop offset="1" stop-color="#e30613"/></linearGradient><linearGradient id="F" x1="25.287" y1="30.53" x2="11.936" y2="79.69" gradientUnits="userSpaceOnUse"><stop stop-color="#634e42"/><stop offset=".2" stop-color="#6f5c4d"/><stop offset=".4" stop-color="#786655"/><stop offset=".7" stop-color="#7b6a58"/></linearGradient><clipPath id="G"><path fill="#fff" transform="translate(0 .5)" d="M0 0h90.462v84H0z"/></clipPath></defs></svg>