<svg xmlns="http://www.w3.org/2000/svg" width="204" height="71" fill="none" xmlns:v="https://vecta.io/nano"><path d="M160.862 23.443c-1.689-.156-5.848.728-8.292 5.483v-3.534h-3.613v3.872h-3.613-2.444c-.598 0-1.794-.546-1.794-1.923V17.285h-3.639l.104 13.408c.026 1.845-1.663 3.352-3.717 3.352s-3.691-1.481-3.691-3.326l-.052-4.755h-3.588l.104 4.729c0 3.482 3.224 6.392 7.253 6.392s6.681-2.339 7.174-5.405c.442.286.988.442 1.638.442h24.045c0-3.56-.52-8.211-5.927-8.653m-5.562 5.794c1.793-2.39 3.743-3.092 4.939-3.092 2.157 0 2.859 1.715 2.937 3.092h-7.876zm15.051-11.978l.13 14.837h3.613l-.13-14.837h-3.613zM197.983 19h-3.093v2.676h3.093V19zm4.367 0h-3.093v2.676h3.093V19zm.312 4.443h-3.613l.052 4.729c0 1.611-.546 1.091-1.3 1.091h-10.45v-2.209c-.26-3.404-4.341-3.638-4.913-3.638-1.95 0-5.095.987-5.095 4.443s1.742 4.235 4.523 4.235h1.274c-1.092 1.403-3.639 2.313-5.511 2.443l2.443 2.443c3.536-.26 5.979-2.209 6.915-4.885h11.828c2.547 0 3.899-1.247 3.899-3.196l-.052-5.483m-18.924 5.846h-1.456c-1.092 0-1.586-.832-1.586-1.689s.598-1.845 1.69-1.845 1.352.831 1.352 1.663v1.871z" fill="#000"/><mask id="A" maskUnits="userSpaceOnUse" x="89" y="0" width="27" height="26"><path d="M101.309 1.15C94.81 6.918 89.195 16.35 89.195 16.35c10.476 4.417 15.649 8.705 15.649 8.705 4.419-1.169 11.074-7.535 11.074-7.535-2.808-6.496-9.306-13.434-11.36-15.798C103.726.786 103.05.5 102.53.5c-.779 0-1.221.65-1.221.65z" fill="#fff"/></mask><g mask="url(#A)"><path d="M104.042-12.698l-27.01 24.225 24.131 26.883 27.01-24.225-24.131-26.883z" fill="url(#D)"/></g><mask id="B" maskUnits="userSpaceOnUse" x="100" y="17" width="24" height="24"><path d="M115.918 17.519c-6.057 5.301-15.207 9.458-15.207 9.458-1.326 4.573 1.17 12.992 1.17 12.992 3.977.883 16.402-1.325 19.184-2.079 2.807-.728 2.209-2.079 2.209-2.079-2.027-10.004-6.862-18.319-7.356-18.319" fill="#fff"/></mask><g mask="url(#B)"><path d="M120.882 9.487L91.707 20.448l10.719 28.506 29.175-10.961-10.719-28.506z" fill="url(#E)"/></g><mask id="C" maskUnits="userSpaceOnUse" x="81" y="16" width="21" height="25"><path d="M81.657 33.603s-1.17 2.52.728 3.404c0 0 6.499 4.131 19.496 2.962 0 0-2.366-11.355-.442-17.279 0 0-7.383-5.327-12.244-6.34 0 0-6.785 12.836-7.538 17.279" fill="#fff"/></mask><g mask="url(#C)"><path d="M81.96 10.944l-7.749 28.51 26.214 7.119 7.749-28.51-26.214-7.119z" fill="url(#F)"/></g><g fill="#000"><path d="M3.23 68.993h-.702v-5.665H.501v-.65h4.757v.65H3.23v5.665zm3.744 0h-.676v-6.6h.676v2.728c.286-.494.754-.91 1.534-.91s1.716.754 1.716 1.871v2.91h-.676v-2.728c0-.858-.442-1.403-1.248-1.403s-1.352.598-1.352 1.455v2.676h.026z"/><use href="#G"/><path d="M23.896 62.679h.676v6.314h-.546l-3.899-5.171v5.171h-.676v-6.314h.65l3.795 5.067v-5.067z"/><use href="#H"/><use href="#I"/><use href="#J"/><path d="M38.947 69.097c-1.352 0-2.313-1.091-2.313-2.443s.988-2.442 2.34-2.442 2.34 1.091 2.34 2.442-.988 2.443-2.34 2.443m-.026-4.261c-.962 0-1.638.806-1.638 1.819s.702 1.819 1.664 1.819 1.638-.805 1.638-1.819-.728-1.845-1.664-1.845m4.211 4.183h-.676v-4.677h.676v.805c.286-.494.754-.909 1.534-.909s1.716.754 1.716 1.871v2.91h-.676v-2.728c0-.857-.442-1.403-1.248-1.403s-1.352.598-1.352 1.455v2.676h.026z"/><use href="#H" x="21.654"/><path d="M53.556 62.393h-.676v6.6h.676v-6.6zm6.421 3.093c1.352.312 1.976.831 1.976 1.793s-.858 1.793-2.054 1.793-1.742-.338-2.47-1.013l.416-.52c.624.598 1.248.883 2.08.883s1.352-.442 1.352-1.091-.312-.936-1.586-1.221c-1.404-.312-2.028-.779-2.028-1.845s.832-1.741 1.976-1.741 1.508.26 2.132.78l-.39.546c-.572-.468-1.118-.676-1.742-.676s-1.3.442-1.3 1.039.312.935 1.638 1.247m6.421-1.145h.65v4.677h-.65v-.806c-.312.494-.754.91-1.534.91s-1.716-.754-1.716-1.871v-2.91h.676v2.728c0 .858.442 1.403 1.248 1.403s1.352-.598 1.352-1.455v-2.676h-.026zm4.133 6.159c-.754 0-1.43-.208-2.028-.65l.312-.546c.52.39 1.092.598 1.716.598.988 0 1.638-.572 1.638-1.663v-.546c-.39.546-.936.987-1.768.987s-2.106-.831-2.106-2.183 1.04-2.209 2.106-2.209 1.378.442 1.742.935v-.832h.676v3.846c0 1.507-.91 2.287-2.288 2.287m-.026-5.664c-.858 0-1.56.598-1.56 1.585s.728 1.611 1.56 1.611 1.638-.624 1.638-1.585-.806-1.585-1.638-1.585m5.771 5.614c-.754 0-1.43-.208-2.028-.65l.312-.546c.52.39 1.092.598 1.716.598.988 0 1.638-.572 1.638-1.663v-.546c-.39.546-.936.987-1.768.987s-2.106-.831-2.106-2.183 1.04-2.209 2.106-2.209 1.378.442 1.742.935v-.832h.676v3.846c0 1.507-.91 2.287-2.262 2.287m-.052-5.664c-.858 0-1.56.598-1.56 1.585s.728 1.611 1.56 1.611 1.638-.624 1.638-1.585-.806-1.585-1.638-1.585"/><use href="#G" x="68.393"/><path d="M86.622 69.097c-.65 0-1.352-.26-1.846-.676l.338-.494c.494.39 1.014.598 1.56.598s.936-.286.936-.754c0-.494-.52-.676-1.118-.832-.702-.208-1.482-.468-1.482-1.325 0-.831.65-1.351 1.534-1.351s1.144.208 1.612.52l-.312.52c-.416-.286-.884-.442-1.326-.442s-.858.286-.858.676c0 .468.546.624 1.144.831.702.208 1.43.494 1.43 1.325 0 .909-.702 1.429-1.586 1.429"/><use href="#I" x="58.228"/><use href="#J" x="58.228"/><path d="M97.176 69.097c-1.352 0-2.314-1.091-2.314-2.443s.988-2.442 2.34-2.442 2.34 1.091 2.34 2.442-.988 2.443-2.34 2.443m-.026-4.261c-.962 0-1.638.806-1.638 1.819s.702 1.819 1.664 1.819 1.638-.805 1.638-1.819-.728-1.845-1.664-1.845m4.211 4.183h-.676v-4.677h.676v.805c.285-.494.753-.909 1.533-.909s1.716.754 1.716 1.871v2.91h-.676v-2.728c0-.857-.442-1.403-1.248-1.403s-1.351.598-1.351 1.455v2.676h.026zm6.134.104c-.649 0-1.351-.26-1.845-.676l.338-.494c.494.39 1.014.598 1.559.598s.936-.286.936-.754c0-.494-.52-.676-1.118-.832-.701-.208-1.481-.468-1.481-1.325 0-.831.65-1.351 1.533-1.351s1.144.208 1.612.52l-.312.52c-.416-.286-.884-.442-1.326-.442s-.857.286-.857.676c0 .468.545.624 1.143.831.702.208 1.43.494 1.43 1.325 0 .909-.702 1.429-1.586 1.429m9.878.001l-.961-1.013c-.546.624-1.196.987-1.976.987s-1.898-.701-1.898-1.767.546-1.455 1.456-1.845c-.416-.494-.598-.883-.598-1.403 0-.832.65-1.507 1.612-1.507s1.482.624 1.482 1.429-.546 1.325-1.43 1.663l1.378 1.481c.259-.416.519-.883.727-1.403l.572.26c-.26.598-.546 1.143-.884 1.585l1.066 1.117-.52.416h-.026zm-2.989-3.196c-.806.312-1.17.832-1.17 1.351s.52 1.195 1.274 1.195 1.066-.312 1.508-.832l-1.612-1.741v.026zm.572-2.78a.87.87 0 0 0-.91.909c0 .52.156.65.598 1.169.78-.26 1.17-.65 1.17-1.221s-.364-.883-.858-.883m9.41 5.976c-1.742 0-3.042-1.429-3.042-3.274s1.274-3.274 3.068-3.274 1.767.416 2.365 1.013l-.468.52c-.519-.494-1.091-.858-1.897-.858-1.352 0-2.34 1.117-2.34 2.598s1.014 2.624 2.34 2.624 1.378-.338 1.949-.909l.442.468c-.624.676-1.325 1.117-2.417 1.117m5.459-.025c-1.352 0-2.314-1.091-2.314-2.443s.988-2.442 2.34-2.442 2.339 1.091 2.339 2.442-.988 2.443-2.339 2.443m-.026-4.261c-.962 0-1.638.806-1.638 1.819s.702 1.819 1.638 1.819 1.637-.805 1.637-1.819-.727-1.845-1.663-1.845m8.708-.572c1.04 0 1.664.728 1.664 1.871v2.884h-.676v-2.728c0-.909-.442-1.403-1.17-1.403s-1.248.52-1.248 1.455v2.702h-.65v-2.754c0-.883-.441-1.403-1.143-1.403s-1.248.624-1.248 1.481v2.676h-.676v-4.677h.676v.779c.286-.468.702-.883 1.456-.883s1.195.416 1.429.935c.312-.52.806-.935 1.586-.935zm5.459 4.859c-.832 0-1.378-.468-1.716-.987v2.339h-.676v-6.106h.676v.935c.364-.572.884-1.039 1.716-1.039s2.132.883 2.132 2.443-1.066 2.442-2.132 2.442m-.104-4.261c-.832 0-1.612.727-1.612 1.819s.78 1.819 1.612 1.819 1.586-.675 1.586-1.819-.728-1.819-1.586-1.819zm4.211-2.47h-.676v6.6h.676v-6.6zm1.794 2.832l-.208-.572c.494-.234.988-.39 1.638-.39 1.221 0 1.897.65 1.897 1.871v2.858h-.65v-.701a1.95 1.95 0 0 1-1.611.805c-.78 0-1.664-.494-1.664-1.455s.78-1.507 1.924-1.507.987.078 1.377.208v-.156c0-.831-.494-1.273-1.325-1.273s-.936.156-1.352.338m.052 2.365c0 .598.52.935 1.118.935s1.507-.52 1.507-1.273v-.442c-.338-.104-.779-.208-1.325-.208-.832 0-1.3.39-1.3.987z"/><use href="#J" x="120.044"/><path d="M157.613 68.993h-.676v-4.677h.676v.805c.286-.494.754-.909 1.534-.909s1.715.754 1.715 1.871v2.91h-.675v-2.728c0-.857-.442-1.403-1.248-1.403s-1.352.598-1.352 1.455v2.676h.026z"/><use href="#I" x="131.143"/><path d="M167.231 69.097a2.98 2.98 0 0 1-1.845-.676l.338-.494c.494.39 1.013.598 1.559.598s.936-.286.936-.754c0-.494-.52-.676-1.118-.832-.701-.208-1.481-.468-1.481-1.325 0-.831.65-1.351 1.533-1.351s1.144.208 1.612.52l-.312.52c-.416-.286-.884-.442-1.326-.442s-.857.286-.857.676c0 .468.545.624 1.143.831.702.208 1.43.494 1.43 1.325 0 .909-.702 1.429-1.586 1.429m7.695-3.636c1.351.312 1.975.831 1.975 1.793s-.858 1.793-2.079 1.793-1.742-.338-2.47-1.013l.416-.52c.624.598 1.248.883 2.08.883s1.351-.442 1.351-1.091-.312-.936-1.585-1.221c-1.404-.312-2.028-.779-2.028-1.845s.832-1.741 2.002-1.741 1.507.26 2.131.78l-.39.546c-.572-.468-1.117-.676-1.741-.676s-1.3.442-1.3 1.039.312.935 1.638 1.247m5.303 3.689c-.39.961-.806 1.325-1.482 1.325s-.65-.078-.962-.234l.234-.546a1.23 1.23 0 0 0 .702.182c.286 0 .65-.208.91-.883l-2.028-4.651h.728l1.638 3.898 1.429-3.898h.702l-1.871 4.833v-.026zm4.237-.052c-.65 0-1.352-.26-1.846-.676l.338-.494c.494.39 1.014.598 1.56.598s.935-.286.935-.754c0-.494-.519-.676-1.117-.832-.702-.208-1.482-.468-1.482-1.325 0-.831.65-1.351 1.534-1.351s1.143.208 1.611.52l-.312.52c-.416-.286-.883-.442-1.325-.442s-.858.286-.858.676c0 .468.546.624 1.144.831.701.208 1.429.494 1.429 1.325 0 .909-.702 1.429-1.585 1.429"/><use href="#I" x="156.098"/><path d="M192.55 68.5c.624 0 1.04-.26 1.404-.65l.416.39c-.442.52-.988.883-1.846.883-1.222 0-2.235-.987-2.235-2.442s.909-2.443 2.131-2.443 2.08 1.091 2.08 2.468v.208h-3.536c.104 1.013.78 1.585 1.586 1.585zm1.326-2.105c-.078-.857-.546-1.585-1.43-1.585s-1.378.676-1.456 1.585h2.886zm6.94-2.157c1.04 0 1.664.728 1.664 1.871v2.884h-.676v-2.728c0-.909-.442-1.403-1.17-1.403s-1.247.52-1.247 1.455v2.702h-.65v-2.754c0-.883-.442-1.403-1.144-1.403s-1.248.624-1.248 1.481v2.676h-.676v-4.677h.676v.779c.286-.468.702-.883 1.456-.883a1.48 1.48 0 0 1 1.43.935c.312-.52.806-.935 1.585-.935zM8.715 52.753c0 2.546-1.794 4.521-4.133 4.521h-.078c-2.34 0-4.133-1.975-4.133-4.521V51.48h.91v1.429c.156 2.183 1.378 3.482 3.249 3.482s3.301-1.533 3.301-3.924H4.452c.182-2.702 1.508-4.027 3.769-4.027v.805c-1.404 0-2.288.754-2.651 2.287h3.145v1.221zm6.187-.779v1.975c0 2.157-.806 3.196-2.703 3.3v-.884c1.17 0 1.768-.753 1.794-2.235-.286.494-.78.754-1.508.754-1.404 0-2.443-1.221-2.443-2.936s.988-2.91 2.444-2.91 2.392 1.221 2.392 2.962m-.858-.026c0-1.195-.65-2.131-1.586-2.131s-1.508.935-1.508 2.079.65 2.131 1.56 2.131 1.534-.909 1.534-2.079zm5.405 3.118h-1.014a1.61 1.61 0 0 1-1.17-.494c-.364-.364-.546-.909-.546-1.611v-6.47h.91v5.924c0 .624.078 1.039.26 1.325.13.234.39.364.728.416h.806v.935l.026-.026z"/><path d="M31.773 55.093H18.698v-.935h10.242v-.468c0-1.013-.234-1.845-.702-2.443-.546-.727-1.378-1.065-2.443-1.065h-2.625l1.95-3.638h1.066l-1.534 2.728h1.144c1.3 0 2.314.416 3.093 1.247.754.831 1.118 1.897 1.118 3.248v.416h1.742v.935l.026-.026z"/><path d="M46.382 55.092H31.279v-.935h1.196c.806 0 2.833-.572 2.833-1.689v-3.404h.91v3.69c0 .546-.078.987-.208 1.351v.052h1.664c.806 0 1.092-.416 1.092-1.819v-3.274h.884v3.69c0 .572-.078 1.039-.234 1.403h1.534c.962 0 1.274-.416 1.274-1.819v-3.274h.884v3.69c0 .572-.078 1.039-.26 1.403h3.535v.935zm-7.538-6.99h-.91v-1.117h.91v1.117zm.806-1.455h-.91V45.53h.91v1.117zm.858 1.455h-.91v-1.117h.91v1.117z"/><use href="#K"/><use href="#L"/><path d="M58.079 51.974v1.975c0 2.157-.806 3.196-2.704 3.3v-.884c1.17 0 1.768-.753 1.794-2.235-.286.494-.78.754-1.508.754-1.404 0-2.443-1.221-2.443-2.936s.988-2.91 2.444-2.91 2.392 1.221 2.392 2.962m-.832-.026c0-1.195-.65-2.131-1.586-2.131s-1.508.935-1.508 2.079.65 2.131 1.56 2.131 1.534-.909 1.534-2.079zm13.569-2.911v3.69c0 1.559-.624 2.339-1.872 2.339h-3.925c-2.443 0-3.691-1.273-3.691-3.846v-2.183h.884v2.183c0 1.975.91 2.936 2.703 2.936h3.717c.91 0 1.274-.364 1.274-1.819v-3.274h.884l.026-.026zm-5.069-.026h-.91V47.92h.91v1.117zm1.664 0h-.91V47.92h.91v1.117zm7.928 6.055H74.3c-.468 0-.832-.182-1.17-.494-.364-.364-.546-.909-.546-1.611v-6.47h.91v5.924c0 .624.078 1.039.26 1.325.13.234.39.364.728.416h.806v.935l.026-.026z"/><path d="M83.866 53.74v1.351h-8.864v-.935h7.772v-.468c0-2.235-1.144-3.534-3.145-3.534s-1.898.442-2.392 1.325c-.13-.156-.39-.416-.78-.831.728-.935 1.768-1.403 3.171-1.403 2.547 0 4.211 1.741 4.211 4.495m5.772 1.352h-2.21c-.234 1.377-1.118 2.079-2.599 2.183v-.883c1.196 0 1.794-.676 1.794-2.235V49.09h.884v5.093h2.105v.935l.026-.026z"/><path d="M93.744 55.091h-4.419v-.909h.806c.546 0 .91-.182 1.092-.546.13-.26.182-.675.182-1.273v-3.274h.884v3.69c0 .572-.078 1.039-.234 1.403h1.664v.935l.026-.026zm-3.093-6.99h-.91v-1.117h.91v1.117zm1.664 0h-.91v-1.117h.91v1.117z"/><path d="M101.88 55.092h-1.273c-.702 0-1.196-.026-1.456-.078-.468-.104-.962-.312-1.534-.624-.546.338-1.066.546-1.534.624-.26.052-.754.078-1.482.078h-1.274v-.935h2.028c.468 0 .91-.104 1.3-.312-.572-.286-1.04-.702-1.352-1.221s-.468-1.065-.468-1.663.234-1.403.702-1.897c.52-.572 1.196-.858 2.054-.858s1.56.286 2.079.858c.468.52.702 1.143.702 1.897a2.79 2.79 0 0 1-.468 1.663c-.312.546-.78.961-1.352 1.221.39.208.832.312 1.3.312h2.027v.935zm-4.263-1.819c.572-.26 1.014-.598 1.326-1.091.286-.442.442-.909.442-1.403s-.156-.935-.468-1.273c-.312-.364-.754-.546-1.326-.546-1.118 0-1.768.805-1.768 1.793s.13.961.442 1.403c.312.494.78.857 1.352 1.091m-.338-6.184h-.91v-1.117h.91v1.117zm1.664 0h-.91v-1.117h.91v1.117z"/><path d="M111.707 55.091h-3.926c-.494.779-1.195 1.143-2.157 1.143s-1.716-.39-2.21-1.143h-1.897v-.935h1.507c-.052-.286-.104-.572-.104-.909 0-.883.234-1.585.702-2.157.494-.572 1.144-.858 1.976-.858s1.507.286 1.975.858c.442.546.676 1.247.676 2.131s-.026.624-.104.935h3.536v.935h.026zm-4.472-1.949c0-.598-.104-1.065-.337-1.429-.26-.442-.676-.65-1.222-.65a1.53 1.53 0 0 0-1.326.702c-.234.39-.364.883-.364 1.533s.104 1.091.364 1.455c.286.442.728.65 1.274.65 1.066 0 1.611-.753 1.611-2.261z"/><path d="M115.84 55.092h-4.42v-.91h.806c.546 0 .91-.182 1.092-.546.13-.26.182-.676.182-1.273v-5.846h.884v6.236c0 .572-.078 1.039-.234 1.403h1.664v.936h.026z"/><path d="M118.621 46.491v6.236c0 1.559-.624 2.339-1.871 2.339h-1.118v-.91h.832c.546 0 .909-.182 1.091-.546.13-.234.182-.676.182-1.273v-5.846h.884zm14.011 8.601h-.182c-1.169 0-2.079-.702-2.365-1.819 0 2.209-1.898 3.975-4.055 3.975s-4.134-2.079-4.134-4.729v-1.325h.91v1.143c0 2.39 1.248 3.975 3.276 3.975s3.197-1.481 3.197-3.066-.624-1.793-1.664-1.793v-.831s.234-.026.702-.026c.78 0 1.846.831 2.236 1.897.468 1.273.884 1.689 1.845 1.689h.26v.935l-.026-.026zm-6.914 4.261h-.91v-1.117h.91v1.117zm1.689 0h-.909v-1.117h.909v1.117z"/><path d="M136.818 55.091h-4.42v-.909h.806c.546 0 .91-.182 1.092-.546.13-.26.182-.675.182-1.273v-3.274h.884v3.69c0 .572-.078 1.039-.234 1.403h1.664v.935l.026-.026zm-1.404-6.99h-.91v-1.117h.91v1.117z"/><path d="M147.995 55.093h-11.802v-.909h3.848v-7.639h.935l-.208 6.158c.858-2.183 2.574-3.638 4.238-3.638s3.067 1.507 3.067 4.495 0 .987-.078 1.533zm-.884-.935l.026-.832c0-2.105-.832-3.43-2.235-3.43s-3.536 2.053-4.134 4.261h6.317.026zm10.32.934h-3.249c-.26 1.377-1.118 2.079-2.599 2.183v-.883h.104c.805 0 1.351-.442 1.559-1.273h-1.403c-.728 0-1.3-.286-1.768-.858s-.702-1.273-.702-2.157.234-1.585.728-2.157 1.118-.883 1.846-.883c1.429 0 2.287.909 2.287 2.65v2.468h3.145v.909h.052zm-4.055-.935V51.35c0-.39-.104-.728-.338-.987-.26-.312-.624-.468-1.091-.468s-.884.234-1.196.701c-.26.416-.416.883-.416 1.377s.104 1.013.364 1.429c.286.494.702.754 1.196.754h1.481z"/><path d="M160.187 46.491v6.236c0 1.559-.624 2.339-1.872 2.339h-1.118v-.91h.806c.546 0 .91-.182 1.092-.546.13-.234.182-.676.182-1.273v-5.846h.884.026z"/><use href="#L" x="111.049"/><path d="M175.238 52.052c0 1.767-1.066 2.988-2.652 2.988s-2.677-1.221-2.677-2.988.26-1.611.754-2.183h-1.742c-1.17 0-1.846 1.117-1.846 2.91v4.443h-.884v-4.495c0-2.469.91-3.664 2.73-3.664h3.691c1.612 0 2.652 1.169 2.652 2.988m-1.092-.078c0-1.273-.546-2.053-1.534-2.053S171 50.752 171 52.13s.598 2.079 1.586 2.079 1.586-.754 1.586-2.209m7.07 3.092h-2.495c-.468 0-.832-.182-1.17-.494-.364-.364-.546-.909-.546-1.611v-6.47h.91v5.924c0 .624.078 1.039.26 1.325.13.234.39.364.728.416h2.287v.935l.026-.026z"/><path d="M192.732 55.093h-13.595v-.909h3.821v-7.639h.936l-.208 6.158c.858-2.209 2.6-3.638 4.211-3.638s3.068 1.507 3.068 4.495v.598h1.741v.935h.026zm-2.677-.935l.026-.832c0-2.053-.806-3.43-2.236-3.43s-3.535 2.053-4.133 4.261h6.317.026zm-1.898-6.054h-.91v-1.117h.91v1.117z"/><path d="M196.995 55.091h-4.419v-.909h.806c.546 0 .91-.182 1.092-.546.13-.26.182-.675.182-1.273v-3.274h.884v3.69c0 .572-.078 1.039-.234 1.403h1.663v.935l.026-.026zm-1.403-6.99h-.91v-1.117h.91v1.117z"/><use href="#K" x="150.614"/><use href="#L" x="150.613"/><path d="M4.894 19.883H.579v-2.676h11.828v2.676H8.066v11.745H4.894V19.883zm6.499 4.521c.156-2.676 2.574-3.508 4.913-3.508s4.601.468 4.601 2.962v5.431c0 .961.104 1.897.364 2.313H18.36a4.39 4.39 0 0 1-.208-1.013c-.91.961-2.236 1.299-3.509 1.299-1.976 0-3.561-.987-3.561-3.144s1.768-2.936 3.561-3.17c1.768-.26 3.405-.208 3.405-1.377s-.858-1.403-1.872-1.403-1.794.442-1.898 1.585h-2.86l-.026.026zm6.629 2.105c-.494.416-1.508.442-2.392.598-.884.182-1.69.494-1.69 1.533s.832 1.325 1.768 1.325c2.236 0 2.313-1.767 2.313-2.416v-1.065.026zm17.052 5.119h-2.963l-1.846-7.016h-.052l-1.768 7.016h-2.989l-3.301-10.445h3.015l1.924 7.094h.052l1.742-7.094h2.781l1.794 7.068h.026l1.924-7.068h2.963l-3.301 10.446zm4.393-7.224c.156-2.676 2.574-3.508 4.913-3.508s4.601.468 4.601 2.962v5.431c0 .961.104 1.897.364 2.313h-2.911a4.38 4.38 0 0 1-.208-1.013c-.91.961-2.236 1.299-3.509 1.299-1.976 0-3.561-.987-3.561-3.144s1.768-2.936 3.561-3.17c1.768-.26 3.405-.208 3.405-1.377s-.858-1.403-1.872-1.403-1.794.442-1.898 1.585h-2.859l-.026.026zm6.629 2.105c-.494.416-1.508.442-2.392.598-.884.182-1.69.494-1.69 1.533s.832 1.325 1.768 1.325c2.236 0 2.314-1.767 2.314-2.416v-1.065.026zm7.331 1.742c0 1.247 1.066 1.767 2.21 1.767s1.872-.312 1.872-1.325-1.196-1.169-3.249-1.611c-1.664-.364-3.327-.961-3.327-2.78 0-2.676 2.314-3.352 4.549-3.352s4.393.779 4.601 3.326h-2.729c-.078-1.117-.936-1.403-1.95-1.403s-1.586.13-1.586.961 1.612 1.169 3.249 1.559c1.69.39 3.327.987 3.327 2.936 0 2.754-2.392 3.638-4.783 3.638s-4.783-.91-4.913-3.69h2.729v-.026zm18.43 3.377h-2.73v-1.455h-.052c-.728 1.169-1.976 1.741-3.197 1.741-3.041 0-3.821-1.715-3.821-4.313v-6.418h2.859v5.898c0 1.715.494 2.572 1.846 2.572s2.236-.858 2.236-2.988v-5.483h2.859v10.446zm5.121-14.421h-2.859v14.421h2.859V17.207z"/></g><defs><linearGradient id="D" x1="113.994" y1="24.2" x2="95.705" y2="3.807" gradientUnits="userSpaceOnUse"><stop stop-color="#ad1118"/><stop offset=".3" stop-color="#c40c16"/><stop offset=".5" stop-color="#d50814"/><stop offset=".7" stop-color="#df0613"/><stop offset="1" stop-color="#e30613"/></linearGradient><linearGradient id="E" x1="101.865" y1="32.293" x2="124.151" y2="23.913" gradientUnits="userSpaceOnUse"><stop stop-color="#9e151a"/><stop offset=".2" stop-color="#c10d16"/><stop offset=".5" stop-color="#d90713"/><stop offset=".6" stop-color="#e30613"/><stop offset=".9" stop-color="#e40f1a"/><stop offset="1" stop-color="#e30613"/></linearGradient><linearGradient id="F" x1="92.677" y1="14.684" x2="86.371" y2="37.905" gradientUnits="userSpaceOnUse"><stop stop-color="#634e42"/><stop offset=".2" stop-color="#6f5c4d"/><stop offset=".4" stop-color="#786655"/><stop offset=".7" stop-color="#7b6a58"/></linearGradient><path id="G" d="M13.602 68.5c.624 0 1.04-.26 1.404-.65l.416.39c-.442.52-.988.883-1.846.883-1.222 0-2.236-.987-2.236-2.442s.91-2.443 2.158-2.443 2.08 1.091 2.08 2.468v.208h-3.535c.104 1.013.78 1.585 1.586 1.585m1.274-2.105c-.078-.857-.546-1.585-1.43-1.585s-1.378.676-1.456 1.585h2.885z"/><path id="H" d="M26.418 65.225l-.208-.572c.494-.234.988-.39 1.638-.39 1.222 0 1.898.65 1.898 1.871v2.858h-.65v-.701c-.312.416-.832.805-1.612.805s-1.664-.494-1.664-1.455.78-1.507 1.924-1.507.988.078 1.378.208v-.156c0-.831-.494-1.273-1.326-1.273s-.936.156-1.352.338m.052 2.365c0 .598.52.935 1.118.935s1.508-.52 1.508-1.273v-.442c-.338-.104-.78-.208-1.326-.208-.832 0-1.3.39-1.3.987z"/><path id="I" d="M32.033 67.669c0 .572.312.779.754.779s.416-.052.65-.156v.598c-.234.13-.494.208-.806.208-.728 0-1.274-.364-1.274-1.325v-2.806h-.624v-.624h.624V62.94h.676v1.403h1.43v.624h-1.43v2.728-.026z"/><path id="J" d="M34.632 62.549h.754v.779h-.754v-.779zm.052 1.767h.676v4.677h-.676v-4.677z"/><path id="K" d="M49.137 46.491v6.236c0 1.559-.624 2.339-1.872 2.339h-1.118v-.91h.832c.546 0 .91-.182 1.092-.546.13-.234.182-.676.182-1.273v-5.846h.884z"/><path id="L" d="M51.737 46.491h-.884v8.575h.884v-8.575z"/></defs></svg>