<svg width="155" height="150" viewBox="0 0 155 150" fill="none" xmlns="http://www.w3.org/2000/svg">
<g clip-path="url(#clip0_6045_79495)">
<path d="M62.9385 84.6445C61.2734 84.6445 59.9111 86.0068 59.9111 87.6719V98.8125L57.0654 93.5146C54.2803 88.3682 48.0439 86.4004 42.8369 89.0342C38.3867 91.2744 36.0859 96.2393 37.2666 101.113L42.8066 124.091C44.1084 129.449 46.4092 134.444 49.6787 138.895L60.5469 153.759C61.1523 154.576 62.0606 155 62.999 155C63.9375 155 64.2402 154.818 64.7852 154.425C66.1475 153.426 66.4199 151.549 65.4512 150.187L54.583 135.322C51.7979 131.508 49.8301 127.239 48.71 122.668L43.1699 99.6904C42.6553 97.5713 43.6543 95.4219 45.5918 94.4531C47.8623 93.3027 50.5566 94.1504 51.7676 96.3906L60.3047 112.224C60.9707 113.435 62.3633 114.07 63.6953 113.707C65.0273 113.374 65.9658 112.163 65.9658 110.771V87.6416C65.9658 85.9766 64.6035 84.6143 62.9385 84.6143V84.6445Z" fill="white"/>
<path d="M113.889 81.5566C112.103 81.5566 110.407 82.0107 108.954 82.8281C107.471 78.9531 103.717 76.1982 99.3271 76.1982C94.9375 76.1982 95.6641 76.7129 94.1504 77.5908C92.5156 74.0488 88.9434 71.5664 84.7959 71.5664C80.6484 71.5664 81.8291 71.8994 80.5576 72.4746V58.0039C80.5576 52.3125 75.9258 47.7109 70.2646 47.7109C64.6035 47.7109 59.9717 52.3428 59.9717 58.0039V63.2412C59.9717 64.9062 61.334 66.2685 62.999 66.2685C64.6641 66.2685 66.0264 64.9062 66.0264 63.2412V58.0039C66.0264 55.6729 67.9336 53.7656 70.2646 53.7656C72.5957 53.7656 74.5029 55.6729 74.5029 58.0039V100.72C74.5029 102.385 75.8652 103.747 77.5303 103.747C79.1953 103.747 80.5576 102.385 80.5576 100.72V81.8594C80.5576 79.5283 82.4648 77.6211 84.7959 77.6211C87.127 77.6211 89.0342 79.5283 89.0342 81.8594V100.72C89.0342 102.385 90.3965 103.747 92.0615 103.747C93.7266 103.747 95.0889 102.385 95.0889 100.72V86.4609C95.0889 84.1299 96.9961 82.2227 99.3271 82.2227C101.658 82.2227 103.565 84.1299 103.565 86.4609V100.72C103.565 102.385 104.928 103.747 106.593 103.747C108.258 103.747 109.62 102.385 109.62 100.72V91.8496C109.62 89.5185 111.527 87.6113 113.858 87.6113C116.189 87.6113 118.097 89.5185 118.097 91.8496V117.4C118.097 124.212 117.067 130.963 115.039 137.441L110.771 151.064C110.256 152.669 111.164 154.364 112.738 154.849C113.041 154.939 113.344 155 113.646 155C114.948 155 116.129 154.183 116.522 152.881L120.791 139.258C123.001 132.174 124.151 124.817 124.151 117.4V91.8496C124.151 86.1582 119.52 81.5566 113.858 81.5566H113.889Z" fill="white"/>
<path d="M62.9385 72.7168C62.1514 72.7168 61.3643 73.0498 60.7891 73.5947C60.2139 74.1397 59.9111 74.9268 59.9111 75.7441C59.9111 76.5615 60.2441 77.3184 60.7891 77.8936C61.3643 78.4687 62.1211 78.7715 62.9385 78.7715C63.7559 78.7715 64.5127 78.4385 65.0879 77.8936C65.6631 77.3184 65.9658 76.5615 65.9658 75.7441C65.9658 74.9268 65.6328 74.1699 65.0879 73.5947C64.5127 73.0195 63.7559 72.7168 62.9385 72.7168Z" fill="white"/>
<path d="M146.645 41.8984H124.333C119.58 41.8984 115.978 38.2656 115.978 33.543V11.2314C115.978 6.47852 119.61 2.87598 124.333 2.87598H146.645C151.397 2.87598 155 6.50879 155 11.2314V33.543C155 38.2959 151.367 41.8984 146.645 41.8984ZM124.333 8.44629C122.668 8.44629 121.548 9.56641 121.548 11.2314V33.543C121.548 35.208 122.668 36.3281 124.333 36.3281H146.645C148.31 36.3281 149.43 35.208 149.43 33.543V11.2314C149.43 9.56641 148.31 8.44629 146.645 8.44629H124.333Z" fill="white"/>
<path d="M30.667 41.8379H8.35547C3.60254 41.8379 0 38.2051 0 33.4824V11.1709C0 6.41797 3.63281 2.78516 8.35547 2.78516H30.667C35.4199 2.78516 39.0225 6.41797 39.0225 11.1406V33.4521C39.0225 38.2051 35.3896 41.8076 30.667 41.8076V41.8379ZM8.35547 8.38574C6.69043 8.38574 5.57031 9.50586 5.57031 11.1709V33.4824C5.57031 35.1475 6.69043 36.2676 8.35547 36.2676H30.667C32.332 36.2676 33.4521 35.1475 33.4521 33.4824V11.1709C33.4521 9.50586 32.332 8.38574 30.667 8.38574H8.35547Z" fill="white"/>
<path d="M84.3721 41.8379H62.0605C57.3076 41.8379 53.7051 38.2051 53.7051 33.4824V11.1709C53.7051 6.41797 57.3379 2.81543 62.0605 2.81543H78.8018C80.4668 2.81543 81.5869 3.93555 81.5869 5.60059C81.5869 7.26562 80.4668 8.38574 78.8018 8.38574H62.0605C60.3955 8.38574 59.2754 9.50586 59.2754 11.1709V33.4824C59.2754 35.1475 60.3955 36.2676 62.0605 36.2676H84.3721C86.0371 36.2676 87.1572 35.1475 87.1572 33.4824V30.6973C87.1572 29.0322 88.2773 27.9121 89.9424 27.9121C91.6074 27.9121 92.7275 29.0322 92.7275 30.6973V33.4824C92.7275 38.2354 89.0947 41.8379 84.3721 41.8379Z" fill="white"/>
<path d="M76.0166 27.8816C75.1689 27.8816 74.624 27.6091 74.0791 27.0339L65.7236 18.6785C64.6035 17.5584 64.6035 15.8933 65.7236 14.7732C66.8437 13.6531 68.5088 13.6531 69.6289 14.7732L76.0469 21.1912L96.3906 0.847412C97.5107 -0.272705 99.1758 -0.272705 100.296 0.847412C101.416 1.96753 101.416 3.63257 100.296 4.75269L77.9844 27.0642C77.4395 27.6091 76.8643 27.9119 76.0469 27.9119L76.0166 27.8816Z" fill="white"/>
</g>
<defs>
<clipPath id="clip0_6045_79495">
<rect width="155" height="155" fill="white"/>
</clipPath>
</defs>
</svg>
